<svg width="25" height="25" viewBox="0 0 25 25" fill="none" xmlns="http://www.w3.org/2000/svg">
<path d="M5.20831 17.7083H4.16665C3.61411 17.7083 3.08421 17.4888 2.69351 17.0981C2.30281 16.7074 2.08331 16.1775 2.08331 15.625V5.20833C2.08331 4.6558 2.30281 4.12589 2.69351 3.73519C3.08421 3.34449 3.61411 3.125 4.16665 3.125H20.8333C21.3858 3.125 21.9158 3.34449 22.3065 3.73519C22.6972 4.12589 22.9166 4.6558 22.9166 5.20833V15.625C22.9166 16.1775 22.6972 16.7074 22.3065 17.0981C21.9158 17.4888 21.3858 17.7083 20.8333 17.7083H19.7916" fill="#B9B4EE"/>
<path d="M5.20831 17.7083H4.16665C3.61411 17.7083 3.08421 17.4888 2.69351 17.0981C2.30281 16.7074 2.08331 16.1775 2.08331 15.625V5.20833C2.08331 4.6558 2.30281 4.12589 2.69351 3.73519C3.08421 3.34449 3.61411 3.125 4.16665 3.125H20.8333C21.3858 3.125 21.9158 3.34449 22.3065 3.73519C22.6972 4.12589 22.9166 4.6558 22.9166 5.20833V15.625C22.9166 16.1775 22.6972 16.7074 22.3065 17.0981C21.9158 17.4888 21.3858 17.7083 20.8333 17.7083H19.7916" stroke="#2B2B2C" stroke-width="1.5" stroke-linecap="round" stroke-linejoin="round"/>
<path d="M12.5 15.625L17.7084 21.875H7.29169L12.5 15.625Z" fill="#B9B4EE" stroke="#2B2B2C" stroke-width="1.5" stroke-linecap="round" stroke-linejoin="round"/>
</svg>
