<svg width="54" height="54" viewBox="0 0 54 54" fill="none" xmlns="http://www.w3.org/2000/svg">
<path d="M45 15.75H9C6.51472 15.75 4.5 17.7647 4.5 20.25V42.75C4.5 45.2353 6.51472 47.25 9 47.25H45C47.4853 47.25 49.5 45.2353 49.5 42.75V20.25C49.5 17.7647 47.4853 15.75 45 15.75Z" fill="#FFC8A6" stroke="#6F6C90" stroke-width="2" stroke-linecap="round" stroke-linejoin="round"/>
<path d="M36 47.25V11.25C36 10.0565 35.5259 8.91193 34.682 8.06802C33.8381 7.22411 32.6935 6.75 31.5 6.75H22.5C21.3065 6.75 20.1619 7.22411 19.318 8.06802C18.4741 8.91193 18 10.0565 18 11.25V47.25" stroke="#6F6C90" stroke-width="2" stroke-linecap="round" stroke-linejoin="round"/>
</svg>
