<svg width="191" height="154" viewBox="0 0 191 154" fill="none" xmlns="http://www.w3.org/2000/svg">
<path d="M173.487 121.733C174.125 121.773 174.478 120.98 173.995 120.518L173.947 120.327C173.953 120.311 173.96 120.296 173.966 120.281C174.612 118.742 176.799 118.752 177.439 120.294C178.007 121.662 178.73 123.032 178.908 124.479C178.988 125.117 178.952 125.768 178.811 126.394C180.142 123.487 180.842 120.312 180.842 117.12C180.842 116.317 180.798 115.515 180.708 114.715C180.634 114.06 180.533 113.41 180.401 112.765C179.689 109.281 178.146 105.963 175.921 103.191C174.852 102.607 173.96 101.693 173.421 100.597C173.227 100.202 173.076 99.7772 173.004 99.3442C173.126 99.3602 173.463 97.5064 173.371 97.3927C173.541 97.1353 173.844 97.0073 174.03 96.7562C174.951 95.507 176.22 95.7251 176.883 97.4226C178.299 98.1371 178.312 99.322 177.444 100.462C176.891 101.187 176.815 102.168 176.33 102.944C176.38 103.008 176.432 103.07 176.482 103.134C177.397 104.307 178.188 105.568 178.855 106.893C178.666 105.42 178.945 103.647 179.419 102.503C179.959 101.2 180.972 100.103 181.863 98.9764C182.934 97.6235 185.13 98.2139 185.318 99.929C185.32 99.9456 185.322 99.9622 185.324 99.9788C185.191 100.053 185.062 100.133 184.935 100.217C184.212 100.695 184.462 101.815 185.318 101.947L185.338 101.95C185.29 102.427 185.208 102.9 185.088 103.365C186.232 107.788 183.763 109.399 180.237 109.471C180.16 109.511 180.084 109.551 180.006 109.589C180.363 110.594 180.648 111.626 180.86 112.672C181.049 113.596 181.181 114.529 181.255 115.467C181.347 116.651 181.339 117.84 181.239 119.021L181.245 118.979C181.498 117.678 182.205 116.463 183.23 115.621C184.758 114.366 186.917 113.904 188.565 112.895C189.359 112.409 190.376 113.037 190.237 113.957L190.23 114.001C189.985 114.1 189.746 114.216 189.514 114.346C189.382 114.421 189.252 114.5 189.125 114.584C188.402 115.062 188.652 116.182 189.509 116.314L189.528 116.317C189.542 116.319 189.554 116.321 189.568 116.323C189.147 117.323 188.56 118.251 187.826 119.051C187.111 122.912 184.04 123.278 180.754 122.154H180.752C180.393 123.718 179.868 125.247 179.194 126.704H173.626C173.607 126.642 173.589 126.578 173.571 126.516C174.085 126.548 174.604 126.518 175.111 126.424C174.698 125.917 174.285 125.406 173.872 124.9C173.862 124.89 173.854 124.88 173.846 124.87C173.636 124.61 173.425 124.353 173.215 124.094L173.215 124.093C173.202 123.297 173.298 122.503 173.487 121.733Z" fill="#F2F2F2"/>
<path d="M100.297 142.716C83.8295 142.716 68.2904 137.542 55.3594 127.753L55.7538 127.266C68.5713 136.969 83.974 142.098 100.297 142.098C116.632 142.098 132.044 136.962 144.867 127.245L145.262 127.731C132.325 137.534 116.777 142.716 100.297 142.716Z" fill="#3F3D56"/>
<path d="M16.7747 121.733C16.1364 121.773 15.7837 120.98 16.2666 120.518L16.3146 120.327C16.3083 120.311 16.3019 120.296 16.2955 120.281C15.65 118.742 13.4625 118.752 12.8225 120.294C12.2545 121.662 11.5313 123.032 11.3533 124.479C11.2735 125.117 11.3094 125.768 11.4511 126.394C10.1201 123.487 9.4197 120.312 9.4197 117.12C9.4197 116.317 9.46361 115.515 9.55339 114.715C9.62723 114.06 9.72899 113.41 9.8607 112.765C10.5731 109.281 12.1155 105.963 14.3404 103.191C15.41 102.607 16.3019 101.693 16.8407 100.597C17.0342 100.202 17.1859 99.7772 17.2577 99.3442C17.136 99.3602 16.7988 97.5064 16.8906 97.3927C16.721 97.1353 16.4174 97.0073 16.2321 96.7562C15.3107 95.507 14.0413 95.7251 13.3786 97.4226C11.963 98.1371 11.9493 99.322 12.8179 100.462C13.3705 101.187 13.4465 102.168 13.9314 102.944C13.8815 103.008 13.8296 103.07 13.7797 103.134C12.8649 104.307 12.0737 105.568 11.4067 106.893C11.5952 105.42 11.3169 103.647 10.8424 102.503C10.3023 101.2 9.29002 100.103 8.39855 98.9764C7.32775 97.6235 5.13197 98.2139 4.94332 99.929C4.94149 99.9456 4.93972 99.9622 4.93797 99.9788C5.07038 100.053 5.20011 100.133 5.32682 100.217C6.04959 100.695 5.7998 101.815 4.9434 101.947L4.92401 101.95C4.9719 102.427 5.05371 102.9 5.17343 103.365C4.02978 107.788 6.49883 109.399 10.0243 109.471C10.1021 109.511 10.178 109.551 10.2558 109.589C9.8986 110.594 9.61324 111.626 9.40174 112.672C9.21218 113.596 9.08047 114.529 9.00665 115.467C8.91485 116.651 8.92284 117.84 9.02262 119.021L9.01662 118.979C8.76322 117.678 8.05683 116.463 7.03117 115.621C5.50325 114.366 3.34459 113.904 1.69624 112.895C0.902773 112.409 -0.113998 113.037 0.0244826 113.957L0.0312237 114.001C0.276658 114.1 0.516102 114.216 0.747575 114.346C0.879988 114.421 1.00971 114.5 1.13642 114.584C1.8592 115.062 1.60941 116.182 0.753003 116.314L0.733595 116.317C0.719631 116.319 0.707653 116.321 0.693708 116.323C1.11474 117.323 1.70138 118.251 2.4357 119.051C3.15079 122.912 6.22213 123.278 9.50749 122.154H9.5095C9.86867 123.718 10.3935 125.247 11.0679 126.704H16.6352C16.6551 126.642 16.6731 126.578 16.691 126.516C16.1762 126.548 15.6574 126.518 15.1506 126.424C15.5636 125.917 15.9767 125.406 16.3897 124.9C16.3997 124.89 16.4077 124.88 16.4157 124.87C16.6252 124.61 16.8367 124.353 17.0462 124.094L17.0463 124.093C17.0594 123.297 16.9638 122.503 16.7747 121.733Z" fill="#F2F2F2"/>
<path d="M46.5471 127.482L46.2874 127.786C36.1476 119.139 30.332 106.541 30.332 93.2231C30.332 81.092 35.0559 69.6873 43.6334 61.1097C52.211 52.5322 63.6157 47.8083 75.7468 47.8083C87.8779 47.8083 99.2826 52.5322 107.86 61.1097C116.438 69.6873 121.162 81.092 121.162 93.2231C121.162 106.541 115.346 119.139 105.206 127.786L104.947 127.482" fill="#F2F2F2"/>
<path d="M145.954 127.305L145.553 126.835C161.073 113.598 169.975 94.3157 169.975 73.9318C169.975 35.6025 138.792 4.4194 100.462 4.4194C62.133 4.4194 30.9499 35.6025 30.9499 73.9318C30.9499 94.3157 39.8512 113.598 55.3716 126.835L54.9706 127.305C39.3125 113.951 30.332 94.4971 30.332 73.9318C30.332 55.1987 37.6268 37.5874 50.8723 24.3418C64.1179 11.0962 81.7293 3.80151 100.462 3.80151C119.195 3.80151 136.807 11.0962 150.052 24.3418C163.298 37.5874 170.593 55.1987 170.593 73.9318C170.593 94.4971 161.612 113.951 145.954 127.305Z" fill="#3F3D56"/>
<path d="M122.035 127.181C122.035 127.385 122.199 127.549 122.403 127.549H189.842C190.046 127.549 190.21 127.385 190.21 127.181C190.21 126.977 190.046 126.814 189.842 126.814H122.403C122.199 126.814 122.035 126.977 122.035 127.181Z" fill="#CCCCCC"/>
<path d="M100.77 4.1106H100.152V25.5519H100.77V4.1106Z" fill="#3F3D56"/>
<path d="M52.4841 72.9126H31.043V73.5305H52.4841V72.9126Z" fill="#3F3D56"/>
<path d="M54.6858 21.1593L54.207 21.55L67.7638 38.1614L68.2425 37.7706L54.6858 21.1593Z" fill="#3F3D56"/>
<path d="M60.6864 101.73L44.0781 115.291L44.4688 115.77L61.0771 102.209L60.6864 101.73Z" fill="#3F3D56"/>
<path d="M169.883 72.9126H148.441V73.5305H169.883V72.9126Z" fill="#3F3D56"/>
<path d="M146.235 21.1588L132.68 37.771L133.158 38.1617L146.714 21.5495L146.235 21.1588Z" fill="#3F3D56"/>
<path d="M140.238 101.732L139.848 102.211L156.459 115.768L156.85 115.289L140.238 101.732Z" fill="#3F3D56"/>
<path d="M100.463 80.4198C105.24 80.4198 109.113 76.5468 109.113 71.7693C109.113 66.9918 105.24 63.1189 100.463 63.1189C95.6854 63.1189 91.8125 66.9918 91.8125 71.7693C91.8125 76.5468 95.6854 80.4198 100.463 80.4198Z" fill="#3F3D56"/>
<path d="M140.316 104.826C142.022 104.826 143.405 103.443 143.405 101.737C143.405 100.03 142.022 98.6472 140.316 98.6472C138.61 98.6472 137.227 100.03 137.227 101.737C137.227 103.443 138.61 104.826 140.316 104.826Z" fill="#3F3D56"/>
<path d="M147.113 77.0212C148.819 77.0212 150.202 75.638 150.202 73.9317C150.202 72.2255 148.819 70.8423 147.113 70.8423C145.407 70.8423 144.023 72.2255 144.023 73.9317C144.023 75.638 145.407 77.0212 147.113 77.0212Z" fill="#3F3D56"/>
<path d="M132.285 41.1838C133.991 41.1838 135.374 39.8006 135.374 38.0943C135.374 36.3881 133.991 35.0049 132.285 35.0049C130.579 35.0049 129.195 36.3881 129.195 38.0943C129.195 39.8006 130.579 41.1838 132.285 41.1838Z" fill="#3F3D56"/>
<path d="M100.152 29.444C101.858 29.444 103.241 28.0608 103.241 26.3546C103.241 24.6483 101.858 23.2651 100.152 23.2651C98.4457 23.2651 97.0625 24.6483 97.0625 26.3546C97.0625 28.0608 98.4457 29.444 100.152 29.444Z" fill="#3F3D56"/>
<path d="M68.3316 41.1838C70.0379 41.1838 71.4211 39.8006 71.4211 38.0943C71.4211 36.3881 70.0379 35.0049 68.3316 35.0049C66.6254 35.0049 65.2422 36.3881 65.2422 38.0943C65.2422 39.8006 66.6254 41.1838 68.3316 41.1838Z" fill="#3F3D56"/>
<path d="M52.5777 76.0944C54.284 76.0944 55.6672 74.7112 55.6672 73.005C55.6672 71.2987 54.284 69.9155 52.5777 69.9155C50.8715 69.9155 49.4883 71.2987 49.4883 73.005C49.4883 74.7112 50.8715 76.0944 52.5777 76.0944Z" fill="#3F3D56"/>
<path d="M61.2262 104.517C62.9324 104.517 64.3156 103.134 64.3156 101.428C64.3156 99.7216 62.9324 98.3384 61.2262 98.3384C59.5199 98.3384 58.1367 99.7216 58.1367 101.428C58.1367 103.134 59.5199 104.517 61.2262 104.517Z" fill="#3F3D56"/>
<path d="M83.4879 75.4897C85.1941 75.4897 86.5773 74.1065 86.5773 72.4002C86.5773 70.694 85.1941 69.3108 83.4879 69.3108C81.7816 69.3108 80.3984 70.694 80.3984 72.4002C80.3984 74.1065 81.7816 75.4897 83.4879 75.4897Z" fill="#3F3D56"/>
<path d="M154.788 67.0584L85.6489 70.0359C84.4556 70.0872 83.5299 71.0962 83.5813 72.2895L83.5813 72.2895C83.6327 73.4828 84.6417 74.4085 85.835 74.3571L154.974 71.3796C156.168 71.3282 157.093 70.3193 157.042 69.126C156.991 67.9327 155.982 67.007 154.788 67.0584Z" fill="#706BAC"/>
<path d="M124.216 151.146L120.612 151.145L118.898 137.247L124.216 137.248L124.216 151.146Z" fill="#A0616A"/>
<path d="M111.87 151.064C111.758 151.253 111.699 151.863 111.699 152.083C111.699 152.758 112.246 153.306 112.922 153.306H124.081C124.541 153.306 124.915 152.932 124.915 152.471V152.007C124.915 152.007 125.467 150.611 124.33 148.89C124.33 148.89 122.918 150.237 120.807 148.127L120.185 146.999L115.679 150.294L113.182 150.601C112.636 150.669 112.151 150.591 111.87 151.064Z" fill="#2F2E41"/>
<path d="M143.188 151.146L139.585 151.145L137.871 137.247L143.189 137.248L143.188 151.146Z" fill="#A0616A"/>
<path d="M130.843 151.064C130.731 151.253 130.672 151.863 130.672 152.083C130.672 152.758 131.219 153.306 131.895 153.306H143.053C143.514 153.306 143.888 152.932 143.888 152.471V152.007C143.888 152.007 144.44 150.611 143.303 148.89C143.303 148.89 141.891 150.237 139.78 148.127L139.158 146.999L134.652 150.294L132.155 150.601C131.609 150.669 131.124 150.591 130.843 151.064Z" fill="#2F2E41"/>
<path d="M151.565 39.2682L151.947 55.5909L148.414 70.2819L145.125 69.1889L146.083 55.8057L145.24 37.7722L151.565 39.2682Z" fill="#A0616A"/>
<path d="M148.485 72.6274C148.79 70.5223 148.024 68.669 146.774 68.4879C145.524 68.3068 144.264 69.8665 143.959 71.9716C143.654 74.0767 144.419 75.93 145.669 76.1111C146.919 76.2922 148.18 74.7325 148.485 72.6274Z" fill="#A0616A"/>
<path d="M143.25 24.5017C143.25 24.5017 149.312 24.4879 150.336 28.0399C151.4 31.7332 153.098 45.5082 152.364 45.5089L144.795 46.4655L143.25 24.5017Z" fill="#FF6C11"/>
<path d="M119.822 41.0076L116.482 56.9894L109.701 70.4922L106.746 68.68L110.723 55.8652L115.856 38.1125L119.822 41.0076Z" fill="#A0616A"/>
<path d="M109.237 72.7927C110.013 70.8121 109.689 68.8331 108.513 68.3726C107.337 67.912 105.755 69.1442 104.979 71.1248C104.203 73.1053 104.528 75.0843 105.704 75.5449C106.879 76.0055 108.462 74.7733 109.237 72.7927Z" fill="#A0616A"/>
<path d="M118.742 25.1589C118.742 25.1589 122.057 26.6372 122.984 30.2157C123.827 33.4708 125.912 47.7949 119.787 47.1225L112.063 46.5046C112.008 38.9022 115.29 31.7342 118.742 25.1589Z" fill="#FF6C11"/>
<path d="M117.763 71.7692L116.527 82.8912L117.145 114.143L118.381 143.444H124.917L132.283 89.9969L137.061 143.444H144.651L146.804 107.298C146.804 107.298 148.349 73.6229 145.568 70.8424C142.788 68.0619 117.763 71.7692 117.763 71.7692Z" fill="#2F2E41"/>
<path d="M138.308 18.7852H128.187L125.95 21.8746C125.95 21.8746 121.625 22.4925 118.844 25.273L118.535 54.9316L116.527 74.3257L146.801 73.4682L144.95 62.8097L146.184 25.4007C146.184 25.4007 142.942 21.5657 140.779 22.1835L138.308 18.7852Z" fill="#FF6C11"/>
<path d="M130.678 17.1335C134.861 17.1335 138.251 13.743 138.251 9.56064C138.251 5.37827 134.861 1.98779 130.678 1.98779C126.496 1.98779 123.105 5.37827 123.105 9.56064C123.105 13.743 126.496 17.1335 130.678 17.1335Z" fill="#A0616A"/>
<path d="M137.184 2.50894C136.337 1.76284 135.174 1.33332 134.065 1.40944C133.392 1.45558 132.739 1.24412 132.143 0.931161C132.102 0.909974 132.061 0.890684 132.019 0.873398C131.643 0.717863 131.224 0.700436 130.817 0.710304C130.075 0.7283 129.197 -0.0159248 128.616 1.01618C126.417 0.601966 126.214 1.8801 125.19 2.63328C124.9 2.46221 123.025 2.77385 122.827 3.08164C122.677 3.31603 122.572 3.55483 122.501 3.78672C122.456 3.93547 122.73 4.47817 122.71 4.61823C122.689 4.7583 122.373 4.49573 122.37 4.62115C122.363 4.95685 122.41 5.22934 122.449 5.38131C122.55 5.76917 121.52 5.27227 121.182 5.4875C120.844 5.70274 121.188 6.6986 120.858 6.92508C120.464 7.19528 120.725 7.49394 121.068 7.8471C121.305 8.09049 121.581 8.35976 121.709 8.66343C122.023 9.40775 120.301 10.0673 121.093 9.91002C121.911 9.74769 122.178 11.0201 122.865 10.5494C124.421 9.4845 124.365 9.57188 125.723 10.8799C126.1 11.2431 126.841 9.82077 127.34 9.98038C128.279 10.2812 129.047 11.2892 129.667 12.8131C129.755 13.0287 128.923 16.5475 128.884 16.7771C128.795 17.3122 131.287 16.1049 131.28 16.6885C131.271 17.4587 132.64 16.4878 133.034 17.1629C133.084 17.1014 135.861 15.8383 135.994 15.7402L137.919 13.8802C139.18 11.7215 139.662 9.11799 139.256 6.65088C139 5.09703 138.366 3.54971 137.184 2.50894Z" fill="#2F2E41"/>
<path d="M100.098 153.442C100.098 153.646 100.261 153.809 100.465 153.809H167.905C168.109 153.809 168.272 153.646 168.272 153.442C168.272 153.238 168.109 153.074 167.905 153.074H100.465C100.261 153.074 100.098 153.238 100.098 153.442Z" fill="#CCCCCC"/>
<path d="M0 127.181C0 127.385 0.16375 127.549 0.367662 127.549H67.807C68.0109 127.549 68.1747 127.385 68.1747 127.181C68.1747 126.977 68.0109 126.814 67.807 126.814H0.367662C0.16375 126.814 0 126.977 0 127.181Z" fill="#CCCCCC"/>
</svg>
