<svg width="190" height="154" viewBox="0 0 190 154" fill="none" xmlns="http://www.w3.org/2000/svg">
<path d="M108.238 135.523C106.924 133.683 105.145 132.337 102.909 131.833C100.96 131.394 98.9548 131.469 96.9728 131.484L71.9125 131.677C69.7663 131.694 67.7085 133.553 67.8082 135.782C67.9071 137.991 69.612 139.904 71.9125 139.886C79.2535 139.829 86.5944 139.773 93.9353 139.716C95.6659 139.703 97.3976 139.672 99.1284 139.677C99.517 139.679 99.9041 139.699 100.292 139.704C100.386 139.705 100.454 139.704 100.502 139.702C100.514 139.705 100.524 139.709 100.54 139.713C100.743 139.769 100.95 139.807 101.154 139.86C101.083 139.862 101.286 139.989 101.389 140.032C101.403 140.06 101.433 140.109 101.483 140.185C101.552 140.315 101.759 140.713 101.767 140.7C102.078 141.485 102.334 142.29 102.534 143.11C103.011 144.917 103.115 145.295 103.184 146.991C103.271 149.134 105.01 151.198 107.288 151.096C109.438 150.999 111.486 149.289 111.393 146.991C111.236 143.119 110.556 138.77 108.238 135.523Z" fill="#E6E6E6"/>
<path d="M73.3872 144.785C72.9165 141.932 72.4548 139.078 71.975 136.227C71.4881 133.335 70.4937 130.687 68.2431 128.789C67.6418 128.282 67.0182 127.808 66.3921 127.336C66.1719 127.17 65.9521 127.004 65.7345 126.835C65.7215 126.824 65.7132 126.818 65.7019 126.809C65.678 126.789 65.6493 126.764 65.6107 126.732C64.6727 125.938 63.7663 125.108 62.903 124.227C62.1363 123.444 61.4031 122.628 60.7034 121.779C60.5285 121.566 60.3559 121.352 60.1856 121.136C60.1562 121.099 59.9984 120.895 59.8945 120.762C59.7978 120.629 59.621 120.388 59.5913 120.346C59.3923 120.065 59.1968 119.781 59.0049 119.494C57.6976 117.536 56.5657 115.466 55.6221 113.308C55.5286 113.094 55.4372 112.879 55.3481 112.662C55.3242 112.596 55.2932 112.511 55.2521 112.398C55.062 111.876 54.8722 111.353 54.6984 110.824C54.329 109.701 54.0114 108.56 53.7457 107.403C53.6143 106.832 53.496 106.258 53.3908 105.681C53.3366 105.384 53.2859 105.087 53.2387 104.789C53.2309 104.739 53.1848 104.418 53.1576 104.236C53.1376 104.053 53.1003 103.73 53.0952 103.68C53.0652 103.38 53.0385 103.079 53.0152 102.778C52.9627 102.101 52.9272 101.423 52.9088 100.743C52.8772 99.5355 52.8988 98.328 52.9736 97.1206C53.0162 96.4422 53.0768 95.7655 53.1515 95.0901C53.156 95.0486 53.1595 95.0156 53.1628 94.9859C53.1673 94.9557 53.1725 94.9215 53.1788 94.8788C53.234 94.5056 53.2922 94.1329 53.3572 93.7613C53.6033 92.3505 53.9235 90.9537 54.3164 89.5765C54.5024 88.9252 54.7044 88.2792 54.9225 87.6384C55.0197 87.354 55.12 87.0706 55.2233 86.7883C55.2166 86.8066 55.5266 86.0147 55.5307 85.9881C56.7607 83.082 58.7726 80.4326 58.7753 77.1313C58.7772 74.8962 56.8862 72.755 54.671 72.8583C53.5665 72.8999 52.5213 73.3686 51.7556 74.1657C50.99 74.9628 50.5637 76.0261 50.5666 77.1313C50.5666 77.1815 50.5663 77.2243 50.5662 77.2659C50.5456 77.3355 50.5283 77.3935 50.5127 77.4449C50.2729 77.9661 49.979 78.4615 49.7157 78.9698C48.9948 80.361 48.3794 81.7979 47.7948 83.2558C46.8378 85.6301 46.1053 88.0888 45.6069 90.5996C44.5234 96.1011 44.4393 101.753 45.3586 107.284C46.95 116.984 52.1979 126.269 59.4938 132.51C60.127 133.052 60.7755 133.575 61.4302 134.088C61.7012 134.3 61.9743 134.508 62.2489 134.715C62.3787 134.813 62.9163 135.237 62.6798 135.032C63.1883 135.466 63.4024 135.684 63.533 136.004C63.5519 136.078 63.5777 136.178 63.6127 136.314C63.7047 136.675 63.7922 137.035 63.8648 137.4C64.4999 140.594 64.9413 143.842 65.4717 147.057C65.8363 149.265 68.5556 150.703 70.5206 150.041C72.8078 149.27 73.7779 147.152 73.3872 144.785Z" fill="#E6E6E6"/>
<path d="M108.652 153.069C106.928 153.074 105.273 152.394 104.05 151.18C102.826 149.966 102.134 148.316 102.126 146.592V141.91C97.2241 142.459 80.4387 142.332 75.6272 141.559V146.405C75.6143 148.127 74.921 149.774 73.6986 150.988C72.4761 152.201 70.8236 152.882 69.1012 152.882C67.3789 152.882 65.7263 152.201 64.5039 150.988C63.2814 149.774 62.5882 148.127 62.5752 146.405V136.89C56.0585 133.27 50.6258 127.976 46.8379 121.555C43.0501 115.134 41.0442 107.819 41.0273 100.364C41.0273 87.5815 46.8204 75.6572 56.9212 67.6487C63.4886 62.4241 71.4679 59.282 79.8344 58.626C80.97 58.5369 82.1125 58.4918 83.2304 58.4918C87.1687 58.4918 104.937 59.1002 109.395 60.3828L119.561 50.2959C119.71 50.1456 119.901 50.0432 120.109 50.0018C120.317 49.9604 120.532 49.9818 120.728 50.0633C120.925 50.1417 121.094 50.2779 121.212 50.454C121.33 50.6301 121.393 50.8379 121.391 51.0501V52.6538L123.37 50.6935C123.519 50.543 123.71 50.4405 123.918 50.399C124.126 50.3575 124.341 50.3789 124.536 50.4605C124.734 50.5389 124.903 50.6751 125.021 50.8513C125.14 51.0275 125.202 51.2353 125.2 51.4476V69.3695C130.301 73.968 134.189 79.7538 136.519 86.2142C138.849 92.6745 139.549 99.6099 138.558 106.406C137.567 113.201 134.915 119.648 130.836 125.173C126.758 130.699 121.38 135.133 115.178 138.083V146.592C115.169 148.316 114.478 149.966 113.254 151.18C112.031 152.394 110.376 153.074 108.652 153.069ZM102.639 141.328V146.592C102.652 148.178 103.291 149.695 104.417 150.812C105.544 151.929 107.066 152.556 108.652 152.556C110.238 152.556 111.76 151.929 112.886 150.812C114.013 149.695 114.652 148.178 114.665 146.592V137.759L114.811 137.69C121.77 134.388 127.678 129.221 131.878 122.765C137.23 114.526 139.456 104.643 138.153 94.9045C136.849 85.1664 132.103 76.2165 124.772 69.6749L124.687 69.5983V51.4476C124.689 51.3373 124.657 51.2291 124.595 51.1376C124.534 51.0461 124.446 50.9756 124.343 50.9357C124.241 50.892 124.128 50.8802 124.019 50.9019C123.91 50.9235 123.81 50.9776 123.732 51.0571L120.878 53.8841V51.0501C120.88 50.9398 120.848 50.8316 120.786 50.74C120.724 50.6485 120.636 50.5781 120.534 50.5381C120.431 50.4945 120.318 50.4828 120.209 50.5046C120.1 50.5265 119.999 50.5807 119.922 50.6604L109.539 60.9633L109.391 60.917C105.247 59.6199 87.1986 59.0049 83.2304 59.0049C82.1258 59.0049 80.9968 59.0495 79.8747 59.1375C71.6099 59.7855 63.7275 62.8894 57.24 68.0507C47.2626 75.9613 41.5403 87.7391 41.5403 100.364C41.5574 107.753 43.5525 115.002 47.3185 121.36C51.0845 127.717 56.4839 132.95 62.9559 136.514L63.0883 136.588V146.405C63.1015 147.991 63.7408 149.507 64.867 150.624C65.9933 151.741 67.5151 152.368 69.1012 152.368C70.6873 152.368 72.2092 151.741 73.3354 150.624C74.4616 149.507 75.1009 147.991 75.1142 146.405V140.944L75.4181 141.002C79.742 141.815 97.9489 141.943 102.349 141.366L102.639 141.328Z" fill="#3F3D56"/>
<path d="M73.8773 30.5566L45.4699 39.0937C44.5664 39.3663 43.808 39.9864 43.3614 40.8179C42.9148 41.6493 42.8166 42.624 43.0882 43.5278C43.3598 44.4317 43.979 45.1908 44.81 45.6383C45.6409 46.0858 46.6155 46.1852 47.5196 45.9146L72.3792 38.4421L72.9 38.2856C73.0053 35.602 73.7334 32.9797 75.0265 30.6259C74.8642 30.5528 74.6908 30.5077 74.5135 30.4925C74.2993 30.4717 74.0831 30.4935 73.8773 30.5566Z" fill="#FF6C11"/>
<path d="M47.0273 47.7347C46.6502 47.7338 46.283 47.6144 45.9774 47.3934C45.6719 47.1724 45.4435 46.861 45.3246 46.5031L43.5482 41.1428C43.474 40.919 43.4446 40.6827 43.4618 40.4475C43.4789 40.2123 43.5422 39.9828 43.648 39.772C43.7539 39.5613 43.9002 39.3735 44.0786 39.2193C44.2571 39.0651 44.4641 38.9476 44.688 38.8734L67.8087 31.2111C68.0325 31.1369 68.2688 31.1075 68.504 31.1246C68.7391 31.1417 68.9687 31.205 69.1794 31.3108C69.3901 31.4166 69.5779 31.5629 69.7321 31.7413C69.8863 31.9197 70.0039 32.1267 70.0781 32.3505L71.8544 37.7108C72.0022 38.1517 71.9726 38.6328 71.7718 39.0522C71.5711 39.4716 71.2149 39.7964 70.7788 39.9578C70.7575 39.9658 70.7359 39.9733 70.7141 39.9804L47.594 47.6426C47.4112 47.7035 47.2199 47.7346 47.0273 47.7347Z" fill="#2F2E41"/>
<path d="M90.3277 21.0369C85.6613 21.0387 81.1786 22.8562 77.8286 26.1047C74.4786 29.3532 72.5241 33.7778 72.3787 38.4419C72.3736 38.6241 72.3711 38.8088 72.3711 38.9935C72.3711 42.5449 73.4242 46.0166 75.3973 48.9696C77.3704 51.9225 80.1748 54.2241 83.456 55.5832C86.7371 56.9423 90.3476 57.2979 93.8308 56.605C97.3141 55.9121 100.514 54.2019 103.025 51.6907C105.536 49.1794 107.246 45.9798 107.939 42.4966C108.632 39.0134 108.276 35.4029 106.917 32.1218C105.558 28.8406 103.257 26.0362 100.304 24.0631C97.3509 22.09 93.8791 21.0369 90.3277 21.0369ZM90.3277 56.437C85.7028 56.4322 81.2688 54.5928 77.9986 51.3226C74.7283 48.0523 72.889 43.6183 72.8841 38.9935C72.8841 38.7549 72.8893 38.5189 72.8995 38.2854C73.0384 34.8685 74.1787 31.5678 76.1785 28.7937C78.1783 26.0196 80.9494 23.8946 84.1472 22.6828C87.3451 21.471 90.8286 21.2259 94.1646 21.9781C97.5006 22.7302 100.542 24.4464 102.91 26.9132C105.279 29.3799 106.87 32.4885 107.486 35.8524C108.102 39.2162 107.715 42.6869 106.375 45.8328C105.034 48.9788 102.798 51.6612 99.9449 53.5466C97.0918 55.432 93.7474 56.4371 90.3277 56.437Z" fill="#3F3D56"/>
<path d="M105.461 38.9934C105.461 43.0074 103.867 46.857 101.028 49.6954C98.1899 52.5337 94.3403 54.1283 90.3262 54.1283C86.3122 54.1283 82.4626 52.5337 79.6243 49.6954C76.786 46.857 75.1914 43.0074 75.1914 38.9934C75.1914 38.5137 75.2145 38.0417 75.258 37.5749C75.6228 33.7009 77.4655 30.1163 80.4036 27.5652C83.3418 25.0142 87.1495 23.6928 91.0363 23.8753C94.9231 24.0579 98.5902 25.7304 101.276 28.5456C103.962 31.3608 105.461 35.1024 105.461 38.9934Z" fill="#E6E6E6"/>
<path d="M94.8362 39.9991C94.4693 39.5168 93.9867 39.1347 93.433 38.8884C92.7502 38.6006 92.0449 38.3689 91.3244 38.1958V34.076C92.432 34.243 93.4707 34.7166 94.3231 35.4433L95.1594 33.6604C94.6784 33.2319 94.1263 32.8908 93.5279 32.6523C92.8646 32.3837 92.1684 32.2051 91.4578 32.1213V30.0332H89.5211V32.1418C88.7732 32.2258 88.0518 32.4681 87.4048 32.8524C86.8203 33.1983 86.3282 33.6807 85.9707 34.2581C85.6295 34.8217 85.4527 35.4694 85.4603 36.1282C85.427 36.8421 85.6338 37.5465 86.0477 38.1291C86.4287 38.6334 86.9319 39.0325 87.5098 39.2885C88.2036 39.5848 88.921 39.8225 89.6545 39.9991V43.947C88.3475 43.8484 87.1021 43.3515 86.0862 42.5233L85.25 44.3087C85.818 44.7783 86.464 45.1447 87.1585 45.3912C87.9196 45.6636 88.7146 45.8293 89.5211 45.8837V47.9539H91.4578V45.8453C92.5335 45.7277 93.5423 45.2652 94.3334 44.5267C94.6818 44.1926 94.957 43.7898 95.1415 43.3439C95.3261 42.8979 95.4161 42.4184 95.4057 41.9359C95.4379 41.2447 95.2373 40.5628 94.8362 39.9991ZM89.6545 37.7597C89.1827 37.6166 88.7441 37.3812 88.3641 37.0671C88.2136 36.9331 88.0946 36.7675 88.0156 36.5821C87.9367 36.3967 87.8998 36.1961 87.9075 35.9948C87.8935 35.5379 88.0614 35.0941 88.3744 34.7609C88.7213 34.4113 89.1689 34.179 89.6545 34.0965V37.7597ZM92.5404 43.2185C92.2131 43.5541 91.787 43.7761 91.3244 43.8521V40.4557C91.7665 40.5743 92.1801 40.7811 92.5404 41.0637C92.6769 41.1803 92.7854 41.3262 92.8578 41.4905C92.9302 41.6548 92.9646 41.8334 92.9585 42.0128C92.9763 42.4531 92.8269 42.8838 92.5404 43.2185Z" fill="#FF6C11"/>
<path d="M47.8502 69.4591C47.4536 69.4585 47.0683 69.327 46.7541 69.0851C46.4399 68.8432 46.2143 68.5043 46.1122 68.1211L45.1451 64.4606C45.024 64.0005 45.0904 63.5111 45.3296 63.0999C45.5689 62.6887 45.9615 62.3891 46.4213 62.267L76.9323 54.2045C77.3927 54.0844 77.882 54.1515 78.293 54.3912C78.7041 54.6308 79.0035 55.0235 79.1258 55.4834L79.9451 58.5847L79.7916 58.5966C71.9665 59.2051 64.4794 62.0422 58.2161 66.7723L58.1716 66.7938L48.3057 69.4C48.157 69.4392 48.0039 69.4591 47.8502 69.4591Z" fill="#2F2E41"/>
<path d="M42.8002 87.5405C39.2211 87.0117 35.798 85.7174 32.7644 83.7459C31.2615 82.7699 29.8702 81.632 28.6155 80.3526C27.377 79.0894 26.1922 77.6536 25.5788 75.9714C24.9886 74.415 25.019 72.6913 25.6638 71.1566C26.2997 69.6314 27.5145 68.4206 29.0418 67.7896C30.5783 67.1769 32.4347 67.1114 33.93 67.7824C34.6425 68.0947 35.2592 68.591 35.7165 69.2204C35.9291 69.5106 36.0865 69.8374 36.1809 70.1845C36.2685 70.499 36.2764 70.8304 36.2041 71.1488C36.1164 71.4666 35.9617 71.7621 35.7505 72.0153C35.5393 72.2685 35.2764 72.4736 34.9795 72.6168C34.3259 72.9522 33.6177 73.1681 32.8883 73.2546C32.1546 73.3547 31.1006 73.4457 30.5108 72.8568C30.3894 72.7403 30.2939 72.5995 30.2305 72.4436C30.1862 72.3242 30.171 72.1959 30.1863 72.0695C30.1777 72.1253 30.2219 71.9484 30.2194 71.9554C30.21 71.9816 30.1696 72.0453 30.2271 71.9474C30.245 71.9151 30.265 71.884 30.2869 71.8543C30.2674 71.8795 30.2246 71.9215 30.301 71.8494C30.3642 71.7802 30.4454 71.7301 30.5355 71.7046C30.5711 71.6942 30.6071 71.686 30.6427 71.6763C30.7332 71.6515 30.5525 71.6776 30.6451 71.6746C30.6808 71.6735 30.7169 71.6744 30.7525 71.6728C30.8434 71.6687 30.663 71.648 30.75 71.6699C30.7838 71.6784 30.8172 71.6867 30.8505 71.6972C30.9229 71.72 30.7993 71.6441 30.8483 71.7009C30.9058 71.7674 30.788 71.6362 30.8533 71.7006C30.8858 71.7325 30.9164 71.7663 30.9451 71.8017C31.0583 71.9136 31.2111 71.9763 31.3702 71.9763C31.5294 71.9763 31.6822 71.9136 31.7954 71.8017C31.9048 71.6872 31.9659 71.5349 31.9659 71.3765C31.9659 71.2182 31.9048 71.0659 31.7954 70.9514C31.2025 70.2163 30.0313 70.3979 29.4315 71.0192C28.6666 71.8114 28.9695 73.067 29.7136 73.7583C30.5559 74.5409 31.7489 74.5953 32.8325 74.464C33.7482 74.3763 34.6405 74.1242 35.4667 73.7196C36.2876 73.3163 36.9297 72.6226 37.2685 71.7731C37.4215 71.3197 37.4765 70.839 37.4298 70.3627C37.383 69.8865 37.2357 69.4256 36.9975 69.0106C36.0409 67.2121 34.06 66.29 32.102 66.1303C31.0939 66.0513 30.0802 66.1731 29.1194 66.4884C28.1587 66.8038 27.2701 67.3066 26.505 67.9677C25.0302 69.2954 24.1221 71.139 23.9684 73.1174C23.7975 75.1686 24.5933 77.1605 25.7536 78.8159C26.9683 80.4978 28.4178 81.9968 30.0579 83.2674C33.2643 85.8273 37.0254 87.601 41.0402 88.4468C41.5177 88.5454 41.9978 88.6299 42.4805 88.7001C42.634 88.7373 42.796 88.7146 42.9335 88.6366C43.0709 88.5586 43.1734 88.4311 43.2201 88.2801C43.2614 88.1264 43.2404 87.9626 43.1618 87.8242C43.0832 87.6858 42.9533 87.5839 42.8002 87.5405Z" fill="#3F3D56"/>
<path d="M100.102 61.407C94.8579 61.333 89.6306 61.4661 84.4198 61.8063C82.6387 61.9226 81.0977 62.5521 81.0977 63.6102C81.0977 64.4948 82.6264 65.5312 84.4198 65.414C89.628 65.0739 94.8553 64.9409 100.102 65.0148C104.379 65.0752 104.377 61.4674 100.102 61.407Z" fill="#CCCCCC"/>
<path d="M92.3481 64.8359C91.7814 64.8359 78.4688 64.8148 78.4688 62.9759C78.4688 61.1371 91.7814 61.116 92.3481 61.116C92.9148 61.116 106.227 61.1371 106.227 62.9759C106.227 64.8148 92.9148 64.8359 92.3481 64.8359ZM78.9893 62.9759C79.3536 63.5334 84.2471 64.3229 92.3481 64.3229C100.449 64.3229 105.343 63.5334 105.707 62.9759C105.343 62.4185 100.449 61.629 92.3481 61.629C84.2471 61.629 79.3536 62.4185 78.9893 62.9759Z" fill="#3F3D56"/>
<path d="M134.589 113.178C137.536 113.096 141.203 112.994 144.029 110.93C144.87 110.29 145.562 109.474 146.054 108.539C146.547 107.604 146.83 106.572 146.882 105.516C146.939 103.886 146.35 102.463 145.223 101.511C143.747 100.264 141.592 99.9713 139.27 100.654L141.676 83.0697L139.91 82.8276L137.081 103.5L138.556 102.823C140.266 102.039 142.614 101.64 144.072 102.872C144.431 103.195 144.71 103.595 144.888 104.043C145.066 104.49 145.139 104.973 145.1 105.453C145.057 106.239 144.845 107.006 144.478 107.703C144.112 108.399 143.6 109.009 142.977 109.49C140.778 111.096 137.855 111.303 134.539 111.396L134.589 113.178Z" fill="#3F3D56"/>
<path d="M129.704 84.5862H120.102V86.3691H129.704V84.5862Z" fill="#3F3D56"/>
<path d="M52.1988 77.6593C51.7714 77.658 51.3585 77.5045 51.0339 77.2263C50.7094 76.9482 50.4945 76.5635 50.4278 76.1414L49.8417 72.4009C49.7685 71.9304 49.8849 71.4502 50.1654 71.0655C50.4459 70.6808 50.8675 70.423 51.3378 70.3488L82.5134 65.464C82.9838 65.3908 83.464 65.5072 83.8487 65.7877C84.2334 66.0682 84.4911 66.4898 84.5653 66.96L85.1513 70.7007C85.2246 71.1711 85.1082 71.6513 84.8277 72.0361C84.5473 72.4208 84.1256 72.6785 83.6554 72.7527L52.4798 77.6374C52.3868 77.652 52.2929 77.6593 52.1988 77.6593Z" fill="#2F2E41"/>
<path d="M31.2936 33.8238C38.5189 33.8238 44.3762 27.9665 44.3762 20.7411C44.3762 13.5158 38.5189 7.65845 31.2936 7.65845C24.0682 7.65845 18.2109 13.5158 18.2109 20.7411C18.2109 27.9665 24.0682 33.8238 31.2936 33.8238Z" fill="#FF6C11"/>
<path d="M38.7005 24.1264C39.1186 23.9801 39.5006 23.7461 39.8207 23.4399C40.0325 23.2216 40.194 22.9597 40.2939 22.6724C40.3939 22.3851 40.4297 22.0795 40.3991 21.7769C40.3813 21.5612 40.3139 21.3525 40.2021 21.1672C40.0903 20.9819 39.9372 20.825 39.7547 20.7087C39.2812 20.4175 38.6556 20.4285 38.024 20.7213L37.9511 15.6145L37.4381 15.6218L37.5238 21.6254L37.9143 21.3693C38.3671 21.0728 39.0178 20.8578 39.4859 21.1457C39.6017 21.2219 39.6983 21.3238 39.7683 21.4435C39.8383 21.5632 39.8797 21.6974 39.8894 21.8356C39.911 22.0611 39.8837 22.2885 39.8095 22.5025C39.7353 22.7164 39.6159 22.9119 39.4594 23.0756C38.9033 23.6274 38.0801 23.8123 37.1406 23.9814L37.2315 24.4863C37.731 24.4104 38.2226 24.29 38.7005 24.1264Z" fill="#2F2E41"/>
<path d="M43.2359 15.2559L40.5039 15.6697L40.5807 16.1769L43.3127 15.7631L43.2359 15.2559Z" fill="#2F2E41"/>
<path d="M34.6109 16.5616L31.8789 16.9753L31.9557 17.4825L34.6877 17.0688L34.6109 16.5616Z" fill="#2F2E41"/>
<path d="M47.9411 77.4306C47.4706 77.4296 47.0115 77.2853 46.625 77.017C46.2385 76.7487 45.9429 76.3691 45.7774 75.9287L36.7573 51.7722C35.6548 48.8096 35.7725 45.5306 37.0847 42.6546C38.3968 39.7787 40.7961 37.5407 43.7563 36.4316L51.0907 33.6929C51.3743 33.5863 51.6762 33.5368 51.979 33.5473C52.2818 33.5578 52.5796 33.6281 52.8551 33.7541C53.13 33.8769 53.3776 34.0533 53.5835 34.2729C53.7894 34.4925 53.9495 34.7509 54.0544 35.0331L70.7634 66.5812C70.8719 66.8657 70.9231 67.1688 70.914 67.4732C70.9048 67.7775 70.8356 68.077 70.7103 68.3545C70.585 68.632 70.406 68.8819 70.1837 69.09C69.9614 69.298 69.7002 69.46 69.415 69.5667L48.7479 77.2839C48.4899 77.3807 48.2166 77.4304 47.9411 77.4306Z" fill="#2F2E41"/>
<path d="M48.8672 34.5235L65.446 56.6937L54.2278 34.7562C54.1352 34.5003 53.993 34.2651 53.8095 34.0641C53.6259 33.8631 53.4045 33.7002 53.158 33.5847C52.9115 33.4693 52.6446 33.4036 52.3727 33.3913C52.1007 33.379 51.829 33.4204 51.5731 33.5131L48.8672 34.5235Z" fill="#E6E6E6"/>
<path d="M75.1127 51.3605L45.5112 49.4538C45.0446 49.4237 44.5885 49.302 44.169 49.0957C43.7494 48.8894 43.3746 48.6025 43.0659 48.2513C42.7572 47.9001 42.5207 47.4916 42.3699 47.049C42.2191 46.6064 42.157 46.1385 42.1871 45.6719C42.2171 45.2053 42.3388 44.7492 42.5451 44.3296C42.7514 43.91 43.0383 43.5352 43.3895 43.2265C43.7407 42.9179 44.1493 42.6814 44.5918 42.5306C45.0344 42.3798 45.5023 42.3176 45.9689 42.3477L75.5704 44.2543C75.7889 44.2684 76.0026 44.3253 76.1991 44.422C76.3956 44.5186 76.5711 44.6529 76.7157 44.8174C76.8602 44.9819 76.971 45.1732 77.0416 45.3805C77.1122 45.5877 77.1413 45.8069 77.1272 46.0254L76.8839 49.8037C76.8554 50.2451 76.6529 50.657 76.3207 50.9489C75.9886 51.2409 75.554 51.3889 75.1127 51.3605Z" fill="#FF6C11"/>
<path d="M67.2065 52.5827C67.1674 52.5827 67.1283 52.5814 67.089 52.5789L42.7818 51.0132C42.5465 50.9981 42.3165 50.9368 42.1048 50.8327C41.8932 50.7287 41.7042 50.584 41.5485 50.4069C41.3928 50.2297 41.2735 50.0237 41.1975 49.8005C41.1214 49.5773 41.0901 49.3413 41.1053 49.106L41.5209 42.6523C41.5361 42.417 41.5975 42.1869 41.7015 41.9753C41.8056 41.7637 41.9503 41.5747 42.1275 41.419C42.3046 41.2634 42.5107 41.1441 42.7339 41.0681C42.9571 40.992 43.1931 40.9607 43.4284 40.9759L67.7355 42.5415C68.2105 42.5726 68.6538 42.7909 68.9681 43.1484C69.2824 43.506 69.442 43.9736 69.412 44.4487L68.9964 50.9025C68.9735 51.2483 68.8512 51.5801 68.6444 51.8582C68.4375 52.1363 68.1548 52.3487 67.8302 52.4701C67.6307 52.5447 67.4195 52.5828 67.2065 52.5827Z" fill="#2F2E41"/>
<path d="M31.1443 12.0413C32.8654 10.5611 35.2288 11.8852 37.2026 11.6534C39.0909 11.4317 40.5819 9.73784 40.9628 7.93838C41.4072 5.83899 40.3175 3.73572 38.7114 2.42679C36.9523 0.993194 34.6193 0.581643 32.4085 0.846869C29.8747 1.15085 27.5574 2.33197 25.4781 3.76059C23.471 5.09685 21.6253 6.66085 19.9778 8.42139C18.5025 10.0507 17.2526 11.9929 16.8534 14.1854C16.4907 16.1779 16.7677 18.386 17.9456 20.0739C18.5702 20.9391 19.4072 21.6286 20.3759 22.0761C21.3859 22.5721 22.4634 22.9267 23.4419 23.4874C24.9215 24.3353 26.3595 26.0934 25.896 27.923C25.7966 28.3226 25.6005 28.6917 25.325 28.9978C24.9939 29.3653 24.3967 28.8797 24.7287 28.5112C25.3117 27.8639 25.2887 27.0008 24.978 26.228C24.6085 25.3573 23.9543 24.6379 23.1225 24.1876C22.0982 23.602 20.9673 23.2405 19.9175 22.7071C18.9126 22.2198 18.0404 21.4969 17.375 20.6C16.1185 18.8539 15.7426 16.5814 16.0276 14.4791C16.3359 12.2042 17.5048 10.1369 18.9701 8.40456C20.5647 6.51926 22.5234 4.92341 24.5244 3.48975C26.6715 1.95142 29.0437 0.650872 31.6686 0.180484C33.944 -0.227269 36.4103 0.0237696 38.4001 1.26376C40.2574 2.42121 41.6816 4.41226 41.8232 6.63706C41.8741 7.64934 41.6543 8.65689 41.1864 9.55601C40.7186 10.4551 40.0197 11.2134 39.1615 11.7527C38.2809 12.2796 37.2571 12.5168 36.2346 12.4307C35.1414 12.3608 34.0471 12.026 32.9469 12.1189C32.4491 12.1492 31.9747 12.3408 31.5956 12.6649C31.2195 12.9883 30.7714 12.362 31.1443 12.0413Z" fill="#2F2E41"/>
<path d="M189.694 153.189H0.304554C0.2237 153.189 0.14624 153.156 0.0891504 153.099C0.0320608 153.042 0 152.964 0 152.884C0 152.803 0.0320608 152.725 0.0891504 152.668C0.14624 152.611 0.2237 152.578 0.304554 152.578H189.694C189.775 152.578 189.852 152.61 189.91 152.668C189.967 152.725 189.999 152.803 189.999 152.884C189.999 152.965 189.967 153.042 189.91 153.1C189.852 153.157 189.775 153.189 189.694 153.189Z" fill="#3F3D56"/>
</svg>
