<svg width="171" height="143" viewBox="0 0 171 143" fill="none" xmlns="http://www.w3.org/2000/svg">
<path d="M7.94656 136.264C10.3185 140.671 15.3526 142.562 15.3526 142.562C15.3526 142.562 16.5411 137.309 14.1691 132.903C11.7972 128.496 6.76306 126.605 6.76306 126.605C6.76306 126.605 5.57463 131.857 7.94656 136.264Z" fill="#2F2E41"/>
<path d="M9.5761 134.814C13.8584 137.395 15.5077 142.522 15.5077 142.522C15.5077 142.522 10.2139 143.463 5.93159 140.883C1.64926 138.302 0 133.175 0 133.175C0 133.175 5.29377 132.233 9.5761 134.814Z" fill="#FF6C11"/>
<path d="M105.59 6.86502H78.8716V7.24739H105.59V6.86502Z" fill="#F2F2F2"/>
<path d="M98.3373 7.15158H97.9556V10.6885H98.3373V7.15158Z" fill="#F2F2F2"/>
<path d="M86.6952 7.15158H86.3135V10.6885H86.6952V7.15158Z" fill="#F2F2F2"/>
<path d="M119.138 25.2185H92.4194V25.6008H119.138V25.2185Z" fill="#F2F2F2"/>
<path d="M100.055 21.7773H99.6733V25.3142H100.055V21.7773Z" fill="#F2F2F2"/>
<path d="M111.697 21.7774H111.315V25.3143H111.697V21.7774Z" fill="#F2F2F2"/>
<path d="M154.636 33.8218H127.917V34.2042H154.636V33.8218Z" fill="#F2F2F2"/>
<path d="M135.549 30.3804H135.167V33.9173H135.549V30.3804Z" fill="#F2F2F2"/>
<path d="M147.194 30.3804H146.812V33.9173H147.194V30.3804Z" fill="#F2F2F2"/>
<path d="M151.965 122.531H125.246V122.914H151.965V122.531Z" fill="#F2F2F2"/>
<path d="M132.878 119.09H132.497V122.627H132.878V119.09Z" fill="#F2F2F2"/>
<path d="M144.523 119.09H144.142V122.627H144.523V119.09Z" fill="#F2F2F2"/>
<path d="M106.352 61.1611H79.6333V61.5435H106.352V61.1611Z" fill="#F2F2F2"/>
<path d="M87.2655 57.7198H86.8838V61.2567H87.2655V57.7198Z" fill="#F2F2F2"/>
<path d="M98.9076 57.7198H98.5259V61.2567H98.9076V57.7198Z" fill="#F2F2F2"/>
<path d="M114.75 107.237H88.0312V107.619H114.75V107.237Z" fill="#F2F2F2"/>
<path d="M95.6664 103.795H95.2847V107.332H95.6664V103.795Z" fill="#F2F2F2"/>
<path d="M107.306 103.795H106.924V107.332H107.306V103.795Z" fill="#F2F2F2"/>
<path d="M157.5 93.2801H130.782V93.6625H157.5V93.2801Z" fill="#F2F2F2"/>
<path d="M138.414 89.8387H138.032V93.3756H138.414V89.8387Z" fill="#F2F2F2"/>
<path d="M150.053 89.8387H149.671V93.3756H150.053V89.8387Z" fill="#F2F2F2"/>
<path d="M69.0979 134.246H23.9077V133.921H68.7727V118.125H27.7067L25.7118 113.962L26.0049 113.821L27.9113 117.799H69.0979V134.246Z" fill="#2F2E41"/>
<path d="M29.9278 142.225C31.8131 142.225 33.3415 140.694 33.3415 138.806C33.3415 136.917 31.8131 135.386 29.9278 135.386C28.0425 135.386 26.5142 136.917 26.5142 138.806C26.5142 140.694 28.0425 142.225 29.9278 142.225Z" fill="#3F3D56"/>
<path d="M63.5719 142.225C65.4572 142.225 66.9855 140.694 66.9855 138.806C66.9855 136.917 65.4572 135.386 63.5719 135.386C61.6865 135.386 60.1582 136.917 60.1582 138.806C60.1582 140.694 61.6865 142.225 63.5719 142.225Z" fill="#3F3D56"/>
<path d="M103.237 68.2957C104.404 68.2957 105.35 67.3479 105.35 66.1788C105.35 65.0096 104.404 64.0618 103.237 64.0618C102.07 64.0618 101.124 65.0096 101.124 66.1788C101.124 67.3479 102.07 68.2957 103.237 68.2957Z" fill="#3F3D56"/>
<path d="M73.9355 112.751H23.1415L12.1509 76.7635H85.2542L85.1877 76.9753L73.9355 112.751ZM23.382 112.426H73.6971L84.811 77.0892H12.5903L23.382 112.426Z" fill="#2F2E41"/>
<path d="M69.9689 110.878H25.3547L15.7012 78.9617H79.9103L79.8519 79.1496L69.9689 110.878Z" fill="white"/>
<path d="M86.163 73.5484L85.8486 73.4649L87.994 65.3646H100.473V65.6904H88.2442L86.163 73.5484Z" fill="#2F2E41"/>
<path d="M81.5997 87.6737H15.7012V87.9994H81.5997V87.6737Z" fill="#2F2E41"/>
<path d="M77.8236 99.6724H19.3633V99.9981H77.8236V99.6724Z" fill="#2F2E41"/>
<path d="M48.8617 76.9263H48.5366V112.588H48.8617V76.9263Z" fill="#2F2E41"/>
<path d="M63.4182 76.9162L61.0845 112.577L61.4089 112.599L63.7427 76.9375L63.4182 76.9162Z" fill="#2F2E41"/>
<path d="M33.989 76.9156L33.6646 76.9368L35.9848 112.599L36.3092 112.578L33.989 76.9156Z" fill="#2F2E41"/>
<path d="M113.636 11.8296C113.636 11.8296 116.426 19.784 114.709 21.0078C112.992 22.2315 120.504 32.2256 120.504 32.2256L129.517 29.7781L124.581 21.4157C124.581 21.4157 123.937 13.0533 123.937 11.8296C123.937 10.6058 113.636 11.8296 113.636 11.8296Z" fill="#A0616A"/>
<path opacity="0.1" d="M113.636 11.8296C113.636 11.8296 116.426 19.784 114.709 21.0078C112.992 22.2315 120.504 32.2256 120.504 32.2256L129.517 29.7781L124.581 21.4157C124.581 21.4157 123.937 13.0533 123.937 11.8296C123.937 10.6058 113.636 11.8296 113.636 11.8296Z" fill="black"/>
<path d="M108.951 68.5306C108.951 68.5306 108.136 78.7286 108.951 84.0315C109.765 89.3345 110.987 104.02 110.987 104.02C110.987 104.02 110.987 131.758 115.466 132.166C119.945 132.574 123.203 132.982 123.61 131.35C124.017 129.719 121.574 128.903 122.796 128.087C124.017 127.271 124.425 124.416 122.796 121.152C121.167 117.889 122.796 84.8474 122.796 84.8474L130.533 105.651C130.533 105.651 131.347 122.784 132.161 125.231C132.976 127.679 131.347 132.166 134.197 132.574C137.048 132.982 140.306 130.534 141.934 129.719C143.563 128.903 139.491 128.903 140.306 128.495C141.12 128.087 143.563 126.863 142.749 126.455C141.934 126.047 141.12 106.467 141.12 106.467C141.12 106.467 138.88 64.6553 136.03 63.0237C133.179 61.392 131.347 64.2025 131.347 64.2025L108.951 68.5306Z" fill="#2F2E41"/>
<path d="M116.283 130.534V133.798C116.283 133.798 112.618 142.669 116.283 142.669C119.947 142.669 122.798 143.588 122.798 142.364V131.35L116.283 130.534Z" fill="#2F2E41"/>
<path d="M140.306 130.529V133.792C140.306 133.792 143.971 142.663 140.306 142.663C136.641 142.663 133.791 143.582 133.791 142.359V131.345L140.306 130.529Z" fill="#2F2E41"/>
<path d="M119.337 17.7446C123.385 17.7446 126.666 14.4572 126.666 10.402C126.666 6.34686 123.385 3.05948 119.337 3.05948C115.288 3.05948 112.007 6.34686 112.007 10.402C112.007 14.4572 115.288 17.7446 119.337 17.7446Z" fill="#A0616A"/>
<path d="M117.098 24.0673C117.098 24.0673 119.134 30.1861 122.392 28.9623L125.649 27.7385L131.35 66.8989C131.35 66.8989 126.871 73.4256 120.356 69.3464C113.84 65.2672 117.098 24.0673 117.098 24.0673Z" fill="#FF6C11"/>
<path d="M122.799 22.8436L124.631 18.9684C124.631 18.9684 135.422 24.0674 137.051 25.699C138.68 27.3307 138.68 29.7782 138.68 29.7782L135.829 39.9762C135.829 39.9762 136.644 62.4118 136.644 63.2277C136.644 64.0435 139.494 68.5307 137.458 66.899C135.422 65.2673 135.015 63.6356 133.386 66.0831C131.757 68.5307 128.092 71.3861 128.092 71.3861L122.799 22.8436Z" fill="#3F3D56"/>
<path d="M137.049 52.2137L135.828 63.6355C135.828 63.6355 128.498 70.1622 130.127 70.5702C131.756 70.9781 132.57 69.3464 132.57 69.3464C132.57 69.3464 135.42 72.2018 137.049 70.5702C138.678 68.9385 142.75 53.4375 142.75 53.4375L137.049 52.2137Z" fill="#A0616A"/>
<path d="M119.492 0.0248292C117.867 -0.0333614 116.129 -0.0621462 114.759 0.815032C114.128 1.25525 113.575 1.79742 113.123 2.41936C111.788 4.10913 110.635 6.23524 111.131 8.33179L111.707 8.10688C111.707 8.66651 111.582 9.21914 111.343 9.72479C111.424 9.48866 111.696 9.87038 111.623 10.1092L110.989 12.1933C112.031 11.8104 113.328 12.5856 113.487 13.6863C113.559 11.2657 113.81 8.49004 115.77 7.07267C116.758 6.35789 118.009 6.13969 119.213 5.94593C120.324 5.76717 121.488 5.59671 122.551 5.96292C123.615 6.32912 124.521 7.41878 124.279 8.51922C124.77 8.34999 125.318 8.69237 125.561 9.15177C125.803 9.61116 125.816 10.1531 125.823 10.6726C126.346 11.0427 126.941 10.3078 127.154 9.70313C127.654 8.28372 128.098 6.77278 127.829 5.29194C127.56 3.81111 126.355 2.39594 124.852 2.39092C125.035 2.19024 125.132 1.92637 125.124 1.65511L123.885 1.55028C124.2 1.50568 124.489 1.35297 124.703 1.11829C124.206 1.6664 120.296 0.0536234 119.492 0.0248292Z" fill="#2F2E41"/>
<path d="M119.131 21.6198C119.131 21.6198 115.816 18.3657 114.623 18.565C113.43 18.7643 111.801 21.6198 111.801 21.6198C111.801 21.6198 102.029 24.8831 102.436 28.1465C102.843 31.4099 107.322 47.3188 107.322 47.3188C107.322 47.3188 110.987 66.491 107.729 68.5306C104.472 70.5702 123.203 75.8732 123.61 73.4257C124.018 70.9781 124.832 46.5029 123.61 42.8316C122.389 39.1604 119.131 21.6198 119.131 21.6198Z" fill="#3F3D56"/>
<path d="M133.382 28.1465H138.417C138.417 28.1465 141.933 43.6475 142.34 45.2791C142.748 46.9108 143.562 54.6613 143.155 54.6613C142.748 54.6613 134.603 53.0296 134.603 54.2534L133.382 28.1465Z" fill="#3F3D56"/>
<path d="M133.214 66.5319H113.939C112.058 57.8637 111.9 49.4886 113.939 41.4868H133.214C130.104 49.3446 129.909 57.6623 133.214 66.5319Z" fill="white"/>
<path d="M106.103 55.885L111.804 58.3326C111.804 58.3326 122.798 59.9643 122.798 55.4771C122.798 50.99 111.804 53.4375 111.804 53.4375L108.139 52.2636L106.103 55.885Z" fill="#A0616A"/>
<path d="M107.323 25.6989L102.437 26.9227L98.7717 48.5425C98.7717 48.5425 97.55 54.2534 99.5861 54.6613C101.622 55.0692 107.323 58.3326 107.323 58.3326C107.323 58.3326 108.137 52.2138 109.766 52.2138L105.694 48.9504L108.137 34.6732L107.323 25.6989Z" fill="#3F3D56"/>
<path d="M38.2197 67.4703H11.501V67.8527H38.2197V67.4703Z" fill="#F2F2F2"/>
<path d="M19.1361 64.0289H18.7544V67.5658H19.1361V64.0289Z" fill="#F2F2F2"/>
<path d="M30.7753 64.0289H30.3936V67.5658H30.7753V64.0289Z" fill="#F2F2F2"/>
<path d="M47.5674 10.8798H20.8486V11.2621H47.5674V10.8798Z" fill="#F2F2F2"/>
<path d="M40.3202 11.1667H39.9385V14.7036H40.3202V11.1667Z" fill="#F2F2F2"/>
<path d="M28.6752 11.1667H28.2935V14.7036H28.6752V11.1667Z" fill="#F2F2F2"/>
<path d="M74.4785 48.5428H47.7598V48.9252H74.4785V48.5428Z" fill="#F2F2F2"/>
<path d="M67.2284 48.8298H66.8467V52.3667H67.2284V48.8298Z" fill="#F2F2F2"/>
<path d="M55.5863 48.8298H55.2046V52.3667H55.5863V48.8298Z" fill="#F2F2F2"/>
<path d="M29.0601 48.3517H2.34131V48.7341H29.0601V48.3517Z" fill="#F2F2F2"/>
<path d="M21.807 48.6386H21.4253V52.1755H21.807V48.6386Z" fill="#F2F2F2"/>
<path d="M10.1649 48.6386H9.7832V52.1755H10.1649V48.6386Z" fill="#F2F2F2"/>
<path d="M61.1187 29.2334H34.3999V29.6158H61.1187V29.2334Z" fill="#F2F2F2"/>
<path d="M42.035 25.7921H41.6533V29.329H42.035V25.7921Z" fill="#F2F2F2"/>
<path d="M53.6776 25.7921H53.2959V29.329H53.6776V25.7921Z" fill="#F2F2F2"/>
</svg>
