<svg width="182" height="153" viewBox="0 0 182 153" fill="none" xmlns="http://www.w3.org/2000/svg">
<g clip-path="url(#clip0_2_1961)">
<path d="M74.9922 35.9136H74.1659V13.1658C74.1659 11.4369 73.827 9.72482 73.1685 8.12747C72.5101 6.53011 71.545 5.07872 70.3283 3.85617C69.1116 2.63361 67.6673 1.66382 66.0776 1.00218C64.488 0.340535 62.7842 -5.4091e-06 61.0636 0H13.1022C11.3816 -5.4091e-06 9.67786 0.340535 8.08822 1.00218C6.49859 1.66382 5.05421 2.63361 3.83755 3.85617C2.6209 5.07873 1.65579 6.53012 0.997341 8.12747C0.338893 9.72482 -2.69151e-06 11.4369 0 13.1658V137.962C-1.6149e-06 139.691 0.338896 141.403 0.997345 143C1.65579 144.598 2.6209 146.049 3.83755 147.272C5.05421 148.494 6.49859 149.464 8.08822 150.126C9.67786 150.787 11.3816 151.128 13.1022 151.128H61.0636C62.7842 151.128 64.488 150.787 66.0776 150.126C67.6673 149.464 69.1116 148.494 70.3283 147.272C71.545 146.049 72.5101 144.598 73.1685 143C73.827 141.403 74.1659 139.691 74.1659 137.962V52.1059H74.9922V35.9136Z" fill="#E6E6E6"/>
<path d="M61.5942 3.42529H55.3336C55.6215 4.13457 55.7314 4.90412 55.6536 5.66613C55.5759 6.42815 55.3128 7.15924 54.8876 7.79502C54.4623 8.4308 53.8881 8.95174 53.2153 9.31196C52.5425 9.67218 51.7919 9.86062 51.0296 9.86068H23.5531C22.7908 9.86062 22.0402 9.67218 21.3675 9.31196C20.6947 8.95174 20.1204 8.4308 19.6952 7.79502C19.27 7.15924 19.0069 6.42815 18.9291 5.66613C18.8513 4.90412 18.9612 4.13457 19.2491 3.42529H13.4018C12.1168 3.42529 10.8445 3.6796 9.65738 4.17371C8.47026 4.66782 7.39162 5.39204 6.48303 6.30503C5.57445 7.21802 4.85372 8.3019 4.362 9.49478C3.87028 10.6877 3.61719 11.9662 3.61719 13.2573V137.87C3.61719 139.162 3.87028 140.44 4.362 141.633C4.85372 142.826 5.57445 143.91 6.48303 144.823C7.39161 145.736 8.47026 146.46 9.65738 146.954C10.8445 147.448 12.1168 147.702 13.4018 147.702H61.5942C62.8791 147.702 64.1515 147.448 65.3386 146.954C66.5257 146.46 67.6043 145.736 68.5129 144.823C69.4215 143.91 70.1422 142.826 70.634 141.633C71.1257 140.44 71.3788 139.162 71.3788 137.87V13.2573C71.3788 11.9662 71.1257 10.6877 70.634 9.49478C70.1422 8.3019 69.4215 7.21802 68.5129 6.30503C67.6043 5.39204 66.5257 4.66782 65.3386 4.17371C64.1514 3.6796 62.8791 3.42529 61.5942 3.42529Z" fill="white"/>
<path d="M23.298 28.7578H20.4206C20.3194 28.7578 20.2223 28.7982 20.1508 28.8701C20.0793 28.942 20.0391 29.0395 20.0391 29.1412V30.4103C20.0391 30.5119 20.0793 30.6094 20.1508 30.6813C20.2223 30.7532 20.3194 30.7936 20.4206 30.7936H20.8974V32.6952H22.8211V30.7936H23.298C23.3992 30.7936 23.4962 30.7532 23.5677 30.6813C23.6393 30.6094 23.6795 30.5119 23.6795 30.4103V29.1412C23.6795 29.0395 23.6393 28.942 23.5677 28.8701C23.4962 28.7982 23.3992 28.7578 23.298 28.7578Z" fill="#E6E6E6"/>
<path d="M26.1804 40.3726C24.4182 37.7814 23.5173 34.6963 23.6068 31.5592C23.6084 31.4868 23.585 31.4161 23.5406 31.3591C23.4962 31.3021 23.4336 31.2622 23.3633 31.2464V30.698H20.3243V31.2388H20.2825C20.1998 31.2389 20.1205 31.272 20.0621 31.3308C20.0037 31.3897 19.9709 31.4694 19.971 31.5525C19.971 31.5601 19.9713 31.5677 19.9719 31.5753C20.2113 34.9288 19.4029 37.9362 17.5466 40.5975C17.4398 40.7504 17.3852 40.934 17.3911 41.1208L17.7233 51.4495C17.7313 51.6798 17.8276 51.8982 17.9919 52.059C18.1563 52.2198 18.3761 52.3106 18.6055 52.3124H25.4792C25.7112 52.3105 25.9333 52.2177 26.0982 52.0536C26.2631 51.8896 26.3577 51.6673 26.3619 51.4342L26.4899 41.4059C26.4937 41.0379 26.3857 40.6774 26.1804 40.3726Z" fill="#E6E6E6"/>
<path d="M25.0894 43.8035H19.1064C19.0179 43.8035 18.9304 43.8227 18.8499 43.8599C18.7694 43.897 18.6979 43.9513 18.6402 44.0188C18.5826 44.0863 18.5401 44.1656 18.5158 44.2512C18.4915 44.3368 18.4859 44.4266 18.4993 44.5146L19.4034 50.4198H24.595L25.6931 44.5345C25.7098 44.4453 25.7066 44.3536 25.684 44.2658C25.6613 44.178 25.6197 44.0963 25.5621 44.0265C25.5044 43.9567 25.4322 43.9006 25.3505 43.862C25.2688 43.8235 25.1797 43.8035 25.0894 43.8035Z" fill="white"/>
<path d="M55.3292 59.6985H52.4518C52.3506 59.6985 52.2536 59.7389 52.182 59.8108C52.1105 59.8827 52.0703 59.9802 52.0703 60.0818V61.3509C52.0703 61.4526 52.1105 61.5501 52.182 61.622C52.2536 61.6939 52.3506 61.7343 52.4518 61.7343H52.9286V63.6358H54.8524V61.7343H55.3292C55.4304 61.7343 55.5274 61.6939 55.599 61.622C55.6705 61.5501 55.7107 61.4526 55.7107 61.3509V60.0818C55.7107 59.9802 55.6705 59.8826 55.599 59.8108C55.5274 59.7389 55.4304 59.6985 55.3292 59.6985Z" fill="#E6E6E6"/>
<path d="M58.2116 71.3135C56.4494 68.7224 55.5485 65.6373 55.638 62.5002C55.6396 62.4278 55.6163 62.3571 55.5719 62.3C55.5275 62.243 55.4648 62.2032 55.3945 62.1873V61.6389H52.3556V62.1797H52.3137C52.2728 62.1797 52.2322 62.1879 52.1944 62.2037C52.1566 62.2195 52.1222 62.2426 52.0933 62.2717C52.0644 62.3009 52.0415 62.3354 52.0259 62.3735C52.0102 62.4115 52.0022 62.4523 52.0023 62.4934C52.0023 62.501 52.0026 62.5086 52.0031 62.5162C52.2426 65.8698 51.4341 68.8772 49.5778 71.5384C49.471 71.6913 49.4164 71.875 49.4223 72.0617L49.7546 82.3904C49.7626 82.6208 49.8588 82.8391 50.0232 82.9999C50.1876 83.1607 50.4074 83.2515 50.6368 83.2533H57.5104C57.7424 83.2514 57.9645 83.1586 58.1294 82.9945C58.2943 82.8305 58.3889 82.6083 58.3931 82.3752L58.5212 72.3469C58.525 71.9788 58.417 71.6183 58.2116 71.3135Z" fill="#E6E6E6"/>
<path d="M57.1245 74.7444H51.1416C51.053 74.7444 50.9655 74.7636 50.8851 74.8008C50.8046 74.838 50.7331 74.8922 50.6754 74.9597C50.6177 75.0273 50.5753 75.1065 50.551 75.1921C50.5266 75.2777 50.521 75.3675 50.5345 75.4555L51.4386 81.3607H56.6301L57.7283 75.4754C57.7449 75.3862 57.7418 75.2945 57.7191 75.2067C57.6965 75.1189 57.6549 75.0372 57.5972 74.9674C57.5396 74.8977 57.4673 74.8415 57.3856 74.8029C57.304 74.7644 57.2148 74.7444 57.1245 74.7444Z" fill="white"/>
<path d="M19.2529 103.44H17.888C17.84 103.44 17.794 103.459 17.76 103.493C17.7261 103.527 17.707 103.574 17.707 103.622V104.224C17.707 104.272 17.7261 104.318 17.76 104.352C17.794 104.386 17.84 104.406 17.888 104.406H18.1142V105.308H19.0267V104.406H19.2529C19.3009 104.406 19.3469 104.386 19.3808 104.352C19.4148 104.318 19.4338 104.272 19.4338 104.224V103.622C19.4338 103.574 19.4148 103.527 19.3808 103.493C19.3469 103.459 19.3009 103.44 19.2529 103.44Z" fill="#E6E6E6"/>
<path d="M20.6186 108.949C19.7827 107.72 19.3554 106.257 19.3978 104.769C19.3986 104.734 19.3875 104.701 19.3664 104.674C19.3454 104.647 19.3157 104.628 19.2823 104.62V104.36H17.8408V104.617H17.8209C17.8015 104.617 17.7823 104.621 17.7644 104.628C17.7464 104.635 17.7301 104.646 17.7164 104.66C17.7027 104.674 17.6918 104.691 17.6844 104.709C17.677 104.727 17.6732 104.746 17.6732 104.765C17.6732 104.769 17.6734 104.773 17.6736 104.776C17.8067 106.295 17.399 107.811 16.5232 109.056C16.4725 109.128 16.4466 109.216 16.4494 109.304L16.607 114.203C16.6108 114.313 16.6565 114.416 16.7344 114.493C16.8124 114.569 16.9167 114.612 17.0255 114.613H20.286C20.396 114.612 20.5014 114.568 20.5796 114.49C20.6578 114.412 20.7027 114.307 20.7047 114.196L20.7654 109.439C20.7672 109.265 20.716 109.094 20.6186 108.949Z" fill="#E6E6E6"/>
<path d="M20.1501 110.75H17.0391V112.313H20.1501V110.75Z" fill="white"/>
<path d="M25.6044 103.44H24.2396C24.1916 103.44 24.1455 103.459 24.1116 103.493C24.0777 103.527 24.0586 103.574 24.0586 103.622V104.224C24.0586 104.272 24.0777 104.318 24.1116 104.352C24.1455 104.386 24.1916 104.406 24.2396 104.406H24.4657V105.308H25.3783V104.406H25.6044C25.6524 104.406 25.6985 104.386 25.7324 104.352C25.7663 104.318 25.7854 104.272 25.7854 104.224V103.622C25.7854 103.574 25.7663 103.527 25.7324 103.493C25.6985 103.459 25.6524 103.44 25.6044 103.44Z" fill="#E6E6E6"/>
<path d="M26.9741 108.949C26.1382 107.72 25.7108 106.257 25.7533 104.769C25.7541 104.734 25.743 104.701 25.7219 104.674C25.7009 104.647 25.6711 104.628 25.6378 104.62V104.36H24.1963V104.617H24.1764C24.157 104.617 24.1378 104.621 24.1198 104.628C24.1019 104.635 24.0856 104.646 24.0719 104.66C24.0582 104.674 24.0473 104.691 24.0399 104.709C24.0325 104.727 24.0287 104.746 24.0287 104.765C24.0287 104.769 24.0288 104.773 24.0291 104.776C24.1622 106.295 23.7545 107.811 22.8787 109.056C22.828 109.128 22.8021 109.216 22.8049 109.304L22.9625 114.203C22.9663 114.313 23.0119 114.416 23.0899 114.493C23.1679 114.569 23.2722 114.612 23.381 114.613H26.6414C26.7515 114.612 26.8569 114.568 26.9351 114.49C27.0133 114.412 27.0582 114.307 27.0602 114.196L27.1209 109.439C27.1227 109.265 27.0715 109.094 26.9741 108.949Z" fill="#E6E6E6"/>
<path d="M26.5056 110.75H23.3945V112.313H26.5056V110.75Z" fill="white"/>
<path d="M31.9599 103.44H30.595C30.547 103.44 30.501 103.459 30.4671 103.493C30.4331 103.527 30.4141 103.573 30.4141 103.622V104.224C30.4141 104.272 30.4331 104.318 30.4671 104.352C30.501 104.386 30.547 104.405 30.595 104.405H30.8212V105.307H31.7337V104.405H31.9599C32.0079 104.405 32.0539 104.386 32.0879 104.352C32.1218 104.318 32.1409 104.272 32.1409 104.224V103.622C32.1409 103.573 32.1218 103.527 32.0879 103.493C32.0539 103.459 32.0079 103.44 31.9599 103.44Z" fill="#E6E6E6"/>
<path d="M33.3256 108.949C32.4897 107.72 32.0624 106.257 32.1049 104.769C32.1056 104.734 32.0945 104.701 32.0735 104.674C32.0524 104.647 32.0227 104.628 31.9893 104.62V104.36H30.5478V104.617H30.528C30.5085 104.617 30.4893 104.621 30.4714 104.628C30.4534 104.635 30.4372 104.646 30.4234 104.66C30.4097 104.674 30.3988 104.691 30.3914 104.709C30.384 104.727 30.3802 104.746 30.3803 104.765C30.3803 104.769 30.3804 104.773 30.3807 104.776C30.5137 106.295 30.106 107.811 29.2302 109.056C29.1796 109.128 29.1537 109.216 29.1565 109.304L29.3141 114.203C29.3179 114.313 29.3635 114.416 29.4415 114.493C29.5194 114.569 29.6237 114.612 29.7325 114.613H32.993C33.1031 114.612 33.2084 114.568 33.2866 114.49C33.3648 114.412 33.4097 114.307 33.4117 114.196L33.4725 109.439C33.4743 109.265 33.423 109.094 33.3256 108.949Z" fill="#E6E6E6"/>
<path d="M32.8572 110.75H29.7462V112.313H32.8572V110.75Z" fill="white"/>
<path d="M50.3292 91.4697H47.4518C47.4017 91.4697 47.3521 91.4797 47.3058 91.4989C47.2595 91.5182 47.2175 91.5464 47.1821 91.582C47.1466 91.6176 47.1185 91.6599 47.0994 91.7064C47.0802 91.7529 47.0703 91.8027 47.0703 91.8531V93.1222C47.0703 93.2239 47.1105 93.3214 47.1821 93.3933C47.2536 93.4651 47.3506 93.5055 47.4518 93.5055H47.9286V95.4071H49.8524V93.5055H50.3292C50.4304 93.5055 50.5274 93.4651 50.599 93.3933C50.6705 93.3214 50.7107 93.2239 50.7107 93.1222V91.8531C50.7107 91.8027 50.7008 91.7529 50.6817 91.7064C50.6625 91.6599 50.6344 91.6176 50.599 91.582C50.5635 91.5464 50.5215 91.5182 50.4752 91.4989C50.4289 91.4797 50.3793 91.4697 50.3292 91.4697Z" fill="#E6E6E6"/>
<path d="M53.2116 103.085C51.4494 100.494 50.5485 97.4087 50.638 94.2716C50.6396 94.1992 50.6163 94.1285 50.5719 94.0715C50.5275 94.0145 50.4648 93.9746 50.3945 93.9588V93.4104H47.3556V93.9512H47.3137C47.2728 93.9512 47.2322 93.9594 47.1944 93.9752C47.1566 93.991 47.1222 94.0141 47.0933 94.0432C47.0644 94.0724 47.0415 94.1069 47.0259 94.145C47.0102 94.183 47.0022 94.2237 47.0023 94.2649C47.0023 94.2725 47.0026 94.2801 47.0031 94.2877C47.2426 97.6413 46.4341 100.649 44.5778 103.31C44.471 103.463 44.4164 103.646 44.4223 103.833L44.7546 114.162C44.7626 114.392 44.8588 114.611 45.0232 114.771C45.1876 114.932 45.4074 115.023 45.6368 115.025H52.5104C52.7424 115.023 52.9645 114.93 53.1294 114.766C53.2943 114.602 53.3889 114.38 53.3931 114.147L53.5212 104.118C53.525 103.75 53.417 103.39 53.2116 103.085Z" fill="#E6E6E6"/>
<path d="M52.1246 106.516H46.1416C46.053 106.516 45.9655 106.535 45.8851 106.572C45.8046 106.609 45.7331 106.663 45.6754 106.731C45.6177 106.798 45.5753 106.878 45.551 106.963C45.5266 107.049 45.521 107.139 45.5345 107.227L46.4386 113.132H51.6301L52.7283 107.247C52.7449 107.157 52.7418 107.066 52.7192 106.978C52.6965 106.89 52.6549 106.808 52.5972 106.739C52.5396 106.669 52.4674 106.613 52.3857 106.574C52.304 106.536 52.2148 106.516 52.1246 106.516Z" fill="white"/>
<path d="M51.9022 53.6422H34.75C35.9492 47.1274 35.6733 39.2604 34.75 30.8H51.9022C51.0035 39.2604 50.7349 47.1274 51.9022 53.6422Z" fill="#E6E6E6"/>
<path d="M43.4299 45.7513C45.7126 45.7513 47.563 43.8919 47.563 41.5982C47.563 39.3045 45.7126 37.4451 43.4299 37.4451C41.1473 37.4451 39.2969 39.3045 39.2969 41.5982C39.2969 43.8919 41.1473 45.7513 43.4299 45.7513Z" fill="white"/>
<path d="M36.1952 83.9601H19.043C20.2421 77.4452 19.9663 69.5783 19.043 61.1179H36.1952C35.2965 69.5783 35.0279 77.4452 36.1952 83.9601Z" fill="#E6E6E6"/>
<path d="M27.7229 76.0689C30.0055 76.0689 31.856 74.2095 31.856 71.9158C31.856 69.6221 30.0055 67.7627 27.7229 67.7627C25.4403 67.7627 23.5898 69.6221 23.5898 71.9158C23.5898 74.2095 25.4403 76.0689 27.7229 76.0689Z" fill="white"/>
<path d="M61.6131 55.0959H44.4609C45.6601 48.581 45.3842 40.714 44.4609 32.2537H61.6131C60.7144 40.714 60.4459 48.581 61.6131 55.0959Z" fill="#E6E6E6"/>
<path d="M53.1409 47.2049C55.4235 47.2049 57.2739 45.3455 57.2739 43.0518C57.2739 40.7581 55.4235 38.8987 53.1409 38.8987C50.8583 38.8987 49.0078 40.7581 49.0078 43.0518C49.0078 45.3455 50.8583 47.2049 53.1409 47.2049Z" fill="white"/>
<path d="M61.6131 54.0575H44.4609C45.6601 47.5426 45.3842 39.6757 44.4609 31.2153H61.6131C60.7144 39.6757 60.4459 47.5427 61.6131 54.0575Z" fill="#E6E6E6"/>
<path d="M53.1409 46.1664C55.4235 46.1664 57.2739 44.3069 57.2739 42.0132C57.2739 39.7195 55.4235 37.8601 53.1409 37.8601C50.8583 37.8601 49.0078 39.7195 49.0078 42.0132C49.0078 44.3069 50.8583 46.1664 53.1409 46.1664Z" fill="white"/>
<path d="M61.6131 55.0959H44.4609C45.6601 48.581 45.3842 40.714 44.4609 32.2537H61.6131C60.7144 40.714 60.4459 48.581 61.6131 55.0959Z" fill="#E6E6E6"/>
<path d="M53.1409 47.2049C55.4235 47.2049 57.2739 45.3455 57.2739 43.0518C57.2739 40.7581 55.4235 38.8987 53.1409 38.8987C50.8583 38.8987 49.0078 40.7581 49.0078 43.0518C49.0078 45.3455 50.8583 47.2049 53.1409 47.2049Z" fill="white"/>
<path d="M65.5378 52.3965H9.32812V58.6262H65.5378V52.3965Z" fill="#E6E6E6"/>
<path d="M65.5378 83.3372H9.32812V89.5669H65.5378V83.3372Z" fill="#E6E6E6"/>
<path d="M65.5378 114.278H9.32812V120.508H65.5378V114.278Z" fill="#E6E6E6"/>
<path d="M163.32 139.551L149.316 129.599C154.039 124.976 158.335 118.393 162.443 110.95L176.446 120.902C170.851 127.288 166.111 133.555 163.32 139.551Z" fill="#FF6C11"/>
<path d="M163.321 128.955C165.603 128.955 167.454 127.096 167.454 124.802C167.454 122.508 165.603 120.649 163.321 120.649C161.038 120.649 159.188 122.508 159.188 124.802C159.188 127.096 161.038 128.955 163.321 128.955Z" fill="white"/>
<path d="M95.7683 94.1353H94.2311C94.1771 94.1353 94.1252 94.1568 94.087 94.1952C94.0488 94.2336 94.0273 94.2857 94.0273 94.34V95.018C94.0273 95.0449 94.0326 95.0715 94.0429 95.0964C94.0531 95.1212 94.0681 95.1438 94.087 95.1628C94.106 95.1818 94.1284 95.1969 94.1532 95.2072C94.1779 95.2175 94.2044 95.2228 94.2311 95.2228H94.4859V96.2386H95.5136V95.2228H95.7683C95.8223 95.2228 95.8742 95.2012 95.9124 95.1628C95.9506 95.1244 95.9721 95.0723 95.9721 95.018V94.34C95.9721 94.2857 95.9506 94.2336 95.9124 94.1952C95.8742 94.1568 95.8223 94.1353 95.7683 94.1353Z" fill="#E6E6E6"/>
<path d="M97.3089 100.34C96.3675 98.956 95.8862 97.3078 95.934 95.632C95.9349 95.5933 95.9224 95.5555 95.8987 95.525C95.875 95.4946 95.8415 95.4733 95.8039 95.4648V95.1719H94.1805V95.4608H94.1581C94.1363 95.4608 94.1146 95.4651 94.0944 95.4736C94.0742 95.482 94.0559 95.4944 94.0404 95.5099C94.025 95.5255 94.0127 95.544 94.0044 95.5643C93.996 95.5846 93.9917 95.6064 93.9918 95.6284C93.9918 95.6324 93.9919 95.6365 93.9922 95.6405C94.1421 97.3506 93.6829 99.0586 92.6966 100.46C92.6395 100.542 92.6104 100.64 92.6135 100.74L92.791 106.258C92.7953 106.381 92.8467 106.497 92.9345 106.583C93.0223 106.669 93.1398 106.718 93.2623 106.719H96.9343C97.0582 106.718 97.1769 106.668 97.265 106.58C97.3531 106.493 97.4036 106.374 97.4059 106.249L97.4743 100.892C97.4763 100.696 97.4186 100.503 97.3089 100.34Z" fill="#FF6C11"/>
<path opacity="0.2" d="M95.4458 94.3562C95.4458 94.4734 95.3994 94.5858 95.317 94.6686C95.2345 94.7515 95.1227 94.798 95.0061 94.798C94.8895 94.798 94.7776 94.7515 94.6952 94.6686C94.6127 94.5858 94.5664 94.4734 94.5664 94.3562" fill="black"/>
<path d="M96.592 101.403H93.4922V103.48H96.592V101.403Z" fill="white"/>
<path d="M144.411 115.691H141.534C141.433 115.691 141.336 115.731 141.264 115.803C141.193 115.875 141.152 115.972 141.152 116.074V117.343C141.152 117.445 141.193 117.542 141.264 117.614C141.336 117.686 141.433 117.726 141.534 117.726H142.011V119.628H143.934V117.726H144.411C144.512 117.726 144.609 117.686 144.681 117.614C144.753 117.542 144.793 117.445 144.793 117.343V116.074C144.793 115.972 144.753 115.875 144.681 115.803C144.609 115.731 144.512 115.691 144.411 115.691Z" fill="#E6E6E6"/>
<path d="M147.293 127.306C145.531 124.715 144.63 121.629 144.72 118.492C144.721 118.42 144.698 118.349 144.654 118.292C144.609 118.235 144.547 118.195 144.476 118.179V117.631H141.437V118.172H141.395C141.355 118.172 141.314 118.18 141.276 118.196C141.238 118.212 141.204 118.235 141.175 118.264C141.146 118.293 141.123 118.328 141.108 118.366C141.092 118.404 141.084 118.444 141.084 118.486C141.084 118.493 141.084 118.501 141.085 118.508C141.324 121.862 140.516 124.869 138.66 127.531C138.553 127.684 138.498 127.867 138.504 128.054L138.836 138.383C138.844 138.613 138.941 138.831 139.105 138.992C139.269 139.153 139.489 139.244 139.719 139.246H146.592C146.824 139.244 147.046 139.151 147.211 138.987C147.376 138.823 147.471 138.6 147.475 138.367L147.603 128.339C147.607 127.971 147.499 127.61 147.293 127.306Z" fill="#FF6C11"/>
<path opacity="0.2" d="M143.81 116.104C143.81 116.324 143.723 116.534 143.569 116.689C143.415 116.844 143.205 116.931 142.987 116.931C142.769 116.931 142.559 116.844 142.405 116.689C142.251 116.534 142.164 116.324 142.164 116.104" fill="black"/>
<path d="M146.207 130.736H140.224C140.135 130.736 140.048 130.756 139.967 130.793C139.887 130.83 139.815 130.884 139.757 130.952C139.7 131.019 139.657 131.098 139.633 131.184C139.609 131.27 139.603 131.359 139.617 131.447L140.521 137.353H145.712L146.81 131.467C146.827 131.378 146.824 131.286 146.801 131.199C146.779 131.111 146.737 131.029 146.679 130.959C146.622 130.89 146.549 130.833 146.468 130.795C146.386 130.756 146.297 130.736 146.207 130.736Z" fill="white"/>
<path d="M136.203 139.535H119.051C120.25 133.02 119.974 125.153 119.051 116.693H136.203C135.304 125.153 135.036 133.02 136.203 139.535Z" fill="#FF6C11"/>
<path d="M127.731 131.644C130.013 131.644 131.864 129.785 131.864 127.491C131.864 125.197 130.013 123.338 127.731 123.338C125.448 123.338 123.598 125.197 123.598 127.491C123.598 129.785 125.448 131.644 127.731 131.644Z" fill="white"/>
<path d="M66.0469 67.6477L69.8974 67.2959L72.3478 61.3163L67.9722 58.854L66.0469 67.6477Z" fill="#FFB8B8"/>
<path d="M101.381 84.0635C101.509 83.7426 101.56 83.3958 101.528 83.0516C101.497 82.7073 101.384 82.3756 101.2 82.0836C101.016 81.7916 100.765 81.5478 100.469 81.3722C100.173 81.1967 99.8389 81.0944 99.4955 81.0738L93.517 80.7156L92.6367 83.657L98.7913 85.3554C99.3056 85.4973 99.8538 85.4441 100.332 85.2058C100.809 84.9676 101.183 84.5609 101.381 84.0635Z" fill="#FFB8B8"/>
<path d="M94.9639 85.4047L94.8981 79.8854L81.6185 77.7561L71.3881 65.966C70.8559 65.3526 70.1204 64.9538 69.3179 64.8435C68.5154 64.7333 67.7004 64.919 67.0238 65.3663C66.6141 65.6371 66.2686 65.9951 66.0117 66.4149C65.7549 66.8346 65.5929 67.3059 65.5373 67.7955C65.4816 68.2851 65.5337 68.781 65.6897 69.2482C65.8458 69.7153 66.102 70.1423 66.4404 70.499L74.8804 80.9361L94.9639 85.4047Z" fill="#575A89"/>
<path d="M63.0703 147.495H66.5708L75.2533 108.048L84.2483 120.234L89.499 146.615H92.8245L92.1244 118.299L80.3978 88.0491H68.8461C65.6894 93.7898 63.213 99.7075 66.0457 105.812L63.0703 147.495Z" fill="#2F2E41"/>
<path d="M87.3541 149.89C87.3154 150.015 87.3035 150.146 87.3193 150.276C87.335 150.405 87.378 150.53 87.4454 150.641C87.5128 150.752 87.603 150.848 87.7101 150.922C87.8172 150.995 87.9387 151.045 88.0664 151.068L96.6322 152.595C96.9706 152.658 97.3201 152.593 97.6146 152.415C97.9091 152.236 98.1283 151.955 98.231 151.625C98.3308 151.309 98.3169 150.969 98.1916 150.663C98.0663 150.357 97.8377 150.105 97.546 149.951C95.6625 148.98 94.0416 147.564 92.8221 145.824C91.8807 146.705 90.8284 146.623 89.7111 145.973L88.5259 146.122L87.3541 149.89Z" fill="#2F2E41"/>
<path d="M61.4478 149.89C61.4091 150.015 61.3973 150.146 61.413 150.276C61.4287 150.405 61.4717 150.53 61.5391 150.641C61.6065 150.752 61.6968 150.848 61.8039 150.922C61.9109 150.995 62.0324 151.045 62.1602 151.068L70.7259 152.595C71.0644 152.658 71.4138 152.593 71.7083 152.415C72.0028 152.236 72.2221 151.955 72.3247 151.625C72.4246 151.309 72.4106 150.969 72.2853 150.663C72.1601 150.357 71.9315 150.105 71.6397 149.951C69.7563 148.98 68.1354 147.564 66.9158 145.824C65.9744 146.705 64.9222 146.623 63.8048 145.973L62.6197 146.122L61.4478 149.89Z" fill="#2F2E41"/>
<path d="M72.4319 63.5145C75.1385 63.5145 77.3326 61.3097 77.3326 58.59C77.3326 55.8703 75.1385 53.6655 72.4319 53.6655C69.7254 53.6655 67.5312 55.8703 67.5312 58.59C67.5312 61.3097 69.7254 63.5145 72.4319 63.5145Z" fill="#FFB8B8"/>
<path d="M68.0562 89.368L80.833 89.0163L77.0808 77.1495C79.4126 73.3931 77.0658 69.6406 73.7445 65.8888L71.1192 64.1301L66.9186 63.7783C65.0999 65.7338 64.1047 68.3207 64.1416 70.9969C64.2248 76.7278 65.2346 82.9665 68.0562 89.368Z" fill="#575A89"/>
<path d="M97.4157 97.3558C97.659 97.1114 97.841 96.8124 97.9468 96.4834C98.0526 96.1545 98.079 95.805 98.024 95.4637C97.9689 95.1225 97.834 94.7993 97.6303 94.5207C97.4265 94.2422 97.1599 94.0163 96.8522 93.8616L91.496 91.1689L89.5352 93.5252L94.5286 97.5196C94.9458 97.8534 95.4707 98.0212 96.0032 97.9909C96.5357 97.9607 97.0385 97.7346 97.4157 97.3558Z" fill="#FFB8B8"/>
<path d="M90.9863 96.0512L93.0866 90.9508L81.7113 83.7439L76.9214 68.8603C76.6722 68.0859 76.1521 67.4285 75.4576 67.0099C74.763 66.5913 73.9409 66.4399 73.1437 66.5837C72.6611 66.6707 72.2033 66.8633 71.8028 67.1476C71.4023 67.432 71.0689 67.8013 70.8261 68.2294C70.5832 68.6575 70.437 69.134 70.3975 69.6252C70.3581 70.1164 70.4266 70.6102 70.598 71.0719L74.2715 84.0038L90.9863 96.0512Z" fill="#575A89"/>
<path d="M64.3829 56.6552C64.3829 58.5714 65.6213 61.5388 67.1833 62.8108C68.2343 63.6667 69.6232 63.6306 70.1587 62.4591C70.7081 61.2572 72.6017 58.4323 75.9345 56.6552C80.3775 54.2863 74.3589 50.2334 70.1587 50.8514C67.0025 51.3158 64.3829 53.4499 64.3829 56.6552Z" fill="#2F2E41"/>
<path d="M67.356 54.0174C69.2892 54.0174 70.8564 52.4426 70.8564 50.4999C70.8564 48.5573 69.2892 46.9824 67.356 46.9824C65.4227 46.9824 63.8555 48.5573 63.8555 50.4999C63.8555 52.4426 65.4227 54.0174 67.356 54.0174Z" fill="#2F2E41"/>
<path d="M71.3825 49.2687C71.3821 48.3819 71.0483 47.528 70.4478 46.8782C69.8473 46.2283 69.0246 45.8305 68.1445 45.7645C68.2315 45.758 68.3184 45.7512 68.4071 45.7512C69.3355 45.7512 70.2258 46.1218 70.8823 46.7815C71.5388 47.4411 71.9076 48.3358 71.9076 49.2687C71.9076 50.2016 71.5388 51.0963 70.8823 51.7559C70.2258 52.4156 69.3355 52.7862 68.4071 52.7862C68.3184 52.7862 68.2315 52.7794 68.1445 52.7729C69.0246 52.7069 69.8473 52.3091 70.4478 51.6592C71.0483 51.0094 71.3821 50.1555 71.3825 49.2687Z" fill="#2F2E41"/>
<path d="M72.522 60.3488C72.957 60.3488 73.3096 59.8763 73.3096 59.2935C73.3096 58.7107 72.957 58.2383 72.522 58.2383C72.087 58.2383 71.7344 58.7107 71.7344 59.2935C71.7344 59.8763 72.087 60.3488 72.522 60.3488Z" fill="#FFB8B8"/>
<path d="M171.703 141.044H117.211L105.672 86.2302H95.8242V83.7708H107.656L119.195 138.584H171.703V141.044Z" fill="#3F3D56"/>
<path d="M125.194 151.058C128.091 151.058 130.439 148.698 130.439 145.787C130.439 142.876 128.091 140.517 125.194 140.517C122.298 140.517 119.949 142.876 119.949 145.787C119.949 148.698 122.298 151.058 125.194 151.058Z" fill="#3F3D56"/>
<path d="M164.358 151.058C167.255 151.058 169.603 148.698 169.603 145.787C169.603 142.876 167.255 140.517 164.358 140.517C161.462 140.517 159.113 142.876 159.113 145.787C159.113 148.698 161.462 151.058 164.358 151.058Z" fill="#3F3D56"/>
<path d="M170.708 139.885H117.69L108.336 93.4331H179.486C179.849 93.4331 180.208 93.5122 180.538 93.6648C180.868 93.8175 181.161 94.0401 181.397 94.3174C181.633 94.5946 181.806 94.9199 181.905 95.271C182.004 95.622 182.026 95.9904 181.97 96.3508L173.191 137.752C173.1 138.348 172.8 138.891 172.344 139.282C171.888 139.674 171.307 139.888 170.708 139.885ZM118.266 139.183H170.708C171.141 139.185 171.56 139.03 171.888 138.747C172.217 138.465 172.434 138.073 172.5 137.643L181.278 96.2417C181.319 95.9815 181.303 95.7156 181.232 95.4623C181.161 95.2089 181.035 94.9741 180.865 94.7739C180.695 94.5738 180.483 94.4131 180.245 94.303C180.007 94.1928 179.748 94.1358 179.486 94.1358H109.185L118.266 139.183Z" fill="#3F3D56"/>
<path d="M127.997 139.737L121.871 93.8416L122.561 93.7271L128.687 139.622L127.997 139.737Z" fill="#3F3D56"/>
<path d="M162.062 139.384L161.371 139.272L167.318 93.7283L168.009 93.8407L162.062 139.384Z" fill="#3F3D56"/>
<path d="M145.832 93.7844H145.133V139.679H145.832V93.7844Z" fill="#3F3D56"/>
<path d="M111.908 106.082L111.906 106.785L179.602 106.95L179.603 106.247L111.908 106.082Z" fill="#3F3D56"/>
<path d="M174.827 127.791L115.355 128.199L115.36 128.902L174.832 128.493L174.827 127.791Z" fill="#3F3D56"/>
<path d="M96.8698 86.7572C98.9941 86.7572 100.716 85.8133 100.716 84.649C100.716 83.4847 98.9941 82.5408 96.8698 82.5408C94.7455 82.5408 93.0234 83.4847 93.0234 84.649C93.0234 85.8133 94.7455 86.7572 96.8698 86.7572Z" fill="#3F3D56"/>
</g>
<defs>
<clipPath id="clip0_2_1961">
<rect width="182" height="152.619" fill="white"/>
</clipPath>
</defs>
</svg>
