<svg width="434" height="408" viewBox="0 0 434 408" fill="none" xmlns="http://www.w3.org/2000/svg">
<g clip-path="url(#clip0_217_526)">
<path d="M367.275 10.5581H17.3457V216.444H367.275V10.5581Z" fill="#E6E6E6"/>
<path d="M366.521 9.80396H17.3457V31.6746H366.521V9.80396Z" fill="#FF6C11"/>
<path d="M358.225 37.708H25.6414V205.885H358.225V37.708Z" fill="white"/>
<path d="M50.5284 24.1331C52.6109 24.1331 54.2992 22.6137 54.2992 20.7394C54.2992 18.8651 52.6109 17.3457 50.5284 17.3457C48.4458 17.3457 46.7576 18.8651 46.7576 20.7394C46.7576 22.6137 48.4458 24.1331 50.5284 24.1331Z" fill="white"/>
<path d="M63.7265 24.1331C65.6008 24.1331 67.1202 22.6137 67.1202 20.7394C67.1202 18.8651 65.6008 17.3457 63.7265 17.3457C61.8522 17.3457 60.3328 18.8651 60.3328 20.7394C60.3328 22.6137 61.8522 24.1331 63.7265 24.1331Z" fill="white"/>
<path d="M36.9539 24.1331C39.0365 24.1331 40.7247 22.6137 40.7247 20.7394C40.7247 18.8651 39.0365 17.3457 36.9539 17.3457C34.8713 17.3457 33.1831 18.8651 33.1831 20.7394C33.1831 22.6137 34.8713 24.1331 36.9539 24.1331Z" fill="white"/>
<path d="M319.764 67.1202H64.1038V73.9077H319.764V67.1202Z" fill="#E6E6E6"/>
<path d="M237.56 83.7117H146.307V90.4991H237.56V83.7117Z" fill="#E6E6E6"/>
<path d="M237.56 117.649H146.307V123.682H237.56V117.649Z" fill="#E6E6E6"/>
<path d="M237.56 134.995H146.307V141.028H237.56V134.995Z" fill="#E6E6E6"/>
<path d="M282.81 100.303H101.057V107.091H282.81V100.303Z" fill="#E6E6E6"/>
<path d="M306.637 178.028H251.583V191.64H306.637V178.028Z" fill="#FF6C11"/>
<path d="M359.908 399.225L350.663 399.225L346.264 363.562L359.91 363.563L359.908 399.225Z" fill="#9F616A"/>
<path d="M344.058 396.583H361.889V407.81H332.831C332.831 404.832 334.014 401.977 336.119 399.871C338.225 397.766 341.081 396.583 344.058 396.583Z" fill="#2F2E41"/>
<path d="M394.599 399.225L385.354 399.225L380.955 363.562L394.601 363.563L394.599 399.225Z" fill="#9F616A"/>
<path d="M378.75 396.583H396.581V407.81H367.523C367.523 406.336 367.813 404.876 368.377 403.513C368.942 402.151 369.768 400.914 370.811 399.871C371.854 398.829 373.091 398.002 374.453 397.437C375.815 396.873 377.275 396.583 378.75 396.583Z" fill="#2F2E41"/>
<path d="M393.47 293.01C392.474 292.37 391.631 291.518 390.999 290.516C390.368 289.514 389.964 288.386 389.815 287.211C389.667 286.036 389.778 284.843 390.141 283.715C390.504 282.588 391.109 281.553 391.915 280.685L385.827 194.29L403.364 195.991L403.845 280.598C405.214 282.048 406.003 283.95 406.063 285.943C406.123 287.936 405.45 289.882 404.171 291.412C402.892 292.942 401.097 293.95 399.124 294.245C397.152 294.539 395.14 294.1 393.47 293.01Z" fill="#9F616A"/>
<path d="M359.471 381.259L349.293 380.773C348.426 380.732 347.608 380.36 347.006 379.734C346.405 379.108 346.067 378.276 346.061 377.408L345.35 274.422C345.347 273.933 345.449 273.45 345.65 273.004C345.851 272.558 346.146 272.161 346.515 271.84C346.883 271.519 347.317 271.281 347.786 271.143C348.255 271.005 348.748 270.97 349.232 271.04L389.951 276.951C390.756 277.063 391.493 277.462 392.027 278.075C392.561 278.687 392.856 279.472 392.858 280.284L398.095 375.711C398.098 376.159 398.013 376.603 397.844 377.017C397.675 377.432 397.425 377.809 397.11 378.127C396.794 378.445 396.419 378.697 396.006 378.869C395.592 379.042 395.149 379.13 394.701 379.13H383.728C382.918 379.134 382.135 378.846 381.519 378.32C380.904 377.794 380.498 377.064 380.376 376.264C380.376 376.264 372.087 304.685 370.949 304.727C369.805 304.748 363.003 378.272 363.003 378.272C362.901 379.096 362.503 379.854 361.883 380.405C361.262 380.955 360.462 381.261 359.633 381.263C359.579 381.263 359.525 381.262 359.471 381.259Z" fill="#2F2E41"/>
<path d="M389.797 223.32C389.386 223.025 389.047 222.641 388.804 222.197C388.562 221.753 388.422 221.261 388.395 220.755L387.11 197.47C386.983 195.163 387.714 192.891 389.163 191.091C390.613 189.291 392.677 188.092 394.958 187.724C397.239 187.356 399.575 187.846 401.516 189.099C403.458 190.351 404.867 192.278 405.471 194.508L411.116 215.327C411.35 216.196 411.231 217.122 410.783 217.902C410.335 218.683 409.596 219.254 408.728 219.49L392.672 223.844C392.184 223.977 391.672 223.999 391.175 223.909C390.677 223.818 390.206 223.617 389.797 223.32Z" fill="#3F3D56"/>
<path d="M374.798 167.979C385.028 167.979 393.321 159.686 393.321 149.456C393.321 139.226 385.028 130.933 374.798 130.933C364.568 130.933 356.275 139.226 356.275 149.456C356.275 159.686 364.568 167.979 374.798 167.979Z" fill="#9F616A"/>
<path d="M307.675 185.848C307.767 186.255 307.828 186.668 307.855 187.085L340.252 205.774L348.127 201.241L356.521 212.231L339.676 224.238L302.716 195.08C301.208 195.638 299.567 195.723 298.009 195.326C296.452 194.928 295.053 194.065 293.998 192.853C292.942 191.64 292.281 190.135 292.102 188.538C291.923 186.941 292.235 185.327 292.996 183.911C293.756 182.495 294.93 181.344 296.361 180.611C297.791 179.878 299.411 179.599 301.004 179.809C302.598 180.019 304.09 180.71 305.281 181.788C306.473 182.867 307.308 184.283 307.675 185.848Z" fill="#9F616A"/>
<path d="M341.409 204.185C341.355 203.682 341.415 203.174 341.584 202.697C341.753 202.22 342.026 201.787 342.385 201.43L358.873 184.938C360.507 183.304 362.688 182.333 364.995 182.212C367.302 182.09 369.573 182.828 371.369 184.281C373.164 185.735 374.358 187.802 374.72 190.084C375.082 192.366 374.587 194.701 373.329 196.64L361.587 214.733C361.096 215.488 360.326 216.016 359.446 216.204C358.566 216.391 357.648 216.222 356.892 215.733L342.937 206.676C342.512 206.402 342.155 206.036 341.89 205.604C341.626 205.173 341.462 204.688 341.409 204.185Z" fill="#3F3D56"/>
<path d="M387.906 164.111C384.45 167.792 378.033 165.816 377.583 160.787C377.547 160.397 377.55 160.004 377.59 159.614C377.823 157.386 379.11 155.364 378.801 153.012C378.732 152.427 378.514 151.869 378.168 151.392C375.414 147.704 368.95 153.041 366.351 149.703C364.758 147.656 366.631 144.433 365.408 142.146C363.794 139.126 359.014 140.616 356.016 138.962C352.681 137.123 352.88 132.005 355.076 128.892C357.753 125.096 362.448 123.07 367.084 122.779C371.721 122.487 376.325 123.74 380.654 125.427C385.571 127.343 390.448 129.992 393.475 134.316C397.155 139.575 397.509 146.645 395.669 152.795C394.549 156.535 390.728 161.105 387.906 164.111Z" fill="#2F2E41"/>
<path d="M432.851 407.67H287.298C287.098 407.67 286.906 407.59 286.765 407.449C286.623 407.307 286.544 407.116 286.544 406.916C286.544 406.716 286.623 406.524 286.765 406.382C286.906 406.241 287.098 406.161 287.298 406.161H432.851C433.051 406.161 433.243 406.241 433.384 406.382C433.525 406.524 433.605 406.716 433.605 406.916C433.605 407.116 433.525 407.307 433.384 407.449C433.243 407.59 433.051 407.67 432.851 407.67Z" fill="#3F3D56"/>
<path d="M393.287 180.352C392.965 180.121 392.637 179.894 392.302 179.671C390.524 178.488 388.598 177.544 386.574 176.862V171.995H372.245V176.511C367.495 177.821 363.235 180.499 359.995 184.211C356.755 187.924 354.678 192.507 354.022 197.391L344.265 269.828C344.203 270.281 344.232 270.742 344.353 271.183C344.474 271.624 344.683 272.036 344.967 272.393C345.246 272.749 345.593 273.044 345.989 273.26C346.385 273.477 346.821 273.612 347.27 273.655C350.651 273.992 357.663 275.302 366.637 280.288C370.952 282.679 375.81 283.919 380.744 283.889C384.661 283.874 388.545 283.182 392.227 281.845C392.851 281.615 393.393 281.205 393.784 280.668C394.176 280.13 394.4 279.489 394.427 278.824C394.779 271.029 396.833 230.902 402.817 206.426C403.98 201.624 403.695 196.586 401.999 191.946C400.303 187.306 397.272 183.272 393.287 180.352Z" fill="#3F3D56"/>
</g>
<defs>
<clipPath id="clip0_217_526">
<rect width="433.641" height="408" fill="white"/>
</clipPath>
</defs>
</svg>
