<svg width="146" height="152" viewBox="0 0 146 152" fill="none" xmlns="http://www.w3.org/2000/svg">
<path d="M133.013 129.653L126.37 135.766L131.649 126.912C127.49 119.373 120.687 112.857 120.687 112.857C120.687 112.857 106.574 126.372 106.574 136.995C106.574 147.619 112.893 151.328 120.687 151.328C128.482 151.328 134.8 147.619 134.8 136.995C134.8 134.631 134.1 132.123 133.013 129.653Z" fill="#F2F2F2"/>
<path d="M124.663 136.096V136.62C124.632 142.707 123.605 147.456 121.59 150.8C121.561 150.849 121.53 150.896 121.502 150.945L121.276 150.807L121.061 150.673C123.296 147.062 124.087 141.957 124.116 136.648C124.119 136.477 124.121 136.304 124.119 136.13C124.111 133.882 123.973 131.609 123.753 129.4C123.737 129.229 123.719 129.056 123.701 128.882C123.395 125.968 122.954 123.184 122.503 120.766C122.472 120.594 122.438 120.423 122.404 120.255C121.623 116.164 120.827 113.201 120.646 112.545C120.625 112.465 120.612 112.421 120.609 112.411L120.856 112.341L120.858 112.338L121.107 112.268C121.11 112.278 121.154 112.426 121.227 112.701C121.504 113.728 122.225 116.514 122.933 120.19C122.964 120.356 122.998 120.527 123.029 120.698C123.398 122.661 123.758 124.854 124.043 127.155C124.116 127.734 124.181 128.304 124.238 128.866C124.259 129.04 124.277 129.214 124.292 129.385C124.531 131.772 124.655 134.009 124.663 136.096Z" fill="white"/>
<path d="M122.932 120.19C122.758 120.213 122.582 120.237 122.403 120.255C121.917 120.305 121.429 120.33 120.94 120.33C118.858 120.333 116.802 119.869 114.923 118.972C114.814 119.109 114.705 119.246 114.594 119.386C116.57 120.351 118.741 120.851 120.94 120.848C121.462 120.848 121.983 120.821 122.502 120.766C122.678 120.747 122.854 120.724 123.028 120.698C124.463 120.492 125.857 120.07 127.165 119.446C127.053 119.303 126.945 119.164 126.838 119.026C125.601 119.604 124.284 119.996 122.932 120.19Z" fill="white"/>
<path d="M124.238 128.866C124.059 128.877 123.88 128.882 123.701 128.882C123.647 128.885 123.59 128.885 123.535 128.885C121.279 128.885 119.057 128.339 117.057 127.295C115.057 126.251 113.34 124.739 112.051 122.889C111.947 123.042 111.843 123.195 111.742 123.35C113.086 125.223 114.856 126.749 116.907 127.801C118.958 128.854 121.23 129.403 123.535 129.403C123.608 129.403 123.681 129.403 123.753 129.4C123.935 129.398 124.114 129.393 124.293 129.385C127.062 129.243 129.732 128.307 131.983 126.689C131.9 126.536 131.817 126.383 131.731 126.23C129.543 127.819 126.939 128.735 124.238 128.866Z" fill="white"/>
<path d="M124.666 136.096C124.484 136.112 124.303 136.122 124.121 136.13C123.927 136.138 123.732 136.143 123.538 136.143C120.506 136.14 117.557 135.155 115.132 133.336C112.708 131.517 110.938 128.962 110.087 126.054C109.97 126.264 109.854 126.471 109.742 126.681C110.7 129.583 112.549 132.109 115.026 133.901C117.502 135.692 120.48 136.658 123.538 136.662C123.732 136.662 123.927 136.659 124.119 136.649C124.303 136.643 124.484 136.633 124.666 136.62C128.333 136.333 131.754 134.664 134.236 131.951C134.182 131.76 134.12 131.57 134.057 131.378C131.66 134.112 128.291 135.804 124.666 136.096Z" fill="white"/>
<path d="M109.128 33.1171L36.8728 23.9099C36.6782 23.885 36.4821 23.8722 36.2859 23.8718C36.0925 23.8715 35.8992 23.8837 35.7074 23.9083C35.5158 23.933 35.3261 23.9701 35.1395 24.0194C34.9506 24.0698 34.7652 24.1324 34.5844 24.2067C34.4072 24.2793 34.2347 24.3627 34.0677 24.4563C33.8984 24.5506 33.7348 24.6548 33.5778 24.7683C33.4172 24.8849 33.2634 25.0104 33.117 25.1444C32.9659 25.2822 32.8223 25.428 32.6868 25.5812C32.5477 25.739 32.4168 25.9037 32.2946 26.0749C32.1712 26.2482 32.0554 26.4284 31.9472 26.6156C31.8389 26.8035 31.7385 26.9988 31.6459 27.2017C31.5533 27.4045 31.4687 27.6142 31.3924 27.8307C31.3133 28.0546 31.244 28.2834 31.1844 28.5172C31.1249 28.7511 31.0752 28.989 31.0352 29.2309C30.9961 29.4726 30.9661 29.7183 30.9453 29.9679C30.9245 30.2176 30.9141 30.4702 30.9141 30.7259C30.9149 30.9814 30.9253 31.236 30.9453 31.4898C30.9653 31.7436 30.9952 31.9953 31.0352 32.2449C31.0756 32.4956 31.1255 32.7438 31.1851 32.9895C31.2446 33.2352 31.3139 33.478 31.393 33.7181C31.4694 33.9501 31.5539 34.1767 31.6465 34.3981C31.7391 34.6196 31.8395 34.8351 31.9478 35.0446C32.056 35.2541 32.1718 35.4575 32.2953 35.655C32.4185 35.8532 32.5492 36.044 32.6874 36.2273C32.8256 36.4105 32.969 36.5854 33.1176 36.7518C33.2662 36.9172 33.4198 37.0732 33.5784 37.2199C33.737 37.3665 33.9003 37.5035 34.0683 37.6308C34.2344 37.7569 34.4069 37.8744 34.585 37.9828C34.7643 38.0922 34.9497 38.1915 35.1401 38.2802C35.3248 38.3662 35.5144 38.4414 35.708 38.5052C35.8975 38.5677 36.0907 38.6187 36.2865 38.6578C36.4803 38.6964 36.6763 38.7229 36.8734 38.7374L109.128 44.0199C109.339 44.0352 109.55 44.0141 109.753 43.9575C109.856 43.9288 109.957 43.8916 110.054 43.8464C110.156 43.7992 110.253 43.7445 110.347 43.6826C110.441 43.6199 110.532 43.5511 110.617 43.4767C110.707 43.3985 110.792 43.3152 110.872 43.227C110.956 43.1339 111.036 43.0364 111.11 42.9349C111.187 42.8305 111.261 42.7192 111.331 42.6011C111.402 42.4829 111.469 42.3596 111.532 42.2313C111.595 42.1029 111.654 41.9696 111.709 41.8312C111.764 41.6931 111.815 41.5502 111.862 41.4025C111.909 41.2548 111.952 41.1027 111.99 40.9463C112.031 40.7844 112.066 40.6197 112.095 40.452C112.124 40.2843 112.15 40.1142 112.17 39.9415C112.191 39.7688 112.206 39.5939 112.216 39.4166C112.226 39.2394 112.231 39.0602 112.231 38.879C112.23 38.698 112.225 38.5178 112.216 38.3385C112.206 38.1592 112.191 37.9812 112.17 37.8046C112.15 37.628 112.125 37.4528 112.095 37.2791C112.065 37.1054 112.03 36.9336 111.99 36.7636C111.952 36.5993 111.909 36.4387 111.862 36.2818C111.816 36.1271 111.765 35.9746 111.709 35.8244C111.654 35.6742 111.595 35.5286 111.532 35.3875C111.469 35.2467 111.402 35.11 111.331 34.9775C111.26 34.845 111.187 34.7189 111.11 34.5993C111.033 34.4797 110.954 34.3663 110.872 34.2592C110.79 34.152 110.705 34.0518 110.617 33.9583C110.532 33.8668 110.441 33.78 110.347 33.6981C110.254 33.6179 110.156 33.5436 110.054 33.4756C109.958 33.4114 109.857 33.3541 109.753 33.304C109.653 33.2561 109.55 33.2161 109.444 33.1842C109.341 33.1532 109.235 33.1308 109.128 33.1171Z" fill="#FF6C11"/>
<path d="M109.128 53.8827L36.8728 52.153C36.4809 52.1433 36.0893 52.1833 35.7074 52.2719C35.5147 52.3168 35.325 52.3735 35.1394 52.442C34.9497 52.5119 34.7643 52.5932 34.5843 52.6854C34.4066 52.7764 34.2341 52.8772 34.0677 52.9874C33.898 53.0997 33.7345 53.2211 33.5778 53.351C33.4171 53.4843 33.2632 53.6257 33.117 53.7747C32.9682 53.9262 32.8248 54.0872 32.6868 54.2578C32.5488 54.4288 32.4181 54.6069 32.2946 54.7923C32.1712 54.9776 32.0554 55.1699 31.9471 55.3689C31.8389 55.568 31.7385 55.7738 31.6459 55.9862C31.5532 56.1986 31.4687 56.417 31.3924 56.6415C31.3133 56.8738 31.244 57.1099 31.1844 57.3498C31.1249 57.5897 31.0752 57.8326 31.0352 58.0788C30.9961 58.3248 30.9661 58.5738 30.9453 58.8255C30.9245 59.0772 30.9141 59.3309 30.9141 59.5865C30.9149 59.8422 30.9253 60.0958 30.9453 60.3473C30.9653 60.5988 30.9952 60.8475 31.0352 61.0934C31.0756 61.3381 31.1255 61.5801 31.1851 61.8195C31.2446 62.059 31.3139 62.2947 31.393 62.5266C31.4694 62.7517 31.5539 62.9702 31.6465 63.1819C31.7391 63.3937 31.8395 63.5988 31.9478 63.7973C32.056 63.9957 32.1718 64.1872 32.2953 64.3718C32.4185 64.5557 32.5492 64.7325 32.6874 64.9022C32.8256 65.072 32.969 65.2321 33.1176 65.3825C33.2639 65.5306 33.4177 65.6711 33.5784 65.8034C33.7351 65.9323 33.8986 66.0526 34.0683 66.1638C34.2348 66.2729 34.4073 66.3726 34.585 66.4625C34.765 66.5536 34.9504 66.6337 35.1401 66.7024C35.3257 66.7696 35.5154 66.8252 35.708 66.8687C35.8986 66.9121 36.0919 66.9434 36.2865 66.9624C36.4815 66.981 36.6776 66.9874 36.8734 66.9814L109.128 64.7843C109.234 64.781 109.34 64.7688 109.444 64.7478C109.549 64.7264 109.652 64.6965 109.753 64.6582C109.857 64.6185 109.958 64.5709 110.054 64.5159C110.156 64.458 110.254 64.3931 110.347 64.3218C110.441 64.2492 110.532 64.1711 110.617 64.0878C110.707 64.0004 110.792 63.9083 110.872 63.812C110.954 63.7138 111.033 63.6082 111.11 63.4952C111.187 63.3823 111.261 63.2634 111.331 63.1386C111.402 63.0129 111.469 62.8827 111.532 62.7479C111.595 62.6131 111.654 62.4737 111.709 62.3297C111.764 62.1835 111.815 62.0347 111.862 61.8832C111.909 61.7318 111.952 61.5757 111.99 61.4151C112.031 61.2508 112.066 61.0832 112.095 60.9124C112.124 60.7417 112.149 60.5689 112.17 60.3941C112.19 60.2188 112.206 60.0419 112.216 59.8637C112.226 59.6854 112.231 59.5056 112.231 59.3244C112.23 59.1449 112.225 58.9656 112.216 58.7865C112.206 58.6074 112.191 58.4305 112.17 58.256C112.15 58.0808 112.125 57.9083 112.095 57.7383C112.065 57.5684 112.03 57.4002 111.99 57.2337C111.951 57.0731 111.909 56.9167 111.862 56.7644C111.815 56.6122 111.764 56.4642 111.709 56.3207C111.654 56.1772 111.596 56.0381 111.532 55.9035C111.469 55.7689 111.402 55.6392 111.332 55.5144C111.261 55.3894 111.187 55.2708 111.11 55.1586C111.034 55.0465 110.954 54.9414 110.872 54.8432C110.792 54.7473 110.707 54.6557 110.617 54.5689C110.532 54.4862 110.442 54.4087 110.347 54.3367C110.254 54.266 110.156 54.2018 110.054 54.1445C109.958 54.0903 109.857 54.0435 109.753 54.0047C109.652 53.9671 109.549 53.9377 109.444 53.917C109.34 53.8967 109.234 53.8852 109.128 53.8827Z" fill="#E4E4E4"/>
<path d="M109.128 73.3501L36.8728 78.6317C36.6757 78.6461 36.4797 78.6727 36.2859 78.7113C36.0901 78.7504 35.8969 78.8013 35.7074 78.8639C35.5138 78.9277 35.3242 79.0028 35.1395 79.0889C34.949 79.1776 34.7637 79.2769 34.5844 79.3862C34.4062 79.4947 34.2338 79.6122 34.0677 79.7382C33.8995 79.8666 33.7362 80.0036 33.5778 80.1492C33.4194 80.2954 33.2658 80.4515 33.117 80.6173C32.9682 80.7831 32.8248 80.9579 32.6868 81.1418C32.5488 81.3263 32.4181 81.5173 32.2946 81.7147C32.1712 81.9121 32.0554 82.1156 31.9472 82.3251C31.8389 82.5348 31.7385 82.7503 31.6459 82.9716C31.5533 83.193 31.4687 83.4196 31.3924 83.6516C31.3133 83.8912 31.244 84.1341 31.1844 84.3802C31.1249 84.6263 31.0752 84.8742 31.0352 85.1238C30.9961 85.3739 30.9661 85.6257 30.9453 85.8793C30.9245 86.1329 30.9141 86.3875 30.9141 86.6432C30.9149 86.8988 30.9253 87.1515 30.9453 87.4011C30.9653 87.6508 30.9952 87.8965 31.0352 88.1385C31.0756 88.381 31.1255 88.619 31.1851 88.8524C31.2446 89.0858 31.3139 89.3147 31.393 89.5389C31.4694 89.7557 31.5539 89.9654 31.6465 90.168C31.7391 90.3709 31.8395 90.5662 31.9478 90.754C32.056 90.9419 32.1718 91.1222 32.2953 91.2948C32.4175 91.466 32.5483 91.6307 32.6874 91.7885C32.8229 91.9417 32.9665 92.0875 33.1176 92.2253C33.264 92.3593 33.4178 92.4848 33.5784 92.6013C33.7354 92.7149 33.899 92.8191 34.0683 92.9134C34.2353 93.007 34.4078 93.0904 34.585 93.163C34.7658 93.2373 34.9512 93.2999 35.1401 93.3503C35.3268 93.3996 35.5165 93.4367 35.708 93.4613C35.8998 93.486 36.0931 93.4982 36.2865 93.4979C36.4828 93.4974 36.6788 93.4847 36.8734 93.4598L109.128 84.2548C109.235 84.2411 109.341 84.2187 109.444 84.1877C109.55 84.1558 109.653 84.1157 109.753 84.0679C109.857 84.0178 109.958 83.9604 110.054 83.8962C110.156 83.8282 110.254 83.7539 110.347 83.6737C110.441 83.5919 110.532 83.505 110.617 83.4135C110.704 83.3199 110.789 83.2196 110.872 83.1127C110.954 83.0058 111.033 82.8924 111.11 82.7726C111.187 82.6527 111.261 82.5267 111.331 82.3944C111.402 82.2629 111.469 82.1262 111.532 81.9843C111.595 81.8425 111.654 81.6968 111.709 81.5475C111.764 81.3975 111.815 81.2441 111.862 81.0872C111.909 80.9304 111.952 80.7698 111.99 80.6054C112.031 80.4352 112.066 80.2633 112.095 80.0896C112.124 79.9159 112.15 79.7407 112.17 79.5641C112.191 79.3875 112.206 79.2095 112.216 79.0302C112.226 78.8509 112.231 78.6706 112.231 78.4894C112.23 78.3093 112.225 78.1306 112.215 77.9534C112.206 77.7761 112.191 77.6012 112.17 77.4285C112.15 77.2552 112.125 77.0847 112.095 76.917C112.065 76.7494 112.03 76.5846 111.99 76.4228C111.952 76.2661 111.909 76.114 111.862 75.9666C111.816 75.8191 111.765 75.6761 111.709 75.5378C111.654 75.3994 111.595 75.2661 111.532 75.1378C111.469 75.0104 111.402 74.8875 111.331 74.7689C111.26 74.6503 111.186 74.539 111.109 74.435C111.035 74.3336 110.956 74.2361 110.871 74.143C110.791 74.0548 110.706 73.9715 110.616 73.8933C110.531 73.8189 110.441 73.7501 110.346 73.6874C110.253 73.6255 110.155 73.5707 110.054 73.5235C109.956 73.4783 109.856 73.4412 109.752 73.4124C109.549 73.3559 109.338 73.3348 109.128 73.3501Z" fill="#E4E4E4"/>
<path d="M69.7404 74.3176C70.1981 75.0782 70.9193 75.6443 71.7671 75.9085C72.6149 76.1727 73.5302 76.1165 74.3393 75.7507C75.1484 75.3849 75.7949 74.7348 76.1562 73.924C76.5174 73.1132 76.5681 72.198 76.2988 71.3523L90.3025 42.5974L83.5994 38.5359L71.5055 69.0795C71.4593 69.0974 71.4138 69.1162 71.369 69.1359C71.3242 69.1556 71.2795 69.1761 71.235 69.1976C71.1905 69.219 71.1464 69.2415 71.1025 69.2652C71.0587 69.2888 71.0152 69.3137 70.972 69.3398C70.1484 69.8367 69.5559 70.6402 69.3249 71.5736C69.0939 72.507 69.2433 73.4939 69.7402 74.3173L69.7404 74.3176Z" fill="#9E616A"/>
<path d="M87.632 53.6858L77.6836 51.1373C77.6836 51.1373 78.0084 50.4034 78.5363 49.1876C79.0642 47.9718 79.8018 46.2764 80.6315 44.3516C81.4612 42.4267 82.3818 40.276 83.2809 38.15C84.1801 36.0241 85.0545 33.9236 85.791 32.1029C86.5275 30.2823 87.3642 29.1919 88.2051 28.5808C88.901 28.0521 89.7776 27.8192 90.6443 27.9326C91.318 28.0329 91.9619 28.2779 92.5318 28.6507C92.8016 28.8185 93.0553 29.0109 93.2895 29.2255L95.5961 33.418L87.632 53.6858Z" fill="#CCCCCC"/>
<path d="M8.0128 51.4082C7.77188 51.426 7.53214 51.4572 7.29472 51.5018C7.05577 51.5465 6.81949 51.6045 6.58696 51.6753C6.35088 51.7474 6.11888 51.8322 5.89198 51.9293C5.65976 52.0287 5.4329 52.1402 5.21232 52.2632C4.99648 52.3845 4.78553 52.5164 4.57947 52.6589C4.37342 52.8014 4.17329 52.9545 3.9791 53.1182C3.78511 53.2815 3.59685 53.4556 3.41432 53.6406C3.23178 53.8255 3.05591 54.0205 2.8867 54.2257C2.71748 54.4308 2.55711 54.6433 2.40558 54.8632C2.25405 55.0831 2.1119 55.3096 1.97911 55.5428C1.84756 55.7764 1.72455 56.0164 1.61007 56.2627C1.4956 56.509 1.39153 56.761 1.29787 57.0188C1.20026 57.2861 1.11482 57.5562 1.04155 57.8291C0.968284 58.1021 0.907195 58.3773 0.858285 58.6548C0.809163 58.9323 0.772326 59.2117 0.747766 59.493C0.723207 59.7742 0.710931 60.0566 0.710938 60.3402C0.710938 60.6237 0.723213 60.9036 0.747766 61.1799C0.772319 61.4561 0.809156 61.7281 0.858285 61.9959C0.907197 62.2636 0.968286 62.5266 1.04155 62.7847C1.11481 63.0429 1.19995 63.2957 1.29694 63.5433C1.39143 63.7823 1.4955 64.0136 1.60914 64.237C1.72147 64.4581 1.84484 64.6735 1.97879 64.8823C2.11064 65.0871 2.253 65.285 2.40527 65.4752C2.55609 65.6642 2.71679 65.8451 2.88669 66.0172C3.05378 66.1864 3.22992 66.3464 3.41432 66.4965C3.59489 66.6435 3.78354 66.7803 3.97941 66.9062C4.36594 67.1549 4.77971 67.3584 5.21262 67.5128C5.65641 67.6713 6.1176 67.7761 6.58633 67.8249C6.82143 67.8491 7.05777 67.8595 7.2941 67.8561C7.53423 67.8527 7.77397 67.8357 8.01217 67.8052C8.25252 67.7746 8.49099 67.7308 8.7265 67.6739C8.96272 67.6167 9.19565 67.5468 9.42428 67.4645C9.6555 67.3811 9.88217 67.2856 10.1033 67.1783C10.3287 67.0691 10.5483 66.9485 10.7615 66.817C10.969 66.6876 11.1711 66.5488 11.3678 66.4007C11.5645 66.2526 11.755 66.0947 11.9394 65.927C12.1238 65.7594 12.3019 65.5825 12.4736 65.3965C12.6453 65.2106 12.8104 65.0154 12.9688 64.8112C13.1282 64.6071 13.2783 64.3969 13.419 64.1805C13.5597 63.9642 13.6914 63.7421 13.8142 63.5143C13.937 63.2865 14.0507 63.0534 14.1551 62.815C14.2596 62.5766 14.3549 62.3332 14.4408 62.0848C14.5299 61.8277 14.6078 61.5684 14.6747 61.3069C14.7415 61.0454 14.7973 60.782 14.842 60.5168C14.8865 60.2513 14.92 59.9845 14.9425 59.7164C14.965 59.4482 14.9762 59.179 14.9762 58.9085C14.976 58.6381 14.9648 58.371 14.9425 58.1072C14.9203 57.8434 14.8868 57.5834 14.842 57.3271C14.7975 57.0712 14.7417 56.8191 14.6747 56.5707C14.6076 56.3223 14.5297 56.0786 14.4408 55.8396C14.3544 55.6082 14.2592 55.3839 14.1551 55.1665C14.0496 54.9497 13.9355 54.7394 13.8127 54.5355C13.5696 54.1326 13.2869 53.7549 12.9688 53.4081C12.8127 53.2375 12.6478 53.0751 12.4749 52.9216C12.3045 52.771 12.1262 52.6296 11.9407 52.4982C11.7569 52.368 11.566 52.2481 11.369 52.139C11.1721 52.03 10.9693 51.9321 10.7615 51.8457C10.3324 51.6671 9.88363 51.5398 9.4246 51.4666C9.19357 51.4298 8.96058 51.4065 8.72682 51.397C8.48868 51.3873 8.25019 51.3913 8.0125 51.4088" fill="#E4E4E4"/>
<path d="M8.0128 80.7405C7.77188 80.7583 7.53214 80.7895 7.29472 80.8341C7.05577 80.8788 6.81949 80.9367 6.58696 81.0076C6.35088 81.0797 6.11888 81.1645 5.89198 81.2616C5.65976 81.361 5.4329 81.4724 5.21232 81.5955C4.99648 81.7168 4.78553 81.8487 4.57947 81.9912C4.37342 82.1337 4.17329 82.2868 3.9791 82.4505C3.78511 82.6138 3.59685 82.7879 3.41432 82.9729C3.23178 83.1578 3.05591 83.3528 2.8867 83.5579C2.71748 83.7631 2.55711 83.9756 2.40558 84.1954C2.25405 84.4153 2.1119 84.6419 1.97911 84.8751C1.84756 85.1087 1.72455 85.3487 1.61007 85.595C1.4956 85.8413 1.39153 86.0933 1.29787 86.351C1.20026 86.6184 1.11482 86.8885 1.04155 87.1614C0.968284 87.4344 0.907195 87.7096 0.858285 87.9871C0.809163 88.2646 0.772326 88.544 0.747766 88.8252C0.723207 89.1065 0.710931 89.3889 0.710938 89.6724C0.710938 89.956 0.723213 90.2359 0.747766 90.5121C0.772319 90.7884 0.809156 91.0604 0.858285 91.3281C0.907197 91.5959 0.968286 91.8588 1.04155 92.117C1.11481 92.3752 1.19995 92.628 1.29694 92.8756C1.39143 93.1146 1.4955 93.3458 1.60914 93.5693C1.72147 93.7904 1.84484 94.0058 1.97879 94.2146C2.11064 94.4194 2.253 94.6173 2.40527 94.8074C2.55609 94.9965 2.71679 95.1774 2.88669 95.3495C3.05378 95.5186 3.22992 95.6786 3.41432 95.8288C3.59489 95.9758 3.78355 96.1126 3.97941 96.2385C4.36594 96.4871 4.77971 96.6907 5.21262 96.8451C5.65641 97.0036 6.1176 97.1084 6.58633 97.1571C6.82143 97.1814 7.05777 97.1918 7.2941 97.1884C7.53423 97.185 7.77397 97.168 8.01217 97.1375C8.25252 97.1069 8.49099 97.063 8.7265 97.0061C8.96272 96.949 9.19565 96.8791 9.42428 96.7967C9.6555 96.7134 9.88217 96.6178 10.1033 96.5106C10.3287 96.4013 10.5483 96.2807 10.7615 96.1493C10.969 96.0199 11.1711 95.8811 11.3678 95.733C11.5645 95.5849 11.755 95.427 11.9394 95.2593C12.1238 95.0916 12.3019 94.9148 12.4736 94.7288C12.6453 94.5428 12.8104 94.3477 12.9688 94.1434C13.1282 93.9393 13.2783 93.7291 13.419 93.5128C13.5597 93.2964 13.6914 93.0744 13.8142 92.8466C13.937 92.6188 14.0507 92.3857 14.1551 92.1473C14.2596 91.9089 14.3549 91.6655 14.4408 91.4171C14.5299 91.16 14.6078 90.9007 14.6747 90.6392C14.7415 90.3777 14.7973 90.1143 14.842 89.8491C14.8865 89.5836 14.92 89.3168 14.9425 89.0487C14.965 88.7805 14.9762 88.5112 14.9762 88.2408C14.976 87.9704 14.9648 87.7032 14.9425 87.4395C14.9203 87.1757 14.8868 86.9156 14.842 86.6593C14.7975 86.4035 14.7417 86.1513 14.6747 85.903C14.6076 85.6546 14.5297 85.4109 14.4408 85.1718C14.3544 84.9405 14.2592 84.7161 14.1551 84.4987C14.0496 84.282 13.9355 84.0717 13.8127 83.8678C13.5696 83.4649 13.2869 83.0872 12.9688 82.7404C12.8127 82.5698 12.6478 82.4074 12.4749 82.2539C12.3045 82.1033 12.1262 81.9619 11.9407 81.8305C11.7569 81.7003 11.566 81.5804 11.369 81.4713C11.1721 81.3623 10.9693 81.2644 10.7615 81.178C10.3324 80.9993 9.88363 80.8721 9.4246 80.7988C9.19357 80.762 8.96058 80.7388 8.72682 80.7292C8.48868 80.7196 8.25019 80.7236 8.0125 80.7411" fill="#E4E4E4"/>
<path d="M8.01604 19.6324C7.77643 19.6265 7.53669 19.6344 7.29797 19.6558C7.06023 19.6771 6.82392 19.7121 6.5902 19.7606C6.35516 19.8097 6.12312 19.8722 5.89523 19.9478C5.66383 20.0244 5.43692 20.1139 5.21556 20.2159C4.99889 20.3156 4.78765 20.4268 4.58272 20.5488C4.37577 20.6721 4.17537 20.806 3.98234 20.9501C3.7862 21.0965 3.5976 21.2527 3.41725 21.4182C3.23388 21.5865 3.0577 21.7649 2.88869 21.9533C2.71948 22.142 2.5591 22.339 2.40757 22.5444C2.25605 22.7497 2.11389 22.9625 1.9811 23.1828C1.84893 23.406 1.72561 23.6347 1.61113 23.869C1.49666 24.1032 1.3926 24.3451 1.29893 24.5948C1.20194 24.8521 1.11681 25.1137 1.04354 25.3796C0.970278 25.6455 0.909188 25.9147 0.860278 26.1875C0.811157 26.461 0.774319 26.7369 0.74976 27.015C0.7252 27.2932 0.712924 27.574 0.712931 27.8575C0.712931 28.1407 0.725207 28.4215 0.74976 28.7C0.774313 28.9786 0.81115 29.2541 0.860278 29.5267C0.90919 29.7992 0.970279 30.0681 1.04354 30.3333C1.11681 30.5985 1.20194 30.8596 1.29893 31.1165C1.39342 31.3647 1.49749 31.606 1.61113 31.8405C1.72561 32.0741 1.84924 32.3007 1.98202 32.5204C2.1148 32.7401 2.25696 32.952 2.4085 33.1561C2.55982 33.3608 2.72018 33.5567 2.88961 33.7439C3.05904 33.9312 3.23491 34.108 3.41724 34.2744C3.59664 34.4392 3.7843 34.5948 3.97952 34.7406C4.17257 34.8834 4.37297 35.016 4.57989 35.1378C4.78486 35.2586 4.9961 35.3684 5.21273 35.4667C5.43415 35.5673 5.66107 35.6554 5.89241 35.7304C6.34763 35.8776 6.81831 35.9719 7.29514 36.0113C7.77262 36.0508 8.25304 36.0363 8.72723 35.9679C8.96233 35.9339 9.1953 35.8866 9.42502 35.8262C9.65532 35.7656 9.88202 35.692 10.1041 35.6059C10.3287 35.5189 10.5484 35.4196 10.7622 35.3085C10.9707 35.2003 11.1735 35.0815 11.3697 34.9525C11.5672 34.8227 11.758 34.683 11.9414 34.534C12.1258 34.3843 12.3039 34.2247 12.4756 34.0554C12.6473 33.886 12.8123 33.7069 12.9707 33.518C13.1302 33.3291 13.2802 33.1334 13.4209 32.9308C13.5616 32.7281 13.6934 32.5188 13.8162 32.3029C13.9394 32.087 14.0531 31.8649 14.1571 31.6367C14.2612 31.4085 14.3564 31.1748 14.4428 30.9355C14.5319 30.6872 14.6098 30.4354 14.6766 30.1804C14.7435 29.9253 14.7992 29.6674 14.844 29.4065C14.8885 29.1446 14.922 28.8806 14.9445 28.6146C14.967 28.3485 14.9782 28.0802 14.9782 27.8098C14.978 27.5396 14.9668 27.2714 14.9445 27.0053C14.9222 26.7393 14.8887 26.476 14.844 26.2156C14.7994 25.9549 14.7437 25.6971 14.6766 25.4423C14.6096 25.1875 14.5317 24.9362 14.4428 24.6884C14.3564 24.449 14.2612 24.2154 14.1571 23.9879C14.0531 23.7603 13.9389 23.5386 13.8146 23.3229C13.6918 23.109 13.5601 22.901 13.4194 22.6988C13.2787 22.4966 13.1291 22.3019 12.9707 22.1147C12.8134 21.9276 12.6488 21.7499 12.4768 21.5814C12.3049 21.4129 12.1268 21.2545 11.9426 21.1061C11.7593 20.958 11.5686 20.8193 11.3713 20.6905C11.175 20.5627 10.9722 20.4451 10.7638 20.3382C10.5499 20.2284 10.3302 20.1305 10.1056 20.0449C9.88352 19.9602 9.65681 19.8881 9.42658 19.8289C9.19679 19.77 8.96381 19.7241 8.72879 19.6916C8.49196 19.659 8.25347 19.6398 8.01447 19.6342M8.01447 18.8535C9.06325 18.8822 10.0919 19.1483 11.0229 19.6317C11.9481 20.1153 12.7682 20.7774 13.4356 21.5798C14.1333 22.4161 14.6767 23.3696 15.0404 24.396C15.8192 26.6052 15.8192 29.0141 15.0404 31.2233C14.6763 32.2526 14.133 33.2095 13.4356 34.0498C12.7681 34.856 11.9481 35.5228 11.0226 36.0122C10.0928 36.5014 9.06432 36.7742 8.01416 36.8101C6.95752 36.8447 5.90712 36.6354 4.94455 36.1985C3.9728 35.7536 3.10346 35.1129 2.39102 34.3166C1.63446 33.4732 1.04234 32.496 0.645162 31.4351C-0.215054 29.1257 -0.215054 26.584 0.645162 24.2746C1.04273 23.2106 1.63474 22.2297 2.39102 21.382C3.10324 20.5812 3.97236 19.935 4.94455 19.4835C5.90637 19.0404 6.95731 18.8244 8.01603 18.8522L8.01447 18.8535Z" fill="#FF6C11"/>
<path d="M8.01393 30.0386L5.55469 24.918L6.13851 24.5379L8.1641 28.7446L16.6692 18.7529L17.184 19.3012L8.01393 30.0386Z" fill="#FF6C11"/>
<path d="M97.5138 131.134L91.4258 131.11L93.3889 147.01L97.5138 147.031V131.134Z" fill="#9E616A"/>
<path d="M98.5665 151.031L85.2734 150.961V150.793C85.2732 150.452 85.3064 150.112 85.3727 149.777C85.5034 149.117 85.7639 148.49 86.1392 147.932C86.5203 147.366 87.0087 146.88 87.5769 146.502C88.1374 146.129 88.7664 145.872 89.4273 145.744C89.7624 145.679 90.103 145.648 90.4442 145.65L98.5665 145.69V151.031Z" fill="#2F2E41"/>
<path d="M78.0198 131.058L71.9492 131.035L73.9061 146.913L78.0198 146.933V131.058Z" fill="#9E616A"/>
<path d="M79.0704 150.928L65.8123 150.858V150.69C65.8122 150.35 65.8454 150.01 65.9115 149.676C66.0419 149.017 66.3016 148.391 66.6758 147.833C67.0557 147.267 67.543 146.782 68.1101 146.404C68.6691 146.032 69.2966 145.775 69.9558 145.648C70.2901 145.584 70.6298 145.552 70.9702 145.555L79.0704 145.594V150.928Z" fill="#2F2E41"/>
<path d="M77.7668 66.0728L67.5586 104.149L71.2951 140.648L79.5685 140.876L77.7671 107.92L88.0883 91.4729L90.3268 141.1L97.8316 140.57L102.006 97.9004C103.424 94.5686 104.464 91.0885 105.107 87.5252C105.611 84.7282 105.857 81.8906 105.84 79.0485C105.831 77.1351 105.684 75.2249 105.4 73.3328C105.298 72.6277 105.16 71.9282 104.987 71.2371L101.944 68.1531L77.7668 66.0728Z" fill="#2F2E41"/>
<path d="M91.293 72.441C89.5762 72.441 87.9654 72.3859 86.5048 72.2772C85.0127 72.1749 83.5285 71.9796 82.0608 71.6926C80.8111 71.4593 79.5942 71.0763 78.4362 70.552C77.504 70.1496 76.6935 69.5102 76.0852 68.6975L76.0156 68.5964L78.8058 50.447L81.8147 30.0402C82.0128 28.6898 82.7007 27.4593 83.7476 26.583C84.7946 25.7067 86.1273 25.2457 87.4922 25.2878L96.9156 25.5764C97.6223 25.5981 98.3174 25.7613 98.9597 26.0565C99.6021 26.3516 100.179 26.7726 100.655 27.2946C101.132 27.8166 101.499 28.4289 101.734 29.0952C101.969 29.7615 102.068 30.4683 102.025 31.1736L100.788 51.4684L105.351 71.487L105.028 71.5321C104.898 71.5493 104.397 71.6154 103.613 71.7036C102.588 71.8188 101.541 71.9226 100.501 72.0122C99.0308 72.1389 97.5918 72.2385 96.2243 72.3084C94.4901 72.3967 92.828 72.4395 91.293 72.441Z" fill="#CCCCCC"/>
<path d="M86.0628 21.6814C86.0603 21.6814 86.0578 21.6814 86.0553 21.6814C85.8576 21.6813 85.6618 21.6423 85.4792 21.5665C85.2966 21.4908 85.1308 21.3799 84.9911 21.2401C84.8513 21.1002 84.7406 20.9343 84.665 20.7517C84.5895 20.5691 84.5507 20.3734 84.5508 20.1758V11.7787C84.5493 10.2743 84.8505 8.7849 85.4365 7.39915C86.5839 4.69491 88.7312 2.53756 91.4309 1.37669C93.1383 0.64473 95.0006 0.347425 96.8512 0.511395C98.7018 0.675364 100.483 1.29549 102.035 2.31624C103.587 3.33699 104.861 4.7265 105.744 6.36034C106.627 7.99418 107.09 9.82134 107.093 11.6782V20.0881C107.094 20.2905 107.053 20.4909 106.974 20.6773C106.819 21.0409 106.53 21.3306 106.167 21.4861C105.98 21.5656 105.78 21.6069 105.577 21.6075L86.0616 21.6814H86.0628Z" fill="#2F2E41"/>
<path d="M100.912 8.89886C101.699 10.3339 102.042 11.9696 101.898 13.5993C101.755 15.229 101.131 16.7797 100.107 18.0556C99.0819 19.3314 97.7019 20.2751 96.1409 20.7675C94.5799 21.2599 92.9079 21.2789 91.3362 20.8221C90.2954 20.5232 89.3243 20.0208 88.4791 19.3441C87.634 18.6673 86.9316 17.8297 86.4127 16.8797C85.6285 15.4453 85.2867 13.811 85.4305 12.1827C85.5743 10.5545 86.1973 9.00523 87.2208 7.73034C88.2443 6.45544 89.6226 5.51197 91.1818 5.01889C92.7411 4.5258 94.4115 4.50518 95.9824 4.95962C97.0242 5.25745 97.9964 5.75904 98.8427 6.43531C99.689 7.11158 100.392 7.94906 100.912 8.89918V8.89886Z" fill="#9E616A"/>
<path d="M81.8828 12.462C81.8817 11.2722 82.12 10.0943 82.5834 8.99833C83.4907 6.85996 85.1888 5.15414 87.3236 4.23653C88.419 3.76747 89.5975 3.52339 90.7891 3.51883L92.4706 3.5104C92.4895 3.51029 92.5084 3.51024 92.5273 3.51026C93.6917 3.51097 94.8445 3.7409 95.92 4.18693C96.9955 4.63295 97.9725 5.28633 98.7954 6.10975C99.6182 6.93318 100.271 7.91053 100.716 8.986C101.161 10.0615 101.389 11.214 101.388 12.3778V12.546L97.8312 12.5603L96.6183 9.17338L96.3757 12.5669L94.5384 12.575L93.9268 10.8662L93.8041 12.5772L81.8844 12.6305L81.8828 12.462Z" fill="#2F2E41"/>
<path d="M67.5655 30.1271C67.0182 30.261 66.5063 30.5117 66.0651 30.8621C65.7203 31.1347 65.4255 31.4651 65.1938 31.8385C64.7368 32.5776 64.5354 33.4462 64.6207 34.3108C64.6637 34.7476 64.7823 35.1736 64.971 35.5698C65.2037 36.0637 65.5385 36.5026 65.9534 36.8576C66.3683 37.2126 66.8539 37.4756 67.3779 37.6292C67.902 37.7828 68.4527 37.8236 68.9938 37.7488C69.5348 37.6741 70.0538 37.4854 70.5165 37.1954C70.5506 37.1734 70.5843 37.1511 70.6178 37.1284C70.6512 37.1058 70.684 37.0826 70.7163 37.0591C70.7488 37.0354 70.7806 37.0114 70.812 36.9871C70.8433 36.9627 70.8744 36.938 70.9053 36.9129L90.5345 43.8954C91.1384 44.1102 91.7958 44.123 92.4077 43.932C93.0196 43.7409 93.5529 43.3564 93.9272 42.8363L98.5808 36.3964L92.9545 32.6096L90.0019 35.962L72.038 32.3903C72.0184 32.3438 71.9981 32.2975 71.9771 32.2515C71.9561 32.2054 71.9342 32.1595 71.9113 32.1139C71.8881 32.0684 71.8642 32.0231 71.8396 31.978C71.815 31.933 71.7889 31.8883 71.7615 31.8439C71.3329 31.1518 70.6961 30.613 69.9424 30.3046C69.1887 29.9962 68.3567 29.9341 67.5655 30.1271Z" fill="#9E616A"/>
<path d="M90.3187 33.8477C90.9059 33.1152 91.7268 32.1643 92.5609 31.2211C93.395 30.2779 94.2415 29.343 94.88 28.6437C95.5185 27.9444 95.9482 27.4809 95.9482 27.4809C96.5375 26.5902 97.4172 25.9309 98.4377 25.615C99.4583 25.299 100.557 25.3459 101.547 25.7477C102.537 26.1494 103.357 26.8813 103.868 27.8189C104.379 28.7566 104.55 29.8422 104.351 30.8914C104.238 31.4954 104.003 32.0702 103.661 32.5812C103.661 32.5812 103.021 33.4188 102.054 34.6689C101.088 35.9191 99.7942 37.5833 98.4897 39.2378C97.1851 40.8923 95.8678 42.5382 94.8521 43.7532C93.8364 44.9682 93.1216 45.753 93.0209 45.6858L89.478 35.1598C89.3773 35.0926 89.7315 34.5801 90.3187 33.8477Z" fill="#CCCCCC"/>
<path d="M92.4208 21.4166C92.3651 21.6881 92.3868 21.9697 92.4833 22.2295C92.5317 22.3625 92.5985 22.488 92.6818 22.6024C92.7531 22.6999 92.8357 22.7886 92.9279 22.8667C93.2008 23.0973 93.5471 23.2231 93.9044 23.2215C93.9267 23.2213 93.949 23.2207 93.9713 23.2196C93.9935 23.2186 94.0158 23.217 94.0381 23.215C94.0605 23.2131 94.0829 23.2106 94.1052 23.2075C94.1274 23.2043 94.1498 23.2008 94.1723 23.1969L95.4349 22.9675L97.1739 19.2542V22.6555L102.914 21.6226V7.18896L93.291 7.23515L93.5289 7.51131C94.3185 8.43793 94.8371 9.56434 95.0274 10.7666C95.2141 11.9842 95.1907 13.2249 94.9581 14.4346C94.7321 15.6588 94.389 16.8583 93.9335 18.0169C93.5353 19.0433 93.0783 20.0459 92.5648 21.0197C92.4985 21.1446 92.45 21.2783 92.4208 21.4166Z" fill="#2F2E41"/>
<path d="M25.7653 151.468H144.716C144.799 151.468 144.878 151.435 144.937 151.376C144.995 151.318 145.028 151.238 145.028 151.156C145.028 151.073 144.995 150.993 144.937 150.935C144.878 150.876 144.799 150.844 144.716 150.844H25.7653C25.6825 150.844 25.6031 150.876 25.5446 150.935C25.486 150.993 25.4531 151.073 25.4531 151.156C25.4531 151.238 25.486 151.318 25.5446 151.376C25.6031 151.435 25.6825 151.468 25.7653 151.468Z" fill="#CACACA"/>
</svg>
