<svg width="32" height="32" viewBox="0 0 32 32" fill="none" xmlns="http://www.w3.org/2000/svg">
<path fill-rule="evenodd" clip-rule="evenodd" d="M10.5409 8.54932H9.11958C7.63559 8.54932 6.40109 9.69043 6.2846 11.1698L5.00895 27.3706C4.87876 29.0241 6.18537 30.4376 7.84392 30.4376H24.9581C26.6166 30.4376 27.9232 29.0241 27.793 27.3706L26.5174 11.1698C26.4009 9.69043 25.1664 8.54932 23.6824 8.54932H22.0883V10.2727C22.0883 10.9866 21.5095 11.5654 20.7957 11.5654C20.0818 11.5654 19.503 10.9866 19.503 10.2727V8.54932H13.1261V10.2727C13.1261 10.9866 12.5474 11.5654 11.8335 11.5654C11.1196 11.5654 10.5409 10.9866 10.5409 10.2727V8.54932Z" fill="#FF6C12"/>
<path fill-rule="evenodd" clip-rule="evenodd" d="M11.3167 6.99811C11.3167 4.23773 13.5544 2 16.3148 2C19.0751 2 21.3129 4.23773 21.3129 6.99811V10.2727C21.3129 10.5583 21.0814 10.7898 20.7958 10.7898C20.5103 10.7898 20.2788 10.5583 20.2788 10.2727V6.99811C20.2788 4.80884 18.504 3.03409 16.3148 3.03409C14.1255 3.03409 12.3507 4.80885 12.3507 6.99811V10.2727C12.3507 10.5583 12.1193 10.7898 11.8337 10.7898C11.5481 10.7898 11.3167 10.5583 11.3167 10.2727V6.99811Z" fill="#FF6C12"/>
<path fill-rule="evenodd" clip-rule="evenodd" d="M15.2746 25.5576C15.7961 26.2796 16.8332 26.2796 17.3547 25.5576C18.6626 23.7472 20.7389 20.5016 20.7389 18.1442C20.7389 16.9708 20.2728 15.8455 19.4431 15.0158C18.6134 14.1861 17.488 13.72 16.3146 13.72C15.1413 13.72 14.0159 14.1861 13.1862 15.0158C12.3565 15.8455 11.8904 16.9708 11.8904 18.1442C11.8904 20.5016 13.9667 23.7471 15.2746 25.5576ZM18.0843 18.0948C18.0843 19.0722 17.292 19.8645 16.3146 19.8645C15.3372 19.8645 14.5449 19.0722 14.5449 18.0948C14.5449 17.1174 15.3372 16.3251 16.3146 16.3251C17.292 16.3251 18.0843 17.1174 18.0843 18.0948Z" fill="white"/>
</svg>
