<svg width="210" height="75" viewBox="0 0 210 75" fill="none" xmlns="http://www.w3.org/2000/svg">
<path fill-rule="evenodd" clip-rule="evenodd" d="M14.6138 17.2727H10.8648C6.95101 17.2727 3.69519 20.2822 3.38796 24.184L0.0236076 66.9113C-0.319755 71.272 3.12627 75 7.50047 75H52.6366C57.0108 75 60.4569 71.272 60.1135 66.9113L56.7491 24.184C56.4419 20.2822 53.1861 17.2727 49.2723 17.2727H45.0683V21.8181C45.0683 23.7009 43.542 25.2272 41.6592 25.2272C39.7764 25.2272 38.2501 23.7009 38.2501 21.8181V17.2727H21.4319V21.8181C21.4319 23.7009 19.9056 25.2272 18.0228 25.2272C16.1401 25.2272 14.6138 23.7009 14.6138 21.8181V17.2727Z" fill="white"/>
<path fill-rule="evenodd" clip-rule="evenodd" d="M16.6592 13.1818C16.6592 5.90172 22.5609 0 29.841 0C37.1211 0 43.0228 5.90171 43.0228 13.1818V21.8182C43.0228 22.5713 42.4123 23.1818 41.6592 23.1818C40.9061 23.1818 40.2956 22.5713 40.2956 21.8182V13.1818C40.2956 7.40794 35.6149 2.72728 29.841 2.72728C24.0671 2.72728 19.3865 7.40795 19.3865 13.1818V21.8182C19.3865 22.5713 18.7759 23.1818 18.0228 23.1818C17.2697 23.1818 16.6592 22.5713 16.6592 21.8182V13.1818Z" fill="white"/>
<path fill-rule="evenodd" clip-rule="evenodd" d="M27.0978 62.1294C28.4732 64.0334 31.2085 64.0334 32.5839 62.1294C36.0332 57.3545 41.5092 48.7948 41.5092 42.5776C41.5092 39.4829 40.2799 36.515 38.0916 34.3268C35.9034 32.1385 32.9355 30.9092 29.8409 30.9092C26.7462 30.9092 23.7783 32.1385 21.5901 34.3268C19.4018 36.515 18.1725 39.4829 18.1725 42.5776C18.1725 48.7948 23.6485 57.3545 27.0978 62.1294ZM34.5082 42.4479C34.5082 45.0256 32.4186 47.1153 29.8409 47.1153C27.2632 47.1153 25.1735 45.0256 25.1735 42.4479C25.1735 39.8702 27.2632 37.7806 29.8409 37.7806C32.4186 37.7806 34.5082 39.8702 34.5082 42.4479Z" fill="#3F3D56"/>
<path d="M95.576 63.384L92.412 58.26C92.2067 57.924 91.936 57.6813 91.6 57.532C91.264 57.3827 90.8253 57.308 90.284 57.308L94.12 55.88C94.68 55.88 95.1747 55.9453 95.604 56.076C96.052 56.2067 96.444 56.4213 96.78 56.72C97.1347 57 97.452 57.3733 97.732 57.84L99.972 61.396L95.576 63.384ZM90.312 57.308C88.8187 57.308 87.456 57.0653 86.224 56.58C84.992 56.0947 83.928 55.404 83.032 54.508C82.1547 53.5933 81.4733 52.5107 80.988 51.26C80.5213 50.0093 80.288 48.628 80.288 47.116C80.288 45.5853 80.5213 44.1947 80.988 42.944C81.4733 41.6933 82.1547 40.62 83.032 39.724C83.928 38.828 84.992 38.1467 86.224 37.68C87.456 37.1947 88.8187 36.952 90.312 36.952C91.8053 36.952 93.168 37.1947 94.4 37.68C95.632 38.1467 96.6867 38.828 97.564 39.724C98.46 40.62 99.1413 41.6933 99.608 42.944C100.093 44.176 100.336 45.5667 100.336 47.116C100.336 48.6467 100.093 50.0373 99.608 51.288C99.1413 52.5387 98.46 53.6213 97.564 54.536C96.6867 55.432 95.632 56.1227 94.4 56.608C93.168 57.0747 91.8053 57.308 90.312 57.308ZM90.312 52.996C91.3013 52.996 92.1413 52.7627 92.832 52.296C93.5227 51.8293 94.0547 51.1573 94.428 50.28C94.8013 49.4027 94.988 48.348 94.988 47.116C94.988 45.884 94.8013 44.8293 94.428 43.952C94.0547 43.0747 93.5227 42.412 92.832 41.964C92.1413 41.4973 91.3013 41.264 90.312 41.264C89.3413 41.264 88.5013 41.4973 87.792 41.964C87.1013 42.412 86.5693 43.0747 86.196 43.952C85.8227 44.8107 85.636 45.8653 85.636 47.116C85.636 48.348 85.8227 49.4027 86.196 50.28C86.5693 51.1573 87.1013 51.8293 87.792 52.296C88.5013 52.7627 89.3413 52.996 90.312 52.996ZM108.194 57.308C106.999 57.308 106.019 57.0933 105.254 56.664C104.489 56.216 103.91 55.5533 103.518 54.676C103.145 53.7987 102.958 52.688 102.958 51.344V43.224H107.942V51.484C107.942 51.932 107.998 52.3053 108.11 52.604C108.241 52.9027 108.437 53.1267 108.698 53.276C108.959 53.4253 109.286 53.5 109.678 53.5C110.126 53.5 110.518 53.3973 110.854 53.192C111.209 52.968 111.479 52.66 111.666 52.268C111.871 51.8573 111.974 51.3813 111.974 50.84V43.224H116.958V57H112.086V54.48H112.534C112.123 55.3947 111.545 56.0947 110.798 56.58C110.07 57.0653 109.202 57.308 108.194 57.308ZM119.718 40.844V36.336H124.954V40.844H119.718ZM119.858 57V43.224H124.842V57H119.858ZM134.761 57.308C133.212 57.308 131.859 57.0187 130.701 56.44C129.563 55.8613 128.676 55.0307 128.041 53.948C127.407 52.8467 127.089 51.5587 127.089 50.084C127.089 48.5907 127.407 47.312 128.041 46.248C128.676 45.1653 129.563 44.344 130.701 43.784C131.859 43.2053 133.212 42.916 134.761 42.916C135.676 42.916 136.591 43.0373 137.505 43.28C138.42 43.5227 139.157 43.8773 139.717 44.344L138.401 47.76C137.972 47.424 137.468 47.1627 136.889 46.976C136.329 46.7707 135.797 46.668 135.293 46.668C134.304 46.668 133.539 46.9667 132.997 47.564C132.456 48.1427 132.185 48.9827 132.185 50.084C132.185 51.1667 132.456 52.016 132.997 52.632C133.539 53.248 134.304 53.556 135.293 53.556C135.797 53.556 136.329 53.4627 136.889 53.276C137.468 53.0707 137.972 52.8 138.401 52.464L139.717 55.88C139.157 56.3093 138.42 56.6547 137.505 56.916C136.591 57.1773 135.676 57.308 134.761 57.308ZM148.968 57.308C147.941 57.308 146.933 57.224 145.944 57.056C144.955 56.888 144.04 56.6453 143.2 56.328C142.36 56.0107 141.632 55.6373 141.016 55.208L142.444 51.204C143.023 51.5773 143.667 51.904 144.376 52.184C145.085 52.464 145.832 52.688 146.616 52.856C147.4 53.0053 148.184 53.08 148.968 53.08C150.2 53.08 151.059 52.9213 151.544 52.604C152.048 52.268 152.3 51.8573 152.3 51.372C152.3 51.0733 152.225 50.8213 152.076 50.616C151.927 50.4107 151.675 50.2333 151.32 50.084C150.984 49.916 150.527 49.776 149.948 49.664L146.672 48.964C144.88 48.5907 143.545 47.9373 142.668 47.004C141.791 46.0707 141.352 44.8667 141.352 43.392C141.352 42.0853 141.697 40.956 142.388 40.004C143.097 39.0333 144.077 38.2867 145.328 37.764C146.597 37.2227 148.053 36.952 149.696 36.952C150.611 36.952 151.488 37.036 152.328 37.204C153.187 37.372 153.98 37.624 154.708 37.96C155.436 38.2773 156.052 38.6507 156.556 39.08L155.128 42.832C154.419 42.3093 153.588 41.908 152.636 41.628C151.703 41.3293 150.704 41.18 149.64 41.18C148.949 41.18 148.361 41.264 147.876 41.432C147.391 41.5813 147.017 41.8053 146.756 42.104C146.513 42.4027 146.392 42.748 146.392 43.14C146.392 43.532 146.551 43.868 146.868 44.148C147.204 44.4093 147.811 44.6333 148.688 44.82L151.936 45.52C153.747 45.912 155.1 46.556 155.996 47.452C156.892 48.348 157.34 49.5147 157.34 50.952C157.34 52.2213 156.995 53.3413 156.304 54.312C155.613 55.264 154.643 56.0013 153.392 56.524C152.141 57.0467 150.667 57.308 148.968 57.308ZM159.534 57V37.26H164.518V45.632H164.07C164.518 44.7547 165.153 44.0827 165.974 43.616C166.814 43.1493 167.766 42.916 168.83 42.916C169.931 42.916 170.837 43.1307 171.546 43.56C172.255 43.9707 172.787 44.624 173.142 45.52C173.497 46.3973 173.674 47.508 173.674 48.852V57H168.69V49.048C168.69 48.488 168.625 48.04 168.494 47.704C168.363 47.3493 168.167 47.0973 167.906 46.948C167.663 46.7987 167.355 46.724 166.982 46.724C166.478 46.724 166.039 46.836 165.666 47.06C165.293 47.2653 165.003 47.564 164.798 47.956C164.611 48.348 164.518 48.8147 164.518 49.356V57H159.534ZM183.487 57.308C181.956 57.308 180.621 57.0187 179.483 56.44C178.344 55.8613 177.457 55.0307 176.823 53.948C176.188 52.8653 175.871 51.5867 175.871 50.112C175.871 48.6187 176.188 47.34 176.823 46.276C177.457 45.1933 178.344 44.3627 179.483 43.784C180.621 43.2053 181.956 42.916 183.487 42.916C185.017 42.916 186.352 43.2053 187.491 43.784C188.629 44.3627 189.507 45.1933 190.123 46.276C190.757 47.34 191.075 48.6187 191.075 50.112C191.075 51.5867 190.757 52.8653 190.123 53.948C189.507 55.0307 188.629 55.8613 187.491 56.44C186.352 57.0187 185.017 57.308 183.487 57.308ZM183.487 53.64C184.233 53.64 184.849 53.36 185.335 52.8C185.82 52.24 186.063 51.344 186.063 50.112C186.063 48.8613 185.82 47.9653 185.335 47.424C184.849 46.864 184.233 46.584 183.487 46.584C182.721 46.584 182.096 46.864 181.611 47.424C181.125 47.9653 180.883 48.8613 180.883 50.112C180.883 51.344 181.125 52.24 181.611 52.8C182.096 53.36 182.721 53.64 183.487 53.64ZM193.358 62.04V43.224H198.202V45.716H197.95C198.212 44.876 198.753 44.204 199.574 43.7C200.414 43.1773 201.366 42.916 202.43 42.916C203.625 42.916 204.67 43.2053 205.566 43.784C206.481 44.3627 207.19 45.184 207.694 46.248C208.198 47.312 208.45 48.6 208.45 50.112C208.45 51.5867 208.198 52.8653 207.694 53.948C207.19 55.0307 206.481 55.8613 205.566 56.44C204.67 57.0187 203.625 57.308 202.43 57.308C201.404 57.308 200.48 57.0653 199.658 56.58C198.837 56.0947 198.286 55.46 198.006 54.676H198.342V62.04H193.358ZM200.862 53.64C201.609 53.64 202.225 53.36 202.71 52.8C203.196 52.24 203.438 51.344 203.438 50.112C203.438 48.8613 203.196 47.9653 202.71 47.424C202.225 46.864 201.609 46.584 200.862 46.584C200.097 46.584 199.472 46.864 198.986 47.424C198.501 47.9653 198.258 48.8613 198.258 50.112C198.258 51.344 198.501 52.24 198.986 52.8C199.472 53.36 200.097 53.64 200.862 53.64Z" fill="white"/>
</svg>
