<svg width="210" height="75" viewBox="0 0 210 75" fill="none" xmlns="http://www.w3.org/2000/svg">
<path fill-rule="evenodd" clip-rule="evenodd" d="M14.6138 17.2727H10.8648C6.95101 17.2727 3.69519 20.2822 3.38796 24.184L0.0236076 66.9113C-0.319755 71.272 3.12627 75 7.50047 75H52.6366C57.0108 75 60.4569 71.272 60.1135 66.9113L56.7491 24.184C56.4419 20.2822 53.1861 17.2727 49.2723 17.2727H45.0683V21.8181C45.0683 23.7009 43.542 25.2272 41.6592 25.2272C39.7764 25.2272 38.2501 23.7009 38.2501 21.8181V17.2727H21.4319V21.8181C21.4319 23.7009 19.9056 25.2272 18.0228 25.2272C16.1401 25.2272 14.6138 23.7009 14.6138 21.8181V17.2727Z" fill="#FF6C12"/>
<path fill-rule="evenodd" clip-rule="evenodd" d="M16.6592 13.1818C16.6592 5.90172 22.5609 0 29.841 0C37.1211 0 43.0228 5.90171 43.0228 13.1818V21.8182C43.0228 22.5713 42.4123 23.1818 41.6592 23.1818C40.9061 23.1818 40.2956 22.5713 40.2956 21.8182V13.1818C40.2956 7.40794 35.6149 2.72728 29.841 2.72728C24.0671 2.72728 19.3865 7.40795 19.3865 13.1818V21.8182C19.3865 22.5713 18.7759 23.1818 18.0228 23.1818C17.2697 23.1818 16.6592 22.5713 16.6592 21.8182V13.1818Z" fill="#FF6C12"/>
<path fill-rule="evenodd" clip-rule="evenodd" d="M27.0979 62.1294C28.4733 64.0334 31.2087 64.0334 32.584 62.1294C36.0333 57.3545 41.5094 48.7948 41.5094 42.5776C41.5094 39.4829 40.28 36.515 38.0918 34.3268C35.9035 32.1385 32.9356 30.9092 29.841 30.9092C26.7463 30.9092 23.7784 32.1385 21.5902 34.3268C19.402 36.515 18.1726 39.4829 18.1726 42.5776C18.1726 48.7948 23.6487 57.3545 27.0979 62.1294ZM34.5083 42.4479C34.5083 45.0256 32.4187 47.1153 29.841 47.1153C27.2633 47.1153 25.1736 45.0256 25.1736 42.4479C25.1736 39.8702 27.2633 37.7806 29.841 37.7806C32.4187 37.7806 34.5083 39.8702 34.5083 42.4479Z" fill="white"/>
<path d="M95.576 55.384L92.412 50.26C92.2067 49.924 91.936 49.6813 91.6 49.532C91.264 49.3827 90.8253 49.308 90.284 49.308L94.12 47.88C94.68 47.88 95.1747 47.9453 95.604 48.076C96.052 48.2067 96.444 48.4213 96.78 48.72C97.1347 49 97.452 49.3733 97.732 49.84L99.972 53.396L95.576 55.384ZM90.312 49.308C88.8187 49.308 87.456 49.0653 86.224 48.58C84.992 48.0947 83.928 47.404 83.032 46.508C82.1547 45.5933 81.4733 44.5107 80.988 43.26C80.5213 42.0093 80.288 40.628 80.288 39.116C80.288 37.5853 80.5213 36.1947 80.988 34.944C81.4733 33.6933 82.1547 32.62 83.032 31.724C83.928 30.828 84.992 30.1467 86.224 29.68C87.456 29.1947 88.8187 28.952 90.312 28.952C91.8053 28.952 93.168 29.1947 94.4 29.68C95.632 30.1467 96.6867 30.828 97.564 31.724C98.46 32.62 99.1413 33.6933 99.608 34.944C100.093 36.176 100.336 37.5667 100.336 39.116C100.336 40.6467 100.093 42.0373 99.608 43.288C99.1413 44.5387 98.46 45.6213 97.564 46.536C96.6867 47.432 95.632 48.1227 94.4 48.608C93.168 49.0747 91.8053 49.308 90.312 49.308ZM90.312 44.996C91.3013 44.996 92.1413 44.7627 92.832 44.296C93.5227 43.8293 94.0547 43.1573 94.428 42.28C94.8013 41.4027 94.988 40.348 94.988 39.116C94.988 37.884 94.8013 36.8293 94.428 35.952C94.0547 35.0747 93.5227 34.412 92.832 33.964C92.1413 33.4973 91.3013 33.264 90.312 33.264C89.3413 33.264 88.5013 33.4973 87.792 33.964C87.1013 34.412 86.5693 35.0747 86.196 35.952C85.8227 36.8107 85.636 37.8653 85.636 39.116C85.636 40.348 85.8227 41.4027 86.196 42.28C86.5693 43.1573 87.1013 43.8293 87.792 44.296C88.5013 44.7627 89.3413 44.996 90.312 44.996ZM108.194 49.308C106.999 49.308 106.019 49.0933 105.254 48.664C104.489 48.216 103.91 47.5533 103.518 46.676C103.145 45.7987 102.958 44.688 102.958 43.344V35.224H107.942V43.484C107.942 43.932 107.998 44.3053 108.11 44.604C108.241 44.9027 108.437 45.1267 108.698 45.276C108.959 45.4253 109.286 45.5 109.678 45.5C110.126 45.5 110.518 45.3973 110.854 45.192C111.209 44.968 111.479 44.66 111.666 44.268C111.871 43.8573 111.974 43.3813 111.974 42.84V35.224H116.958V49H112.086V46.48H112.534C112.123 47.3947 111.545 48.0947 110.798 48.58C110.07 49.0653 109.202 49.308 108.194 49.308ZM119.718 32.844V28.336H124.954V32.844H119.718ZM119.858 49V35.224H124.842V49H119.858ZM134.761 49.308C133.212 49.308 131.859 49.0187 130.701 48.44C129.563 47.8613 128.676 47.0307 128.041 45.948C127.407 44.8467 127.089 43.5587 127.089 42.084C127.089 40.5907 127.407 39.312 128.041 38.248C128.676 37.1653 129.563 36.344 130.701 35.784C131.859 35.2053 133.212 34.916 134.761 34.916C135.676 34.916 136.591 35.0373 137.505 35.28C138.42 35.5227 139.157 35.8773 139.717 36.344L138.401 39.76C137.972 39.424 137.468 39.1627 136.889 38.976C136.329 38.7707 135.797 38.668 135.293 38.668C134.304 38.668 133.539 38.9667 132.997 39.564C132.456 40.1427 132.185 40.9827 132.185 42.084C132.185 43.1667 132.456 44.016 132.997 44.632C133.539 45.248 134.304 45.556 135.293 45.556C135.797 45.556 136.329 45.4627 136.889 45.276C137.468 45.0707 137.972 44.8 138.401 44.464L139.717 47.88C139.157 48.3093 138.42 48.6547 137.505 48.916C136.591 49.1773 135.676 49.308 134.761 49.308ZM148.968 49.308C147.941 49.308 146.933 49.224 145.944 49.056C144.955 48.888 144.04 48.6453 143.2 48.328C142.36 48.0107 141.632 47.6373 141.016 47.208L142.444 43.204C143.023 43.5773 143.667 43.904 144.376 44.184C145.085 44.464 145.832 44.688 146.616 44.856C147.4 45.0053 148.184 45.08 148.968 45.08C150.2 45.08 151.059 44.9213 151.544 44.604C152.048 44.268 152.3 43.8573 152.3 43.372C152.3 43.0733 152.225 42.8213 152.076 42.616C151.927 42.4107 151.675 42.2333 151.32 42.084C150.984 41.916 150.527 41.776 149.948 41.664L146.672 40.964C144.88 40.5907 143.545 39.9373 142.668 39.004C141.791 38.0707 141.352 36.8667 141.352 35.392C141.352 34.0853 141.697 32.956 142.388 32.004C143.097 31.0333 144.077 30.2867 145.328 29.764C146.597 29.2227 148.053 28.952 149.696 28.952C150.611 28.952 151.488 29.036 152.328 29.204C153.187 29.372 153.98 29.624 154.708 29.96C155.436 30.2773 156.052 30.6507 156.556 31.08L155.128 34.832C154.419 34.3093 153.588 33.908 152.636 33.628C151.703 33.3293 150.704 33.18 149.64 33.18C148.949 33.18 148.361 33.264 147.876 33.432C147.391 33.5813 147.017 33.8053 146.756 34.104C146.513 34.4027 146.392 34.748 146.392 35.14C146.392 35.532 146.551 35.868 146.868 36.148C147.204 36.4093 147.811 36.6333 148.688 36.82L151.936 37.52C153.747 37.912 155.1 38.556 155.996 39.452C156.892 40.348 157.34 41.5147 157.34 42.952C157.34 44.2213 156.995 45.3413 156.304 46.312C155.613 47.264 154.643 48.0013 153.392 48.524C152.141 49.0467 150.667 49.308 148.968 49.308ZM159.534 49V29.26H164.518V37.632H164.07C164.518 36.7547 165.153 36.0827 165.974 35.616C166.814 35.1493 167.766 34.916 168.83 34.916C169.931 34.916 170.837 35.1307 171.546 35.56C172.255 35.9707 172.787 36.624 173.142 37.52C173.497 38.3973 173.674 39.508 173.674 40.852V49H168.69V41.048C168.69 40.488 168.625 40.04 168.494 39.704C168.363 39.3493 168.167 39.0973 167.906 38.948C167.663 38.7987 167.355 38.724 166.982 38.724C166.478 38.724 166.039 38.836 165.666 39.06C165.293 39.2653 165.003 39.564 164.798 39.956C164.611 40.348 164.518 40.8147 164.518 41.356V49H159.534ZM183.487 49.308C181.956 49.308 180.621 49.0187 179.483 48.44C178.344 47.8613 177.457 47.0307 176.823 45.948C176.188 44.8653 175.871 43.5867 175.871 42.112C175.871 40.6187 176.188 39.34 176.823 38.276C177.457 37.1933 178.344 36.3627 179.483 35.784C180.621 35.2053 181.956 34.916 183.487 34.916C185.017 34.916 186.352 35.2053 187.491 35.784C188.629 36.3627 189.507 37.1933 190.123 38.276C190.757 39.34 191.075 40.6187 191.075 42.112C191.075 43.5867 190.757 44.8653 190.123 45.948C189.507 47.0307 188.629 47.8613 187.491 48.44C186.352 49.0187 185.017 49.308 183.487 49.308ZM183.487 45.64C184.233 45.64 184.849 45.36 185.335 44.8C185.82 44.24 186.063 43.344 186.063 42.112C186.063 40.8613 185.82 39.9653 185.335 39.424C184.849 38.864 184.233 38.584 183.487 38.584C182.721 38.584 182.096 38.864 181.611 39.424C181.125 39.9653 180.883 40.8613 180.883 42.112C180.883 43.344 181.125 44.24 181.611 44.8C182.096 45.36 182.721 45.64 183.487 45.64ZM193.358 54.04V35.224H198.202V37.716H197.95C198.212 36.876 198.753 36.204 199.574 35.7C200.414 35.1773 201.366 34.916 202.43 34.916C203.625 34.916 204.67 35.2053 205.566 35.784C206.481 36.3627 207.19 37.184 207.694 38.248C208.198 39.312 208.45 40.6 208.45 42.112C208.45 43.5867 208.198 44.8653 207.694 45.948C207.19 47.0307 206.481 47.8613 205.566 48.44C204.67 49.0187 203.625 49.308 202.43 49.308C201.404 49.308 200.48 49.0653 199.658 48.58C198.837 48.0947 198.286 47.46 198.006 46.676H198.342V54.04H193.358ZM200.862 45.64C201.609 45.64 202.225 45.36 202.71 44.8C203.196 44.24 203.438 43.344 203.438 42.112C203.438 40.8613 203.196 39.9653 202.71 39.424C202.225 38.864 201.609 38.584 200.862 38.584C200.097 38.584 199.472 38.864 198.986 39.424C198.501 39.9653 198.258 40.8613 198.258 42.112C198.258 43.344 198.501 44.24 198.986 44.8C199.472 45.36 200.097 45.64 200.862 45.64Z" fill="#FF6C12"/>
</svg>
