<svg width="119" height="94" viewBox="0 0 119 94" fill="none" xmlns="http://www.w3.org/2000/svg">
<path d="M6.09038 67.4546L112.454 67.4546C114.713 67.4546 116.545 65.623 116.545 63.3637L116.545 6.09095C116.545 3.83161 114.713 2.00005 112.454 2.00005L6.09038 2.00005C3.83103 2.00005 1.99947 3.83161 1.99947 6.09095L1.99947 63.3637C1.99947 65.623 3.83103 67.4546 6.09038 67.4546Z" fill="#EEEEEE" stroke="#3F3D56" stroke-width="3.5" stroke-linejoin="round"/>
<path d="M10.1816 79.7271H108.363M18.3635 91.9998H100.182" stroke="#3F3D56" stroke-width="3.5" stroke-linecap="round" stroke-linejoin="round"/>
<path d="M59.2729 55.182C70.5696 55.182 79.7274 46.0242 79.7274 34.7275C79.7274 23.4308 70.5696 14.2729 59.2729 14.2729C47.9762 14.2729 38.8184 23.4308 38.8184 34.7275C38.8184 46.0242 47.9762 55.182 59.2729 55.182Z" stroke="#3F3D56" stroke-width="3.5" stroke-linecap="round" stroke-linejoin="round"/>
<path d="M116.545 22.4545C111.121 22.4545 105.918 20.2995 102.082 16.4635C98.2459 12.6276 96.0909 7.42488 96.0909 2M2 22.4545C4.68613 22.4545 7.34596 21.9255 9.82762 20.8975C12.3093 19.8696 14.5642 18.3629 16.4635 16.4635C18.3629 14.5642 19.8696 12.3093 20.8975 9.82762C21.9255 7.34596 22.4545 4.68613 22.4545 2M116.545 47C111.121 47 105.918 49.155 102.082 52.991C98.2459 56.827 96.0909 62.0297 96.0909 67.4545M2 47C4.68613 47 7.34596 47.5291 9.82762 48.557C12.3093 49.5849 14.5642 51.0916 16.4635 52.991C18.3629 54.8904 19.8696 57.1453 20.8975 59.6269C21.9255 62.1086 22.4545 64.7684 22.4545 67.4545" stroke="#3F3D56" stroke-width="3.5" stroke-linecap="round" stroke-linejoin="round"/>
</svg>
