<svg width="303" height="240" viewBox="0 0 303 240" fill="none" xmlns="http://www.w3.org/2000/svg">
<g clip-path="url(#clip0_1578_86)">
<path d="M260.987 239.874H42.0126C18.8472 239.874 0 236.846 0 213.681C0 190.515 18.8472 179.365 42.0126 179.365H260.987C284.153 179.365 303 190.515 303 213.681C303 236.846 284.153 239.874 260.987 239.874Z" fill="#CCCCCC"/>
<path d="M72.5687 228.958C103.975 228.958 129.434 219.268 129.434 207.315C129.434 195.362 103.975 185.672 72.5687 185.672C41.1627 185.672 15.7031 195.362 15.7031 207.315C15.7031 219.268 41.1627 228.958 72.5687 228.958Z" fill="#E6E6E6"/>
<path d="M72.9905 187.794C102.515 187.794 126.779 196.359 129.581 207.315C129.759 206.617 129.856 205.91 129.856 205.194C129.856 193.241 104.396 183.551 72.9905 183.551C41.5847 183.551 16.125 193.241 16.125 205.194C16.125 205.91 16.222 206.617 16.4002 207.315C19.2025 196.359 43.4662 187.794 72.9905 187.794Z" fill="#B3B3B3"/>
<path d="M237.229 228.958C268.635 228.958 294.094 219.268 294.094 207.315C294.094 195.362 268.635 185.672 237.229 185.672C205.823 185.672 180.363 195.362 180.363 207.315C180.363 219.268 205.823 228.958 237.229 228.958Z" fill="#E6E6E6"/>
<path d="M236.799 187.794C266.323 187.794 290.587 196.359 293.39 207.315C293.568 206.617 293.665 205.91 293.665 205.194C293.665 193.241 268.205 183.551 236.799 183.551C205.393 183.551 179.934 193.241 179.934 205.194C179.934 205.91 180.031 206.617 180.209 207.315C183.011 196.359 207.275 187.794 236.799 187.794Z" fill="#B3B3B3"/>
<path d="M134.953 167.826C134.953 162.747 98.2389 157.481 70.8153 157.481C43.3917 157.481 21.1602 168.495 21.1602 173.573C21.1602 175.706 26.423 178.116 34.5584 180.194C23.3023 183.804 23.3949 185.967 23.3949 188.856C23.3949 191.119 22.0229 196.339 31.01 198.498C22.624 201.8 23.7904 205.793 23.7904 208.235C23.7904 213.314 47.2995 219.78 74.7233 219.78C102.147 219.78 122.266 210.15 122.266 205.071C122.266 202.801 123.935 197.731 113.37 195.873C123.271 192.262 123.057 190.487 123.057 188.066C123.057 185.908 123.263 181.407 113.534 179.6C126.086 175.655 134.953 170.628 134.953 167.826Z" fill="#3F3D56"/>
<path d="M80.28 139.872C81.8968 138.403 84.4592 138.091 86.3814 139.129C88.3035 140.167 85.8796 144.809 85.5377 146.967C85.414 147.748 84.0554 156.84 84.0102 157.629C83.965 158.419 92.6329 156.93 93.3496 157.264C94.3848 157.746 97.7399 155.407 98.3208 154.423C100.325 151.032 93.3567 139.36 90.2775 136.903C87.1982 134.446 82.4756 134.448 79.2656 136.731" fill="#FF6C11"/>
<path d="M62.3891 139.872C60.7724 138.403 58.2099 138.091 56.2878 139.129C54.3656 140.167 56.7896 144.809 57.1315 146.967C57.2552 147.748 58.8617 157.185 58.9069 157.974C58.9521 158.764 52.877 161.902 52.1603 162.235C51.1251 162.717 44.9293 155.407 44.3484 154.424C42.3444 151.032 49.3124 139.36 52.3917 136.903C55.4709 134.446 60.1936 134.448 63.4035 136.731" fill="#FF6C11"/>
<path d="M86.1287 138.015H56.4574C55.4066 138.015 54.5547 138.866 54.5547 139.917V155.804C54.5547 156.855 55.4066 157.707 56.4574 157.707H86.1287C87.1795 157.707 88.0313 156.855 88.0313 155.804V139.917C88.0313 138.866 87.1795 138.015 86.1287 138.015Z" fill="#3F3D56"/>
<path d="M59.533 52.4138L64.23 103.646C64.23 103.646 60.324 110.393 63.1647 113.234C63.1647 113.234 57.8384 117.139 61.0342 120.335C61.0342 120.335 56.4181 123.176 59.2588 126.017C61.2472 128.005 59.9991 133.935 59.0713 137.314C58.3178 140.058 53.048 153.842 54.6426 156.199C56.469 158.898 72.7411 159.041 79.4986 157.974C92.9919 155.844 82.6944 135.249 82.6944 135.249C82.6944 135.249 78.7885 122.466 76.3029 122.466C73.8173 122.466 75.9478 117.139 74.5274 115.719C73.1071 114.299 74.5274 110.082 73.1071 108.64C71.6868 107.197 73.8173 103.33 71.6868 102.601C69.5562 101.871 67.1674 55.432 67.1674 55.432L59.533 52.4138Z" fill="#FF6C11"/>
<path d="M130.592 163.524C130.236 161.478 128.991 159.97 127.637 159.258C126.282 158.546 124.814 158.499 123.375 158.461C87.9227 153.894 57.7503 152.744 42.3979 161.183C42.3979 161.183 41.9121 160.733 42.891 162.306C43.87 163.878 45.2489 164.757 46.4378 165.979C49.3781 169.002 51.1187 174.373 50.8606 179.627C50.7517 181.845 50.3141 184.05 50.4901 186.258C50.666 188.467 51.7392 190.781 53.2543 190.822C54.9486 190.868 56.0764 188.118 56.2141 185.64C56.3659 182.905 55.7842 180.202 55.6773 177.462C55.5704 174.723 56.1268 171.583 57.7937 170.34C59.6156 168.981 61.7804 170.489 63.5574 171.97C65.6972 173.754 67.8371 175.537 69.977 177.321C70.7664 177.979 71.5674 178.65 72.1991 179.607C73.5265 181.619 73.916 184.611 73.8688 187.41C73.8217 190.21 73.4029 192.977 73.3817 195.777C73.3603 198.577 73.8091 201.565 75.1912 203.496C76.5734 205.427 79.0677 205.76 80.3017 203.624C82.0322 205.465 84.6118 205.338 86.2542 203.33C86.884 202.561 87.3515 201.542 87.639 200.419C87.6587 200.514 87.6787 200.609 87.7012 200.703C88.1499 202.58 89.3608 204.223 90.711 204.047C92.7042 203.786 93.5376 200.195 93.7098 197.27C93.9013 194.015 93.8604 190.726 94.2299 187.504C94.5993 184.283 95.4339 181.046 97.0742 178.837C98.7146 176.629 101.286 175.71 103.239 177.277C104.611 178.377 105.465 180.441 106.427 182.251C107.388 184.061 108.698 185.805 110.262 185.759C111.859 185.713 113.144 183.803 113.977 181.803C114.81 179.802 115.409 177.535 116.561 175.911C118.011 173.868 120.097 173.173 122.087 172.764C124.077 172.354 126.146 172.119 127.918 170.728C129.69 169.337 131.09 166.381 130.592 163.524Z" fill="#FF6C11"/>
<path d="M154.577 188.695H166.169L167.531 194.79C167.531 194.79 176.294 205.077 166.388 205.077C156.482 205.077 139.719 208.125 139.719 204.315C139.719 200.505 151.91 198.219 151.91 198.219L154.577 188.695Z" fill="#2F2E41"/>
<path d="M227.437 159.603L227.219 148.013L233.288 146.537C233.288 146.537 243.408 137.582 243.594 147.486C243.781 157.39 247.144 174.093 243.335 174.165C239.525 174.237 237.01 162.09 237.01 162.09L227.437 159.603Z" fill="#2F2E41"/>
<path d="M193.038 30.4136L195.403 39.1628L184.762 44.6014L180.742 33.0147L193.038 30.4136Z" fill="#FFB6B6"/>
<path d="M150.72 28.4408C151.511 29.6025 152.013 30.9368 152.182 32.332L161.039 44.0506L155.34 48.1019L146.969 35.7784C145.753 35.076 144.722 34.0923 143.963 32.9098C142.023 29.976 141.964 26.5986 143.831 25.3646C145.697 24.1306 148.782 25.5078 150.72 28.4408Z" fill="#FFB6B6"/>
<path d="M177.827 85.827L196.063 85.7073C196.063 85.7073 204.357 100.947 195.213 116.568L193.689 148.571L231.788 146.666V160.491C231.788 160.491 182.259 167.239 180.354 163.429C178.449 159.62 174.639 135.835 174.639 135.835L170.792 142.605L167.02 191.623H155.24L152.648 138.665L175.401 96.375L177.827 85.827Z" fill="#2F2E41"/>
<path d="M182.161 37.5694L194.652 36.5186L196.493 37.8005C199.611 47.4383 200.438 57.6705 198.908 67.6839L196.117 85.9529L177.043 89.2095L175.527 54.2776L182.161 37.5694Z" fill="#FF6C11"/>
<path d="M194.926 45.158L181.625 37.3758L169.52 45.5413L156.016 33.8531L147.348 40.1863C147.348 40.1863 159.563 56.7826 165.825 57.6899C172.087 58.5971 194.926 45.158 194.926 45.158Z" fill="#FF6C11"/>
<path opacity="0.1" d="M193.075 52.5997C193.075 52.5997 193.225 79.8151 187.048 80.5351C180.871 81.2551 176.574 79.5271 176.574 79.5271" fill="black"/>
<path d="M142.886 38.7325C137.53 38.7325 131.836 36.4109 127.419 31.9138C123.62 28.0455 121.313 23.1542 120.922 18.1407C120.526 13.0498 122.145 8.4413 125.482 5.16425C132.312 -1.54375 144.294 -0.458676 152.192 7.58313C160.09 15.6251 160.96 27.6251 154.13 34.3329C151.119 37.2898 147.107 38.7325 142.886 38.7325ZM136.73 3.12734C133.113 3.12734 129.699 4.34817 127.144 6.85704C124.316 9.63471 122.947 13.5764 123.288 17.9565C123.635 22.4142 125.703 26.7804 129.112 30.2511C136.094 37.3595 146.571 38.431 152.467 32.6401C158.363 26.849 157.481 16.3543 150.499 9.24579C146.542 5.21697 141.462 3.12734 136.73 3.12734Z" fill="#3F3D56"/>
<path d="M157.181 45.679L114.714 2.44448C112.44 0.126932 108.707 0.0952657 106.389 2.36931L101.529 7.14681L60.2874 47.6525C58.7925 49.1158 58.1954 51.2039 58.6898 53.2368C59.1801 55.2695 60.6711 56.8554 62.6684 57.4724L67.6871 59.0306L83.0595 63.7962C95.3867 67.6206 106.686 74.51 115.731 83.7209L117.064 85.0773C125.005 93.1611 138.04 93.2797 146.124 85.3383L156.916 74.7394C165 66.798 165.119 53.7628 157.181 45.679Z" fill="#3F3D56"/>
<path d="M94.5444 41.036C87.1489 51.5836 76.8505 58.1013 67.6871 59.0306L62.6684 57.4724C60.6711 56.8555 59.1801 55.2696 58.6898 53.2368C58.1954 51.2039 58.7925 49.1159 60.2874 47.6525L101.529 7.14685C105.029 16.2707 102.66 29.4681 94.5444 41.036Z" fill="#FF6C11"/>
<path d="M152.61 65.3876C154.012 65.4968 155.366 65.9401 156.561 66.6803L171.244 67.0972L170.842 74.078L155.991 72.9033C154.682 73.4136 153.269 73.6029 151.872 73.4554C148.37 73.1343 145.697 71.0682 145.902 68.8401C146.106 66.612 149.109 65.0662 152.61 65.3876Z" fill="#FFB6B6"/>
<path d="M160.233 74.0345L160.078 73.9742L162.057 65.8257L175.021 65.7583L177.444 45.6807C177.919 41.7436 181.268 38.7745 185.234 38.7745C187.461 38.7745 189.591 39.7255 191.078 41.3834C192.563 43.0395 193.276 45.2577 193.034 47.4689C191.553 61.0186 188.797 77.4347 184.078 78.6934C183.181 78.9327 182.13 79.0372 180.978 79.0372C173.199 79.0372 160.831 74.267 160.233 74.0345Z" fill="#FF6C11"/>
<path d="M185.208 33.7559C191.405 33.7559 196.428 28.7327 196.428 22.5362C196.428 16.3397 191.405 11.3164 185.208 11.3164C179.012 11.3164 173.988 16.3397 173.988 22.5362C173.988 28.7327 179.012 33.7559 185.208 33.7559Z" fill="#FFB6B6"/>
<path d="M192.589 32.2207L191.62 30.6066C191.62 30.6066 195.863 27.7465 192.357 26.0866C188.852 24.4266 188.298 20.368 188.298 20.368C188.298 20.368 178.058 17.4175 178.611 15.2035C179.165 12.9896 177.596 11.4217 180.179 10.4989C182.762 9.57615 194.292 10.4971 195.584 13.172C196.876 15.8469 198.168 23.2263 197.523 24.241C196.877 25.2558 192.589 32.2207 192.589 32.2207Z" fill="#2F2E41"/>
<path d="M189.68 19.5375L179.255 12.6205C179.255 12.6205 165.787 8.47128 170.862 16.4036L175.151 17.2794C175.151 17.2794 186.82 19.9991 189.68 19.5375Z" fill="#FF6C11"/>
<path d="M186.541 17.9698L197.427 26.1782C197.427 26.1782 203.791 14.8314 193.827 9.20577C183.864 3.58017 177.547 12.3902 177.547 12.3902L180.176 15.2033L186.541 17.9698Z" fill="#FF6C11"/>
<path d="M216.392 211.399C223.818 211.399 229.838 205.379 229.838 197.953C229.838 190.526 223.818 184.506 216.392 184.506C208.966 184.506 202.945 190.526 202.945 197.953C202.945 205.379 208.966 211.399 216.392 211.399Z" fill="#CCCCCC"/>
<path d="M252.376 210.213C259.803 210.213 265.823 204.193 265.823 196.766C265.823 189.34 259.803 183.32 252.376 183.32C244.95 183.32 238.93 189.34 238.93 196.766C238.93 204.193 244.95 210.213 252.376 210.213Z" fill="#CCCCCC"/>
<path d="M234.978 224.846C242.404 224.846 248.424 218.825 248.424 211.399C248.424 203.973 242.404 197.953 234.978 197.953C227.551 197.953 221.531 203.973 221.531 211.399C221.531 218.825 227.551 224.846 234.978 224.846Z" fill="#CCCCCC"/>
</g>
<defs>
<clipPath id="clip0_1578_86">
<rect width="303" height="239.189" fill="white" transform="translate(0 0.684814)"/>
</clipPath>
</defs>
</svg>
