<svg width="431" height="406" viewBox="0 0 431 406" fill="none" xmlns="http://www.w3.org/2000/svg">
<g clip-path="url(#clip0_272_1157)">
<path d="M376.726 191.269C377.286 191.924 377.702 192.69 377.946 193.515C378.19 194.341 378.257 195.209 378.144 196.062C378.03 196.915 377.738 197.735 377.286 198.469C376.834 199.202 376.232 199.833 375.52 200.32L345.42 220.914L332.166 229.719C331.413 230.219 330.5 230.422 329.605 230.289C328.71 230.155 327.897 229.695 327.324 228.997C326.99 228.59 326.749 228.116 326.617 227.607C326.484 227.098 326.465 226.566 326.559 226.049C326.653 225.532 326.859 225.041 327.162 224.611C327.465 224.181 327.858 223.821 328.315 223.557L341.152 216.129L363.557 194.866L349.154 179.451L359.823 171.477L376.726 191.269Z" fill="#A0616A"/>
<path d="M305.947 385.169H298.584L294.211 324.57L312.882 324.038L305.947 385.169Z" fill="#A0616A"/>
<path d="M306.486 404.838C304.522 405.731 302.878 398.497 301.222 400.118C296.59 404.654 289.496 405.642 283.313 403.662L285.477 403.638C285.104 403.518 284.759 403.324 284.464 403.068C284.168 402.812 283.927 402.499 283.757 402.147C283.586 401.795 283.489 401.413 283.471 401.023C283.453 400.633 283.515 400.243 283.652 399.877C283.817 399.44 284.086 399.049 284.436 398.738C284.786 398.427 285.206 398.205 285.661 398.091L290.588 396.864L298.323 383.309L306.219 382.777C307.979 385.014 309.208 387.619 309.812 390.397C310.416 393.174 310.381 396.052 309.708 398.814C308.991 401.729 307.885 404.201 306.486 404.838Z" fill="#2F2E41"/>
<path d="M354.975 385.169H347.612L343.239 324.57L362.443 320.849L354.975 385.169Z" fill="#A0616A"/>
<path d="M355.504 404.838C353.541 405.731 351.896 398.497 350.24 400.118C345.608 404.654 338.515 405.642 332.332 403.662L334.496 403.638C334.123 403.518 333.778 403.324 333.482 403.068C333.186 402.812 332.946 402.499 332.775 402.147C332.605 401.795 332.507 401.413 332.49 401.023C332.472 400.633 332.533 400.243 332.671 399.877C332.836 399.44 333.104 399.049 333.454 398.738C333.804 398.426 334.225 398.205 334.68 398.091L339.606 396.864L347.341 383.309L355.771 382.246L355.984 382.593C357.613 385.21 358.664 388.144 359.066 391.198C359.468 394.252 359.211 397.356 358.313 400.303C357.612 402.541 356.658 404.313 355.504 404.838Z" fill="#2F2E41"/>
<path d="M363.316 172.848C356.545 173.787 351.857 177.482 349.948 184.853L337.502 161.954C336.764 160.499 336.577 158.827 336.975 157.246C337.373 155.664 338.33 154.279 339.67 153.343C341.092 152.35 342.842 151.936 344.56 152.187C346.279 152.438 347.836 153.334 348.913 154.691L363.316 172.848Z" fill="#FF6C11"/>
<path d="M376.36 318.191C346.099 331.534 315.129 333.175 283.54 324.57C295.075 279.988 308.696 239.675 308.612 206.561L339.552 203.903L344.316 211.429C355.619 229.284 363.42 249.114 367.308 269.867L376.36 318.191Z" fill="#2F2E41"/>
<path d="M325.69 137.988C334.528 137.988 341.693 130.848 341.693 122.041C341.693 113.233 334.528 106.093 325.69 106.093C316.851 106.093 309.686 113.233 309.686 122.041C309.686 130.848 316.851 137.988 325.69 137.988Z" fill="#A0616A"/>
<path d="M343.288 150.214L323.551 151.277L320.35 133.735L336.354 131.078L343.288 150.214Z" fill="#A0616A"/>
<path d="M341.152 206.561L319.529 207.168L308.612 208.687C303.253 191.048 298.742 173.449 309.679 158.719L322.482 145.961L341.686 145.43L341.94 145.575C344.99 147.316 347.354 150.04 348.642 153.299C349.93 156.558 350.065 160.157 349.026 163.503C344.26 178.935 341.199 193.508 341.152 206.561Z" fill="#FF6C11"/>
<path d="M308.078 255.997L306.737 274.264C306.665 275.242 306.241 276.162 305.542 276.853C304.844 277.545 303.918 277.962 302.936 278.027C302.37 278.064 301.802 277.984 301.269 277.791C300.736 277.598 300.249 277.296 299.839 276.905C299.43 276.514 299.106 276.042 298.89 275.519C298.674 274.997 298.569 274.435 298.582 273.87L299.009 255.997L312.345 205.498L312.879 174.666L327.816 174.135L326.749 209.75L308.078 255.997Z" fill="#A0616A"/>
<path d="M329.422 176.793C323.089 174.227 317.175 175.086 311.818 180.514L312.552 154.483C312.644 152.855 313.322 151.314 314.462 150.144C315.601 148.974 317.126 148.252 318.756 148.111C320.486 147.961 322.208 148.476 323.569 149.55C324.931 150.625 325.829 152.177 326.079 153.89L329.422 176.793Z" fill="#FF6C11"/>
<path d="M359.558 193.006H310.48C321.929 162.796 325.621 134.692 310.48 110.612C310.74 103.38 320.049 97.1101 327.278 97.8028C335.816 98.6209 347.289 104.873 348.889 113.27L359.558 193.006Z" fill="#2F2E41"/>
<path d="M203.144 96.4746H200.905V35.3673C200.905 30.7228 199.987 26.1238 198.204 21.8328C196.42 17.5418 193.806 13.643 190.51 10.3588C187.214 7.07465 183.302 4.46951 178.995 2.69214C174.689 0.914776 170.074 -1.39183e-05 165.413 1.58829e-10H35.4922C30.8313 -1.02555e-05 26.216 0.914787 21.9099 2.69216C17.6038 4.46953 13.6912 7.07466 10.3954 10.3588C7.09966 13.643 4.48532 17.5418 2.70167 21.8328C0.918023 26.1238 -5.14594e-06 30.7228 0 35.3673V370.607C-3.67567e-06 375.251 0.918023 379.85 2.70167 384.141C4.48532 388.432 7.09966 392.331 10.3954 395.615C13.6912 398.899 17.6038 401.505 21.9099 403.282C26.216 405.059 30.8313 405.974 35.4922 405.974H165.413C170.074 405.974 174.689 405.059 178.995 403.282C183.302 401.505 187.214 398.9 190.51 395.615C193.806 392.331 196.42 388.432 198.204 384.141C199.987 379.85 200.905 375.251 200.905 370.607V139.972H203.144V96.4746Z" fill="#3F3D56"/>
<path d="M166.845 9.20142H149.886C150.666 11.1068 150.964 13.174 150.753 15.221C150.543 17.268 149.83 19.2319 148.678 20.9398C147.526 22.6477 145.971 24.0471 144.148 25.0148C142.326 25.9824 140.292 26.4886 138.227 26.4888H63.7973C61.7323 26.4886 59.699 25.9824 57.8766 25.0148C56.0542 24.0471 54.4985 22.6477 53.3467 20.9398C52.1948 19.2319 51.4822 17.268 51.2714 15.221C51.0607 13.174 51.3584 11.1068 52.1383 9.20142H36.2986C32.8179 9.20141 29.3713 9.88457 26.1555 11.2119C22.9398 12.5392 20.0179 14.4847 17.5566 16.9373C15.0954 19.3898 13.1431 22.3014 11.811 25.5059C10.479 28.7103 9.79346 32.1448 9.79346 35.6133V370.361C9.79346 373.829 10.479 377.264 11.811 380.468C13.143 383.673 15.0954 386.584 17.5566 389.037C20.0179 391.49 22.9398 393.435 26.1555 394.762C29.3713 396.09 32.8179 396.773 36.2986 396.773H166.845C170.326 396.773 173.773 396.09 176.988 394.762C180.204 393.435 183.126 391.49 185.587 389.037C188.049 386.584 190.001 383.673 191.333 380.468C192.665 377.264 193.351 373.829 193.351 370.361V35.6132C193.35 28.6084 190.558 21.8904 185.587 16.9372C180.617 11.9841 173.875 9.20141 166.845 9.20142Z" fill="white"/>
<path d="M170.434 61.4911H32.7241V179.193H170.434V61.4911Z" fill="#E6E6E6"/>
<path d="M73.5846 203.737C79.1496 203.737 83.661 199.241 83.661 193.696C83.661 188.15 79.1496 183.655 73.5846 183.655C68.0196 183.655 63.5083 188.15 63.5083 193.696C63.5083 199.241 68.0196 203.737 73.5846 203.737Z" fill="#FF6C11"/>
<path d="M78.6325 192.859H74.434V188.676H72.7546V192.859H68.5562V194.533H72.7546V198.717H74.434V194.533H78.6325V192.859Z" fill="white"/>
<path d="M126.764 203.737C132.329 203.737 136.841 199.241 136.841 193.696C136.841 188.15 132.329 183.655 126.764 183.655C121.199 183.655 116.688 188.15 116.688 193.696C116.688 199.241 121.199 203.737 126.764 203.737Z" fill="#FF6C11"/>
<path d="M131.813 194.533V192.859H121.737V194.533H131.813Z" fill="white"/>
<path d="M106.719 76.1704H95.8369C95.4542 76.1704 95.0872 76.3219 94.8166 76.5915C94.5461 76.8611 94.394 77.2268 94.394 77.6081V82.368C94.394 82.7493 94.5461 83.115 94.8166 83.3846C95.0872 83.6543 95.4542 83.8057 95.8369 83.8057H97.6402V90.9377H104.916V83.8057H106.719C107.102 83.8057 107.469 83.6543 107.74 83.3846C108.01 83.115 108.162 82.7493 108.162 82.368V77.6081C108.162 77.2268 108.01 76.8611 107.74 76.5915C107.469 76.3219 107.102 76.1704 106.719 76.1704Z" fill="#FF6C11"/>
<path d="M117.609 119.733C110.944 110.015 107.537 98.4437 107.876 86.6778C107.882 86.4064 107.793 86.1412 107.625 85.9273C107.457 85.7134 107.22 85.564 106.955 85.5045V83.4478H95.4611V85.4759H95.3028C95.1479 85.4761 94.9946 85.5067 94.8516 85.5659C94.7086 85.6252 94.5787 85.7119 94.4693 85.8212C94.3599 85.9304 94.2732 86.0601 94.2142 86.2028C94.1551 86.3454 94.1248 86.4983 94.125 86.6526C94.125 86.6811 94.1261 86.7097 94.1282 86.7381C95.0337 99.3157 91.9761 110.595 84.9556 120.576C84.5516 121.15 84.3452 121.838 84.3673 122.539L85.6241 161.277C85.6543 162.141 86.0182 162.96 86.6399 163.563C87.2616 164.166 88.093 164.507 88.9606 164.514H114.957C115.834 164.506 116.674 164.158 117.298 163.543C117.922 162.928 118.28 162.094 118.295 161.22L118.78 123.608C118.794 122.228 118.386 120.876 117.609 119.733Z" fill="#3F3D56"/>
<path opacity="0.2" d="M104.446 77.7214C104.446 78.5441 104.118 79.3331 103.534 79.9148C102.95 80.4965 102.159 80.8233 101.333 80.8233C100.507 80.8233 99.7157 80.4965 99.1319 79.9148C98.5482 79.3331 98.2202 78.5441 98.2202 77.7214" fill="black"/>
<path d="M113.494 132.6H110.346C110.046 130.657 109.057 128.885 107.56 127.605C106.062 126.325 104.154 125.621 102.181 125.621C100.207 125.621 98.2994 126.325 96.8016 127.605C95.3039 128.885 94.3153 130.657 94.0148 132.6H90.8666C90.5317 132.6 90.2007 132.673 89.8963 132.812C89.592 132.951 89.3215 133.155 89.1034 133.408C88.8853 133.661 88.7248 133.959 88.6328 134.28C88.5408 134.601 88.5195 134.938 88.5705 135.267L91.9899 157.415H111.624L115.778 135.342C115.841 135.008 115.829 134.664 115.743 134.334C115.658 134.005 115.5 133.699 115.282 133.437C115.064 133.175 114.791 132.965 114.482 132.82C114.173 132.675 113.836 132.6 113.494 132.6Z" fill="#FF6C11"/>
<path d="M170.434 227.166H32.7241V344.868H170.434V227.166Z" fill="#E6E6E6"/>
<path d="M73.5846 369.412C79.1496 369.412 83.661 364.916 83.661 359.371C83.661 353.826 79.1496 349.33 73.5846 349.33C68.0196 349.33 63.5083 353.826 63.5083 359.371C63.5083 364.916 68.0196 369.412 73.5846 369.412Z" fill="#FF6C11"/>
<path d="M78.6325 358.534H74.434V354.35H72.7546V358.534H68.5562V360.207H72.7546V364.391H74.434V360.207H78.6325V358.534Z" fill="white"/>
<path d="M126.764 369.412C132.329 369.412 136.841 364.916 136.841 359.371C136.841 353.826 132.329 349.33 126.764 349.33C121.199 349.33 116.688 353.826 116.688 359.371C116.688 364.916 121.199 369.412 126.764 369.412Z" fill="#FF6C11"/>
<path d="M131.813 360.208V358.534H121.737V360.208H131.813Z" fill="white"/>
<path d="M128.687 310.783L128.763 310.783C131.356 310.805 133.895 310.048 136.049 308.61C138.203 307.172 139.873 305.12 140.839 302.723C143.885 295.048 144.599 286.649 142.89 278.573C141.182 270.497 137.127 263.1 131.231 257.303C125.335 251.507 117.857 247.566 109.731 245.973C101.604 244.38 93.1858 245.204 85.5254 248.342C77.865 251.481 71.3003 256.796 66.6488 263.625C61.9973 270.454 59.4645 278.496 59.3658 286.749C59.2671 295.002 61.6067 303.102 66.0935 310.04C70.5803 316.977 77.0159 322.447 84.5991 325.767C86.956 326.806 89.5732 327.112 92.1075 326.644C94.6419 326.176 96.975 324.955 98.8011 323.142C102.718 319.219 107.375 316.107 112.504 313.986C117.633 311.865 123.133 310.776 128.687 310.783Z" fill="white"/>
<path d="M106.999 298.047C114.699 298.047 120.941 291.827 120.941 284.154C120.941 276.481 114.699 270.261 106.999 270.261C99.2988 270.261 93.0566 276.481 93.0566 284.154C93.0566 291.827 99.2988 298.047 106.999 298.047Z" fill="#F9A825"/>
</g>
<defs>
<clipPath id="clip0_272_1157">
<rect width="431" height="405.974" fill="white"/>
</clipPath>
</defs>
</svg>
