<svg width="155" height="146" viewBox="0 0 155 146" fill="none" xmlns="http://www.w3.org/2000/svg">
<path d="M135.482 68.7858C135.683 69.0215 135.832 69.2968 135.92 69.5937C136.008 69.8906 136.032 70.2026 135.991 70.5095C135.95 70.8164 135.845 71.1113 135.683 71.3751C135.52 71.6389 135.304 71.8657 135.048 72.041L124.223 79.4469L119.456 82.6134C119.186 82.7933 118.857 82.8664 118.535 82.8184C118.214 82.7704 117.921 82.6048 117.715 82.3538C117.595 82.2075 117.508 82.0369 117.461 81.8539C117.413 81.6709 117.406 81.4798 117.44 81.2938C117.474 81.1078 117.548 80.9313 117.657 80.7766C117.766 80.6219 117.907 80.4926 118.071 80.3976L122.688 77.7263L130.746 70.0796L125.566 64.5357L129.403 61.6682L135.482 68.7858Z" fill="#A0616A"/>
<path d="M110.027 138.518H107.379L105.807 116.725L112.521 116.533L110.027 138.518Z" fill="#A0616A"/>
<path d="M110.221 145.591C109.515 145.912 108.924 143.311 108.328 143.894C106.662 145.525 104.111 145.881 101.888 145.168L102.666 145.16C102.532 145.117 102.408 145.047 102.301 144.955C102.195 144.863 102.108 144.75 102.047 144.624C101.986 144.497 101.951 144.36 101.944 144.219C101.938 144.079 101.96 143.939 102.01 143.807C102.069 143.65 102.165 143.509 102.291 143.398C102.417 143.286 102.568 143.206 102.732 143.165L104.504 142.724L107.285 137.849L110.125 137.658C110.758 138.462 111.2 139.399 111.417 140.398C111.635 141.397 111.622 142.432 111.38 143.425C111.122 144.473 110.724 145.362 110.221 145.591Z" fill="#2F2E41"/>
<path d="M127.659 138.518H125.011L123.438 116.725L130.345 115.387L127.659 138.518Z" fill="#A0616A"/>
<path d="M127.849 145.591C127.143 145.912 126.552 143.311 125.956 143.894C124.291 145.525 121.74 145.881 119.516 145.168L120.294 145.16C120.16 145.117 120.036 145.047 119.93 144.955C119.823 144.863 119.737 144.75 119.676 144.624C119.614 144.497 119.579 144.36 119.573 144.219C119.566 144.079 119.588 143.939 119.638 143.807C119.697 143.65 119.794 143.509 119.92 143.398C120.046 143.286 120.197 143.206 120.36 143.165L122.132 142.724L124.914 137.849L127.945 137.467L128.022 137.591C128.608 138.533 128.986 139.588 129.13 140.686C129.275 141.784 129.183 142.901 128.86 143.961C128.608 144.766 128.264 145.403 127.849 145.591Z" fill="#2F2E41"/>
<path d="M130.659 62.1611C128.224 62.4987 126.538 63.8276 125.851 66.4784L121.375 58.2434C121.11 57.72 121.043 57.1189 121.186 56.5501C121.329 55.9814 121.673 55.4831 122.155 55.1466C122.667 54.7895 123.296 54.6407 123.914 54.7309C124.532 54.821 125.092 55.1432 125.479 55.6314L130.659 62.1611Z" fill="#FF6C11"/>
<path d="M135.35 114.431C124.467 119.229 113.33 119.819 101.969 116.725C106.118 100.692 111.016 86.1942 110.986 74.2853L122.113 73.3294L123.826 76.0359C127.891 82.4573 130.696 89.5886 132.095 97.0518L135.35 114.431Z" fill="#2F2E41"/>
<path d="M117.127 49.6244C120.306 49.6244 122.883 47.0567 122.883 43.8893C122.883 40.7219 120.306 38.1543 117.127 38.1543C113.949 38.1543 111.372 40.7219 111.372 43.8893C111.372 47.0567 113.949 49.6244 117.127 49.6244Z" fill="#A0616A"/>
<path d="M123.456 54.0212L116.358 54.4036L115.207 48.095L120.962 47.1393L123.456 54.0212Z" fill="#A0616A"/>
<path d="M122.688 74.2851L114.912 74.5034L110.986 75.0498C109.059 68.7062 107.436 62.3772 111.369 57.0799L115.974 52.4918L122.88 52.3007L122.971 52.3528C124.068 52.9789 124.918 53.9587 125.381 55.1307C125.845 56.3027 125.893 57.597 125.52 58.8003C123.806 64.3501 122.705 69.5909 122.688 74.2851Z" fill="#FF6C11"/>
<path d="M110.794 92.0639L110.311 98.6332C110.286 98.985 110.133 99.3157 109.882 99.5644C109.631 99.8131 109.298 99.9629 108.945 99.9864C108.741 99.9999 108.537 99.971 108.345 99.9016C108.153 99.8321 107.978 99.7236 107.831 99.5829C107.684 99.4423 107.567 99.2726 107.49 99.0847C107.412 98.8968 107.374 98.6948 107.379 98.4915L107.532 92.0639L112.329 73.9028L112.52 62.815L117.892 62.6238L117.508 75.4322L110.794 92.0639Z" fill="#A0616A"/>
<path d="M118.47 63.5798C116.192 62.657 114.065 62.966 112.139 64.918L112.403 55.5563C112.436 54.9709 112.68 54.417 113.089 53.9962C113.499 53.5753 114.047 53.3157 114.634 53.2649C115.256 53.211 115.875 53.3962 116.365 53.7826C116.855 54.169 117.177 54.7273 117.267 55.3432L118.47 63.5798Z" fill="#FF6C11"/>
<path d="M129.307 69.4105H111.658C115.775 58.5461 117.103 48.439 111.658 39.7793C111.751 37.1784 115.099 34.9236 117.699 35.1727C120.769 35.4669 124.895 37.7153 125.47 40.7352L129.307 69.4105Z" fill="#2F2E41"/>
<path d="M73.0564 34.6951H72.2514V12.7191C72.2514 11.0488 71.9212 9.39485 71.2798 7.8517C70.6383 6.30855 69.6981 4.9064 68.5129 3.72532C67.3276 2.54425 65.9205 1.60736 64.3719 0.968172C62.8233 0.32898 61.1635 -5.00542e-06 59.4873 0H12.764C11.0878 -3.68819e-06 9.42803 0.328984 7.87943 0.968177C6.33083 1.60737 4.92374 2.54425 3.73849 3.72533C2.55324 4.90641 1.61305 6.30855 0.971599 7.85171C0.330148 9.39486 -1.85063e-06 11.0488 0 12.7191V133.281C-1.32188e-06 134.951 0.330147 136.605 0.971599 138.148C1.61305 139.691 2.55324 141.094 3.73849 142.275C4.92374 143.456 6.33083 144.393 7.87943 145.032C9.42803 145.671 11.0878 146 12.764 146H59.4873C61.1635 146 62.8233 145.671 64.3719 145.032C65.9205 144.393 67.3276 143.456 68.5129 142.275C69.6981 141.094 70.6383 139.691 71.2798 138.148C71.9212 136.605 72.2514 134.951 72.2514 133.281V50.3379H73.0564V34.6951Z" fill="#3F3D56"/>
<path d="M60.0024 3.30905H53.9034C54.1839 3.99427 54.2909 4.7377 54.2152 5.47386C54.1394 6.21002 53.8831 6.91631 53.4689 7.53051C53.0546 8.14472 52.4952 8.64799 51.8398 8.99599C51.1844 9.34398 50.4532 9.52603 49.7105 9.52609H22.9433C22.2007 9.52603 21.4694 9.34398 20.814 8.99599C20.1587 8.64799 19.5992 8.14472 19.185 7.53052C18.7707 6.91631 18.5144 6.21002 18.4387 5.47386C18.3629 4.7377 18.4699 3.99427 18.7504 3.30905H13.054C11.8022 3.30905 10.5627 3.55473 9.40624 4.03207C8.24977 4.50942 7.19897 5.20907 6.31384 6.09108C5.42871 6.97309 4.72659 8.0202 4.24756 9.1726C3.76853 10.325 3.52197 11.5602 3.52197 12.8075V133.192C3.52197 134.44 3.76853 135.675 4.24755 136.827C4.72658 137.98 5.42871 139.027 6.31383 139.909C7.19896 140.791 8.24977 141.491 9.40624 141.968C10.5627 142.445 11.8022 142.691 13.054 142.691H60.0024C61.2541 142.691 62.4936 142.445 63.6501 141.968C64.8066 141.491 65.8574 140.791 66.7425 139.909C67.6276 139.027 68.3298 137.98 68.8088 136.827C69.2878 135.675 69.5344 134.44 69.5344 133.192V12.8075C69.5344 10.2884 68.5301 7.87238 66.7425 6.09108C64.9549 4.30977 62.5304 3.30905 60.0024 3.30905Z" fill="white"/>
<path d="M61.293 22.114H11.7686V64.4428H61.293V22.114Z" fill="#E6E6E6"/>
<path d="M26.4631 73.2696C28.4644 73.2696 30.0868 71.6529 30.0868 69.6586C30.0868 67.6643 28.4644 66.0476 26.4631 66.0476C24.4618 66.0476 22.8394 67.6643 22.8394 69.6586C22.8394 71.6529 24.4618 73.2696 26.4631 73.2696Z" fill="#FF6C11"/>
<path d="M28.2785 69.3578H26.7686V67.8532H26.1647V69.3578H24.6548V69.9596H26.1647V71.4642H26.7686V69.9596H28.2785V69.3578Z" fill="white"/>
<path d="M45.5881 73.2696C47.5894 73.2696 49.2118 71.6529 49.2118 69.6586C49.2118 67.6643 47.5894 66.0476 45.5881 66.0476C43.5868 66.0476 41.9644 67.6643 41.9644 69.6586C41.9644 71.6529 43.5868 73.2696 45.5881 73.2696Z" fill="#FF6C11"/>
<path d="M47.4038 69.9597V69.3578H43.7801V69.9597H47.4038Z" fill="white"/>
<path d="M38.3793 27.3931H34.4657C34.328 27.3931 34.1961 27.4476 34.0988 27.5445C34.0014 27.6415 33.9468 27.773 33.9468 27.9101V29.6219C33.9468 29.7591 34.0014 29.8906 34.0988 29.9875C34.1961 30.0845 34.328 30.139 34.4657 30.139H35.1142V32.7038H37.7308V30.139H38.3793C38.5169 30.139 38.6489 30.0845 38.7462 29.9875C38.8435 29.8906 38.8982 29.7591 38.8982 29.6219V27.9101C38.8982 27.773 38.8435 27.6415 38.7462 27.5445C38.6489 27.4476 38.5169 27.3931 38.3793 27.3931Z" fill="#FF6C11"/>
<path d="M42.2956 43.0593C39.8987 39.5644 38.6734 35.4032 38.7952 31.1718C38.7973 31.0742 38.7655 30.9788 38.7052 30.9019C38.6448 30.825 38.5596 30.7713 38.4639 30.7498V30.0102H34.3306V30.7396H34.2736C34.2179 30.7396 34.1628 30.7506 34.1114 30.772C34.0599 30.7933 34.0132 30.8244 33.9739 30.8637C33.9345 30.903 33.9034 30.9497 33.8821 31.001C33.8609 31.0523 33.85 31.1072 33.85 31.1627C33.8501 31.173 33.8504 31.1833 33.8512 31.1935C34.1768 35.7168 33.0773 39.7731 30.5525 43.3626C30.4072 43.5689 30.3329 43.8166 30.3409 44.0685L30.7929 57.9998C30.8037 58.3105 30.9346 58.6051 31.1582 58.822C31.3818 59.0389 31.6808 59.1613 31.9928 59.1638H41.3418C41.6574 59.1612 41.9595 59.036 42.1838 58.8147C42.408 58.5935 42.5367 58.2937 42.5424 57.9793L42.7166 44.4531C42.7218 43.9566 42.5749 43.4704 42.2956 43.0593Z" fill="#3F3D56"/>
<path opacity="0.2" d="M37.5617 27.9508C37.5617 28.2467 37.4437 28.5304 37.2338 28.7396C37.0238 28.9488 36.7391 29.0664 36.4422 29.0664C36.1453 29.0664 35.8606 28.9488 35.6506 28.7396C35.4407 28.5304 35.3228 28.2467 35.3228 27.9508" fill="black"/>
<path d="M40.8159 47.6869H39.6838C39.5757 46.9881 39.2202 46.3508 38.6815 45.8904C38.1429 45.4301 37.4567 45.177 36.7471 45.177C36.0375 45.177 35.3513 45.4301 34.8126 45.8904C34.274 46.3508 33.9185 46.9881 33.8104 47.6869H32.6782C32.5578 47.6869 32.4388 47.7129 32.3293 47.763C32.2199 47.8131 32.1226 47.8863 32.0442 47.9774C31.9657 48.0685 31.908 48.1754 31.8749 48.2908C31.8418 48.4062 31.8342 48.5274 31.8525 48.646L33.0822 56.611H40.1434L41.637 48.6729C41.6596 48.5526 41.6554 48.4289 41.6246 48.3105C41.5938 48.1921 41.5372 48.0819 41.4588 47.9878C41.3804 47.8936 41.2821 47.8179 41.171 47.7659C41.0599 47.7139 40.9386 47.6869 40.8159 47.6869Z" fill="#FF6C11"/>
<path d="M61.293 81.6955H11.7686V124.024H61.293V81.6955Z" fill="#E6E6E6"/>
<path d="M26.4631 132.851C28.4644 132.851 30.0868 131.234 30.0868 129.24C30.0868 127.246 28.4644 125.629 26.4631 125.629C24.4618 125.629 22.8394 127.246 22.8394 129.24C22.8394 131.234 24.4618 132.851 26.4631 132.851Z" fill="#FF6C11"/>
<path d="M28.2785 128.939H26.7686V127.435H26.1647V128.939H24.6548V129.541H26.1647V131.046H26.7686V129.541H28.2785V128.939Z" fill="white"/>
<path d="M45.5881 132.851C47.5894 132.851 49.2118 131.234 49.2118 129.24C49.2118 127.246 47.5894 125.629 45.5881 125.629C43.5868 125.629 41.9644 127.246 41.9644 129.24C41.9644 131.234 43.5868 132.851 45.5881 132.851Z" fill="#FF6C11"/>
<path d="M47.4038 129.541V128.939H43.7801V129.541H47.4038Z" fill="white"/>
<path d="M46.2796 111.767L46.3069 111.767C47.2393 111.774 48.1525 111.502 48.9272 110.985C49.702 110.468 50.3023 109.73 50.6499 108.868C51.7454 106.108 52.0019 103.087 51.3875 100.183C50.7731 97.2784 49.3148 94.6183 47.1944 92.5336C45.074 90.449 42.385 89.0319 39.4623 88.4589C36.5396 87.8859 33.5124 88.1822 30.7575 89.311C28.0025 90.4398 25.6417 92.3512 23.9689 94.8072C22.2961 97.2632 21.3852 100.155 21.3497 103.123C21.3142 106.091 22.1556 109.004 23.7692 111.499C25.3828 113.994 27.6972 115.961 30.4243 117.155C31.2719 117.529 32.2132 117.639 33.1246 117.471C34.036 117.302 34.8751 116.863 35.5318 116.211C36.9403 114.8 38.6152 113.681 40.4598 112.918C42.3044 112.156 44.2824 111.764 46.2796 111.767Z" fill="white"/>
<path d="M38.4799 107.186C41.249 107.186 43.4939 104.949 43.4939 102.19C43.4939 99.4305 41.249 97.1935 38.4799 97.1935C35.7107 97.1935 33.4658 99.4305 33.4658 102.19C33.4658 104.949 35.7107 107.186 38.4799 107.186Z" fill="#F9A825"/>
</svg>
