<svg width="343" height="240" viewBox="0 0 343 240" fill="none" xmlns="http://www.w3.org/2000/svg">
<g clip-path="url(#clip0_1578_49)">
<path d="M0 238.456C0 238.764 0.247953 239.012 0.556724 239.012H341.744C342.053 239.012 342.301 238.764 342.301 238.456C342.301 238.147 342.053 237.899 341.744 237.899H0.556724C0.247953 237.899 0 238.147 0 238.456Z" fill="#3F3D58"/>
<path d="M206.133 37.0151L218.114 40.9543V23.7052H207.242L206.133 37.0151Z" fill="#F8A8AB"/>
<path d="M216.631 28.4772C223.224 28.4772 228.57 23.1318 228.57 16.538C228.57 9.94422 223.224 4.59888 216.631 4.59888C210.037 4.59888 204.691 9.94422 204.691 16.538C204.691 23.1318 210.037 28.4772 216.631 28.4772Z" fill="#F8A8AB"/>
<path d="M213.587 17.4736L215.234 19.4713L218.209 14.2596C218.209 14.2596 222.008 14.4561 222.008 11.635C222.008 8.814 225.494 8.73447 225.494 8.73447C225.494 8.73447 230.429 0.11694 220.207 2.38594C220.207 2.38594 213.115 -2.47019 209.592 1.67951C209.592 1.67951 198.78 7.12511 201.873 16.6035L207.014 26.3765L208.179 24.1637C208.179 24.1637 207.473 14.8771 213.587 17.4643V17.4736Z" fill="#2F2E43"/>
<path d="M212.336 216.037H202.539V229.936H212.336V216.037Z" fill="#F8A8AB"/>
<path d="M211.256 237.899C209.581 238.049 201.198 238.713 200.777 236.79C200.393 235.026 200.959 233.183 201.039 232.931C201.843 224.912 202.143 224.823 202.325 224.771C202.611 224.687 203.443 225.085 204.795 225.955L204.88 226.011L204.898 226.109C204.922 226.236 205.52 229.178 208.36 228.725C210.306 228.416 210.938 227.986 211.139 227.775C210.975 227.7 210.77 227.569 210.625 227.345C210.414 227.017 210.377 226.596 210.517 226.091C210.882 224.757 211.977 222.788 212.023 222.708L212.15 222.484L223.284 229.997L230.161 231.962C230.681 232.112 231.097 232.481 231.308 232.977C231.598 233.67 231.42 234.474 230.858 234.98C229.609 236.102 227.13 238.025 224.524 238.264C223.832 238.329 222.915 238.353 221.885 238.353C217.586 238.353 211.308 237.908 211.261 237.899H211.256Z" fill="#2F2E43"/>
<path d="M224.849 96.2057L199.151 94.8911C199.151 94.8911 195.212 109.824 200.19 125.385L200.789 219.087H215.31L228.999 122.428L224.849 96.2057Z" fill="#2F2E43"/>
<path d="M220.513 33.6981L206.408 26.2128C206.408 26.2128 191.208 48.4256 193.309 60.4583C195.414 72.491 199.147 94.891 199.147 94.891L230.263 96.2056L224.831 52.0934L220.513 33.6981Z" fill="#E2E3E4"/>
<path d="M219.304 216.037H209.508V229.936H219.304V216.037Z" fill="#F8A8AB"/>
<path d="M218.225 237.899C216.55 238.049 208.166 238.713 207.745 236.79C207.362 235.026 207.928 233.183 208.007 232.931C208.812 224.912 209.111 224.823 209.294 224.771C209.579 224.687 210.412 225.085 211.764 225.955L211.848 226.011L211.867 226.109C211.89 226.236 212.489 229.178 215.329 228.725C217.275 228.416 217.907 227.986 218.108 227.775C217.944 227.7 217.738 227.569 217.593 227.345C217.383 227.017 217.345 226.596 217.486 226.091C217.851 224.757 218.945 222.788 218.992 222.708L219.118 222.484L230.253 229.997L237.13 231.962C237.649 232.112 238.066 232.481 238.276 232.977C238.566 233.67 238.389 234.474 237.827 234.98C236.578 236.102 234.099 238.025 231.493 238.264C230.8 238.329 229.883 238.353 228.854 238.353C224.555 238.353 218.276 237.908 218.23 237.899H218.225Z" fill="#2F2E43"/>
<path d="M230.267 96.2057L199.151 94.8911C199.151 94.8911 195.212 109.824 200.19 125.385L206.206 219.087H220.728L234.417 122.428L230.267 96.2057Z" fill="#2F2E43"/>
<path d="M227.019 157.408C224.843 157.408 222.471 156.875 220.128 156.351C218.392 155.962 216.862 155.864 215.636 155.789C213.774 155.672 212.301 155.579 211.482 154.489C210.673 153.413 210.673 151.583 211.482 147.976C212.558 143.186 214.953 135.532 217.882 129.235C221.667 121.113 225.302 117.375 228.694 118.138C233.236 119.158 235.047 126.741 235.725 131.167C236.67 137.347 236.586 144.692 235.519 149.445C234.107 155.738 230.864 157.403 227.014 157.403H227.019V157.408ZM227.847 119.452C225.353 119.452 222.294 123.092 219.159 129.829C216.273 136.028 213.915 143.565 212.853 148.285C212.174 151.317 212.1 152.968 212.605 153.646C213.035 154.217 214.163 154.292 215.721 154.386C216.998 154.465 218.588 154.563 220.432 154.98C227.758 156.622 232.338 157.221 234.149 149.141C236.09 140.486 234.612 120.907 228.385 119.509C228.207 119.466 228.025 119.448 227.842 119.448H227.847V119.452Z" fill="#DFDFE0"/>
<path d="M256.649 215.583L186.871 216.042L176.031 211.055L182.347 146.629L188.7 146.952L254.071 150.278L256.649 215.583Z" fill="#FF6C11"/>
<path opacity="0.2" d="M186.871 216.042L176.031 211.055L182.347 146.629L188.7 146.952L186.871 216.042Z" fill="#272223"/>
<path d="M228.066 145.525C226.77 145.525 225.352 145.207 223.958 144.893C222.924 144.659 222.012 144.603 221.278 144.556C220.169 144.486 219.289 144.43 218.803 143.78C218.321 143.139 218.321 142.049 218.803 139.897C219.444 137.038 220.871 132.477 222.62 128.725C224.875 123.883 227.046 121.656 229.067 122.11C231.776 122.718 232.857 127.237 233.259 129.88C233.82 133.567 233.774 137.946 233.137 140.776C232.295 144.528 230.363 145.52 228.066 145.52V145.525ZM228.562 122.896C227.074 122.896 225.25 125.066 223.383 129.085C221.661 132.781 220.253 137.272 219.626 140.089C219.219 141.894 219.177 142.882 219.481 143.284C219.738 143.625 220.407 143.668 221.338 143.724C222.101 143.77 223.046 143.831 224.145 144.079C228.51 145.057 231.243 145.413 232.323 140.599C233.479 135.438 232.599 123.766 228.889 122.933C228.782 122.91 228.674 122.896 228.567 122.896H228.562Z" fill="#DFDFE0"/>
<path d="M245.733 180.215L204.133 180.486L197.668 177.515L201.434 139.101L205.224 139.293L244.199 141.277L245.733 180.215Z" fill="#E2E3E4"/>
<path opacity="0.2" d="M204.133 180.486L197.668 177.515L201.434 139.101L205.224 139.293L204.133 180.486Z" fill="#272223"/>
<path d="M230.501 119.597C231.198 123.022 229.921 126.152 227.656 126.587C225.392 127.022 222.992 124.594 222.3 121.169C222.005 119.803 222.052 118.39 222.435 117.043L219.68 102.489L226.8 101.361L228.76 115.827C229.645 116.931 230.239 118.222 230.501 119.597Z" fill="#F8A8AB"/>
<path d="M202.578 33.4268C202.578 33.4268 212.992 32.1075 214.237 35.2186C215.481 38.3297 230.106 112.383 230.106 112.383H220.459L202.578 33.4268Z" fill="#E2E3E4"/>
<path d="M130.219 49.277L119.758 52.7156V37.6606H129.25L130.219 49.277Z" fill="#F8A8AB"/>
<path d="M121.048 41.8292C126.805 41.8292 131.472 37.1625 131.472 31.4058C131.472 25.6491 126.805 20.9824 121.048 20.9824C115.292 20.9824 110.625 25.6491 110.625 31.4058C110.625 37.1625 115.292 41.8292 121.048 41.8292Z" fill="#F8A8AB"/>
<path d="M123.916 30.3719C122.171 30.3204 121.025 28.5567 120.347 26.9473C119.669 25.338 118.971 23.49 117.353 22.8257C116.029 22.283 113.694 25.9555 112.651 24.9778C111.561 23.9579 112.623 18.7228 113.778 17.7825C114.934 16.8421 116.515 16.6596 118.003 16.5895C121.633 16.4211 125.287 16.7158 128.847 17.4596C131.051 17.9181 133.315 18.6105 134.906 20.2012C136.918 22.2222 137.432 25.2678 137.577 28.1169C137.727 31.0316 137.559 34.0818 136.141 36.6315C134.723 39.1812 131.757 41.0619 128.913 40.4117C128.628 38.8678 128.918 37.2818 129.03 35.7099C129.138 34.1427 129.025 32.4491 128.066 31.2C127.107 29.9509 125.063 29.4549 123.949 30.5637" fill="#2F2E43"/>
<path d="M136.742 33.9835C137.785 33.2209 139.034 32.58 140.316 32.739C141.701 32.9075 142.875 34.049 143.231 35.401C143.586 36.7531 143.189 38.2408 142.328 39.3449C141.472 40.449 140.194 41.1788 138.847 41.5437C138.066 41.7542 137.21 41.8431 136.466 41.525C135.371 41.0525 134.777 39.6536 135.207 38.5402" fill="#2F2E43"/>
<path d="M126.765 216.809H116.969V230.708H126.765V216.809Z" fill="#F8A8AB"/>
<path d="M107.419 239.12C106.39 239.12 105.473 239.097 104.78 239.031C102.179 238.792 99.6951 236.87 98.446 235.747C97.8846 235.242 97.7068 234.437 97.9969 233.745C98.2074 233.249 98.6238 232.874 99.1431 232.729L106.02 230.764L117.155 223.251L117.281 223.476C117.328 223.56 118.423 225.529 118.787 226.858C118.928 227.363 118.89 227.784 118.68 228.112C118.535 228.336 118.329 228.467 118.165 228.542C118.366 228.753 118.998 229.183 120.944 229.492C123.784 229.941 124.383 226.998 124.406 226.877L124.425 226.778L124.509 226.722C125.861 225.852 126.694 225.454 126.979 225.539C127.157 225.59 127.456 225.684 128.266 233.698C128.345 233.95 128.911 235.794 128.528 237.557C128.111 239.475 119.728 238.816 118.048 238.666C118.002 238.671 111.723 239.12 107.424 239.12H107.419Z" fill="#2F2E43"/>
<path d="M154.66 205.88L146.348 211.064L153.703 222.858L162.015 217.674L154.66 205.88Z" fill="#F8A8AB"/>
<path d="M143.62 237.216C142.469 237.216 141.412 237.075 140.659 236.944C139.92 236.813 139.339 236.224 139.218 235.485C139.134 234.952 139.288 234.413 139.653 234.016L144.448 228.711L149.922 216.444L150.146 216.566C150.231 216.612 152.2 217.702 153.215 218.638C153.604 218.994 153.796 219.373 153.786 219.761C153.781 220.032 153.679 220.247 153.576 220.402C153.856 220.477 154.619 220.505 156.434 219.737C159.082 218.619 158.034 215.803 157.987 215.686L157.95 215.592L157.992 215.504C158.68 214.049 159.171 213.272 159.461 213.192C159.643 213.141 159.943 213.061 164.869 219.438C165.07 219.606 166.525 220.874 167.133 222.573C167.793 224.421 160.331 228.299 158.829 229.057C158.783 229.094 150.974 234.769 147.765 236.383C146.493 237.024 144.986 237.221 143.615 237.221L143.62 237.216Z" fill="#2F2E43"/>
<path d="M133.981 100.575H106.551L104.062 126.091L114.954 220.369H128.956L123.356 165.918L146.069 215.078L158.514 206.367L140.778 160.472C140.778 160.472 147.113 120.491 142.135 110.531C137.157 100.571 133.981 100.575 133.981 100.575Z" fill="#2F2E43"/>
<path d="M147.623 102.129H104.062L117.129 45.8105H136.109L147.623 102.129Z" fill="#FF6C11"/>
<path d="M93.2373 44.7018C92.5402 41.2772 93.8174 38.1474 96.0817 37.7123C98.3461 37.2772 100.746 39.7053 101.438 43.1298C101.733 44.4959 101.686 45.9088 101.303 47.2561L104.058 61.8105L96.9379 62.938L94.9776 48.4725C94.0934 47.3684 93.4993 46.0772 93.2373 44.7018Z" fill="#F8A8AB"/>
<path d="M135.644 45.8105H118.905L107.621 68.3788L103.364 51.4666L94.0117 52.4584C94.0117 52.4584 96.2246 85.5016 105.895 84.3835C115.565 83.2654 138.119 53.497 135.64 45.8058H135.644V45.8105Z" fill="#FF6C11"/>
<path d="M151.449 152.856C150.153 152.856 148.735 152.538 147.341 152.224C146.307 151.99 145.395 151.934 144.66 151.887C143.552 151.817 142.672 151.761 142.186 151.111C141.704 150.47 141.704 149.38 142.186 147.228C142.827 144.369 144.253 139.808 146.003 136.056C148.258 131.214 150.429 128.987 152.45 129.441C155.159 130.049 156.239 134.568 156.642 137.211C157.203 140.898 157.156 145.277 156.52 148.107C155.678 151.859 153.746 152.851 151.449 152.851V152.856ZM151.945 130.227C150.457 130.227 148.632 132.397 146.766 136.416C145.044 140.112 143.636 144.603 143.009 147.42C142.602 149.225 142.56 150.213 142.864 150.615C143.121 150.956 143.79 150.999 144.721 151.055C145.484 151.101 146.429 151.162 147.528 151.41C151.893 152.388 154.625 152.744 155.706 147.93C156.862 142.769 155.982 131.097 152.272 130.264C152.165 130.241 152.057 130.227 151.949 130.227H151.945Z" fill="#DFDFE0"/>
<path d="M169.12 187.541L127.52 187.812L121.055 184.842L124.821 146.428L128.61 146.62L167.586 148.603L169.12 187.541Z" fill="#E2E3E4"/>
<path opacity="0.2" d="M127.52 187.812L121.055 184.842L124.821 146.428L128.61 146.62L127.52 187.812Z" fill="#272223"/>
<path d="M154.337 131.635C155.034 135.059 153.757 138.189 151.492 138.624C149.228 139.059 146.828 136.631 146.135 133.207C145.841 131.841 145.888 130.428 146.271 129.08L143.516 114.526L150.636 113.399L152.596 127.864C153.481 128.968 154.075 130.259 154.337 131.635Z" fill="#F8A8AB"/>
<path d="M126.102 45.8105C126.102 45.8105 135.613 45.4082 136.109 45.8105C138.705 47.9298 153.933 124.426 153.933 124.426H144.286L126.102 45.8105Z" fill="#FF6C11"/>
</g>
<defs>
<clipPath id="clip0_1578_49">
<rect width="342.301" height="239.12" fill="white"/>
</clipPath>
</defs>
</svg>
