<svg width="236" height="240" viewBox="0 0 236 240" fill="none" xmlns="http://www.w3.org/2000/svg">
<g clip-path="url(#clip0_1578_122)">
<path d="M52.9281 39.9154L51.1289 49.3613L60.0991 51.8902L58.9846 41.8056L52.9281 39.9154Z" fill="#A0616A"/>
<path d="M0 235.436C0 235.733 0.238398 235.971 0.535268 235.971H235.452C235.749 235.971 235.987 235.733 235.987 235.436C235.987 235.139 235.749 234.901 235.452 234.901H0.535268C0.238398 234.901 0 235.139 0 235.436Z" fill="#3F3D56"/>
<path d="M160.137 107.187H67.631C57.1407 107.187 48.6367 115.691 48.6367 126.181V215.883C48.6367 226.373 57.1407 234.877 67.631 234.877H160.137C170.627 234.877 179.132 226.373 179.132 215.883V126.181C179.132 115.691 170.627 107.187 160.137 107.187Z" fill="white"/>
<path d="M160.138 235.327H67.6316C56.9102 235.327 48.1875 226.604 48.1875 215.883V126.182C48.1875 115.46 56.9102 106.737 67.6316 106.737H160.138C170.859 106.737 179.582 115.46 179.582 126.182V215.883C179.582 226.604 170.859 235.327 160.138 235.327ZM67.6316 107.637C57.4061 107.637 49.0871 115.956 49.0871 126.182V215.883C49.0871 226.108 57.4061 234.427 67.6316 234.427H160.138C170.363 234.427 178.682 226.108 178.682 215.883V126.182C178.682 115.956 170.363 107.637 160.138 107.637L67.6316 107.637Z" fill="#3F3D56"/>
<path d="M166.836 146.076H129.653C128.076 146.076 126.793 144.793 126.793 143.216C126.793 141.639 128.076 140.355 129.653 140.355H166.836C168.413 140.355 169.696 141.639 169.696 143.216C169.696 144.793 168.413 146.076 166.836 146.076Z" fill="#FF6C11"/>
<path d="M131.952 168.568H95.8089C94.8977 168.568 94.1562 167.827 94.1562 166.916C94.1562 166.005 94.8977 165.263 95.8089 165.263H131.952C132.863 165.263 133.604 166.005 133.604 166.916C133.604 167.827 132.863 168.568 131.952 168.568Z" fill="#FF6C11"/>
<path d="M80.876 113.33H60.2411C60.164 113.33 60.1016 113.393 60.1016 113.47V115.872C60.1016 115.949 60.164 116.012 60.2411 116.012H80.876C80.9531 116.012 81.0156 115.949 81.0156 115.872V113.47C81.0156 113.393 80.9531 113.33 80.876 113.33Z" fill="#FF6C11"/>
<path d="M150.38 116.012C151.564 116.012 152.525 115.051 152.525 113.867C152.525 112.682 151.564 111.722 150.38 111.722C149.195 111.722 148.234 112.682 148.234 113.867C148.234 115.051 149.195 116.012 150.38 116.012Z" fill="#3F3D56"/>
<path d="M156.27 116.012C157.455 116.012 158.415 115.051 158.415 113.867C158.415 112.682 157.455 111.722 156.27 111.722C155.085 111.722 154.125 112.682 154.125 113.867C154.125 115.051 155.085 116.012 156.27 116.012Z" fill="#3F3D56"/>
<path d="M162.176 116.012C163.361 116.012 164.322 115.051 164.322 113.867C164.322 112.682 163.361 111.722 162.176 111.722C160.992 111.722 160.031 112.682 160.031 113.867C160.031 115.051 160.992 116.012 162.176 116.012Z" fill="#3F3D56"/>
<path d="M67.4102 177.414C67.4102 177.711 67.6486 177.95 67.9454 177.95H159.831C160.128 177.95 160.367 177.711 160.367 177.414C160.367 177.117 160.128 176.879 159.831 176.879H67.9454C67.6486 176.879 67.4102 177.117 67.4102 177.414Z" fill="#3F3D56"/>
<path d="M95.4323 45.3908C97.3886 43.7743 99.8083 43.4734 100.837 44.7186C101.865 45.9637 101.113 48.2831 99.1559 49.8998C98.383 50.5564 97.464 51.0183 96.476 51.2469L88.1007 57.9912L85.0195 53.9934L93.6032 47.7692C94.0142 46.8417 94.6414 46.0261 95.4323 45.3908Z" fill="#A0616A"/>
<path d="M47.0277 60.607C47.0235 60.3087 47.0263 57.7072 48.9523 56.0628C51.1647 54.174 54.2866 54.9385 55.3815 55.2067C57.911 55.8261 58.1184 56.9111 60.4938 58.026C64.9379 60.1119 59.3696 59.0442 62.014 58.3754C62.9293 58.1439 76.0976 57.2306 79.3755 55.2132C85.7505 51.2895 90.0942 48.9102 90.0942 48.9102L92.9337 54.5893C92.9337 54.5893 88.8277 60.2986 83.0488 64.5282C77.121 68.8668 74.1571 71.0361 69.6528 71.8742C69.2649 71.9464 59.7251 73.5753 52.0415 67.8348C50.2889 66.5254 47.0777 64.1264 47.0277 60.607Z" fill="#E6E6E6"/>
<path d="M55.8333 46.1637C61.2965 46.1637 65.7252 41.7349 65.7252 36.2718C65.7252 30.8086 61.2965 26.3799 55.8333 26.3799C50.3702 26.3799 45.9414 30.8086 45.9414 36.2718C45.9414 41.7349 50.3702 46.1637 55.8333 46.1637Z" fill="#A0616A"/>
<path d="M133.302 102.73L123.115 92.3016L117.855 97.7874L125.446 107.786L132.975 108.648L133.302 102.73Z" fill="#A0616A"/>
<path d="M75.132 83.1747C75.7279 83.2242 77.6214 83.6036 79.4313 82.6078C80.6664 81.9283 81.2999 80.9178 81.5139 80.5965C84.1682 76.6099 94.3562 70.3934 103.5 70.0108C105.57 69.9242 106.933 70.1641 108.172 70.8099C109.928 71.7255 110.63 73.0371 112.859 76.1096C114.078 77.7903 115.427 79.3736 116.661 81.0435C123.886 90.8201 126.624 91.5876 126.344 94.7219C126.034 98.1995 122.283 101.499 119.791 101.118C118.77 100.962 118.374 100.252 117.011 98.8151C113.011 94.6016 111.357 95.3801 108.51 92.1528C105.186 88.385 105.621 85.2608 103.886 85.1401C102.278 85.0282 101.595 87.6934 98.1611 91.2339C96.59 92.854 95.4712 93.5971 92.0627 95.9618C78.7894 105.17 78.5775 105.817 75.8988 106.552C74.7268 106.873 66.4086 109.153 63.4454 105.524C58.8084 99.845 69.763 82.7286 75.132 83.1747Z" fill="#2F2E41"/>
<path d="M130.186 105.086C130.935 104.749 131.811 104.356 132.093 103.451C132.284 102.839 132.174 102.085 131.78 101.563C131.325 100.961 130.652 100.882 130.679 100.775C130.721 100.613 132.313 100.677 134.06 101.295C134.39 101.411 135.884 101.957 137.785 103.441C139.307 104.629 139.102 104.868 140.057 105.553C142.988 107.657 145.737 105.999 147.323 107.972C147.935 108.734 148.196 109.815 147.939 110.689C147.421 112.445 144.906 113.049 143.531 113.361C140.22 114.112 137.714 113.499 135.097 113.058C126.197 111.558 121.197 112.924 120.527 110.862C120.401 110.472 120.607 110.505 121.293 107.641C121.97 104.815 121.948 104.039 122.525 103.813C123.393 103.472 123.976 105.022 126.163 105.552C128.101 106.022 129.701 105.304 130.186 105.086Z" fill="#2F2E41"/>
<path d="M115.189 136.843L112.615 122.494L105.184 124.08L105.849 136.615L111.595 141.555L115.189 136.843Z" fill="#A0616A"/>
<path d="M78.0414 87.9979C78.5066 88.3734 79.8604 89.7506 81.9171 89.943C83.3207 90.0743 84.4123 89.5939 84.7698 89.4481C89.2047 87.64 101.126 88.217 108.906 93.0349C110.668 94.1259 111.661 95.0897 112.324 96.3197C113.263 98.0637 113.107 99.5428 113.226 103.337C113.291 105.412 113.518 107.48 113.601 109.555C114.089 121.701 115.925 123.874 113.933 126.31C111.723 129.013 106.767 129.637 104.918 127.922C104.161 127.22 104.233 126.411 103.911 124.456C102.968 118.724 101.162 118.439 100.618 114.17C99.9834 109.185 102.098 106.845 100.731 105.771C99.4626 104.775 97.4005 106.597 92.5713 107.598C90.3615 108.056 89.0184 108.043 84.8703 108.086C68.7164 108.252 68.1777 108.668 65.5488 107.772C64.3986 107.379 56.2351 104.596 55.8211 99.9286C55.1733 92.6254 73.8493 84.6139 78.0414 87.9979Z" fill="#2F2E41"/>
<path d="M111.294 137.044C112.103 137.186 113.049 137.353 113.79 136.762C114.291 136.363 114.624 135.677 114.591 135.024C114.552 134.271 114.04 133.827 114.122 133.754C114.248 133.643 115.529 134.59 116.628 136.082C116.836 136.364 117.766 137.654 118.505 139.949C119.097 141.788 118.794 141.87 119.199 142.973C120.443 146.36 123.649 146.532 123.853 149.055C123.932 150.029 123.541 151.07 122.837 151.649C121.423 152.811 119.002 151.898 117.689 151.384C114.528 150.147 112.798 148.232 110.881 146.398C104.359 140.159 99.4542 138.481 100.058 136.4C100.172 136.006 100.324 136.149 102.5 134.164C104.647 132.206 105.065 131.551 105.669 131.688C106.579 131.894 106.191 133.503 107.703 135.17C109.043 136.648 110.77 136.952 111.294 137.044Z" fill="#2F2E41"/>
<path d="M57.1817 38.1627C57.5668 36.7852 57.0831 36.2832 57.5761 35.6648C57.5761 35.6648 57.7745 35.416 59.5481 34.7445C59.0248 31.7083 59.4166 31.1949 59.4166 31.1949C59.8682 30.6032 60.7728 30.4602 61.3886 30.5376C62.6911 30.7013 62.9217 31.8787 63.7551 31.8523C64.9063 31.8158 66.2871 29.5112 65.8586 27.5138C65.5089 25.8845 64.0015 24.6745 63.6236 24.8844C63.2489 25.0926 61.9002 24.1746 61.3887 24.3586C61.0393 24.4842 59.3951 24.3171 59.0222 24.49C58.6151 24.6789 57.4491 25.855 57.3376 25.7069C56.5629 24.6771 56.5794 24.3176 56.1299 24.0956C55.3335 23.7024 54.4677 24.4292 52.9747 25.1474C49.9029 26.625 49.0034 25.7436 47.5845 26.9879C46.8678 27.6165 46.4834 28.8179 45.7439 31.1949C44.7098 34.5192 44.1928 36.1813 44.6922 37.7683C45.2015 39.3868 45.9516 39.0345 47.0586 41.318C48.291 43.8598 47.8662 45.3372 49.0307 45.9193C49.9306 46.3692 51.3769 46.0829 51.923 45.262C52.8579 43.8565 50.4414 41.9553 51.2656 39.7403C51.7715 38.3807 53.3323 37.3498 54.2894 37.6368C55.3716 37.9614 55.4513 39.9018 56.1299 39.8718C56.7111 39.8461 57.1146 38.4028 57.1817 38.1627Z" fill="#2F2E41"/>
<path d="M49.6887 47.6284C51.7129 45.3587 59.9581 47.7079 60.732 51.3095C61.0503 52.7909 59.8752 53.4164 60.2061 55.1221C60.6901 57.6169 63.4306 57.4468 65.4648 59.9864C68.3528 63.5919 65.3776 67.1163 68.6201 73.1332C69.3129 74.4189 69.8969 75.5026 71.118 76.5514C73.9199 78.958 76.5276 78.1327 77.9543 80.364C79.0212 82.0326 78.5829 84.0892 78.4802 84.5709C78.0591 86.5464 76.9179 87.0277 76.1137 88.6464C74.7758 91.3396 76.2907 93.3168 76.3767 96.5345C76.4843 100.561 74.3449 106.141 70.0662 107.972C65.2594 110.029 59.4619 106.622 56.6565 103.239C54.9825 101.221 54.4965 99.3587 53.7642 97.0604C50.4911 86.7886 48.642 87.7176 46.139 79.5751C43.2776 70.2668 42.7151 59.3617 46.139 55.9109C46.5928 55.4535 47.8418 54.3963 48.6369 52.4927C49.7069 49.9312 48.7825 48.6444 49.6887 47.6284Z" fill="#E6E6E6"/>
<path d="M79.6023 100.463C81.1718 102.458 81.4151 104.884 80.1458 105.883C78.8766 106.881 76.5758 106.074 75.006 104.079C74.368 103.291 73.9281 102.361 73.723 101.368L67.1797 92.8344L70.5607 90.2555L77.268 98.5784C78.1855 99.0113 78.9859 99.6577 79.6023 100.463Z" fill="#A0616A"/>
<path d="M55.639 56.2783C55.9301 56.2133 58.4775 55.6852 60.4802 57.2351C62.7808 59.0156 62.6693 62.2278 62.6302 63.3545C62.54 65.957 61.5201 66.3815 60.9133 68.9344C59.7782 73.7106 61.94 78.1492 63.1343 80.6015C63.5477 81.4503 64.8759 84.0477 67.5197 86.8449C72.6617 92.2852 77.2496 95.1478 77.2496 95.1478L72.3209 99.5289C72.3209 99.5289 64.47 97.136 59.1502 92.3417C53.6934 87.4239 45.3017 70.0239 43.5621 65.7854C43.4123 65.4204 45.5344 71.3546 49.5863 62.6614C50.5105 60.6785 52.2038 57.0454 55.639 56.2783Z" fill="#E6E6E6"/>
<path d="M123.212 189.667C120.079 190.147 117.788 192.153 118.094 194.146C118.4 196.14 121.187 197.366 124.321 196.886C125.575 196.711 126.77 196.238 127.804 195.507L141.052 193.305L140.168 188.068L126.95 189.939C125.743 189.551 124.462 189.458 123.212 189.667Z" fill="#FFB6B6"/>
<path d="M180.305 173.344L175.168 184.244L149.344 192.938L127.916 194.081L127.379 188.934L150.603 184.078L174.433 172.817L180.305 173.344Z" fill="#E6E6E6"/>
<path d="M132.671 214.733L128.059 226.399L122.09 222.33L125.617 210.121L132.671 214.733Z" fill="#FFB6B6"/>
<path d="M113.416 210.392L101.207 222.058L106.091 227.213L118.57 217.446L113.416 210.392Z" fill="#FFB6B6"/>
<path d="M182.585 172.412L182.449 171.463L179.329 165.358L169.02 168.071L170.919 176.482L182.585 172.412Z" fill="#FFB6B6"/>
<path d="M178.249 213.105L178.566 217.18C178.566 217.18 179.876 234.266 169.296 235.622C158.716 236.979 154.104 238.335 147.864 227.755L138.098 210.392L132.393 217.18L124.805 211.206C124.805 211.206 130.23 190.046 134.571 189.232C135.114 189.13 135.656 189.079 136.19 189.068C139.784 188.993 143.171 190.751 145.321 193.631L157.631 210.121L162.107 208.086L178.249 213.105Z" fill="#2F2E41"/>
<path d="M119.65 225.856L122.091 221.244L129.145 226.127C129.145 226.127 130.773 232.095 128.331 232.909C125.889 233.723 119.107 232.638 119.107 232.638C119.107 232.638 106.628 235.351 106.357 232.909C106.085 230.468 112.054 229.925 112.054 229.925L119.65 225.856Z" fill="#2F2E41"/>
<path d="M146.231 222.6L127.376 210.72L117.745 219.345L111.234 211.749C111.234 211.749 123.171 194.115 126.698 193.301C130.225 192.487 135.922 191.945 135.922 191.945L153.284 207.951L146.231 222.6Z" fill="#2F2E41"/>
<path d="M100.931 220.973L107.171 227.755L106.348 228.459C106.348 228.459 104.729 235.509 100.931 233.124C97.1331 230.739 96.8618 230.196 96.8618 230.196C96.8618 230.196 86.0102 232.638 84.9251 228.297C83.8399 223.957 86.8241 224.771 86.8241 224.771L89.5338 226.398L100.931 220.973Z" fill="#2F2E41"/>
<path d="M172.279 171.056C177.074 171.056 180.961 167.169 180.961 162.374C180.961 157.58 177.074 153.693 172.279 153.693C167.485 153.693 163.598 157.58 163.598 162.374C163.598 167.169 167.485 171.056 172.279 171.056Z" fill="#FFB6B6"/>
<path d="M170.244 174.718L182.723 170.92C182.723 170.92 187.607 182.314 186.793 187.468C185.979 192.623 178.564 217.18 178.564 217.18L162.105 208.086C162.105 208.086 161.834 202.661 161.02 200.219C160.206 197.777 157.629 190.317 163.326 184.077C169.023 177.838 170.244 174.718 170.244 174.718Z" fill="#E6E6E6"/>
<path d="M142.785 231.683C140.754 234.117 140.364 237.137 141.912 238.429C143.461 239.721 146.362 238.796 148.394 236.362C149.218 235.401 149.801 234.256 150.093 233.023L158.568 222.605L154.439 219.264L145.767 229.414C144.606 229.921 143.584 230.7 142.785 231.683Z" fill="#FFB6B6"/>
<path d="M179.818 180.191L182.768 191.875L168.331 214.984L153.593 229.796L148.816 225.833L163.68 207.339L174.946 183.511L179.818 180.191Z" fill="#E6E6E6"/>
<path d="M164.28 160.882C166.506 160.877 166.633 160.892 166.993 160.882C169.754 160.809 170.476 159.723 171.876 159.797C174.374 159.929 171.077 172.454 169.705 178.245C168.361 183.923 172.906 189.012 173.232 189.367C177.846 194.385 185.949 195.302 187.339 193.165C188.465 191.436 184.476 188.807 185.44 185.027C186.383 181.332 190.735 181.725 191.951 178.245C193.225 174.599 188.944 172.761 186.254 163.866C184.709 158.758 184.983 157.806 183.541 154.642C179.688 146.186 160.803 149.786 162.923 157.627C163.333 159.143 162.242 160.887 164.28 160.882Z" fill="#2F2E41"/>
<path d="M192.008 57.8245H100.769C98.1889 57.8245 96.0898 55.7253 96.0898 53.1452V4.67943C96.0898 2.0994 98.1889 0.00012207 100.769 0.00012207H192.008C194.588 0.00012207 196.687 2.0994 196.687 4.67943V53.1452C196.687 55.7253 194.588 57.8245 192.008 57.8245Z" fill="white"/>
<path d="M192.008 57.8245H100.769C98.1889 57.8245 96.0898 55.7253 96.0898 53.1452V4.67943C96.0898 2.0994 98.1889 0.00012207 100.769 0.00012207H192.008C194.588 0.00012207 196.687 2.0994 196.687 4.67943V53.1452C196.687 55.7253 194.588 57.8245 192.008 57.8245ZM100.769 0.781534C98.6199 0.781534 96.8713 2.53017 96.8713 4.67943V53.1452C96.8713 55.2945 98.6199 57.0431 100.769 57.0431H192.008C194.157 57.0431 195.906 55.2945 195.906 53.1452V4.67943C195.906 2.53017 194.157 0.781534 192.008 0.781534H100.769Z" fill="#3F3D56"/>
<path d="M184.965 5.86084C185.613 5.86084 186.137 5.33603 186.137 4.68866C186.137 4.04128 185.613 3.51648 184.965 3.51648C184.318 3.51648 183.793 4.04128 183.793 4.68866C183.793 5.33603 184.318 5.86084 184.965 5.86084Z" fill="#3F3D56"/>
<path d="M188.09 5.86084C188.738 5.86084 189.262 5.33603 189.262 4.68866C189.262 4.04128 188.738 3.51648 188.09 3.51648C187.443 3.51648 186.918 4.04128 186.918 4.68866C186.918 5.33603 187.443 5.86084 188.09 5.86084Z" fill="#3F3D56"/>
<path d="M191.219 5.86084C191.866 5.86084 192.391 5.33603 192.391 4.68866C192.391 4.04128 191.866 3.51648 191.219 3.51648C190.572 3.51648 190.047 4.04128 190.047 4.68866C190.047 5.33603 190.572 5.86084 191.219 5.86084Z" fill="#3F3D56"/>
<path d="M102.731 23.6377C102.407 23.6377 102.145 23.9006 102.145 24.2238C102.145 24.3813 102.205 24.5271 102.316 24.6347C102.427 24.7488 102.573 24.8098 102.731 24.8098H190.435C190.758 24.8098 191.021 24.5469 191.021 24.2238C191.021 24.0662 190.96 23.9204 190.849 23.8128C190.738 23.6987 190.592 23.6377 190.435 23.6377H102.731Z" fill="#E6E6E6"/>
<path d="M179.495 23.4425V25.0053H102.731C102.516 25.0053 102.32 24.9194 102.18 24.7748C102.035 24.6342 101.949 24.4388 101.949 24.2239C101.949 23.7941 102.301 23.4425 102.731 23.4425H179.495Z" fill="#FF6C11"/>
<path d="M189.456 20.5123H181.641C180.779 20.5123 180.078 19.8113 180.078 18.9494C180.078 18.0874 180.779 17.3865 181.641 17.3865H189.456C190.317 17.3865 191.018 18.0874 191.018 18.9494C191.018 19.8113 190.317 20.5123 189.456 20.5123Z" fill="#E6E6E6"/>
<path d="M138.272 12.3074H103.313C102.451 12.3074 101.75 11.6065 101.75 10.7446C101.75 9.88267 102.451 9.18176 103.313 9.18176H138.272C139.133 9.18176 139.834 9.88267 139.834 10.7446C139.834 11.6065 139.133 12.3074 138.272 12.3074Z" fill="#E6E6E6"/>
<path d="M102.731 41.2196C102.407 41.2196 102.145 41.4825 102.145 41.8057C102.145 41.9632 102.205 42.109 102.316 42.2166C102.427 42.3307 102.573 42.3917 102.731 42.3917H190.435C190.758 42.3917 191.021 42.1288 191.021 41.8057C191.021 41.6481 190.96 41.5023 190.849 41.3947C190.738 41.2807 190.592 41.2196 190.435 41.2196H102.731Z" fill="#E6E6E6"/>
<path d="M149.41 41.0242V42.587H102.731C102.516 42.587 102.32 42.501 102.18 42.3565C102.035 42.2158 101.949 42.0205 101.949 41.8056C101.949 41.3758 102.301 41.0242 102.731 41.0242H149.41Z" fill="#FF6C11"/>
<path d="M189.456 38.0941H181.641C180.779 38.0941 180.078 37.3931 180.078 36.5312C180.078 35.6692 180.779 34.9683 181.641 34.9683H189.456C190.317 34.9683 191.018 35.6692 191.018 36.5312C191.018 37.3931 190.317 38.0941 189.456 38.0941Z" fill="#E6E6E6"/>
</g>
<defs>
<clipPath id="clip0_1578_122">
<rect width="235.987" height="239.013" fill="white"/>
</clipPath>
</defs>
</svg>
