<svg width="54" height="54" viewBox="0 0 54 54" fill="none" xmlns="http://www.w3.org/2000/svg">
<path d="M13.5 4.5L6.75 13.5V45C6.75 46.1935 7.22411 47.3381 8.06802 48.182C8.91193 49.0259 10.0565 49.5 11.25 49.5H42.75C43.9435 49.5 45.0881 49.0259 45.932 48.182C46.7759 47.3381 47.25 46.1935 47.25 45V13.5L40.5 4.5H13.5Z" fill="#FFC8A6" stroke="#6F6C90" stroke-width="2" stroke-linecap="round" stroke-linejoin="round"/>
<path d="M6.75 13.5H47.25" stroke="#6F6C90" stroke-width="2" stroke-linecap="round" stroke-linejoin="round"/>
<path d="M36 22.5C36 24.8869 35.0518 27.1761 33.364 28.864C31.6761 30.5518 29.3869 31.5 27 31.5C24.6131 31.5 22.3239 30.5518 20.636 28.864C18.9482 27.1761 18 24.8869 18 22.5" stroke="#6F6C90" stroke-width="2" stroke-linecap="round" stroke-linejoin="round"/>
</svg>
