<svg width="54" height="54" viewBox="0 0 54 54" fill="none" xmlns="http://www.w3.org/2000/svg">
<path d="M20.25 49.5C21.4926 49.5 22.5 48.4926 22.5 47.25C22.5 46.0074 21.4926 45 20.25 45C19.0074 45 18 46.0074 18 47.25C18 48.4926 19.0074 49.5 20.25 49.5Z" fill="#FFC8A6" stroke="#6F6C90" stroke-width="2" stroke-linecap="round" stroke-linejoin="round"/>
<path d="M45 49.5C46.2426 49.5 47.25 48.4926 47.25 47.25C47.25 46.0074 46.2426 45 45 45C43.7574 45 42.75 46.0074 42.75 47.25C42.75 48.4926 43.7574 49.5 45 49.5Z" fill="#FFC8A6" stroke="#6F6C90" stroke-width="2" stroke-linecap="round" stroke-linejoin="round"/>
<path d="M11.25 2.25L17.28 32.3775C17.4858 33.4134 18.0493 34.3439 18.872 35.0062C19.6947 35.6684 20.7241 36.0202 21.78 36H43.65C44.7059 36.0202 45.7353 35.6684 46.558 35.0062C47.3807 34.3439 47.9442 33.4134 48.15 32.3775L51.75 13.5H13.5" fill="#FFC8A6"/>
<path d="M13.5 13.5H51.75L48.15 32.3775C47.9442 33.4134 47.3807 34.3439 46.558 35.0062C45.7353 35.6684 44.7059 36.0202 43.65 36H21.78C20.7241 36.0202 19.6947 35.6684 18.872 35.0062C18.0493 34.3439 17.4858 33.4134 17.28 32.3775L11.25 2.25H3H2" stroke="#6F6C90" stroke-width="2" stroke-linecap="round" stroke-linejoin="round"/>
</svg>
