<svg width="109" height="94" viewBox="0 0 109 94" fill="none" xmlns="http://www.w3.org/2000/svg">
<path d="M54.5003 2C25.508 2 2.00005 25.4845 2.00005 54.4768C1.98227 67.3039 6.67829 79.6904 15.1954 89.2817C15.4532 89.5629 15.6876 89.8442 15.9454 90.102C16.5001 90.7025 17.1733 91.1812 17.9226 91.5079C18.6719 91.8346 19.4809 92.0022 20.2983 92C21.1157 91.9978 21.9237 91.8259 22.6712 91.4951C23.4187 91.1644 24.0894 90.682 24.6408 90.0786C28.4412 85.9485 33.0571 82.6518 38.1967 80.3967C43.3363 78.1416 48.8878 76.9773 54.5003 76.9773C60.1129 76.9773 65.6644 78.1416 70.804 80.3967C75.9435 82.6518 80.5594 85.9485 84.3598 90.0786C84.9112 90.682 85.5819 91.1644 86.3294 91.4951C87.0769 91.8259 87.885 91.9978 88.7024 92C89.5198 92.0022 90.3287 91.8346 91.078 91.5079C91.8273 91.1812 92.5006 90.7025 93.0552 90.102L93.8052 89.2817C102.322 79.6904 107.018 67.3039 107.001 54.4768C107.001 25.4845 83.4927 2 54.5003 2Z" fill="#EEEEEE" stroke="#3F3D56" stroke-width="3.42412" stroke-linecap="round" stroke-linejoin="round"/>
<path d="M54.5002 17V24.5M92.0004 54.5002H84.5004M24.5 54.5002H17M33.2868 33.2868L27.9829 27.9829M75.7136 33.2868L81.0175 27.9829" stroke="#3F3D56" stroke-width="3.42412" stroke-miterlimit="10" stroke-linecap="round"/>
<path d="M70.9289 41.3516L59.796 59.047C59.3405 59.6783 58.7866 60.2322 58.1554 60.6877C56.6315 61.7508 54.7498 62.17 52.9188 61.8543C51.0877 61.5387 49.455 60.5136 48.3751 59.0017C47.2951 57.4897 46.855 55.6128 47.1503 53.7784C47.4455 51.9439 48.4523 50.3 49.9522 49.2032L67.6476 38.0704C68.0498 37.79 68.5284 37.6396 69.0187 37.6396C69.509 37.6396 69.9876 37.79 70.3898 38.0704C70.895 38.4351 71.2353 38.985 71.3363 39.5998C71.4373 40.2146 71.2908 40.8444 70.9289 41.3516Z" fill="#3F3D56"/>
</svg>
