<svg width="25" height="25" viewBox="0 0 25 25" fill="none" xmlns="http://www.w3.org/2000/svg">
<path d="M12.5 3.125C6.45997 3.125 1.56251 8.01758 1.56251 14.0576C1.55881 16.7299 2.53714 19.3104 4.31153 21.3086C4.36524 21.3672 4.41407 21.4258 4.46778 21.4795C4.58333 21.6046 4.7236 21.7043 4.87969 21.7724C5.03579 21.8404 5.20433 21.8754 5.37462 21.8749C5.54491 21.8744 5.71325 21.8386 5.86898 21.7697C6.02471 21.7008 6.16444 21.6003 6.27931 21.4746C7.07106 20.6142 8.03269 19.9274 9.10344 19.4576C10.1742 18.9878 11.3307 18.7452 12.5 18.7452C13.6693 18.7452 14.8258 18.9878 15.8966 19.4576C16.9673 19.9274 17.929 20.6142 18.7207 21.4746C18.8356 21.6003 18.9753 21.7008 19.131 21.7697C19.2868 21.8386 19.4551 21.8744 19.6254 21.8749C19.7957 21.8754 19.9642 21.8404 20.1203 21.7724C20.2764 21.7043 20.4167 21.6046 20.5322 21.4795L20.6885 21.3086C22.4629 19.3104 23.4412 16.7299 23.4375 14.0576C23.4375 8.01758 18.54 3.125 12.5 3.125Z" fill="#B9B4EE" stroke="#2B2B2C" stroke-width="1.5" stroke-linecap="round" stroke-linejoin="round"/>
<path d="M15.9227 11.3222L13.6034 15.0087C13.5085 15.1402 13.3931 15.2556 13.2616 15.3505C12.9441 15.572 12.5521 15.6593 12.1707 15.5935C11.7892 15.5278 11.449 15.3142 11.2241 14.9992C10.9991 14.6842 10.9074 14.2932 10.9689 13.911C11.0304 13.5289 11.2402 13.1864 11.5526 12.9579L15.2391 10.6386C15.3229 10.5801 15.4226 10.5488 15.5248 10.5488C15.6269 10.5488 15.7266 10.5801 15.8104 10.6386C15.9157 10.7145 15.9866 10.8291 16.0076 10.9572C16.0287 11.0853 15.9981 11.2165 15.9227 11.3222Z" fill="#2B2B2C"/>
<path d="M12.5 6.25V7.8125M20.3125 14.0625H18.75M6.25 14.0625H4.6875M8.08057 9.64307L6.97559 8.53809M16.9194 9.64307L18.0244 8.53809" stroke="#2B2B2C" stroke-width="1.5" stroke-miterlimit="10" stroke-linecap="round"/>
</svg>
