<svg width="562" height="446" viewBox="0 0 562 446" fill="none" xmlns="http://www.w3.org/2000/svg">
<g clip-path="url(#clip0_272_975)">
<path d="M429.986 50.9863C344.545 -14.8718 225.678 -17.5628 138.959 46.605C93.1171 80.5265 57.5776 132.423 64.0439 211.442C66.3291 239.392 72.6897 262.321 81.9693 281.092C119.555 357.186 273.928 354.256 282.501 354.245C288.056 354.239 293.61 354.363 299.165 354.617C318.62 355.51 337.973 357.957 357.039 361.934C384.221 367.6 418.827 370.446 449.746 359.716C454.999 357.901 460.104 355.681 465.014 353.077C482.005 344.048 501.026 335.419 512.146 314.001C520.502 297.928 526.59 277.773 529.521 252.669C540.185 161.246 486.898 94.8546 429.986 50.9863Z" fill="#F2F2F2"/>
<path d="M299.538 378.645C434.471 378.645 543.856 368.377 543.856 355.711C543.856 343.045 434.471 332.777 299.538 332.777C164.605 332.777 55.2207 343.045 55.2207 355.711C55.2207 368.377 164.605 378.645 299.538 378.645Z" fill="#6F6B97"/>
<path opacity="0.1" d="M287.603 366.476C413.101 366.476 514.837 361.657 514.837 355.711C514.837 349.766 413.101 344.946 287.603 344.946C162.105 344.946 60.3691 349.766 60.3691 355.711C60.3691 361.657 162.105 366.476 287.603 366.476Z" fill="black"/>
<path d="M413.312 48.5618V74.2914H379.815V354.892H449.722V84.9722V74.2914V48.5618H413.312Z" fill="#575A89"/>
<path d="M228.834 221.388V177.211H186.113V221.388H170.093V355.378H244.369V221.388H228.834Z" fill="#575A89"/>
<path d="M236.116 293.238H178.345V355.863H236.116V293.238Z" fill="#6F6B97"/>
<path opacity="0.1" d="M187.569 293.238H178.345V355.863H187.569V293.238Z" fill="black"/>
<path d="M355.056 34.4828V49.5323H269.613V34.4828H244.369V355.863H379.815V34.4828H355.056Z" fill="#6F6B97"/>
<path opacity="0.1" d="M373.989 34.4832H355.056V49.5327H373.989V34.4832Z" fill="black"/>
<path opacity="0.1" d="M263.302 34.4832H244.369V355.863H263.302V34.4832Z" fill="black"/>
<path d="M147.761 126.237V114.1H135.139V126.237H112.322V355.863H170.093V126.237H147.761Z" fill="#6F6B97"/>
<path opacity="0.1" d="M141.935 114.1H135.138V126.237H141.935V114.1Z" fill="black"/>
<path opacity="0.1" d="M119.118 126.237H112.322V355.863H119.118V126.237Z" fill="black"/>
<path opacity="0.1" d="M373.989 158.277H355.056V355.863H373.989V158.277Z" fill="black"/>
<path opacity="0.1" d="M170.093 126.237H152.616V168.472H170.093V126.237Z" fill="black"/>
<path d="M292.43 75.2625H265.244V86.9137H292.43V75.2625Z" fill="#FFECE0"/>
<path d="M350.201 195.173H323.015V206.824H350.201V195.173Z" fill="#FFECE0"/>
<path d="M292.43 279.159H265.244V290.81H292.43V279.159Z" fill="#FFECE0"/>
<path d="M155.043 178.667H127.856V190.318H155.043V178.667Z" fill="#FFECE0"/>
<path d="M221.067 300.034H193.88V311.685H221.067V300.034Z" fill="#FFECE0"/>
<path opacity="0.1" d="M230.776 231.583H184.171V251.002H230.776V231.583Z" fill="black"/>
<path opacity="0.1" d="M434.672 96.623H388.067V116.042H434.672V96.623Z" fill="black"/>
<path opacity="0.1" d="M434.672 137.888H388.067V157.307H434.672V137.888Z" fill="black"/>
<path opacity="0.1" d="M434.672 179.153H388.067V198.571H434.672V179.153Z" fill="black"/>
<path opacity="0.1" d="M434.672 220.417H388.067V239.836H434.672V220.417Z" fill="black"/>
<path opacity="0.1" d="M434.672 261.682H388.067V281.101H434.672V261.682Z" fill="black"/>
<path opacity="0.1" d="M434.672 302.947H388.067V322.366H434.672V302.947Z" fill="black"/>
<path d="M465.742 184.493V131.577H431.759V184.493H419.623V355.863H477.394V184.493H465.742Z" fill="#6F6B97"/>
<path opacity="0.1" d="M442.44 131.577H431.76V184.493H442.44V131.577Z" fill="black"/>
<path opacity="0.1" d="M430.304 184.493H419.624V355.863H430.304V184.493Z" fill="black"/>
<path opacity="0.1" d="M477.394 270.421H448.751V287.412H477.394V270.421Z" fill="black"/>
<path d="M476.909 245.176H449.723V256.828H476.909V245.176Z" fill="#FFECE0"/>
<path d="M562 256.939C562 300.19 536.288 315.291 504.571 315.291C472.854 315.291 447.142 300.19 447.142 256.939C447.142 213.688 504.571 158.666 504.571 158.666C504.571 158.666 562 213.688 562 256.939Z" fill="#FF6C11"/>
<path d="M502.479 308.675L503.067 272.478L527.544 227.697L503.159 266.8L503.424 250.524L520.293 218.125L503.493 246.217L503.969 216.945L522.033 191.151L504.043 212.342L504.341 158.666L502.473 229.723L502.627 226.791L484.26 198.678L502.332 232.419L500.621 265.111L500.57 264.243L479.397 234.658L500.506 267.309L500.292 271.397L500.253 271.458L500.271 271.794L495.93 354.738H501.731L502.426 311.896L523.484 279.326L502.479 308.675Z" fill="#6F6B97"/>
<path d="M141.104 257.407C141.104 300.658 115.392 315.76 83.6745 315.76C51.9571 315.76 26.2451 300.658 26.2451 257.407C26.2451 214.156 83.6745 159.134 83.6745 159.134C83.6745 159.134 141.104 214.156 141.104 257.407Z" fill="#FF6C11"/>
<path d="M81.5823 309.143L82.1702 272.946L106.648 228.165L82.2629 267.268L82.5271 250.992L99.3968 218.593L82.5973 246.685V246.685L83.0727 217.413L101.138 191.619L83.1475 212.81L83.4448 159.134L81.5769 230.191L81.7306 227.259L63.3638 199.146L81.4359 232.886L79.725 265.579L79.674 264.711L58.5005 235.126L79.6098 267.777L79.3959 271.865L79.3575 271.926L79.3747 272.262L75.0331 355.206H80.8341L81.5299 312.364L102.588 279.794L81.5823 309.143Z" fill="#6F6B97"/>
</g>
<defs>
<clipPath id="clip0_272_975">
<rect width="562" height="445.277" fill="white"/>
</clipPath>
</defs>
</svg>
