<svg width="190" height="145" viewBox="0 0 190 145" fill="none" xmlns="http://www.w3.org/2000/svg">
<path d="M27.1407 85.6192C33.79 85.6192 39.1803 80.2273 39.1803 73.576C39.1803 66.9248 33.79 61.5329 27.1407 61.5329C20.4914 61.5329 15.1011 66.9248 15.1011 73.576C15.1011 80.2273 20.4914 85.6192 27.1407 85.6192Z" fill="#3F3D56"/>
<path d="M51.7958 141.601H51.7836C51.3596 141.6 50.9532 141.432 50.6534 141.132C50.3537 140.832 50.185 140.426 50.1846 140.001V46.1027C50.185 45.6786 50.3537 45.272 50.6534 44.9722C50.9532 44.6723 51.3596 44.5037 51.7836 44.5032H130.793C131.217 44.5036 131.624 44.6723 131.924 44.9722C132.223 45.272 132.392 45.6786 132.392 46.1027V119.114C132.392 119.536 132.225 119.941 131.928 120.24C131.631 120.54 131.228 120.71 130.806 120.714L51.7958 141.601Z" fill="white"/>
<path d="M110.196 31.2368H73.5127V9.97317C73.5132 9.52416 73.6918 9.0937 74.0092 8.7762C74.3266 8.45871 74.7569 8.28012 75.2058 8.2796H108.503C108.952 8.28012 109.382 8.45871 109.699 8.7762C110.017 9.0937 110.195 9.52416 110.196 9.97317V31.2368ZM73.8889 30.8605H109.82V9.97317C109.819 9.62394 109.68 9.28913 109.434 9.04219C109.187 8.79525 108.852 8.65634 108.503 8.65595H75.2058C74.8566 8.65634 74.5219 8.79525 74.2751 9.04219C74.0282 9.28913 73.8893 9.62394 73.8889 9.97317V30.8605Z" fill="#3F3D56"/>
<path d="M83.9522 16.3711H99.7542C100.153 16.3711 100.536 16.5297 100.818 16.812C101.101 17.0944 101.259 17.4773 101.259 17.8765V40.4574H82.4473V17.8765C82.4473 17.4773 82.6058 17.0944 82.8881 16.812C83.1703 16.5297 83.5531 16.3711 83.9522 16.3711Z" fill="white"/>
<path d="M87.0576 8.656H79.3447V0.94087C79.345 0.691423 79.4442 0.452275 79.6205 0.27589C79.7969 0.099504 80.0359 0.000285376 80.2853 0H86.117C86.3664 0.000285376 86.6054 0.099504 86.7818 0.27589C86.9581 0.452275 87.0573 0.691423 87.0576 0.94087V8.656ZM79.721 8.27966H86.6814V0.94087C86.6812 0.7912 86.6217 0.647706 86.5159 0.541873C86.4101 0.43604 86.2666 0.376511 86.117 0.376348H80.2853C80.1357 0.376511 79.9922 0.43604 79.8864 0.541873C79.7806 0.647706 79.7211 0.7912 79.721 0.94087V8.27966Z" fill="#3F3D56"/>
<path d="M150.435 122.095C150.36 122.095 150.287 122.095 150.212 122.093C145.559 122.041 141.084 120.292 137.628 117.173C137.501 117.056 137.374 116.939 137.248 116.819L137.19 116.764V80.6996L137.208 80.6615C137.332 80.3974 137.459 80.1371 137.585 79.8768C141.498 71.9303 146.062 67.5546 150.435 67.5546C156.743 67.5546 161.635 76.2094 163.989 81.3684C167.263 88.5423 169.55 97.4317 169.55 102.986C169.549 108.017 167.564 112.846 164.026 116.423C160.489 120 155.684 122.037 150.654 122.093C150.584 122.095 150.508 122.095 150.435 122.095ZM137.566 116.602C137.67 116.701 137.776 116.798 137.881 116.894C141.269 119.952 145.656 121.667 150.219 121.717C150.295 121.719 150.367 121.717 150.44 121.719C150.509 121.719 150.579 121.719 150.647 121.717C160.864 121.603 169.174 113.201 169.174 102.986C169.174 97.4799 166.901 88.6548 163.647 81.5246C161.33 76.4478 156.533 67.9309 150.435 67.9309C146.212 67.9309 141.769 72.2321 137.923 80.0421C137.804 80.2877 137.684 80.5342 137.566 80.784L137.566 116.602Z" fill="#3F3D56"/>
<path d="M150.432 144.91C150.375 144.91 150.32 144.888 150.279 144.847C150.239 144.806 150.216 144.751 150.216 144.694V100.498C150.216 100.469 150.221 100.441 150.232 100.415C150.243 100.388 150.259 100.364 150.279 100.344C150.299 100.324 150.323 100.308 150.349 100.297C150.375 100.286 150.404 100.28 150.432 100.28C150.461 100.28 150.489 100.286 150.515 100.297C150.542 100.308 150.566 100.324 150.586 100.344C150.606 100.364 150.622 100.388 150.633 100.415C150.643 100.441 150.649 100.469 150.649 100.498V144.694C150.649 144.751 150.626 144.806 150.585 144.847C150.545 144.888 150.49 144.91 150.432 144.91Z" fill="#CCCCCC"/>
<path d="M38.1261 144.91C38.0687 144.91 38.0137 144.888 37.9731 144.847C37.9325 144.806 37.9097 144.751 37.9097 144.694V100.498C37.9095 100.469 37.915 100.441 37.9258 100.415C37.9366 100.388 37.9525 100.364 37.9726 100.344C37.9927 100.324 38.0166 100.308 38.043 100.297C38.0693 100.286 38.0976 100.28 38.1261 100.28C38.1546 100.28 38.1829 100.286 38.2092 100.297C38.2356 100.308 38.2595 100.324 38.2796 100.344C38.2997 100.364 38.3156 100.388 38.3264 100.415C38.3372 100.441 38.3427 100.469 38.3425 100.498V144.694C38.3425 144.751 38.3197 144.806 38.2791 144.847C38.2386 144.888 38.1835 144.91 38.1261 144.91Z" fill="#CCCCCC"/>
<path d="M150.434 108.755C150.403 108.755 150.372 108.749 150.344 108.736C150.316 108.723 150.291 108.704 150.27 108.681L139.385 96.1238C139.348 96.0803 139.329 96.0238 139.333 95.9666C139.337 95.9094 139.364 95.8562 139.407 95.8186C139.45 95.7811 139.507 95.7622 139.564 95.7662C139.621 95.7702 139.675 95.7968 139.712 95.84L150.597 108.397C150.625 108.428 150.642 108.467 150.648 108.508C150.654 108.549 150.648 108.591 150.631 108.629C150.614 108.666 150.586 108.698 150.551 108.721C150.516 108.743 150.476 108.755 150.434 108.755Z" fill="#CCCCCC"/>
<path d="M150.432 116.002C150.389 116.002 150.348 115.989 150.312 115.965C150.276 115.942 150.249 115.908 150.232 115.868C150.216 115.829 150.212 115.785 150.22 115.743C150.228 115.701 150.249 115.663 150.279 115.632L156.464 109.445C156.505 109.405 156.56 109.382 156.617 109.382C156.675 109.382 156.73 109.405 156.77 109.446C156.811 109.486 156.833 109.541 156.833 109.598C156.833 109.656 156.811 109.711 156.77 109.751L150.585 115.939C150.565 115.959 150.541 115.975 150.515 115.986C150.489 115.996 150.461 116.002 150.432 116.002Z" fill="#CCCCCC"/>
<path d="M170.457 145H154.278V144.812C154.277 143.749 154.486 142.696 154.892 141.714C155.299 140.732 155.895 139.839 156.646 139.087C157.397 138.335 158.289 137.739 159.271 137.332C160.252 136.925 161.305 136.716 162.367 136.716C163.43 136.716 164.482 136.925 165.464 137.332C166.446 137.739 167.338 138.335 168.089 139.087C168.84 139.839 169.436 140.732 169.842 141.714C170.249 142.696 170.458 143.749 170.457 144.812L170.457 145ZM154.656 144.623H170.079C170.029 142.61 169.195 140.696 167.755 139.29C166.314 137.883 164.381 137.096 162.367 137.096C160.354 137.096 158.421 137.883 156.98 139.29C155.539 140.696 154.705 142.61 154.656 144.623Z" fill="#3F3D56"/>
<path d="M162.37 140.219C162.313 140.219 162.259 140.242 162.219 140.282C162.179 140.322 162.156 140.376 162.156 140.433V142.702L159.946 140.805C159.925 140.786 159.9 140.772 159.874 140.764C159.847 140.755 159.819 140.751 159.791 140.753C159.763 140.756 159.736 140.763 159.71 140.776C159.685 140.788 159.663 140.806 159.645 140.827C159.626 140.849 159.613 140.873 159.604 140.9C159.595 140.927 159.592 140.955 159.594 140.983C159.596 141.011 159.604 141.038 159.616 141.063C159.629 141.088 159.647 141.111 159.668 141.129L162.156 143.265V144.598C162.156 144.626 162.162 144.654 162.172 144.68C162.183 144.706 162.199 144.73 162.219 144.75C162.238 144.77 162.262 144.785 162.288 144.796C162.314 144.807 162.342 144.813 162.37 144.813C162.398 144.813 162.426 144.807 162.452 144.796C162.478 144.785 162.501 144.77 162.521 144.75C162.541 144.73 162.557 144.706 162.567 144.68C162.578 144.654 162.583 144.626 162.583 144.598V140.433C162.583 140.376 162.561 140.322 162.521 140.282C162.481 140.242 162.426 140.219 162.37 140.219Z" fill="#3F3D56"/>
<path d="M34.8257 145H18.6465V144.812C18.646 143.749 18.8548 142.696 19.2611 141.714C19.6675 140.732 20.2633 139.839 21.0145 139.087C21.7657 138.335 22.6577 137.739 23.6394 137.332C24.6212 136.925 25.6734 136.716 26.7361 136.716C27.7987 136.716 28.851 136.925 29.8327 137.332C30.8145 137.739 31.7064 138.335 32.4577 139.087C33.2089 139.839 33.8047 140.732 34.211 141.714C34.6173 142.696 34.8262 143.749 34.8257 144.812L34.8257 145ZM19.025 144.623H34.4472C34.3981 142.61 33.5641 140.696 32.1234 139.29C30.6826 137.883 28.7492 137.096 26.7361 137.096C24.7229 137.096 22.7896 137.883 21.3488 139.29C19.908 140.696 19.0741 142.61 19.025 144.623Z" fill="#3F3D56"/>
<path d="M26.736 140.219C26.6794 140.219 26.6251 140.242 26.585 140.282C26.545 140.322 26.5225 140.376 26.5225 140.433V142.702L24.3126 140.805C24.2913 140.786 24.2666 140.772 24.2399 140.764C24.2132 140.755 24.1851 140.751 24.1571 140.753C24.1291 140.755 24.1018 140.763 24.0767 140.776C24.0516 140.788 24.0293 140.806 24.011 140.827C23.9927 140.849 23.9788 140.873 23.9701 140.9C23.9613 140.927 23.9579 140.955 23.9601 140.983C23.9623 141.011 23.9699 141.038 23.9827 141.063C23.9954 141.088 24.013 141.111 24.0343 141.129L26.5225 143.265V144.598C26.5224 144.626 26.5279 144.654 26.5386 144.68C26.5493 144.706 26.565 144.73 26.5848 144.75C26.6047 144.77 26.6282 144.785 26.6542 144.796C26.6801 144.807 26.708 144.812 26.736 144.812C26.7641 144.812 26.792 144.807 26.8179 144.796C26.8439 144.785 26.8674 144.77 26.8873 144.75C26.9071 144.73 26.9228 144.706 26.9335 144.68C26.9442 144.654 26.9497 144.626 26.9496 144.598V140.433C26.9496 140.376 26.9271 140.322 26.8871 140.282C26.847 140.242 26.7927 140.219 26.736 140.219Z" fill="#3F3D56"/>
<path d="M38.3183 122.095C38.2433 122.095 38.1703 122.095 38.0954 122.093C33.0661 122.036 28.2619 119.998 24.725 116.421C21.188 112.844 19.2034 108.017 19.2017 102.986C19.2017 97.4315 21.4885 88.5421 24.7627 81.3684C27.1174 76.2094 32.0097 67.5546 38.3183 67.5546C40.9168 67.5546 43.5334 69.0361 46.0955 71.958C46.2225 72.1021 46.3498 72.2505 46.4753 72.4025L46.5184 72.4547V120.248L46.4123 120.3C46.2857 120.361 46.1572 120.419 46.0288 120.474C43.6679 121.519 41.1183 122.07 38.5366 122.093C38.4664 122.095 38.3914 122.095 38.3183 122.095ZM38.3183 67.9309C32.2201 67.9309 27.4222 76.4478 25.105 81.5246C21.8507 88.6546 19.5779 97.4797 19.5779 102.986C19.5779 113.199 27.8879 121.602 38.1022 121.717C38.1783 121.719 38.2493 121.719 38.3233 121.719C38.3916 121.719 38.4616 121.719 38.5298 121.717C41.0618 121.695 43.5625 121.154 45.878 120.13C45.9668 120.091 46.0549 120.052 46.1421 120.011V72.5902C46.0332 72.4594 45.9231 72.3315 45.8129 72.2064C43.3251 69.3693 40.8037 67.9309 38.3183 67.9309Z" fill="#3F3D56"/>
<path d="M38.3159 108.755C38.2849 108.755 38.2542 108.749 38.2259 108.736C38.1977 108.723 38.1726 108.704 38.1522 108.681L27.267 96.1238C27.2295 96.0803 27.2108 96.0238 27.2149 95.9666C27.219 95.9094 27.2457 95.8562 27.289 95.8186C27.3323 95.7811 27.3888 95.7622 27.446 95.7662C27.5032 95.7702 27.5564 95.7968 27.5941 95.84L38.4793 108.397C38.5065 108.428 38.5241 108.467 38.53 108.508C38.5359 108.549 38.5299 108.591 38.5127 108.629C38.4955 108.666 38.4678 108.698 38.4329 108.721C38.398 108.743 38.3574 108.755 38.3159 108.755Z" fill="#CCCCCC"/>
<path d="M38.3141 116.002C38.2713 116.002 38.2294 115.989 38.1938 115.965C38.1582 115.942 38.1305 115.908 38.1141 115.868C38.0977 115.829 38.0935 115.785 38.1018 115.743C38.1102 115.701 38.1308 115.663 38.161 115.632L44.3462 109.445C44.3869 109.405 44.4418 109.382 44.4991 109.382C44.5564 109.382 44.6113 109.405 44.6519 109.446C44.6924 109.486 44.7152 109.541 44.7152 109.598C44.7153 109.656 44.6927 109.711 44.6523 109.751L38.4671 115.939C38.447 115.959 38.4232 115.975 38.3969 115.986C38.3706 115.996 38.3425 116.002 38.3141 116.002Z" fill="#CCCCCC"/>
<path d="M55.3123 32.7422L55.4515 33.017C55.5132 33.1355 55.5455 33.2672 55.5456 33.4009V40.8337H62.1297V33.4009C62.1298 33.2672 62.1621 33.1355 62.2238 33.017L62.3631 32.7422H55.3123ZM61.7535 33.4009V40.4574H55.9218V33.4009C55.9219 33.3057 55.9106 33.211 55.8879 33.1186H61.7874C61.7648 33.211 61.7534 33.3057 61.7535 33.4009ZM63.5895 32.7422L63.7288 33.017C63.7905 33.1355 63.8227 33.2672 63.8228 33.4009V40.8337H70.407V33.4009C70.4071 33.2672 70.4393 33.1355 70.501 33.017L70.6403 32.7422H63.5895ZM70.0307 33.4009V40.4574H64.1991V33.4009C64.1992 33.3057 64.1878 33.211 64.1652 33.1186H70.0646C70.042 33.211 70.0306 33.3057 70.0307 33.4009ZM71.8667 32.7422L72.006 33.017C72.0677 33.1355 72.1 33.2672 72.1 33.4009V40.8337H78.6842V33.4009C78.6843 33.2672 78.7166 33.1355 78.7783 33.017L78.9175 32.7422H71.8667ZM78.308 33.4009V40.4574H72.4763V33.4009C72.4764 33.3057 72.465 33.211 72.4424 33.1186H78.3419C78.3192 33.211 78.3079 33.3057 78.308 33.4009ZM80.144 32.7422L80.2832 33.017C80.3449 33.1355 80.3772 33.2672 80.3773 33.4009V40.8337H86.9614V33.4009C86.9615 33.2672 86.9938 33.1355 87.0555 33.017L87.1947 32.7422H80.144ZM86.5852 33.4009V40.4574H80.7535V33.4009C80.7536 33.3057 80.7422 33.211 80.7196 33.1186H86.6191C86.5965 33.211 86.5851 33.3057 86.5852 33.4009ZM88.4212 32.7422L88.5604 33.017C88.6222 33.1355 88.6544 33.2672 88.6545 33.4009V40.8337H95.2387V33.4009C95.2388 33.2672 95.271 33.1355 95.3327 33.017L95.472 32.7422H88.4212ZM94.8624 33.4009V40.4574H89.0307V33.4009C89.0308 33.3057 89.0195 33.211 88.9968 33.1186H94.8963C94.8737 33.211 94.8623 33.3057 94.8624 33.4009ZM96.6984 32.7422L96.8377 33.017C96.8994 33.1355 96.9316 33.2672 96.9317 33.4009V40.8337H103.516V33.4009C103.516 33.2672 103.548 33.1355 103.61 33.017L103.749 32.7422H96.6984ZM103.14 33.4009V40.4574H97.308V33.4009C97.3081 33.3057 97.2967 33.211 97.2741 33.1186H103.174C103.151 33.211 103.14 33.3057 103.14 33.4009ZM104.976 32.7422L105.115 33.017C105.177 33.1355 105.209 33.2672 105.209 33.4009V40.8337H111.793V33.4009C111.793 33.2672 111.825 33.1355 111.887 33.017L112.026 32.7422H104.976ZM111.417 33.4009V40.4574H105.585V33.4009C105.585 33.3057 105.574 33.211 105.551 33.1186H111.451C111.428 33.211 111.417 33.3057 111.417 33.4009ZM113.253 32.7422L113.392 33.017C113.454 33.1355 113.486 33.2672 113.486 33.4009V40.8337H120.07V33.4009C120.07 33.2672 120.103 33.1355 120.164 33.017L120.304 32.7422H113.253ZM119.694 33.4009V40.4574H113.862V33.4009C113.863 33.3057 113.851 33.211 113.829 33.1186H119.728C119.705 33.211 119.694 33.3057 119.694 33.4009ZM121.53 32.7422L121.669 33.017C121.731 33.1355 121.763 33.2672 121.763 33.4009V40.8337H128.348V33.4009C128.348 33.2672 128.38 33.1355 128.442 33.017L128.581 32.7422H121.53ZM127.971 33.4009V40.4574H122.14V33.4009C122.14 33.3057 122.128 33.211 122.106 33.1186H128.005C127.983 33.211 127.971 33.3057 127.971 33.4009ZM121.53 32.7422L121.669 33.017C121.731 33.1355 121.763 33.2672 121.763 33.4009V40.8337H128.348V33.4009C128.348 33.2672 128.38 33.1355 128.442 33.017L128.581 32.7422H121.53ZM127.971 33.4009V40.4574H122.14V33.4009C122.14 33.3057 122.128 33.211 122.106 33.1186H128.005C127.983 33.211 127.971 33.3057 127.971 33.4009ZM113.253 32.7422L113.392 33.017C113.454 33.1355 113.486 33.2672 113.486 33.4009V40.8337H120.07V33.4009C120.07 33.2672 120.103 33.1355 120.164 33.017L120.304 32.7422H113.253ZM119.694 33.4009V40.4574H113.862V33.4009C113.863 33.3057 113.851 33.211 113.829 33.1186H119.728C119.705 33.211 119.694 33.3057 119.694 33.4009ZM104.976 32.7422L105.115 33.017C105.177 33.1355 105.209 33.2672 105.209 33.4009V40.8337H111.793V33.4009C111.793 33.2672 111.825 33.1355 111.887 33.017L112.026 32.7422H104.976ZM111.417 33.4009V40.4574H105.585V33.4009C105.585 33.3057 105.574 33.211 105.551 33.1186H111.451C111.428 33.211 111.417 33.3057 111.417 33.4009ZM96.6984 32.7422L96.8377 33.017C96.8994 33.1355 96.9316 33.2672 96.9317 33.4009V40.8337H103.516V33.4009C103.516 33.2672 103.548 33.1355 103.61 33.017L103.749 32.7422H96.6984ZM103.14 33.4009V40.4574H97.308V33.4009C97.3081 33.3057 97.2967 33.211 97.2741 33.1186H103.174C103.151 33.211 103.14 33.3057 103.14 33.4009ZM88.4212 32.7422L88.5604 33.017C88.6222 33.1355 88.6544 33.2672 88.6545 33.4009V40.8337H95.2387V33.4009C95.2388 33.2672 95.271 33.1355 95.3327 33.017L95.472 32.7422H88.4212ZM94.8624 33.4009V40.4574H89.0307V33.4009C89.0308 33.3057 89.0195 33.211 88.9968 33.1186H94.8963C94.8737 33.211 94.8623 33.3057 94.8624 33.4009ZM80.144 32.7422L80.2832 33.017C80.3449 33.1355 80.3772 33.2672 80.3773 33.4009V40.8337H86.9614V33.4009C86.9615 33.2672 86.9938 33.1355 87.0555 33.017L87.1947 32.7422H80.144ZM86.5852 33.4009V40.4574H80.7535V33.4009C80.7536 33.3057 80.7422 33.211 80.7196 33.1186H86.6191C86.5965 33.211 86.5851 33.3057 86.5852 33.4009ZM71.8667 32.7422L72.006 33.017C72.0677 33.1355 72.1 33.2672 72.1 33.4009V40.8337H78.6842V33.4009C78.6843 33.2672 78.7166 33.1355 78.7783 33.017L78.9175 32.7422H71.8667ZM78.308 33.4009V40.4574H72.4763V33.4009C72.4764 33.3057 72.465 33.211 72.4424 33.1186H78.3419C78.3192 33.211 78.3079 33.3057 78.308 33.4009ZM63.5895 32.7422L63.7288 33.017C63.7905 33.1355 63.8227 33.2672 63.8228 33.4009V40.8337H70.407V33.4009C70.4071 33.2672 70.4393 33.1355 70.501 33.017L70.6403 32.7422H63.5895ZM70.0307 33.4009V40.4574H64.1991V33.4009C64.1992 33.3057 64.1878 33.211 64.1652 33.1186H70.0646C70.042 33.211 70.0306 33.3057 70.0307 33.4009ZM55.3123 32.7422L55.4515 33.017C55.5132 33.1355 55.5455 33.2672 55.5456 33.4009V40.8337H62.1297V33.4009C62.1298 33.2672 62.1621 33.1355 62.2238 33.017L62.3631 32.7422H55.3123ZM61.7535 33.4009V40.4574H55.9218V33.4009C55.9219 33.3057 55.9106 33.211 55.8879 33.1186H61.7874C61.7648 33.211 61.7534 33.3057 61.7535 33.4009ZM121.53 32.7422L121.669 33.017C121.731 33.1355 121.763 33.2672 121.763 33.4009V40.8337H128.348V33.4009C128.348 33.2672 128.38 33.1355 128.442 33.017L128.581 32.7422H121.53ZM127.971 33.4009V40.4574H122.14V33.4009C122.14 33.3057 122.128 33.211 122.106 33.1186H128.005C127.983 33.211 127.971 33.3057 127.971 33.4009ZM113.253 32.7422L113.392 33.017C113.454 33.1355 113.486 33.2672 113.486 33.4009V40.8337H120.07V33.4009C120.07 33.2672 120.103 33.1355 120.164 33.017L120.304 32.7422H113.253ZM119.694 33.4009V40.4574H113.862V33.4009C113.863 33.3057 113.851 33.211 113.829 33.1186H119.728C119.705 33.211 119.694 33.3057 119.694 33.4009ZM104.976 32.7422L105.115 33.017C105.177 33.1355 105.209 33.2672 105.209 33.4009V40.8337H111.793V33.4009C111.793 33.2672 111.825 33.1355 111.887 33.017L112.026 32.7422H104.976ZM111.417 33.4009V40.4574H105.585V33.4009C105.585 33.3057 105.574 33.211 105.551 33.1186H111.451C111.428 33.211 111.417 33.3057 111.417 33.4009ZM96.6984 32.7422L96.8377 33.017C96.8994 33.1355 96.9316 33.2672 96.9317 33.4009V40.8337H103.516V33.4009C103.516 33.2672 103.548 33.1355 103.61 33.017L103.749 32.7422H96.6984ZM103.14 33.4009V40.4574H97.308V33.4009C97.3081 33.3057 97.2967 33.211 97.2741 33.1186H103.174C103.151 33.211 103.14 33.3057 103.14 33.4009ZM88.4212 32.7422L88.5604 33.017C88.6222 33.1355 88.6544 33.2672 88.6545 33.4009V40.8337H95.2387V33.4009C95.2388 33.2672 95.271 33.1355 95.3327 33.017L95.472 32.7422H88.4212ZM94.8624 33.4009V40.4574H89.0307V33.4009C89.0308 33.3057 89.0195 33.211 88.9968 33.1186H94.8963C94.8737 33.211 94.8623 33.3057 94.8624 33.4009ZM80.144 32.7422L80.2832 33.017C80.3449 33.1355 80.3772 33.2672 80.3773 33.4009V40.8337H86.9614V33.4009C86.9615 33.2672 86.9938 33.1355 87.0555 33.017L87.1947 32.7422H80.144ZM86.5852 33.4009V40.4574H80.7535V33.4009C80.7536 33.3057 80.7422 33.211 80.7196 33.1186H86.6191C86.5965 33.211 86.5851 33.3057 86.5852 33.4009ZM71.8667 32.7422L72.006 33.017C72.0677 33.1355 72.1 33.2672 72.1 33.4009V40.8337H78.6842V33.4009C78.6843 33.2672 78.7166 33.1355 78.7783 33.017L78.9175 32.7422H71.8667ZM78.308 33.4009V40.4574H72.4763V33.4009C72.4764 33.3057 72.465 33.211 72.4424 33.1186H78.3419C78.3192 33.211 78.3079 33.3057 78.308 33.4009ZM63.5895 32.7422L63.7288 33.017C63.7905 33.1355 63.8227 33.2672 63.8228 33.4009V40.8337H70.407V33.4009C70.4071 33.2672 70.4393 33.1355 70.501 33.017L70.6403 32.7422H63.5895ZM70.0307 33.4009V40.4574H64.1991V33.4009C64.1992 33.3057 64.1878 33.211 64.1652 33.1186H70.0646C70.042 33.211 70.0306 33.3057 70.0307 33.4009ZM55.3123 32.7422L55.4515 33.017C55.5132 33.1355 55.5455 33.2672 55.5456 33.4009V40.8337H62.1297V33.4009C62.1298 33.2672 62.1621 33.1355 62.2238 33.017L62.3631 32.7422H55.3123ZM61.7535 33.4009V40.4574H55.9218V33.4009C55.9219 33.3057 55.9106 33.211 55.8879 33.1186H61.7874C61.7648 33.211 61.7534 33.3057 61.7535 33.4009ZM121.53 32.7422L121.669 33.017C121.731 33.1355 121.763 33.2672 121.763 33.4009V40.8337H128.348V33.4009C128.348 33.2672 128.38 33.1355 128.442 33.017L128.581 32.7422H121.53ZM127.971 33.4009V40.4574H122.14V33.4009C122.14 33.3057 122.128 33.211 122.106 33.1186H128.005C127.983 33.211 127.971 33.3057 127.971 33.4009ZM113.253 32.7422L113.392 33.017C113.454 33.1355 113.486 33.2672 113.486 33.4009V40.8337H120.07V33.4009C120.07 33.2672 120.103 33.1355 120.164 33.017L120.304 32.7422H113.253ZM119.694 33.4009V40.4574H113.862V33.4009C113.863 33.3057 113.851 33.211 113.829 33.1186H119.728C119.705 33.211 119.694 33.3057 119.694 33.4009ZM104.976 32.7422L105.115 33.017C105.177 33.1355 105.209 33.2672 105.209 33.4009V40.8337H111.793V33.4009C111.793 33.2672 111.825 33.1355 111.887 33.017L112.026 32.7422H104.976ZM111.417 33.4009V40.4574H105.585V33.4009C105.585 33.3057 105.574 33.211 105.551 33.1186H111.451C111.428 33.211 111.417 33.3057 111.417 33.4009ZM96.6984 32.7422L96.8377 33.017C96.8994 33.1355 96.9316 33.2672 96.9317 33.4009V40.8337H103.516V33.4009C103.516 33.2672 103.548 33.1355 103.61 33.017L103.749 32.7422H96.6984ZM103.14 33.4009V40.4574H97.308V33.4009C97.3081 33.3057 97.2967 33.211 97.2741 33.1186H103.174C103.151 33.211 103.14 33.3057 103.14 33.4009ZM88.4212 32.7422L88.5604 33.017C88.6222 33.1355 88.6544 33.2672 88.6545 33.4009V40.8337H95.2387V33.4009C95.2388 33.2672 95.271 33.1355 95.3327 33.017L95.472 32.7422H88.4212ZM94.8624 33.4009V40.4574H89.0307V33.4009C89.0308 33.3057 89.0195 33.211 88.9968 33.1186H94.8963C94.8737 33.211 94.8623 33.3057 94.8624 33.4009ZM80.144 32.7422L80.2832 33.017C80.3449 33.1355 80.3772 33.2672 80.3773 33.4009V40.8337H86.9614V33.4009C86.9615 33.2672 86.9938 33.1355 87.0555 33.017L87.1947 32.7422H80.144ZM86.5852 33.4009V40.4574H80.7535V33.4009C80.7536 33.3057 80.7422 33.211 80.7196 33.1186H86.6191C86.5965 33.211 86.5851 33.3057 86.5852 33.4009ZM71.8667 32.7422L72.006 33.017C72.0677 33.1355 72.1 33.2672 72.1 33.4009V40.8337H78.6842V33.4009C78.6843 33.2672 78.7166 33.1355 78.7783 33.017L78.9175 32.7422H71.8667ZM78.308 33.4009V40.4574H72.4763V33.4009C72.4764 33.3057 72.465 33.211 72.4424 33.1186H78.3419C78.3192 33.211 78.3079 33.3057 78.308 33.4009ZM63.5895 32.7422L63.7288 33.017C63.7905 33.1355 63.8227 33.2672 63.8228 33.4009V40.8337H70.407V33.4009C70.4071 33.2672 70.4393 33.1355 70.501 33.017L70.6403 32.7422H63.5895ZM70.0307 33.4009V40.4574H64.1991V33.4009C64.1992 33.3057 64.1878 33.211 64.1652 33.1186H70.0646C70.042 33.211 70.0306 33.3057 70.0307 33.4009ZM55.3123 32.7422L55.4515 33.017C55.5132 33.1355 55.5455 33.2672 55.5456 33.4009V40.8337H62.1297V33.4009C62.1298 33.2672 62.1621 33.1355 62.2238 33.017L62.3631 32.7422H55.3123ZM61.7535 33.4009V40.4574H55.9218V33.4009C55.9219 33.3057 55.9106 33.211 55.8879 33.1186H61.7874C61.7648 33.211 61.7534 33.3057 61.7535 33.4009ZM121.53 32.7422L121.669 33.017C121.731 33.1355 121.763 33.2672 121.763 33.4009V40.8337H128.348V33.4009C128.348 33.2672 128.38 33.1355 128.442 33.017L128.581 32.7422H121.53ZM127.971 33.4009V40.4574H122.14V33.4009C122.14 33.3057 122.128 33.211 122.106 33.1186H128.005C127.983 33.211 127.971 33.3057 127.971 33.4009ZM113.253 32.7422L113.392 33.017C113.454 33.1355 113.486 33.2672 113.486 33.4009V40.8337H120.07V33.4009C120.07 33.2672 120.103 33.1355 120.164 33.017L120.304 32.7422H113.253ZM119.694 33.4009V40.4574H113.862V33.4009C113.863 33.3057 113.851 33.211 113.829 33.1186H119.728C119.705 33.211 119.694 33.3057 119.694 33.4009ZM104.976 32.7422L105.115 33.017C105.177 33.1355 105.209 33.2672 105.209 33.4009V40.8337H111.793V33.4009C111.793 33.2672 111.825 33.1355 111.887 33.017L112.026 32.7422H104.976ZM111.417 33.4009V40.4574H105.585V33.4009C105.585 33.3057 105.574 33.211 105.551 33.1186H111.451C111.428 33.211 111.417 33.3057 111.417 33.4009ZM96.6984 32.7422L96.8377 33.017C96.8994 33.1355 96.9316 33.2672 96.9317 33.4009V40.8337H103.516V33.4009C103.516 33.2672 103.548 33.1355 103.61 33.017L103.749 32.7422H96.6984ZM103.14 33.4009V40.4574H97.308V33.4009C97.3081 33.3057 97.2967 33.211 97.2741 33.1186H103.174C103.151 33.211 103.14 33.3057 103.14 33.4009ZM88.4212 32.7422L88.5604 33.017C88.6222 33.1355 88.6544 33.2672 88.6545 33.4009V40.8337H95.2387V33.4009C95.2388 33.2672 95.271 33.1355 95.3327 33.017L95.472 32.7422H88.4212ZM94.8624 33.4009V40.4574H89.0307V33.4009C89.0308 33.3057 89.0195 33.211 88.9968 33.1186H94.8963C94.8737 33.211 94.8623 33.3057 94.8624 33.4009ZM80.144 32.7422L80.2832 33.017C80.3449 33.1355 80.3772 33.2672 80.3773 33.4009V40.8337H86.9614V33.4009C86.9615 33.2672 86.9938 33.1355 87.0555 33.017L87.1947 32.7422H80.144ZM86.5852 33.4009V40.4574H80.7535V33.4009C80.7536 33.3057 80.7422 33.211 80.7196 33.1186H86.6191C86.5965 33.211 86.5851 33.3057 86.5852 33.4009ZM71.8667 32.7422L72.006 33.017C72.0677 33.1355 72.1 33.2672 72.1 33.4009V40.8337H78.6842V33.4009C78.6843 33.2672 78.7166 33.1355 78.7783 33.017L78.9175 32.7422H71.8667ZM78.308 33.4009V40.4574H72.4763V33.4009C72.4764 33.3057 72.465 33.211 72.4424 33.1186H78.3419C78.3192 33.211 78.3079 33.3057 78.308 33.4009ZM63.5895 32.7422L63.7288 33.017C63.7905 33.1355 63.8227 33.2672 63.8228 33.4009V40.8337H70.407V33.4009C70.4071 33.2672 70.4393 33.1355 70.501 33.017L70.6403 32.7422H63.5895ZM70.0307 33.4009V40.4574H64.1991V33.4009C64.1992 33.3057 64.1878 33.211 64.1652 33.1186H70.0646C70.042 33.211 70.0306 33.3057 70.0307 33.4009ZM55.3123 32.7422L55.4515 33.017C55.5132 33.1355 55.5455 33.2672 55.5456 33.4009V40.8337H62.1297V33.4009C62.1298 33.2672 62.1621 33.1355 62.2238 33.017L62.3631 32.7422H55.3123ZM61.7535 33.4009V40.4574H55.9218V33.4009C55.9219 33.3057 55.9106 33.211 55.8879 33.1186H61.7874C61.7648 33.211 61.7534 33.3057 61.7535 33.4009ZM121.53 32.7422L121.669 33.017C121.731 33.1355 121.763 33.2672 121.763 33.4009V40.8337H128.348V33.4009C128.348 33.2672 128.38 33.1355 128.442 33.017L128.581 32.7422H121.53ZM127.971 33.4009V40.4574H122.14V33.4009C122.14 33.3057 122.128 33.211 122.106 33.1186H128.005C127.983 33.211 127.971 33.3057 127.971 33.4009ZM113.392 33.017C113.454 33.1355 113.486 33.2672 113.486 33.4009V40.8337H120.07V33.4009C120.07 33.2672 120.103 33.1355 120.164 33.017L120.304 32.7422H113.253L113.392 33.017ZM119.728 33.1186C119.705 33.211 119.694 33.3057 119.694 33.4009V40.4574H113.862V33.4009C113.863 33.3057 113.851 33.211 113.829 33.1186H119.728ZM105.115 33.017C105.177 33.1355 105.209 33.2672 105.209 33.4009V40.8337H111.793V33.4009C111.793 33.2672 111.825 33.1355 111.887 33.017L112.026 32.7422H104.976L105.115 33.017ZM111.451 33.1186C111.428 33.211 111.417 33.3057 111.417 33.4009V40.4574H105.585V33.4009C105.585 33.3057 105.574 33.211 105.551 33.1186H111.451ZM96.8377 33.017C96.8994 33.1355 96.9316 33.2672 96.9317 33.4009V40.8337H103.516V33.4009C103.516 33.2672 103.548 33.1355 103.61 33.017L103.749 32.7422H96.6984L96.8377 33.017ZM103.174 33.1186C103.151 33.211 103.14 33.3057 103.14 33.4009V40.4574H97.308V33.4009C97.3081 33.3057 97.2967 33.211 97.2741 33.1186H103.174ZM88.5604 33.017C88.6222 33.1355 88.6544 33.2672 88.6545 33.4009V40.8337H95.2387V33.4009C95.2388 33.2672 95.271 33.1355 95.3327 33.017L95.472 32.7422H88.4212L88.5604 33.017ZM94.8963 33.1186C94.8737 33.211 94.8623 33.3057 94.8624 33.4009V40.4574H89.0307V33.4009C89.0308 33.3057 89.0195 33.211 88.9968 33.1186H94.8963ZM80.2832 33.017C80.3449 33.1355 80.3772 33.2672 80.3773 33.4009V40.8337H86.9614V33.4009C86.9615 33.2672 86.9938 33.1355 87.0555 33.017L87.1947 32.7422H80.144L80.2832 33.017ZM86.6191 33.1186C86.5965 33.211 86.5851 33.3057 86.5852 33.4009V40.4574H80.7535V33.4009C80.7536 33.3057 80.7422 33.211 80.7196 33.1186H86.6191ZM72.006 33.017C72.0677 33.1355 72.1 33.2672 72.1 33.4009V40.8337H78.6842V33.4009C78.6843 33.2672 78.7166 33.1355 78.7783 33.017L78.9175 32.7422H71.8667L72.006 33.017ZM78.3419 33.1186C78.3192 33.211 78.3079 33.3057 78.308 33.4009V40.4574H72.4763V33.4009C72.4764 33.3057 72.465 33.211 72.4424 33.1186H78.3419ZM63.7288 33.017C63.7905 33.1355 63.8227 33.2672 63.8228 33.4009V40.8337H70.407V33.4009C70.4071 33.2672 70.4393 33.1355 70.501 33.017L70.6403 32.7422H63.5895L63.7288 33.017ZM70.0646 33.1186C70.042 33.211 70.0306 33.3057 70.0307 33.4009V40.4574H64.1991V33.4009C64.1992 33.3057 64.1878 33.211 64.1652 33.1186H70.0646ZM55.4515 33.017C55.5132 33.1355 55.5455 33.2672 55.5456 33.4009V40.8337H62.1297V33.4009C62.1298 33.2672 62.1621 33.1355 62.2238 33.017L62.3631 32.7422H55.3123L55.4515 33.017ZM61.7874 33.1186C61.7648 33.211 61.7534 33.3057 61.7535 33.4009V40.4574H55.9218V33.4009C55.9219 33.3057 55.9106 33.211 55.8879 33.1186H61.7874ZM121.669 33.017C121.731 33.1355 121.763 33.2672 121.763 33.4009V40.8337H128.348V33.4009C128.348 33.2672 128.38 33.1355 128.442 33.017L128.581 32.7422H121.53L121.669 33.017ZM128.005 33.1186C127.983 33.211 127.971 33.3057 127.971 33.4009V40.4574H122.14V33.4009C122.14 33.3057 122.128 33.211 122.106 33.1186H128.005ZM113.392 33.017C113.454 33.1355 113.486 33.2672 113.486 33.4009V40.8337H120.07V33.4009C120.07 33.2672 120.103 33.1355 120.164 33.017L120.304 32.7422H113.253L113.392 33.017ZM119.728 33.1186C119.705 33.211 119.694 33.3057 119.694 33.4009V40.4574H113.862V33.4009C113.863 33.3057 113.851 33.211 113.829 33.1186H119.728ZM105.115 33.017C105.177 33.1355 105.209 33.2672 105.209 33.4009V40.8337H111.793V33.4009C111.793 33.2672 111.825 33.1355 111.887 33.017L112.026 32.7422H104.976L105.115 33.017ZM111.451 33.1186C111.428 33.211 111.417 33.3057 111.417 33.4009V40.4574H105.585V33.4009C105.585 33.3057 105.574 33.211 105.551 33.1186H111.451ZM96.8377 33.017C96.8994 33.1355 96.9316 33.2672 96.9317 33.4009V40.8337H103.516V33.4009C103.516 33.2672 103.548 33.1355 103.61 33.017L103.749 32.7422H96.6984L96.8377 33.017ZM103.174 33.1186C103.151 33.211 103.14 33.3057 103.14 33.4009V40.4574H97.308V33.4009C97.3081 33.3057 97.2967 33.211 97.2741 33.1186H103.174ZM88.5604 33.017C88.6222 33.1355 88.6544 33.2672 88.6545 33.4009V40.8337H95.2387V33.4009C95.2388 33.2672 95.271 33.1355 95.3327 33.017L95.472 32.7422H88.4212L88.5604 33.017ZM94.8963 33.1186C94.8737 33.211 94.8623 33.3057 94.8624 33.4009V40.4574H89.0307V33.4009C89.0308 33.3057 89.0195 33.211 88.9968 33.1186H94.8963ZM80.2832 33.017C80.3449 33.1355 80.3772 33.2672 80.3773 33.4009V40.8337H86.9614V33.4009C86.9615 33.2672 86.9938 33.1355 87.0555 33.017L87.1947 32.7422H80.144L80.2832 33.017ZM86.6191 33.1186C86.5965 33.211 86.5851 33.3057 86.5852 33.4009V40.4574H80.7535V33.4009C80.7536 33.3057 80.7422 33.211 80.7196 33.1186H86.6191ZM72.006 33.017C72.0677 33.1355 72.1 33.2672 72.1 33.4009V40.8337H78.6842V33.4009C78.6843 33.2672 78.7166 33.1355 78.7783 33.017L78.9175 32.7422H71.8667L72.006 33.017ZM78.3419 33.1186C78.3192 33.211 78.3079 33.3057 78.308 33.4009V40.4574H72.4763V33.4009C72.4764 33.3057 72.465 33.211 72.4424 33.1186H78.3419ZM63.7288 33.017C63.7905 33.1355 63.8227 33.2672 63.8228 33.4009V40.8337H70.407V33.4009C70.4071 33.2672 70.4393 33.1355 70.501 33.017L70.6403 32.7422H63.5895L63.7288 33.017ZM70.0646 33.1186C70.042 33.211 70.0306 33.3057 70.0307 33.4009V40.4574H64.1991V33.4009C64.1992 33.3057 64.1878 33.211 64.1652 33.1186H70.0646ZM55.4515 33.017C55.5132 33.1355 55.5455 33.2672 55.5456 33.4009V40.8337H62.1297V33.4009C62.1298 33.2672 62.1621 33.1355 62.2238 33.017L62.3631 32.7422H55.3123L55.4515 33.017ZM61.7874 33.1186C61.7648 33.211 61.7534 33.3057 61.7535 33.4009V40.4574H55.9218V33.4009C55.9219 33.3057 55.9106 33.211 55.8879 33.1186H61.7874ZM135.872 41.9628H133.63C133.506 41.5299 133.245 41.1489 132.886 40.8774C132.527 40.6059 132.09 40.4585 131.64 40.4574H130.417V33.4009C130.417 33.2494 130.389 33.0992 130.332 32.9586C130.545 32.8331 130.711 32.6409 130.804 32.4116C130.897 32.1824 130.913 31.9288 130.847 31.6902C130.782 31.4515 130.64 31.2409 130.443 31.091C130.246 30.9411 130.006 30.8601 129.758 30.8605H54.1347C53.8873 30.8601 53.6467 30.9411 53.4499 31.091C53.2532 31.2409 53.1112 31.4515 53.0459 31.6902C52.9807 31.9288 52.9957 32.1824 53.0888 32.4116C53.1819 32.6409 53.3478 32.8331 53.561 32.9586C53.5045 33.0992 53.4758 33.2494 53.4763 33.4009V40.4574H52.2535C51.8034 40.4585 51.3659 40.6059 51.0069 40.8774C50.6479 41.1489 50.3869 41.5299 50.2632 41.9628H47.8327C47.3839 41.9634 46.9537 42.1421 46.6363 42.4596C46.3189 42.777 46.1403 43.2074 46.1396 43.6563V143.012C46.1406 143.461 46.3193 143.891 46.6366 144.209C46.9539 144.526 47.384 144.705 47.8327 144.706H135.872C136.321 144.705 136.751 144.526 137.069 144.209C137.386 143.892 137.565 143.461 137.565 143.012V43.6563C137.565 43.2074 137.386 42.777 137.069 42.4596C136.751 42.1421 136.321 41.9634 135.872 41.9628ZM137.189 143.012C137.189 143.281 137.106 143.543 136.953 143.764C136.799 143.985 136.582 144.153 136.329 144.247C136.184 144.302 136.029 144.33 135.872 144.329H47.8327C47.6765 144.33 47.5215 144.302 47.3756 144.247C47.1235 144.153 46.906 143.985 46.7524 143.764C46.5987 143.543 46.5162 143.281 46.5159 143.012V43.6563C46.5163 43.3071 46.6551 42.9723 46.902 42.7253C47.1489 42.4784 47.4836 42.3395 47.8327 42.3391H50.5642L50.5943 42.1886C50.6734 41.8066 50.8815 41.4634 51.1836 41.2167C51.4857 40.97 51.8635 40.8348 52.2535 40.8337H53.8525V33.4009C53.8526 33.2477 53.8942 33.0975 53.9729 32.9662L54.0895 32.7724L53.877 32.6933C53.7108 32.6331 53.5713 32.5162 53.4829 32.3631C53.3945 32.2101 53.3629 32.0307 53.3937 31.8567C53.4245 31.6827 53.5157 31.5251 53.6513 31.4117C53.7868 31.2983 53.958 31.2364 54.1347 31.2369H129.758C129.935 31.2364 130.106 31.2983 130.242 31.4117C130.377 31.5251 130.469 31.6827 130.499 31.8567C130.53 32.0307 130.499 32.2101 130.41 32.3631C130.322 32.5162 130.182 32.6331 130.016 32.6933L129.804 32.7724L129.92 32.9662C129.999 33.0975 130.041 33.2477 130.041 33.4009V40.8337H131.64C132.03 40.8348 132.407 40.97 132.71 41.2167C133.012 41.4634 133.22 41.8066 133.299 42.1886L133.329 42.3391H135.872C136.221 42.3395 136.556 42.4784 136.803 42.7253C137.05 42.9723 137.189 43.3071 137.189 43.6563L137.189 143.012ZM55.3123 32.7422L55.4515 33.017C55.5132 33.1355 55.5455 33.2672 55.5456 33.4009V40.8337H62.1297V33.4009C62.1298 33.2672 62.1621 33.1355 62.2238 33.017L62.3631 32.7422H55.3123ZM61.7535 33.4009V40.4574H55.9218V33.4009C55.9219 33.3057 55.9106 33.211 55.8879 33.1186H61.7874C61.7648 33.211 61.7534 33.3057 61.7535 33.4009ZM63.5895 32.7422L63.7288 33.017C63.7905 33.1355 63.8227 33.2672 63.8228 33.4009V40.8337H70.407V33.4009C70.4071 33.2672 70.4393 33.1355 70.501 33.017L70.6403 32.7422H63.5895ZM70.0307 33.4009V40.4574H64.1991V33.4009C64.1992 33.3057 64.1878 33.211 64.1652 33.1186H70.0646C70.042 33.211 70.0306 33.3057 70.0307 33.4009ZM71.8667 32.7422L72.006 33.017C72.0677 33.1355 72.1 33.2672 72.1 33.4009V40.8337H78.6842V33.4009C78.6843 33.2672 78.7166 33.1355 78.7783 33.017L78.9175 32.7422H71.8667ZM78.308 33.4009V40.4574H72.4763V33.4009C72.4764 33.3057 72.465 33.211 72.4424 33.1186H78.3419C78.3192 33.211 78.3079 33.3057 78.308 33.4009ZM80.144 32.7422L80.2832 33.017C80.3449 33.1355 80.3772 33.2672 80.3773 33.4009V40.8337H86.9614V33.4009C86.9615 33.2672 86.9938 33.1355 87.0555 33.017L87.1947 32.7422H80.144ZM86.5852 33.4009V40.4574H80.7535V33.4009C80.7536 33.3057 80.7422 33.211 80.7196 33.1186H86.6191C86.5965 33.211 86.5851 33.3057 86.5852 33.4009ZM88.4212 32.7422L88.5604 33.017C88.6222 33.1355 88.6544 33.2672 88.6545 33.4009V40.8337H95.2387V33.4009C95.2388 33.2672 95.271 33.1355 95.3327 33.017L95.472 32.7422H88.4212ZM94.8624 33.4009V40.4574H89.0307V33.4009C89.0308 33.3057 89.0195 33.211 88.9968 33.1186H94.8963C94.8737 33.211 94.8623 33.3057 94.8624 33.4009ZM96.6984 32.7422L96.8377 33.017C96.8994 33.1355 96.9316 33.2672 96.9317 33.4009V40.8337H103.516V33.4009C103.516 33.2672 103.548 33.1355 103.61 33.017L103.749 32.7422H96.6984ZM103.14 33.4009V40.4574H97.308V33.4009C97.3081 33.3057 97.2967 33.211 97.2741 33.1186H103.174C103.151 33.211 103.14 33.3057 103.14 33.4009ZM104.976 32.7422L105.115 33.017C105.177 33.1355 105.209 33.2672 105.209 33.4009V40.8337H111.793V33.4009C111.793 33.2672 111.825 33.1355 111.887 33.017L112.026 32.7422H104.976ZM111.417 33.4009V40.4574H105.585V33.4009C105.585 33.3057 105.574 33.211 105.551 33.1186H111.451C111.428 33.211 111.417 33.3057 111.417 33.4009ZM113.253 32.7422L113.392 33.017C113.454 33.1355 113.486 33.2672 113.486 33.4009V40.8337H120.07V33.4009C120.07 33.2672 120.103 33.1355 120.164 33.017L120.304 32.7422H113.253ZM119.694 33.4009V40.4574H113.862V33.4009C113.863 33.3057 113.851 33.211 113.829 33.1186H119.728C119.705 33.211 119.694 33.3057 119.694 33.4009ZM121.53 32.7422L121.669 33.017C121.731 33.1355 121.763 33.2672 121.763 33.4009V40.8337H128.348V33.4009C128.348 33.2672 128.38 33.1355 128.442 33.017L128.581 32.7422H121.53ZM127.971 33.4009V40.4574H122.14V33.4009C122.14 33.3057 122.128 33.211 122.106 33.1186H128.005C127.983 33.211 127.971 33.3057 127.971 33.4009ZM55.3123 32.7422L55.4515 33.017C55.5132 33.1355 55.5455 33.2672 55.5456 33.4009V40.8337H62.1297V33.4009C62.1298 33.2672 62.1621 33.1355 62.2238 33.017L62.3631 32.7422H55.3123ZM61.7535 33.4009V40.4574H55.9218V33.4009C55.9219 33.3057 55.9106 33.211 55.8879 33.1186H61.7874C61.7648 33.211 61.7534 33.3057 61.7535 33.4009ZM63.5895 32.7422L63.7288 33.017C63.7905 33.1355 63.8227 33.2672 63.8228 33.4009V40.8337H70.407V33.4009C70.4071 33.2672 70.4393 33.1355 70.501 33.017L70.6403 32.7422H63.5895ZM70.0307 33.4009V40.4574H64.1991V33.4009C64.1992 33.3057 64.1878 33.211 64.1652 33.1186H70.0646C70.042 33.211 70.0306 33.3057 70.0307 33.4009ZM71.8667 32.7422L72.006 33.017C72.0677 33.1355 72.1 33.2672 72.1 33.4009V40.8337H78.6842V33.4009C78.6843 33.2672 78.7166 33.1355 78.7783 33.017L78.9175 32.7422H71.8667ZM78.308 33.4009V40.4574H72.4763V33.4009C72.4764 33.3057 72.465 33.211 72.4424 33.1186H78.3419C78.3192 33.211 78.3079 33.3057 78.308 33.4009ZM80.144 32.7422L80.2832 33.017C80.3449 33.1355 80.3772 33.2672 80.3773 33.4009V40.8337H86.9614V33.4009C86.9615 33.2672 86.9938 33.1355 87.0555 33.017L87.1947 32.7422H80.144ZM86.5852 33.4009V40.4574H80.7535V33.4009C80.7536 33.3057 80.7422 33.211 80.7196 33.1186H86.6191C86.5965 33.211 86.5851 33.3057 86.5852 33.4009ZM88.4212 32.7422L88.5604 33.017C88.6222 33.1355 88.6544 33.2672 88.6545 33.4009V40.8337H95.2387V33.4009C95.2388 33.2672 95.271 33.1355 95.3327 33.017L95.472 32.7422H88.4212ZM94.8624 33.4009V40.4574H89.0307V33.4009C89.0308 33.3057 89.0195 33.211 88.9968 33.1186H94.8963C94.8737 33.211 94.8623 33.3057 94.8624 33.4009ZM96.6984 32.7422L96.8377 33.017C96.8994 33.1355 96.9316 33.2672 96.9317 33.4009V40.8337H103.516V33.4009C103.516 33.2672 103.548 33.1355 103.61 33.017L103.749 32.7422H96.6984ZM103.14 33.4009V40.4574H97.308V33.4009C97.3081 33.3057 97.2967 33.211 97.2741 33.1186H103.174C103.151 33.211 103.14 33.3057 103.14 33.4009ZM104.976 32.7422L105.115 33.017C105.177 33.1355 105.209 33.2672 105.209 33.4009V40.8337H111.793V33.4009C111.793 33.2672 111.825 33.1355 111.887 33.017L112.026 32.7422H104.976ZM111.417 33.4009V40.4574H105.585V33.4009C105.585 33.3057 105.574 33.211 105.551 33.1186H111.451C111.428 33.211 111.417 33.3057 111.417 33.4009ZM113.253 32.7422L113.392 33.017C113.454 33.1355 113.486 33.2672 113.486 33.4009V40.8337H120.07V33.4009C120.07 33.2672 120.103 33.1355 120.164 33.017L120.304 32.7422H113.253ZM119.694 33.4009V40.4574H113.862V33.4009C113.863 33.3057 113.851 33.211 113.829 33.1186H119.728C119.705 33.211 119.694 33.3057 119.694 33.4009ZM121.53 32.7422L121.669 33.017C121.731 33.1355 121.763 33.2672 121.763 33.4009V40.8337H128.348V33.4009C128.348 33.2672 128.38 33.1355 128.442 33.017L128.581 32.7422H121.53ZM127.971 33.4009V40.4574H122.14V33.4009C122.14 33.3057 122.128 33.211 122.106 33.1186H128.005C127.983 33.211 127.971 33.3057 127.971 33.4009ZM55.3123 32.7422L55.4515 33.017C55.5132 33.1355 55.5455 33.2672 55.5456 33.4009V40.8337H62.1297V33.4009C62.1298 33.2672 62.1621 33.1355 62.2238 33.017L62.3631 32.7422H55.3123ZM61.7535 33.4009V40.4574H55.9218V33.4009C55.9219 33.3057 55.9106 33.211 55.8879 33.1186H61.7874C61.7648 33.211 61.7534 33.3057 61.7535 33.4009ZM63.5895 32.7422L63.7288 33.017C63.7905 33.1355 63.8227 33.2672 63.8228 33.4009V40.8337H70.407V33.4009C70.4071 33.2672 70.4393 33.1355 70.501 33.017L70.6403 32.7422H63.5895ZM70.0307 33.4009V40.4574H64.1991V33.4009C64.1992 33.3057 64.1878 33.211 64.1652 33.1186H70.0646C70.042 33.211 70.0306 33.3057 70.0307 33.4009ZM71.8667 32.7422L72.006 33.017C72.0677 33.1355 72.1 33.2672 72.1 33.4009V40.8337H78.6842V33.4009C78.6843 33.2672 78.7166 33.1355 78.7783 33.017L78.9175 32.7422H71.8667ZM78.308 33.4009V40.4574H72.4763V33.4009C72.4764 33.3057 72.465 33.211 72.4424 33.1186H78.3419C78.3192 33.211 78.3079 33.3057 78.308 33.4009ZM80.144 32.7422L80.2832 33.017C80.3449 33.1355 80.3772 33.2672 80.3773 33.4009V40.8337H86.9614V33.4009C86.9615 33.2672 86.9938 33.1355 87.0555 33.017L87.1947 32.7422H80.144ZM86.5852 33.4009V40.4574H80.7535V33.4009C80.7536 33.3057 80.7422 33.211 80.7196 33.1186H86.6191C86.5965 33.211 86.5851 33.3057 86.5852 33.4009ZM88.4212 32.7422L88.5604 33.017C88.6222 33.1355 88.6544 33.2672 88.6545 33.4009V40.8337H95.2387V33.4009C95.2388 33.2672 95.271 33.1355 95.3327 33.017L95.472 32.7422H88.4212ZM94.8624 33.4009V40.4574H89.0307V33.4009C89.0308 33.3057 89.0195 33.211 88.9968 33.1186H94.8963C94.8737 33.211 94.8623 33.3057 94.8624 33.4009ZM96.6984 32.7422L96.8377 33.017C96.8994 33.1355 96.9316 33.2672 96.9317 33.4009V40.8337H103.516V33.4009C103.516 33.2672 103.548 33.1355 103.61 33.017L103.749 32.7422H96.6984ZM103.14 33.4009V40.4574H97.308V33.4009C97.3081 33.3057 97.2967 33.211 97.2741 33.1186H103.174C103.151 33.211 103.14 33.3057 103.14 33.4009ZM104.976 32.7422L105.115 33.017C105.177 33.1355 105.209 33.2672 105.209 33.4009V40.8337H111.793V33.4009C111.793 33.2672 111.825 33.1355 111.887 33.017L112.026 32.7422H104.976ZM111.417 33.4009V40.4574H105.585V33.4009C105.585 33.3057 105.574 33.211 105.551 33.1186H111.451C111.428 33.211 111.417 33.3057 111.417 33.4009ZM113.253 32.7422L113.392 33.017C113.454 33.1355 113.486 33.2672 113.486 33.4009V40.8337H120.07V33.4009C120.07 33.2672 120.103 33.1355 120.164 33.017L120.304 32.7422H113.253ZM119.694 33.4009V40.4574H113.862V33.4009C113.863 33.3057 113.851 33.211 113.829 33.1186H119.728C119.705 33.211 119.694 33.3057 119.694 33.4009ZM121.53 32.7422L121.669 33.017C121.731 33.1355 121.763 33.2672 121.763 33.4009V40.8337H128.348V33.4009C128.348 33.2672 128.38 33.1355 128.442 33.017L128.581 32.7422H121.53ZM127.971 33.4009V40.4574H122.14V33.4009C122.14 33.3057 122.128 33.211 122.106 33.1186H128.005C127.983 33.211 127.971 33.3057 127.971 33.4009ZM55.3123 32.7422L55.4515 33.017C55.5132 33.1355 55.5455 33.2672 55.5456 33.4009V40.8337H62.1297V33.4009C62.1298 33.2672 62.1621 33.1355 62.2238 33.017L62.3631 32.7422H55.3123ZM61.7535 33.4009V40.4574H55.9218V33.4009C55.9219 33.3057 55.9106 33.211 55.8879 33.1186H61.7874C61.7648 33.211 61.7534 33.3057 61.7535 33.4009ZM63.5895 32.7422L63.7288 33.017C63.7905 33.1355 63.8227 33.2672 63.8228 33.4009V40.8337H70.407V33.4009C70.4071 33.2672 70.4393 33.1355 70.501 33.017L70.6403 32.7422H63.5895ZM70.0307 33.4009V40.4574H64.1991V33.4009C64.1992 33.3057 64.1878 33.211 64.1652 33.1186H70.0646C70.042 33.211 70.0306 33.3057 70.0307 33.4009ZM71.8667 32.7422L72.006 33.017C72.0677 33.1355 72.1 33.2672 72.1 33.4009V40.8337H78.6842V33.4009C78.6843 33.2672 78.7166 33.1355 78.7783 33.017L78.9175 32.7422H71.8667ZM78.308 33.4009V40.4574H72.4763V33.4009C72.4764 33.3057 72.465 33.211 72.4424 33.1186H78.3419C78.3192 33.211 78.3079 33.3057 78.308 33.4009ZM80.144 32.7422L80.2832 33.017C80.3449 33.1355 80.3772 33.2672 80.3773 33.4009V40.8337H86.9614V33.4009C86.9615 33.2672 86.9938 33.1355 87.0555 33.017L87.1947 32.7422H80.144ZM86.5852 33.4009V40.4574H80.7535V33.4009C80.7536 33.3057 80.7422 33.211 80.7196 33.1186H86.6191C86.5965 33.211 86.5851 33.3057 86.5852 33.4009ZM88.4212 32.7422L88.5604 33.017C88.6222 33.1355 88.6544 33.2672 88.6545 33.4009V40.8337H95.2387V33.4009C95.2388 33.2672 95.271 33.1355 95.3327 33.017L95.472 32.7422H88.4212ZM94.8624 33.4009V40.4574H89.0307V33.4009C89.0308 33.3057 89.0195 33.211 88.9968 33.1186H94.8963C94.8737 33.211 94.8623 33.3057 94.8624 33.4009ZM96.6984 32.7422L96.8377 33.017C96.8994 33.1355 96.9316 33.2672 96.9317 33.4009V40.8337H103.516V33.4009C103.516 33.2672 103.548 33.1355 103.61 33.017L103.749 32.7422H96.6984ZM103.14 33.4009V40.4574H97.308V33.4009C97.3081 33.3057 97.2967 33.211 97.2741 33.1186H103.174C103.151 33.211 103.14 33.3057 103.14 33.4009ZM104.976 32.7422L105.115 33.017C105.177 33.1355 105.209 33.2672 105.209 33.4009V40.8337H111.793V33.4009C111.793 33.2672 111.825 33.1355 111.887 33.017L112.026 32.7422H104.976ZM111.417 33.4009V40.4574H105.585V33.4009C105.585 33.3057 105.574 33.211 105.551 33.1186H111.451C111.428 33.211 111.417 33.3057 111.417 33.4009ZM113.253 32.7422L113.392 33.017C113.454 33.1355 113.486 33.2672 113.486 33.4009V40.8337H120.07V33.4009C120.07 33.2672 120.103 33.1355 120.164 33.017L120.304 32.7422H113.253ZM119.694 33.4009V40.4574H113.862V33.4009C113.863 33.3057 113.851 33.211 113.829 33.1186H119.728C119.705 33.211 119.694 33.3057 119.694 33.4009ZM121.53 32.7422L121.669 33.017C121.731 33.1355 121.763 33.2672 121.763 33.4009V40.8337H128.348V33.4009C128.348 33.2672 128.38 33.1355 128.442 33.017L128.581 32.7422H121.53ZM127.971 33.4009V40.4574H122.14V33.4009C122.14 33.3057 122.128 33.211 122.106 33.1186H128.005C127.983 33.211 127.971 33.3057 127.971 33.4009Z" fill="#3F3D56"/>
<path d="M77.6771 65.6728H63.8047C63.5125 65.6725 63.2324 65.5562 63.0258 65.3496C62.8192 65.1429 62.703 64.8627 62.7026 64.5705V57.1783C62.703 56.886 62.8192 56.6058 63.0258 56.3992C63.2324 56.1925 63.5125 56.0763 63.8047 56.0759H77.6771C77.9693 56.0763 78.2494 56.1925 78.456 56.3992C78.6626 56.6058 78.7788 56.886 78.7792 57.1783V64.5705C78.7788 64.8627 78.6626 65.1429 78.456 65.3496C78.2494 65.5562 77.9693 65.6725 77.6771 65.6728Z" fill="#FF6C11"/>
<path d="M98.7895 65.6727H84.917C84.6248 65.6724 84.3447 65.5561 84.1381 65.3495C83.9315 65.1428 83.8153 64.8626 83.8149 64.5704V57.1782C83.8153 56.8859 83.9315 56.6057 84.1381 56.3991C84.3447 56.1924 84.6248 56.0762 84.917 56.0758H98.7895C99.0816 56.0762 99.3617 56.1924 99.5683 56.3991C99.7749 56.6057 99.8912 56.8859 99.8915 57.1782V64.5704C99.8912 64.8626 99.7749 65.1428 99.5683 65.3495C99.3617 65.5561 99.0816 65.6724 98.7895 65.6727Z" fill="#FF6C11"/>
<path d="M119.899 65.6727H106.026C105.734 65.6724 105.454 65.5561 105.247 65.3495C105.041 65.1428 104.925 64.8626 104.924 64.5704V57.1782C104.925 56.8859 105.041 56.6057 105.247 56.3991C105.454 56.1924 105.734 56.0762 106.026 56.0758H119.899C120.191 56.0762 120.471 56.1924 120.678 56.3991C120.884 56.6057 121.001 56.8859 121.001 57.1782V64.5704C121.001 64.8626 120.884 65.1428 120.678 65.3495C120.471 65.5561 120.191 65.6724 119.899 65.6727Z" fill="#FF6C11"/>
<path d="M77.6771 90.3236H63.8047C63.5125 90.3232 63.2324 90.207 63.0258 90.0003C62.8192 89.7937 62.703 89.5135 62.7026 89.2212V81.829C62.703 81.5368 62.8192 81.2566 63.0258 81.0499C63.2324 80.8433 63.5125 80.727 63.8047 80.7267H77.6771C77.9693 80.727 78.2494 80.8433 78.456 81.0499C78.6626 81.2566 78.7788 81.5368 78.7792 81.829V89.2212C78.7788 89.5135 78.6626 89.7937 78.456 90.0003C78.2494 90.207 77.9693 90.3232 77.6771 90.3236Z" fill="#FF6C11"/>
<path d="M98.7895 90.3236H84.917C84.6248 90.3233 84.3447 90.2071 84.1381 90.0004C83.9315 89.7937 83.8153 89.5136 83.8149 89.2213V81.8291C83.8153 81.5368 83.9315 81.2567 84.1381 81.05C84.3447 80.8433 84.6248 80.7271 84.917 80.7268H98.7895C99.0816 80.7271 99.3617 80.8433 99.5683 81.05C99.7749 81.2566 99.8912 81.5368 99.8915 81.8291V89.2213C99.8912 89.5136 99.7749 89.7937 99.5683 90.0004C99.3617 90.2071 99.0816 90.3233 98.7895 90.3236Z" fill="#FF6C11"/>
<path d="M119.899 90.3236H106.026C105.734 90.3233 105.454 90.2071 105.247 90.0004C105.041 89.7937 104.925 89.5136 104.924 89.2213V81.8291C104.925 81.5368 105.041 81.2567 105.247 81.05C105.454 80.8433 105.734 80.7271 106.026 80.7268H119.899C120.191 80.7271 120.471 80.8433 120.678 81.05C120.884 81.2566 121.001 81.5368 121.001 81.8291V89.2213C121.001 89.5136 120.884 89.7937 120.678 90.0004C120.471 90.2071 120.191 90.3233 119.899 90.3236Z" fill="#FF6C11"/>
<path d="M77.6771 114.974H63.8047C63.5125 114.974 63.2324 114.858 63.0258 114.651C62.8192 114.444 62.703 114.164 62.7026 113.872V106.48C62.703 106.188 62.8192 105.907 63.0258 105.701C63.2324 105.494 63.5125 105.378 63.8047 105.377H77.6771C77.9693 105.378 78.2494 105.494 78.456 105.701C78.6626 105.907 78.7788 106.188 78.7792 106.48V113.872C78.7788 114.164 78.6626 114.444 78.456 114.651C78.2494 114.858 77.9693 114.974 77.6771 114.974Z" fill="#FF6C11"/>
<path d="M98.7895 114.974H84.917C84.6248 114.974 84.3447 114.858 84.1381 114.651C83.9315 114.444 83.8153 114.164 83.8149 113.872V106.48C83.8153 106.188 83.9315 105.907 84.1381 105.701C84.3447 105.494 84.6248 105.378 84.917 105.378H98.7895C99.0816 105.378 99.3617 105.494 99.5683 105.701C99.7749 105.907 99.8912 106.188 99.8915 106.48V113.872C99.8912 114.164 99.7749 114.444 99.5683 114.651C99.3617 114.858 99.0816 114.974 98.7895 114.974Z" fill="#FF6C11"/>
<path d="M119.899 114.974H106.026C105.734 114.974 105.454 114.858 105.247 114.651C105.041 114.444 104.925 114.164 104.924 113.872V106.48C104.925 106.188 105.041 105.907 105.247 105.701C105.454 105.494 105.734 105.378 106.026 105.378H119.899C120.191 105.378 120.471 105.494 120.678 105.701C120.884 105.907 121.001 106.188 121.001 106.48V113.872C121.001 114.164 120.884 114.444 120.678 114.651C120.471 114.858 120.191 114.974 119.899 114.974Z" fill="#FF6C11"/>
<path d="M75.4332 66.6212H59.3627C58.9743 66.6208 58.602 66.4663 58.3274 66.1916C58.0528 65.9169 57.8984 65.5445 57.8979 65.156V56.5926C57.8984 56.2042 58.0528 55.8317 58.3274 55.557C58.602 55.2824 58.9743 55.1278 59.3627 55.1274H75.4332C75.8215 55.1278 76.1939 55.2823 76.4685 55.557C76.7431 55.8317 76.8975 56.2042 76.8979 56.5926V65.156C76.8975 65.5445 76.7431 65.9169 76.4685 66.1916C76.1939 66.4663 75.8215 66.6208 75.4332 66.6212ZM59.3627 55.5037C59.0741 55.5041 58.7974 55.6189 58.5933 55.823C58.3893 56.0272 58.2745 56.3039 58.2742 56.5926V65.156C58.2745 65.4447 58.3893 65.7215 58.5933 65.9256C58.7974 66.1297 59.0741 66.2446 59.3627 66.2449H75.4332C75.7218 66.2446 75.9985 66.1297 76.2026 65.9256C76.4066 65.7215 76.5214 65.4447 76.5217 65.156V56.5926C76.5214 56.3039 76.4066 56.0272 76.2026 55.823C75.9985 55.6189 75.7218 55.5041 75.4332 55.5037H59.3627Z" fill="#3F3D56"/>
<path d="M99.8883 66.6212H83.8178C83.4294 66.6208 83.0571 66.4663 82.7825 66.1916C82.5079 65.9169 82.3535 65.5445 82.353 65.156V56.5926C82.3535 56.2042 82.5079 55.8317 82.7825 55.557C83.0571 55.2823 83.4294 55.1278 83.8178 55.1274H99.8883C100.277 55.1278 100.649 55.2823 100.924 55.557C101.198 55.8317 101.353 56.2042 101.353 56.5926V65.156C101.353 65.5445 101.198 65.9169 100.924 66.1916C100.649 66.4663 100.277 66.6208 99.8883 66.6212ZM83.8178 55.5037C83.5292 55.5041 83.2525 55.6189 83.0484 55.823C82.8444 56.0272 82.7296 56.3039 82.7293 56.5926V65.156C82.7296 65.4447 82.8444 65.7215 83.0484 65.9256C83.2525 66.1297 83.5292 66.2446 83.8178 66.2449H99.8883C100.177 66.2446 100.454 66.1297 100.658 65.9256C100.862 65.7215 100.976 65.4447 100.977 65.156V56.5926C100.976 56.3039 100.862 56.0272 100.658 55.823C100.454 55.6189 100.177 55.5041 99.8883 55.5037H83.8178Z" fill="#3F3D56"/>
<path d="M124.344 66.6212H108.273C107.885 66.6208 107.513 66.4662 107.238 66.1916C106.963 65.9169 106.809 65.5444 106.809 65.156V56.5926C106.809 56.2041 106.963 55.8317 107.238 55.557C107.513 55.2823 107.885 55.1278 108.273 55.1273H124.344C124.732 55.1278 125.105 55.2823 125.379 55.557C125.654 55.8317 125.808 56.2041 125.809 56.5926V65.156C125.808 65.5444 125.654 65.9169 125.379 66.1916C125.105 66.4662 124.732 66.6208 124.344 66.6212ZM108.273 55.5037C107.985 55.504 107.708 55.6188 107.504 55.823C107.3 56.0271 107.185 56.3039 107.185 56.5926V65.156C107.185 65.4447 107.3 65.7214 107.504 65.9256C107.708 66.1297 107.985 66.2445 108.273 66.2449H124.344C124.632 66.2445 124.909 66.1297 125.113 65.9256C125.317 65.7214 125.432 65.4447 125.432 65.156V56.5926C125.432 56.3039 125.317 56.0271 125.113 55.823C124.909 55.6188 124.632 55.504 124.344 55.5037H108.273Z" fill="#3F3D56"/>
<path d="M75.4332 91.272H59.3627C58.9743 91.2715 58.602 91.117 58.3274 90.8423C58.0528 90.5676 57.8984 90.1952 57.8979 89.8068V81.2434C57.8984 80.8549 58.0528 80.4825 58.3274 80.2078C58.602 79.9331 58.9743 79.7786 59.3627 79.7781H75.4332C75.8215 79.7786 76.1939 79.9331 76.4685 80.2078C76.7431 80.4825 76.8975 80.8549 76.8979 81.2434V89.8068C76.8975 90.1952 76.7431 90.5677 76.4685 90.8424C76.1939 91.117 75.8215 91.2716 75.4332 91.272ZM59.3627 80.1545C59.0741 80.1548 58.7974 80.2696 58.5933 80.4738C58.3893 80.6779 58.2745 80.9547 58.2742 81.2434V89.8068C58.2745 90.0954 58.3893 90.3722 58.5933 90.5764C58.7974 90.7805 59.0741 90.8953 59.3627 90.8957H75.4332C75.7218 90.8953 75.9985 90.7805 76.2026 90.5764C76.4066 90.3722 76.5214 90.0954 76.5217 89.8068V81.2434C76.5214 80.9547 76.4066 80.6779 76.2026 80.4738C75.9985 80.2696 75.7218 80.1548 75.4332 80.1545H59.3627Z" fill="#3F3D56"/>
<path d="M99.8883 91.272H83.8178C83.4294 91.2716 83.0571 91.117 82.7825 90.8424C82.5079 90.5677 82.3535 90.1952 82.353 89.8068V81.2434C82.3535 80.8549 82.5079 80.4825 82.7825 80.2078C83.0571 79.9331 83.4294 79.7786 83.8178 79.7781H99.8883C100.277 79.7786 100.649 79.9331 100.924 80.2078C101.198 80.4825 101.353 80.8549 101.353 81.2434V89.8068C101.353 90.1952 101.198 90.5676 100.924 90.8423C100.649 91.117 100.277 91.2716 99.8883 91.272ZM83.8178 80.1545C83.5292 80.1548 83.2525 80.2696 83.0484 80.4738C82.8444 80.6779 82.7296 80.9547 82.7293 81.2434V89.8068C82.7296 90.0955 82.8444 90.3722 83.0484 90.5764C83.2525 90.7805 83.5292 90.8953 83.8178 90.8957H99.8883C100.177 90.8953 100.454 90.7805 100.658 90.5764C100.862 90.3722 100.976 90.0954 100.977 89.8068V81.2434C100.976 80.9547 100.862 80.6779 100.658 80.4738C100.454 80.2696 100.177 80.1548 99.8883 80.1545H83.8178Z" fill="#3F3D56"/>
<path d="M124.344 91.2719H108.273C107.885 91.2715 107.513 91.117 107.238 90.8423C106.963 90.5676 106.809 90.1952 106.809 89.8067V81.2433C106.809 80.8549 106.963 80.4824 107.238 80.2077C107.513 79.933 107.885 79.7785 108.273 79.7781H124.344C124.732 79.7785 125.105 79.933 125.379 80.2077C125.654 80.4824 125.808 80.8549 125.809 81.2433V89.8067C125.808 90.1952 125.654 90.5676 125.379 90.8423C125.105 91.117 124.732 91.2715 124.344 91.2719ZM108.273 80.1544C107.985 80.1547 107.708 80.2696 107.504 80.4737C107.3 80.6779 107.185 80.9546 107.185 81.2433V89.8067C107.185 90.0954 107.3 90.3722 107.504 90.5763C107.708 90.7804 107.985 90.8953 108.273 90.8956H124.344C124.632 90.8953 124.909 90.7804 125.113 90.5763C125.317 90.3722 125.432 90.0954 125.432 89.8067V81.2433C125.432 80.9546 125.317 80.6779 125.113 80.4737C124.909 80.2696 124.632 80.1547 124.344 80.1544H108.273Z" fill="#3F3D56"/>
<path d="M75.4332 115.923H59.3627C58.9743 115.922 58.602 115.768 58.3274 115.493C58.0528 115.218 57.8984 114.846 57.8979 114.458V105.894C57.8984 105.506 58.0528 105.133 58.3274 104.859C58.602 104.584 58.9743 104.429 59.3627 104.429H75.4332C75.8215 104.429 76.1939 104.584 76.4685 104.859C76.7431 105.133 76.8975 105.506 76.8979 105.894V114.458C76.8975 114.846 76.7431 115.218 76.4685 115.493C76.1939 115.768 75.8215 115.922 75.4332 115.923ZM59.3627 104.805C59.0741 104.806 58.7974 104.92 58.5933 105.125C58.3893 105.329 58.2745 105.605 58.2742 105.894V114.458C58.2745 114.746 58.3893 115.023 58.5933 115.227C58.7974 115.431 59.0741 115.546 59.3627 115.546H75.4332C75.7218 115.546 75.9985 115.431 76.2026 115.227C76.4066 115.023 76.5214 114.746 76.5217 114.458V105.894C76.5214 105.605 76.4066 105.329 76.2026 105.125C75.9985 104.92 75.7218 104.806 75.4332 104.805H59.3627Z" fill="#3F3D56"/>
<path d="M99.8883 115.923H83.8178C83.4294 115.922 83.0571 115.768 82.7825 115.493C82.5079 115.218 82.3535 114.846 82.353 114.458V105.894C82.3535 105.506 82.5079 105.133 82.7825 104.859C83.0571 104.584 83.4294 104.429 83.8178 104.429H99.8883C100.277 104.429 100.649 104.584 100.924 104.859C101.198 105.133 101.353 105.506 101.353 105.894V114.458C101.353 114.846 101.198 115.218 100.924 115.493C100.649 115.768 100.277 115.922 99.8883 115.923ZM83.8178 104.805C83.5292 104.806 83.2525 104.92 83.0484 105.125C82.8444 105.329 82.7296 105.605 82.7293 105.894V114.458C82.7296 114.746 82.8444 115.023 83.0484 115.227C83.2525 115.431 83.5292 115.546 83.8178 115.546H99.8883C100.177 115.546 100.454 115.431 100.658 115.227C100.862 115.023 100.976 114.746 100.977 114.458V105.894C100.976 105.605 100.862 105.329 100.658 105.125C100.454 104.92 100.177 104.806 99.8883 104.805H83.8178Z" fill="#3F3D56"/>
<path d="M124.344 115.923H108.273C107.885 115.922 107.513 115.768 107.238 115.493C106.963 115.218 106.809 114.846 106.809 114.457V105.894C106.809 105.506 106.963 105.133 107.238 104.858C107.513 104.584 107.885 104.429 108.273 104.429H124.344C124.732 104.429 125.105 104.584 125.379 104.858C125.654 105.133 125.808 105.506 125.809 105.894V114.457C125.808 114.846 125.654 115.218 125.379 115.493C125.105 115.768 124.732 115.922 124.344 115.923ZM108.273 104.805C107.985 104.805 107.708 104.92 107.504 105.124C107.3 105.329 107.185 105.605 107.185 105.894V114.457C107.185 114.746 107.3 115.023 107.504 115.227C107.708 115.431 107.985 115.546 108.273 115.546H124.344C124.632 115.546 124.909 115.431 125.113 115.227C125.317 115.023 125.432 114.746 125.432 114.457V105.894C125.432 105.605 125.317 105.329 125.113 105.124C124.909 104.92 124.632 104.805 124.344 104.805H108.273Z" fill="#3F3D56"/>
<path d="M101.354 126.775C101.359 126.345 101.194 125.932 100.894 125.624C100.594 125.317 100.184 125.141 99.755 125.136H91.854V144.612H101.354V126.775Z" fill="#3F3D56"/>
<path d="M92.0413 144.424H82.165V126.829C82.1656 126.355 82.354 125.901 82.6891 125.566C83.0241 125.231 83.4784 125.042 83.9522 125.042H92.0413V144.424ZM82.5413 144.047H91.665V125.418H83.9522C83.5781 125.418 83.2195 125.567 82.955 125.832C82.6905 126.096 82.5417 126.455 82.5413 126.829V144.047Z" fill="#3F3D56"/>
<path d="M83.3871 136.05C83.6988 136.05 83.9515 135.797 83.9515 135.485C83.9515 135.173 83.6988 134.921 83.3871 134.921C83.0754 134.921 82.8228 135.173 82.8228 135.485C82.8228 135.797 83.0754 136.05 83.3871 136.05Z" fill="#3F3D56"/>
</svg>
