<svg width="176" height="183" viewBox="0 0 176 183" fill="none" xmlns="http://www.w3.org/2000/svg">
<g clip-path="url(#clip0_1578_359)">
<path d="M50.9379 223.013C48.9892 223.135 47.9122 220.714 49.3865 219.303L49.5332 218.72C49.5139 218.673 49.4945 218.626 49.4749 218.58C47.5043 213.881 40.8253 213.913 38.8714 218.619C37.1371 222.796 34.9291 226.98 34.3855 231.396C34.1418 233.346 34.2514 235.332 34.684 237.245C30.6204 228.368 28.4819 218.675 28.4819 208.928C28.4819 206.478 28.616 204.029 28.8901 201.586C29.1156 199.588 29.4263 197.602 29.8284 195.634C32.0033 184.997 36.7128 174.865 43.5058 166.403C46.7713 164.618 49.4946 161.827 51.1395 158.483C51.7304 157.276 52.1935 155.979 52.4128 154.657C52.0412 154.705 51.0115 149.046 51.2918 148.698C50.7739 147.912 49.847 147.522 49.2813 146.755C46.4682 142.941 42.5925 143.607 40.5692 148.79C36.247 150.971 36.2051 154.589 38.8572 158.068C40.5445 160.282 40.7764 163.277 42.2568 165.647C42.1045 165.842 41.9461 166.031 41.7938 166.226C39.0007 169.809 36.585 173.659 34.5486 177.704C35.1241 173.208 34.2744 167.792 32.8258 164.301C31.1768 160.323 28.086 156.973 25.3642 153.534C22.0949 149.403 15.3908 151.206 14.8148 156.442C14.8092 156.493 14.8038 156.543 14.7985 156.594C15.2027 156.822 15.5988 157.064 15.9857 157.32C18.1924 158.78 17.4298 162.201 14.815 162.604L14.7558 162.613C14.9021 164.069 15.1519 165.513 15.5174 166.933C12.0256 180.436 19.564 185.355 30.3279 185.576C30.5655 185.697 30.7971 185.819 31.0347 185.935C29.9441 189.006 29.0729 192.155 28.4271 195.348C27.8484 198.168 27.4462 201.02 27.2208 203.883C26.9406 207.496 26.9649 211.127 27.2696 214.734L27.2513 214.606C26.4776 210.634 24.3209 206.923 21.1894 204.352C16.5244 200.52 9.93364 199.109 4.90095 196.029C2.47835 194.546 -0.626025 196.462 -0.203217 199.271L-0.182633 199.405C0.566722 199.71 1.29779 200.063 2.00451 200.459C2.40879 200.687 2.80485 200.93 3.19173 201.185C5.39848 202.645 4.63582 206.066 2.02108 206.469L1.96183 206.478C1.9192 206.485 1.88262 206.491 1.84004 206.497C3.12553 209.549 4.91664 212.382 7.15864 214.825C9.34193 226.613 18.7192 227.732 28.75 224.299H28.7561C29.8528 229.075 31.4551 233.742 33.5143 238.189H50.512C50.573 238.001 50.6278 237.806 50.6826 237.617C49.1108 237.714 47.5268 237.623 45.9793 237.336C47.2404 235.789 48.5015 234.229 49.7626 232.682C49.7931 232.651 49.8175 232.621 49.8418 232.59C50.4815 231.799 51.1273 231.013 51.767 230.221L51.7674 230.22C51.8074 227.788 51.516 225.365 50.9385 223.013L50.9379 223.013Z" fill="#F2F2F2"/>
<path d="M112.801 72.1164C112.801 72.0009 112.796 71.8904 112.791 71.7749C112.791 71.6794 112.786 71.584 112.781 71.4885H107.191C107.06 71.6241 106.929 71.7497 106.794 71.8602C106.733 71.9155 106.668 71.9657 106.608 72.0109C106.563 72.0511 106.517 72.0813 106.472 72.1114C106.347 72.1968 106.226 72.2721 106.101 72.3324C106.055 72.3575 106.01 72.3776 105.965 72.3927C105.854 72.4429 105.744 72.473 105.633 72.4931H112.806C112.806 72.3676 112.806 72.242 112.801 72.1164ZM101.665 72.242C101.489 72.2319 101.319 72.2169 101.143 72.2068C100.585 72.1666 100.018 72.1315 99.45 72.0913C99.1637 72.0712 98.8824 72.0561 98.6012 72.036C98.571 72.036 98.5459 72.026 98.5158 72.0159C98.5007 72.0059 98.4856 72.0009 98.4706 71.9858C98.4404 71.9707 98.4053 71.9406 98.3751 71.9054C98.345 71.8753 98.3148 71.8351 98.2847 71.7949C98.2596 71.7598 98.2295 71.7146 98.2044 71.6744C98.1692 71.6141 98.1391 71.5538 98.1039 71.4885H96.0595C96.0294 71.5438 95.9992 71.589 95.9741 71.6292L95.9641 71.6392C95.939 71.6744 95.9139 71.7095 95.8888 71.7347C95.8284 71.8 95.7732 71.8351 95.718 71.8301C95.6125 71.82 95.507 71.81 95.4065 71.7849C95.3663 71.7798 95.3312 71.7698 95.291 71.7598C95.2558 71.7497 95.2157 71.7397 95.1805 71.7296C95.1001 71.7045 95.0197 71.6744 94.9444 71.6442C94.9243 71.6342 94.9042 71.6292 94.8841 71.6191C94.7987 71.5789 94.7133 71.5387 94.628 71.4885H88.2889C88.0428 71.815 87.8167 72.1516 87.6008 72.4931H105.046C104.026 72.4027 102.871 72.3223 101.665 72.242ZM112.801 72.1164C112.801 72.0009 112.796 71.8904 112.791 71.7749C112.791 71.6794 112.786 71.584 112.781 71.4885H107.191C107.06 71.6241 106.929 71.7497 106.794 71.8602C106.733 71.9155 106.668 71.9657 106.608 72.0109C106.563 72.0511 106.517 72.0813 106.472 72.1114C106.347 72.1968 106.226 72.2721 106.101 72.3324C106.055 72.3575 106.01 72.3776 105.965 72.3927C105.854 72.4429 105.744 72.473 105.633 72.4931H112.806C112.806 72.3676 112.806 72.242 112.801 72.1164ZM101.665 72.242C101.489 72.2319 101.319 72.2169 101.143 72.2068C100.585 72.1666 100.018 72.1315 99.45 72.0913C99.1637 72.0712 98.8824 72.0561 98.6012 72.036C98.571 72.036 98.5459 72.026 98.5158 72.0159C98.5007 72.0059 98.4856 72.0009 98.4706 71.9858C98.4404 71.9707 98.4053 71.9406 98.3751 71.9054C98.345 71.8753 98.3148 71.8351 98.2847 71.7949C98.2596 71.7598 98.2295 71.7146 98.2044 71.6744C98.1692 71.6141 98.1391 71.5538 98.1039 71.4885H96.0595C96.0294 71.5438 95.9992 71.589 95.9741 71.6292L95.9641 71.6392C95.939 71.6744 95.9139 71.7095 95.8888 71.7347C95.8284 71.8 95.7732 71.8351 95.718 71.8301C95.6125 71.82 95.507 71.81 95.4065 71.7849C95.3663 71.7798 95.3312 71.7698 95.291 71.7598C95.2558 71.7497 95.2157 71.7397 95.1805 71.7296C95.1001 71.7045 95.0197 71.6744 94.9444 71.6442C94.9243 71.6342 94.9042 71.6292 94.8841 71.6191C94.7987 71.5789 94.7133 71.5387 94.628 71.4885H88.2889C88.0428 71.815 87.8167 72.1516 87.6008 72.4931H105.046C104.026 72.4027 102.871 72.3223 101.665 72.242ZM166.688 71.4885H23.0499C17.7807 71.4885 13.4961 75.7732 13.4961 81.0423V229.201C13.4961 234.471 17.7807 238.755 23.0499 238.755H166.688C171.957 238.755 176.242 234.471 176.242 229.201V81.0423C176.242 75.7732 171.957 71.4885 166.688 71.4885ZM175.237 229.201C175.237 233.918 171.405 237.751 166.688 237.751H23.0499C18.3333 237.751 14.5007 233.918 14.5007 229.201V81.0423C14.5007 76.3257 18.3333 72.4931 23.0499 72.4931H166.688C171.405 72.4931 175.237 76.3257 175.237 81.0423V229.201ZM101.665 72.242C101.489 72.2319 101.319 72.2169 101.143 72.2068C100.585 72.1666 100.018 72.1315 99.45 72.0913C99.1637 72.0712 98.8824 72.0561 98.6012 72.036C98.571 72.036 98.5459 72.026 98.5158 72.0159C98.5007 72.0059 98.4856 72.0009 98.4706 71.9858C98.4404 71.9707 98.4053 71.9406 98.3751 71.9054C98.345 71.8753 98.3148 71.8351 98.2847 71.7949C98.2596 71.7598 98.2295 71.7146 98.2044 71.6744C98.1692 71.6141 98.1391 71.5538 98.1039 71.4885H96.0595C96.0294 71.5438 95.9992 71.589 95.9741 71.6292L95.9641 71.6392C95.939 71.6744 95.9139 71.7095 95.8888 71.7347C95.8284 71.8 95.7732 71.8351 95.718 71.8301C95.6125 71.82 95.507 71.81 95.4065 71.7849C95.3663 71.7798 95.3312 71.7698 95.291 71.7598C95.2558 71.7497 95.2157 71.7397 95.1805 71.7296C95.1001 71.7045 95.0197 71.6744 94.9444 71.6442C94.9243 71.6342 94.9042 71.6292 94.8841 71.6191C94.7987 71.5789 94.7133 71.5387 94.628 71.4885H88.2889C88.0428 71.815 87.8167 72.1516 87.6008 72.4931H105.046C104.026 72.4027 102.871 72.3223 101.665 72.242ZM112.801 72.1164C112.801 72.0009 112.796 71.8904 112.791 71.7749C112.791 71.6794 112.786 71.584 112.781 71.4885H107.191C107.06 71.6241 106.929 71.7497 106.794 71.8602C106.733 71.9155 106.668 71.9657 106.608 72.0109C106.563 72.0511 106.517 72.0813 106.472 72.1114C106.347 72.1968 106.226 72.2721 106.101 72.3324C106.055 72.3575 106.01 72.3776 105.965 72.3927C105.854 72.4429 105.744 72.473 105.633 72.4931H112.806C112.806 72.3676 112.806 72.242 112.801 72.1164ZM101.665 72.242C101.489 72.2319 101.319 72.2169 101.143 72.2068C100.585 72.1666 100.018 72.1315 99.45 72.0913C99.1637 72.0712 98.8824 72.0561 98.6012 72.036C98.571 72.036 98.5459 72.026 98.5158 72.0159C98.5007 72.0059 98.4856 72.0009 98.4706 71.9858C98.4404 71.9707 98.4053 71.9406 98.3751 71.9054C98.345 71.8753 98.3148 71.8351 98.2847 71.7949C98.2596 71.7598 98.2295 71.7146 98.2044 71.6744C98.1692 71.6141 98.1391 71.5538 98.1039 71.4885H96.0595C96.0294 71.5438 95.9992 71.589 95.9741 71.6292L95.9641 71.6392C95.939 71.6744 95.9139 71.7095 95.8888 71.7347C95.8284 71.8 95.7732 71.8351 95.718 71.8301C95.6125 71.82 95.507 71.81 95.4065 71.7849C95.3663 71.7798 95.3312 71.7698 95.291 71.7598C95.2558 71.7497 95.2157 71.7397 95.1805 71.7296C95.1001 71.7045 95.0197 71.6744 94.9444 71.6442C94.9243 71.6342 94.9042 71.6292 94.8841 71.6191C94.7987 71.5789 94.7133 71.5387 94.628 71.4885H88.2889C88.0428 71.815 87.8167 72.1516 87.6008 72.4931H105.046C104.026 72.4027 102.871 72.3223 101.665 72.242ZM112.801 72.1164C112.801 72.0009 112.796 71.8904 112.791 71.7749C112.791 71.6794 112.786 71.584 112.781 71.4885H107.191C107.06 71.6241 106.929 71.7497 106.794 71.8602C106.733 71.9155 106.668 71.9657 106.608 72.0109C106.563 72.0511 106.517 72.0813 106.472 72.1114C106.347 72.1968 106.226 72.2721 106.101 72.3324C106.055 72.3575 106.01 72.3776 105.965 72.3927C105.854 72.4429 105.744 72.473 105.633 72.4931H112.806C112.806 72.3676 112.806 72.242 112.801 72.1164Z" fill="#3F3D56"/>
<path d="M133.866 72.5753C129.858 74.0454 127.852 58.9464 126.852 58.609C125.922 58.2955 124.772 73.6124 123.845 73.3104C101.41 65.9998 92.0777 48.2438 72.7287 53.255C67.322 36.1413 68.8745 17.5642 74.7327 12.0913C83.8657 -0.0518189 101.546 0.366765 113.722 2.4593C123.245 4.09566 129.657 13.3845 127.394 22.7776C127.242 23.4104 126.633 24.0071 126.831 24.5875C127.675 27.0675 134.599 61.0415 133.866 72.5753Z" fill="#2F2E41"/>
<path d="M102.789 46.7134C114.411 46.7134 123.832 37.2922 123.832 25.6706C123.832 14.049 114.411 4.62781 102.789 4.62781C91.1673 4.62781 81.7461 14.049 81.7461 25.6706C81.7461 37.2922 91.1673 46.7134 102.789 46.7134Z" fill="#FFB6B6"/>
<path d="M121.939 146.917H63.0312C67.9688 135.899 71.0043 125.406 66.259 117.06L121.939 113.832C119.156 125.1 118.816 136.157 121.939 146.917Z" fill="#FFB6B6"/>
<path d="M143.258 238.755H98.4076L97.9203 237.751L90.7676 223.068L90.0593 237.751L90.0091 238.755H45.8266C45.8065 238.419 45.7814 238.082 45.7613 237.751C43.0388 195.733 52.8287 167.253 58.57 154.509L58.575 154.504C60.8303 149.491 62.4678 146.914 62.4678 146.914L63.0354 146.909H63.0405L74.508 146.708H74.513L84.6696 146.538L92.3448 146.412L95.4239 146.357H95.4289L97.3578 146.327L106.947 146.161L115.511 146.015L121.659 145.915H121.83L122.744 149.858V149.863L122.779 150.039V150.044L122.935 150.692L122.94 150.712L123.251 152.073V152.083L123.272 152.158V152.163L123.347 152.49L123.352 152.505L124.075 155.634L125.246 160.723L126.788 167.378L128.732 175.827L129.716 180.081L131.067 185.943L143.022 237.751L143.258 238.755Z" fill="#2F2E41"/>
<path d="M113.435 48.7994L89.9922 47.9814L80.7256 60.4077L75.8497 61.4665C68.5406 63.0537 63.5266 69.7948 64.109 77.2515L63.711 132.889L62.3828 141.479L123.532 122.739L135.006 65.7989L118.658 59.9258L113.435 48.7994Z" fill="#FF6C11"/>
<path d="M118.172 184.448C118.844 182.081 119.995 180.062 121.366 178.622L126.345 155.668L137.197 158.357L130.978 181.352C131.387 183.297 131.305 185.62 130.633 187.987C129.098 193.394 125.063 196.985 121.622 196.008C118.181 195.031 116.636 189.855 118.172 184.448Z" fill="#FFB6B6"/>
<path d="M119.672 60.5003C119.672 60.5003 139.71 59.4797 141.169 72.7674C142.628 86.0551 147.296 117.643 147.296 117.643L136.476 168.724L121.046 166.58L127.865 101.56L119.672 60.5003Z" fill="#FF6C11"/>
<path d="M132.774 47.9129C131.179 55.4059 126.392 60.1722 118.903 61.7839C112.18 63.2305 106.819 55.5717 105.032 47.9129C103.291 40.4526 111.394 35.5606 118.903 34.042C126.476 32.5102 133.624 43.9133 132.774 47.9129Z" fill="#3F3D56"/>
<path d="M109.714 44.4239C110.184 44.4239 110.565 44.0429 110.565 43.5729C110.565 43.1029 110.184 42.7219 109.714 42.7219C109.244 42.7219 108.863 43.1029 108.863 43.5729C108.863 44.0429 109.244 44.4239 109.714 44.4239Z" fill="white"/>
<path d="M129.371 44.4239C129.84 44.4239 130.221 44.0429 130.221 43.5729C130.221 43.1029 129.84 42.7219 129.371 42.7219C128.901 42.7219 128.52 43.1029 128.52 43.5729C128.52 44.0429 128.901 44.4239 129.371 44.4239Z" fill="white"/>
<path d="M117.031 45.9556C117.501 45.9556 117.882 45.5746 117.882 45.1046C117.882 44.6347 117.501 44.2537 117.031 44.2537C116.561 44.2537 116.18 44.6347 116.18 45.1046C116.18 45.5746 116.561 45.9556 117.031 45.9556Z" fill="white"/>
<path d="M123.328 41.1052C123.798 41.1052 124.179 40.7242 124.179 40.2542C124.179 39.7842 123.798 39.4032 123.328 39.4032C122.858 39.4032 122.477 39.7842 122.477 40.2542C122.477 40.7242 122.858 41.1052 123.328 41.1052Z" fill="white"/>
<path d="M115.925 37.8714C116.776 38.1267 115.544 38.7223 115.074 38.7223C114.604 38.7223 114.223 38.3414 114.223 37.8714C114.223 37.4014 114.604 37.0204 115.074 37.0204C115.544 37.0204 115.074 37.6161 115.925 37.8714Z" fill="white"/>
<path d="M121.284 49.1894C122.135 49.4447 120.903 50.0403 120.433 50.0403C119.963 50.0403 119.582 49.6593 119.582 49.1894C119.582 48.7194 119.963 48.3384 120.433 48.3384C120.903 48.3384 120.433 48.9341 121.284 49.1894Z" fill="white"/>
<path d="M120.944 37.7012C121.795 37.9565 120.563 38.5522 120.093 38.5522C119.623 38.5522 119.242 38.1712 119.242 37.7012C119.242 37.2312 119.623 36.8502 120.093 36.8502C120.563 36.8502 120.093 37.4459 120.944 37.7012Z" fill="white"/>
<path d="M122.561 56.2526C123.412 56.5079 122.18 57.1036 121.71 57.1036C121.24 57.1036 120.859 56.7226 120.859 56.2526C120.859 55.7826 121.24 55.4016 121.71 55.4016C122.18 55.4016 121.71 55.9973 122.561 56.2526Z" fill="white"/>
<path d="M112.093 53.8698C112.944 54.1251 111.712 54.7208 111.242 54.7208C110.772 54.7208 110.391 54.3398 110.391 53.8698C110.391 53.3998 110.772 53.0188 111.242 53.0188C111.712 53.0188 111.242 53.6145 112.093 53.8698Z" fill="#FF6C11"/>
<path d="M127.327 49.0193C128.178 49.2746 126.946 49.8703 126.476 49.8703C126.006 49.8703 125.625 49.4893 125.625 49.0193C125.625 48.5493 126.006 48.1683 126.476 48.1683C126.946 48.1683 126.476 48.764 127.327 49.0193Z" fill="white"/>
<path d="M111.077 49.0193C111.928 49.2746 110.696 49.8703 110.226 49.8703C109.756 49.8703 109.375 49.4893 109.375 49.0193C109.375 48.5493 109.756 48.1683 110.226 48.1683C110.696 48.1683 110.226 48.764 111.077 49.0193Z" fill="#FF6C11"/>
<path d="M116.858 59.2309C117.709 59.4862 116.477 60.0818 116.007 60.0818C115.537 60.0818 115.156 59.7008 115.156 59.2309C115.156 58.7609 115.537 58.3799 116.007 58.3799C116.477 58.3799 116.007 58.9756 116.858 59.2309Z" fill="white"/>
<path d="M111.851 61.3816C110.285 63.2802 108.421 64.6679 106.588 65.4374L92.8199 84.4659L83.957 77.6495L98.8778 59.081C99.2836 57.1348 100.29 55.0401 101.855 53.1415C105.431 48.8042 110.567 47.1327 113.327 49.4082C116.087 51.6836 115.426 57.0443 111.851 61.3816Z" fill="#FFB6B6"/>
<path d="M90.7861 74.7806C93.0642 63.5358 85.6511 47.2596 85.4883 38.8389C85.3435 31.3467 87.1368 31.9238 93.0228 27.286L96.0367 19.7514C98.3008 18.8926 100.486 21.6067 101.596 23.3561C102.163 24.2494 103.443 24.2619 104.035 23.3857C104.323 22.9604 104.601 22.6507 104.794 22.6644C105.602 22.7213 106.186 25.9113 107.012 25.9667C110.485 26.1997 118.355 26.0324 121.152 26.2814C124.199 26.5527 123.507 19.0724 123.833 19.6582C126.374 24.2319 125.006 18.2445 121.722 15.7351L126.608 16.2353C129.525 25.5412 132.344 34.781 129.691 40.3458L124.827 26.6725C124.827 12.8372 117.821 -3.38863 97.7799 0.619522C84.1406 -0.744469 71.7669 8.61746 69.3304 22.1065C68.1453 28.6672 66.3032 35.2804 65.0538 41.0417C63.9405 46.1756 65.5038 53.1474 70.7248 53.7275L74.2731 61.9448C74.2731 66.7649 80.7712 70.7888 85.4013 70.1161C87.78 69.7704 90.5442 73.9739 90.8491 75.0047L90.7861 74.7806Z" fill="#2F2E41"/>
<path d="M147.699 132.493C147.278 130.715 146.368 129.163 145.118 127.972L145.113 127.967C143.43 126.345 141.124 125.375 138.613 125.375H96.4897C89.8292 125.375 84.3893 130.534 84.108 137.129C84.0326 138.757 84.0628 140.374 84.1733 141.987C84.2687 143.519 84.4496 145.036 84.6756 146.537C84.6957 146.663 84.7108 146.789 84.7359 146.914V146.919C85.8008 153.56 87.9958 159.914 90.1909 165.575C94.3449 176.289 104.853 183.492 116.351 183.492C117.079 183.492 117.797 183.462 118.511 183.406H118.516C122.504 183.105 126.311 181.945 129.722 180.081C130.38 179.73 131.013 179.353 131.631 178.941C131.631 178.941 131.636 178.941 131.636 178.936C136.207 175.962 139.909 171.658 142.169 166.414C146.484 156.398 150.522 144.528 147.699 132.493Z" fill="white"/>
<path d="M121.766 162.145C120.171 169.638 115.384 174.404 107.895 176.016C101.172 177.463 95.8109 169.804 94.0238 162.145C92.2831 154.685 100.386 149.793 107.895 148.274C115.468 146.742 122.617 158.146 121.766 162.145Z" fill="#3F3D56"/>
<path d="M98.7065 158.656C99.1764 158.656 99.5574 158.275 99.5574 157.805C99.5574 157.335 99.1764 156.954 98.7065 156.954C98.2365 156.954 97.8555 157.335 97.8555 157.805C97.8555 158.275 98.2365 158.656 98.7065 158.656Z" fill="#FF6C11"/>
<path d="M118.363 158.656C118.833 158.656 119.214 158.275 119.214 157.805C119.214 157.335 118.833 156.954 118.363 156.954C117.893 156.954 117.512 157.335 117.512 157.805C117.512 158.275 117.893 158.656 118.363 158.656Z" fill="#FF6C11"/>
<path d="M106.023 160.188C106.493 160.188 106.874 159.807 106.874 159.337C106.874 158.867 106.493 158.486 106.023 158.486C105.553 158.486 105.172 158.867 105.172 159.337C105.172 159.807 105.553 160.188 106.023 160.188Z" fill="#FF6C11"/>
<path d="M112.32 155.337C112.79 155.337 113.171 154.956 113.171 154.486C113.171 154.016 112.79 153.635 112.32 153.635C111.85 153.635 111.469 154.016 111.469 154.486C111.469 154.956 111.85 155.337 112.32 155.337Z" fill="#FF6C11"/>
<path d="M104.917 152.104C105.768 152.359 104.536 152.955 104.066 152.955C103.596 152.955 103.215 152.574 103.215 152.104C103.215 151.634 103.596 151.253 104.066 151.253C104.536 151.253 104.066 151.848 104.917 152.104Z" fill="#FF6C11"/>
<path d="M110.276 163.422C111.127 163.677 109.895 164.273 109.425 164.273C108.955 164.273 108.574 163.892 108.574 163.422C108.574 162.952 108.955 162.571 109.425 162.571C109.895 162.571 109.425 163.166 110.276 163.422Z" fill="#FF6C11"/>
<path d="M109.936 151.933C110.787 152.189 109.555 152.784 109.085 152.784C108.615 152.784 108.234 152.403 108.234 151.933C108.234 151.463 108.615 151.082 109.085 151.082C109.555 151.082 109.085 151.678 109.936 151.933Z" fill="#FF6C11"/>
<path d="M111.554 170.485C112.405 170.74 111.173 171.336 110.703 171.336C110.233 171.336 109.852 170.955 109.852 170.485C109.852 170.015 110.233 169.634 110.703 169.634C111.173 169.634 110.703 170.229 111.554 170.485Z" fill="#FF6C11"/>
<path d="M101.085 168.102C101.936 168.357 100.704 168.953 100.234 168.953C99.7638 168.953 99.3828 168.572 99.3828 168.102C99.3828 167.632 99.7638 167.251 100.234 167.251C100.704 167.251 100.234 167.847 101.085 168.102Z" fill="#FF6C11"/>
<path d="M116.319 163.251C117.17 163.507 115.938 164.102 115.468 164.102C114.998 164.102 114.617 163.721 114.617 163.251C114.617 162.782 114.998 162.401 115.468 162.401C115.938 162.401 115.468 162.996 116.319 163.251Z" fill="#FF6C11"/>
<path d="M100.069 163.251C100.92 163.507 99.6881 164.102 99.2182 164.102C98.7482 164.102 98.3672 163.721 98.3672 163.251C98.3672 162.782 98.7482 162.401 99.2182 162.401C99.6881 162.401 99.2182 162.996 100.069 163.251Z" fill="#FF6C11"/>
<path d="M105.85 173.463C106.701 173.718 105.469 174.314 104.999 174.314C104.529 174.314 104.148 173.933 104.148 173.463C104.148 172.993 104.529 172.612 104.999 172.612C105.469 172.612 104.999 173.208 105.85 173.463Z" fill="#FF6C11"/>
<path d="M133.789 143.106C132.195 150.599 127.407 155.366 119.918 156.977C113.195 158.424 107.834 150.765 106.047 143.106C104.306 135.646 112.41 130.754 119.918 129.235C127.492 127.704 134.64 139.107 133.789 143.106Z" fill="#3F3D56"/>
<path d="M110.73 139.617C111.2 139.617 111.581 139.236 111.581 138.766C111.581 138.296 111.2 137.915 110.73 137.915C110.26 137.915 109.879 138.296 109.879 138.766C109.879 139.236 110.26 139.617 110.73 139.617Z" fill="#FF6C11"/>
<path d="M130.386 139.617C130.856 139.617 131.237 139.236 131.237 138.766C131.237 138.296 130.856 137.915 130.386 137.915C129.916 137.915 129.535 138.296 129.535 138.766C129.535 139.236 129.916 139.617 130.386 139.617Z" fill="#FF6C11"/>
<path d="M118.046 141.149C118.516 141.149 118.897 140.768 118.897 140.298C118.897 139.828 118.516 139.447 118.046 139.447C117.576 139.447 117.195 139.828 117.195 140.298C117.195 140.768 117.576 141.149 118.046 141.149Z" fill="#FF6C11"/>
<path d="M124.343 136.299C124.813 136.299 125.194 135.918 125.194 135.448C125.194 134.978 124.813 134.597 124.343 134.597C123.873 134.597 123.492 134.978 123.492 135.448C123.492 135.918 123.873 136.299 124.343 136.299Z" fill="#FF6C11"/>
<path d="M116.944 133.065C117.795 133.32 116.563 133.916 116.093 133.916C115.623 133.916 115.242 133.535 115.242 133.065C115.242 132.595 115.623 132.214 116.093 132.214C116.563 132.214 116.093 132.81 116.944 133.065Z" fill="#FF6C11"/>
<path d="M122.3 144.383C123.151 144.638 121.919 145.234 121.449 145.234C120.979 145.234 120.598 144.853 120.598 144.383C120.598 143.913 120.979 143.532 121.449 143.532C121.919 143.532 121.449 144.128 122.3 144.383Z" fill="#FF6C11"/>
<path d="M121.96 132.895C122.811 133.15 121.579 133.746 121.109 133.746C120.639 133.746 120.258 133.365 120.258 132.895C120.258 132.425 120.639 132.044 121.109 132.044C121.579 132.044 121.109 132.639 121.96 132.895Z" fill="#FF6C11"/>
<path d="M123.577 151.446C124.428 151.701 123.196 152.297 122.726 152.297C122.256 152.297 121.875 151.916 121.875 151.446C121.875 150.976 122.256 150.595 122.726 150.595C123.196 150.595 122.726 151.191 123.577 151.446Z" fill="#FF6C11"/>
<path d="M113.108 149.063C113.959 149.319 112.727 149.914 112.257 149.914C111.787 149.914 111.406 149.533 111.406 149.063C111.406 148.593 111.787 148.212 112.257 148.212C112.727 148.212 112.257 148.808 113.108 149.063Z" fill="#FF6C11"/>
<path d="M128.343 144.213C129.194 144.468 127.962 145.064 127.492 145.064C127.022 145.064 126.641 144.683 126.641 144.213C126.641 143.743 127.022 143.362 127.492 143.362C127.962 143.362 127.492 143.957 128.343 144.213Z" fill="#FF6C11"/>
<path d="M112.093 144.213C112.944 144.468 111.712 145.064 111.242 145.064C110.772 145.064 110.391 144.683 110.391 144.213C110.391 143.743 110.772 143.362 111.242 143.362C111.712 143.362 111.242 143.957 112.093 144.213Z" fill="#FF6C11"/>
<path d="M117.874 154.424C118.725 154.68 117.493 155.275 117.023 155.275C116.553 155.275 116.172 154.894 116.172 154.424C116.172 153.954 116.553 153.573 117.023 153.573C117.493 153.573 117.023 154.169 117.874 154.424Z" fill="#FF6C11"/>
<path d="M117.758 140.1C116.164 147.593 111.376 152.36 103.887 153.971C97.1642 155.418 91.803 147.759 90.016 140.1C88.2752 132.64 96.3783 127.748 103.887 126.229C111.461 124.698 118.609 136.101 117.758 140.1Z" fill="#3F3D56"/>
<path d="M94.6986 136.611C95.1686 136.611 95.5496 136.23 95.5496 135.76C95.5496 135.29 95.1686 134.909 94.6986 134.909C94.2286 134.909 93.8477 135.29 93.8477 135.76C93.8477 136.23 94.2286 136.611 94.6986 136.611Z" fill="#FF6C11"/>
<path d="M114.355 136.611C114.825 136.611 115.206 136.23 115.206 135.76C115.206 135.29 114.825 134.909 114.355 134.909C113.885 134.909 113.504 135.29 113.504 135.76C113.504 136.23 113.885 136.611 114.355 136.611Z" fill="#FF6C11"/>
<path d="M102.015 138.143C102.485 138.143 102.866 137.762 102.866 137.292C102.866 136.822 102.485 136.441 102.015 136.441C101.545 136.441 101.164 136.822 101.164 137.292C101.164 137.762 101.545 138.143 102.015 138.143Z" fill="#FF6C11"/>
<path d="M108.312 133.293C108.782 133.293 109.163 132.912 109.163 132.442C109.163 131.972 108.782 131.591 108.312 131.591C107.842 131.591 107.461 131.972 107.461 132.442C107.461 132.912 107.842 133.293 108.312 133.293Z" fill="#FF6C11"/>
<path d="M100.909 130.059C101.76 130.314 100.528 130.91 100.058 130.91C99.588 130.91 99.207 130.529 99.207 130.059C99.207 129.589 99.588 129.208 100.058 129.208C100.528 129.208 100.058 129.803 100.909 130.059Z" fill="#FF6C11"/>
<path d="M106.268 141.377C107.119 141.632 105.887 142.228 105.417 142.228C104.947 142.228 104.566 141.847 104.566 141.377C104.566 140.907 104.947 140.526 105.417 140.526C105.887 140.526 105.417 141.121 106.268 141.377Z" fill="#FF6C11"/>
<path d="M105.929 129.889C106.78 130.144 105.548 130.74 105.078 130.74C104.608 130.74 104.227 130.359 104.227 129.889C104.227 129.419 104.608 129.038 105.078 129.038C105.548 129.038 105.078 129.633 105.929 129.889Z" fill="#FF6C11"/>
<path d="M107.546 148.44C108.397 148.695 107.165 149.291 106.695 149.291C106.225 149.291 105.844 148.91 105.844 148.44C105.844 147.97 106.225 147.589 106.695 147.589C107.165 147.589 106.695 148.185 107.546 148.44Z" fill="#FF6C11"/>
<path d="M97.077 146.057C97.9279 146.312 96.696 146.908 96.226 146.908C95.756 146.908 95.375 146.527 95.375 146.057C95.375 145.587 95.756 145.206 96.226 145.206C96.696 145.206 96.226 145.802 97.077 146.057Z" fill="#FF6C11"/>
<path d="M112.311 141.207C113.162 141.462 111.93 142.058 111.46 142.058C110.99 142.058 110.609 141.677 110.609 141.207C110.609 140.737 110.99 140.356 111.46 140.356C111.93 140.356 111.46 140.951 112.311 141.207Z" fill="#FF6C11"/>
<path d="M96.0613 141.207C96.9123 141.462 95.6803 142.058 95.2104 142.058C94.7404 142.058 94.3594 141.677 94.3594 141.207C94.3594 140.737 94.7404 140.356 95.2104 140.356C95.6803 140.356 95.2104 140.951 96.0613 141.207Z" fill="#FF6C11"/>
<path d="M101.843 151.418C102.694 151.674 101.462 152.269 100.992 152.269C100.522 152.269 100.141 151.888 100.141 151.418C100.141 150.948 100.522 150.567 100.992 150.567C101.462 150.567 100.992 151.163 101.843 151.418Z" fill="#FF6C11"/>
<path d="M129.785 121.061C128.191 128.554 123.404 133.321 115.914 134.932C109.192 136.379 103.83 128.72 102.043 121.061C100.303 113.601 108.406 108.709 115.914 107.191C123.488 105.659 130.636 117.062 129.785 121.061Z" fill="#3F3D56"/>
<path d="M106.726 117.572C107.196 117.572 107.577 117.191 107.577 116.721C107.577 116.251 107.196 115.87 106.726 115.87C106.256 115.87 105.875 116.251 105.875 116.721C105.875 117.191 106.256 117.572 106.726 117.572Z" fill="white"/>
<path d="M126.382 117.572C126.852 117.572 127.233 117.191 127.233 116.721C127.233 116.251 126.852 115.87 126.382 115.87C125.912 115.87 125.531 116.251 125.531 116.721C125.531 117.191 125.912 117.572 126.382 117.572Z" fill="white"/>
<path d="M114.042 119.104C114.512 119.104 114.893 118.723 114.893 118.253C114.893 117.783 114.512 117.402 114.042 117.402C113.572 117.402 113.191 117.783 113.191 118.253C113.191 118.723 113.572 119.104 114.042 119.104Z" fill="white"/>
<path d="M120.339 114.254C120.809 114.254 121.19 113.873 121.19 113.403C121.19 112.933 120.809 112.552 120.339 112.552C119.869 112.552 119.488 112.933 119.488 113.403C119.488 113.873 119.869 114.254 120.339 114.254Z" fill="white"/>
<path d="M112.936 111.02C113.787 111.275 112.555 111.871 112.085 111.871C111.615 111.871 111.234 111.49 111.234 111.02C111.234 110.55 111.615 110.169 112.085 110.169C112.555 110.169 112.085 110.765 112.936 111.02Z" fill="white"/>
<path d="M118.296 122.338C119.147 122.593 117.915 123.189 117.445 123.189C116.975 123.189 116.594 122.808 116.594 122.338C116.594 121.868 116.975 121.487 117.445 121.487C117.915 121.487 117.445 122.083 118.296 122.338Z" fill="white"/>
<path d="M117.956 110.85C118.807 111.105 117.575 111.701 117.105 111.701C116.635 111.701 116.254 111.32 116.254 110.85C116.254 110.38 116.635 109.999 117.105 109.999C117.575 109.999 117.105 110.594 117.956 110.85Z" fill="white"/>
<path d="M119.573 129.401C120.424 129.656 119.192 130.252 118.722 130.252C118.252 130.252 117.871 129.871 117.871 129.401C117.871 128.931 118.252 128.55 118.722 128.55C119.192 128.55 118.722 129.146 119.573 129.401Z" fill="#FF6C11"/>
<path d="M109.104 127.018C109.955 127.274 108.723 127.869 108.253 127.869C107.783 127.869 107.402 127.488 107.402 127.018C107.402 126.548 107.783 126.167 108.253 126.167C108.723 126.167 108.253 126.763 109.104 127.018Z" fill="#FF6C11"/>
<path d="M124.339 122.168C125.19 122.423 123.958 123.019 123.488 123.019C123.018 123.019 122.637 122.638 122.637 122.168C122.637 121.698 123.018 121.317 123.488 121.317C123.958 121.317 123.488 121.913 124.339 122.168Z" fill="white"/>
<path d="M108.089 122.168C108.94 122.423 107.708 123.019 107.238 123.019C106.768 123.019 106.387 122.638 106.387 122.168C106.387 121.698 106.768 121.317 107.238 121.317C107.708 121.317 107.238 121.913 108.089 122.168Z" fill="white"/>
<path d="M113.87 132.379C114.721 132.635 113.489 133.23 113.019 133.23C112.549 133.23 112.168 132.849 112.168 132.379C112.168 131.909 112.549 131.528 113.019 131.528C113.489 131.528 113.019 132.124 113.87 132.379Z" fill="#FF6C11"/>
<path d="M141.801 162.145C140.207 169.638 135.419 174.404 127.93 176.016C121.207 177.463 115.846 169.804 114.059 162.145C112.318 154.685 120.421 149.793 127.93 148.274C135.504 146.742 142.652 158.146 141.801 162.145Z" fill="#3F3D56"/>
<path d="M118.742 158.656C119.212 158.656 119.593 158.275 119.593 157.805C119.593 157.335 119.212 156.954 118.742 156.954C118.272 156.954 117.891 157.335 117.891 157.805C117.891 158.275 118.272 158.656 118.742 158.656Z" fill="#FF6C11"/>
<path d="M138.398 158.656C138.868 158.656 139.249 158.275 139.249 157.805C139.249 157.335 138.868 156.954 138.398 156.954C137.928 156.954 137.547 157.335 137.547 157.805C137.547 158.275 137.928 158.656 138.398 158.656Z" fill="#FF6C11"/>
<path d="M126.058 160.188C126.528 160.188 126.909 159.807 126.909 159.337C126.909 158.867 126.528 158.486 126.058 158.486C125.588 158.486 125.207 158.867 125.207 159.337C125.207 159.807 125.588 160.188 126.058 160.188Z" fill="#FF6C11"/>
<path d="M132.355 155.337C132.825 155.337 133.206 154.956 133.206 154.486C133.206 154.016 132.825 153.635 132.355 153.635C131.885 153.635 131.504 154.016 131.504 154.486C131.504 154.956 131.885 155.337 132.355 155.337Z" fill="#FF6C11"/>
<path d="M124.952 152.104C125.803 152.359 124.571 152.955 124.101 152.955C123.631 152.955 123.25 152.574 123.25 152.104C123.25 151.634 123.631 151.253 124.101 151.253C124.571 151.253 124.101 151.848 124.952 152.104Z" fill="#FF6C11"/>
<path d="M130.311 163.422C131.162 163.677 129.93 164.273 129.46 164.273C128.99 164.273 128.609 163.892 128.609 163.422C128.609 162.952 128.99 162.571 129.46 162.571C129.93 162.571 129.46 163.166 130.311 163.422Z" fill="#FF6C11"/>
<path d="M129.971 151.933C130.822 152.189 129.59 152.784 129.121 152.784C128.651 152.784 128.27 152.403 128.27 151.933C128.27 151.463 128.651 151.082 129.121 151.082C129.59 151.082 129.121 151.678 129.971 151.933Z" fill="#FF6C11"/>
<path d="M131.589 170.485C132.44 170.74 131.208 171.336 130.738 171.336C130.268 171.336 129.887 170.955 129.887 170.485C129.887 170.015 130.268 169.634 130.738 169.634C131.208 169.634 130.738 170.229 131.589 170.485Z" fill="#FF6C11"/>
<path d="M121.12 168.102C121.971 168.357 120.739 168.953 120.269 168.953C119.799 168.953 119.418 168.572 119.418 168.102C119.418 167.632 119.799 167.251 120.269 167.251C120.739 167.251 120.269 167.847 121.12 168.102Z" fill="#FF6C11"/>
<path d="M136.354 163.251C137.205 163.507 135.973 164.102 135.503 164.102C135.033 164.102 134.652 163.721 134.652 163.251C134.652 162.782 135.033 162.401 135.503 162.401C135.973 162.401 135.503 162.996 136.354 163.251Z" fill="#FF6C11"/>
<path d="M120.104 163.251C120.955 163.507 119.723 164.102 119.253 164.102C118.783 164.102 118.402 163.721 118.402 163.251C118.402 162.782 118.783 162.401 119.253 162.401C119.723 162.401 119.253 162.996 120.104 163.251Z" fill="#FF6C11"/>
<path d="M125.886 173.463C126.737 173.718 125.505 174.314 125.035 174.314C124.565 174.314 124.184 173.933 124.184 173.463C124.184 172.993 124.565 172.612 125.035 172.612C125.505 172.612 125.035 173.208 125.886 173.463Z" fill="#FF6C11"/>
<path opacity="0.7" d="M147.699 132.493C147.278 130.715 146.368 129.163 145.118 127.972L145.113 127.967C143.43 126.345 141.124 125.375 138.613 125.375C122.941 133.708 109.106 132.655 96.4897 125.375C89.8292 125.375 84.3893 130.534 84.108 137.129C84.0326 138.757 84.0628 140.374 84.1733 141.987C84.2687 143.519 84.4496 145.036 84.6756 146.537C84.6957 146.663 84.7108 146.789 84.7359 146.914V146.919C85.8008 153.56 87.9958 159.914 90.1909 165.575C94.3449 176.289 104.853 183.492 116.351 183.492C117.079 183.492 117.797 183.462 118.511 183.406H118.516C122.504 183.105 126.311 181.945 129.722 180.081C130.38 179.73 131.013 179.353 131.631 178.941C131.631 178.941 131.636 178.941 131.636 178.936C136.207 175.962 139.909 171.658 142.169 166.414C146.484 156.398 150.522 144.528 147.699 132.493Z" fill="#E6E6E6"/>
<path d="M74.738 63.748C74.738 63.748 60.1571 55.7317 55.4231 63.748C51.384 70.5876 47.8733 105.146 46.9296 115.145C46.764 116.9 47.1877 118.654 48.1341 120.142C50.9368 124.546 57.1579 125.085 60.6763 121.228L105.801 71.7643L91.7726 64.75L67.7237 89.801L74.738 63.748Z" fill="#FF6C11"/>
</g>
<defs>
<clipPath id="clip0_1578_359">
<rect width="176" height="183" fill="white"/>
</clipPath>
</defs>
</svg>
