<svg width="84" height="84" viewBox="0 0 84 84" fill="none" xmlns="http://www.w3.org/2000/svg">
<circle cx="42" cy="42" r="42" fill="#B9B7C7"/>
<path d="M55.6891 41.74H27.7891" stroke="#3F3D56" stroke-width="2.43" stroke-linecap="round" stroke-linejoin="round"/>
<path d="M32.6018 32.1284L27.7891 41.74V50.11C27.7891 50.8499 28.083 51.5596 28.6062 52.0828C29.1295 52.606 29.8391 52.9 30.5791 52.9H52.8991C53.639 52.9 54.3487 52.606 54.8719 52.0828C55.3951 51.5596 55.6891 50.8499 55.6891 50.11V41.74L50.8763 32.1284C50.6453 31.6636 50.2893 31.2724 49.8481 30.9988C49.407 30.7253 48.8983 30.5802 48.3793 30.58H35.0989C34.5798 30.5802 34.0711 30.7253 33.63 30.9988C33.1889 31.2724 32.8328 31.6636 32.6018 32.1284Z" stroke="#3F3D56" stroke-width="2.43" stroke-linecap="round" stroke-linejoin="round"/>
<path d="M33.3711 47.3199H33.385" stroke="#3F3D56" stroke-width="2.43" stroke-linecap="round" stroke-linejoin="round"/>
<path d="M38.9492 47.3199H38.9632" stroke="#3F3D56" stroke-width="2.43" stroke-linecap="round" stroke-linejoin="round"/>
</svg>
