<svg width="345" height="239" viewBox="0 0 345 239" fill="none" xmlns="http://www.w3.org/2000/svg">
<g clip-path="url(#clip0_1578_326)">
<path d="M355.07 61.5742C355.564 62.118 357.358 61.564 360.926 60.4337C363.639 59.5746 364.056 59.2619 364.314 59.0378C365.221 58.2497 365.459 57.4211 366.357 53.7602C367.97 47.1895 368.02 46.537 368.848 45.1427C369.133 44.6626 369.853 43.5172 369.677 43.3753C369.497 43.2294 368.718 44.4226 367.277 44.8734C365.873 45.3127 365.241 44.6089 364.042 44.7882C362.493 45.0199 361.572 46.4917 360.126 48.874C358.847 50.9837 358.686 51.8324 356.892 56.0242C356.383 57.2117 355.974 58.1308 355.66 58.8571C352.137 62.1449 348.644 65.476 345.182 68.836C345.248 68.734 345.311 68.6377 345.366 68.5541C346.899 66.1996 347.107 64.9373 347.085 63.9915C347.049 62.4592 346.317 61.2921 344.855 59.0203C343.422 56.794 342.065 55.3251 340.429 53.5722C338.285 51.2746 337.213 50.1257 336.786 50.2013C333.736 50.7409 332.921 71.505 336.758 75.2185C336.219 75.6032 335.773 76.0062 335.451 76.4026C332.166 72.756 326.54 68.6818 320.307 68.1802C316.465 67.8709 314.344 69.0768 313.684 69.491C310.637 71.4052 308.824 75.2366 309.735 76.3177C310.583 77.3259 313.034 75.034 317.838 75.1603C321.19 75.2484 323.809 76.4644 325.363 77.1864C328.624 78.7009 329.817 80.1898 332.221 81.2099C331.094 82.1386 330.201 83.2977 329.64 84.3789C329.446 84.579 329.253 84.7803 329.058 84.9808C326.578 83.5828 323.784 82.5572 320.856 82.3216C317.013 82.0123 314.893 83.2181 314.233 83.6323C312.179 84.9225 310.691 87.0812 310.214 88.6841C309.903 88.7467 309.615 88.8181 309.351 88.8952C308.42 86.7909 305.649 84.5716 303.072 83.4532C298.637 81.528 292.876 82.0383 292.259 83.8691C292.239 83.9274 292.234 83.9849 292.226 84.0426C292.712 80.1199 293.372 76.2245 294.197 72.3575C294.225 72.4678 294.26 72.5795 294.307 72.6971C295.402 75.447 298.36 78.0864 302.393 79.4557C305.558 80.5304 306.884 79.9734 307.221 79.8178C307.542 79.6691 308.932 79.0727 309.272 77.8867C309.903 75.688 306.038 69.1899 303.6 71.3695C295.766 78.3724 294.691 72.7018 294.331 71.7473C294.997 68.6901 295.764 65.6504 296.624 62.628C296.638 62.6465 296.651 62.6647 296.667 62.6833C298.378 64.759 301.672 66.2214 305.543 66.286C308.581 66.3367 309.573 65.4863 309.821 65.258C310.058 65.04 311.095 64.1378 311.06 63.0168C310.996 60.9385 307.299 59.2458 304.341 58.9524C301.615 58.6819 298.679 59.5165 297.223 60.5734C297.9 58.31 298.628 56.0565 299.405 53.8127C301.395 54.6253 304.213 54.5161 306.981 53.2785C309.264 52.2581 309.708 51.2782 309.814 51.0215C309.914 50.7763 310.373 49.7423 309.957 48.9186C309.185 47.3913 305.838 47.4172 303.53 48.2288C302.579 48.5632 301.676 49.0774 300.902 49.6589C302.278 45.9813 303.779 42.3298 305.393 38.7054L303.775 38.301C301.714 42.9311 299.916 47.6215 298.371 52.3638C298.179 50.973 297.698 49.4913 297.064 48.2876C295.201 44.7481 291.22 42.0926 289.874 42.9542C289.605 43.1265 289.492 43.4072 289.389 43.7413C288.564 46.4303 289.185 50.1463 291.358 53.5605C293.064 56.2402 294.378 56.6163 294.72 56.7014C295.009 56.7733 296.124 57.0812 297.041 56.6845C296.424 58.7973 295.854 60.9191 295.334 63.0505C294.709 61.4973 293.476 59.8425 292.172 58.6981C289.166 56.0594 284.499 55.0035 283.55 56.2895C283.36 56.5468 283.355 56.8494 283.379 57.1982C283.57 60.0043 285.48 63.2522 288.73 65.6632C291.281 67.5554 292.643 67.4368 292.993 67.3939C293.199 67.3686 293.821 67.3066 294.421 67.0352C293.864 69.6249 293.377 72.2271 292.956 74.8403C292.114 71.917 289.255 68.27 286.556 69.4303C281.767 71.4891 276.137 68.3266 275.517 69.7095C275.356 70.0694 275.489 70.4404 275.644 70.843C276.884 74.0828 280.311 77.2218 285.017 78.8888C288.71 80.1971 290.272 79.5647 290.669 79.3875C290.932 79.2701 291.801 78.9072 292.448 78.234C291.982 81.5918 291.626 84.9667 291.375 88.3563C290.376 86.1761 287.564 83.8792 284.931 82.695C280.312 80.6176 274.272 81.0727 273.601 82.9816C273.467 83.3634 273.573 83.7317 273.731 84.145C275.004 87.4703 278.522 90.6922 283.351 92.4032C287.142 93.746 288.745 93.097 289.153 92.9151C289.451 92.7822 290.502 92.3428 291.173 91.5085C291.087 93.0755 291.021 94.6451 290.979 96.2177C290.967 96.6657 290.96 97.1135 290.951 97.5614C290.897 97.6494 290.849 97.7394 290.818 97.8335C290.688 98.2178 290.776 98.5874 290.928 98.9912C290.925 99.2757 290.923 99.5601 290.921 99.8445C290.076 99.0786 289.068 97.9268 287.856 96.2857C286.762 94.8048 285.723 95.8914 285.055 97.1522C284.009 96.9192 283.011 97.0634 282.227 97.7966C276.964 102.713 271.061 100.105 270.977 101.57C270.953 101.993 271.18 102.33 271.465 102.695C273.763 105.63 278.274 107.772 283.634 107.997C287.84 108.174 289.245 107.031 289.597 106.724C289.72 106.616 289.997 106.383 290.297 106.055C290.538 106.247 290.773 106.422 291.008 106.581C291.1 109.395 291.266 112.206 291.511 115.012C291.312 115.03 291.121 115.063 290.979 115.077C288.941 115.285 288.255 112.536 285.177 111.532C284.155 111.198 282.186 110.834 281.148 111.532C280.999 111.632 280.489 112.01 279.698 112.338C279.23 112.531 278.873 112.621 278.731 112.66C277.468 113.005 276.298 113.953 275.508 114.594C274.021 115.798 273.278 116.401 272.929 117.495C272.819 117.839 272.51 118.808 272.929 119.751C273.127 120.197 273.586 120.86 275.346 121.524C276.393 121.918 279.444 123.069 283.082 121.846C283.91 121.567 283.278 121.667 286.466 120.073C288.975 118.819 290.442 118.22 290.656 117.011C290.732 116.586 290.656 116.068 290.979 115.883C291.158 115.78 291.375 115.83 291.592 115.908C291.803 118.164 292.066 120.416 292.386 122.664H289.515C285.704 122.664 282.285 124.785 280.593 128.2L269.856 149.859C269.179 151.226 268.82 152.756 268.82 154.282V209.977C268.82 215.469 273.288 219.936 278.779 219.936H303.839C309.331 219.936 313.798 215.469 313.798 209.977V158.693C313.798 157.442 313.567 156.218 313.11 155.054L302.878 128.984C301.636 125.822 298.949 123.586 295.736 122.893C296.766 121.672 297.798 120.451 298.839 119.234C300.148 119.866 301.589 120.385 303.138 120.749C307.237 121.712 308.831 120.853 309.234 120.618C309.62 120.392 311.289 119.476 311.572 117.948C311.603 117.784 311.614 117.618 311.612 117.452C315.81 120.864 318 122.546 319.6 121.985C320.976 121.503 321.761 119.923 322.211 118.505C322.68 118.57 323.178 118.637 323.709 118.708C329.458 119.476 332.356 119.832 333.464 118.47C334.998 116.585 333.542 112.951 333.141 111.95C332.269 109.773 330.927 108.448 330.093 107.642C329.011 106.596 325.927 103.613 321.071 103.216C320.015 103.129 319.066 103.195 318.1 103.398C317.764 103.09 317.408 102.788 317.017 102.501C316.272 101.955 315.536 101.551 314.743 101.235C315.959 99.9033 317.178 98.5759 318.402 97.2539C318.596 97.3421 318.78 97.4272 318.949 97.5058C322.96 99.3689 323.842 101.193 327.7 102.154C329.45 102.589 331.431 103.083 331.922 102.341C332.793 101.024 329.094 95.6024 323.378 91.9344C323.764 91.5263 324.15 91.1196 324.536 90.7126C325.059 90.9317 325.52 91.1455 325.912 91.3277C329.923 93.1908 330.805 95.0152 334.663 95.9757C336.413 96.4114 338.394 96.9047 338.885 96.1631C339.662 94.9875 336.801 90.5436 332.116 86.9938C333.403 86.5851 335.109 86.1321 337.319 86.1902C340.671 86.2783 343.29 87.4944 344.844 88.2164C348.856 90.0795 349.737 91.9039 353.595 92.8643C355.345 93.3 357.326 93.7933 357.817 93.0517C359.112 91.0929 350.313 80.0573 339.788 79.2102C338.971 79.1444 338.237 79.15 337.573 79.1991C337.481 79.0471 337.381 78.891 337.276 78.7323C340.838 78.8468 347.793 77.8286 353.712 81.9847C355.419 83.183 358.735 86.002 364.284 88.3181C366.058 89.0584 366.95 89.4223 367.195 89.1183C368.075 88.0303 360.764 79.0754 350.478 74.664C346.399 72.9149 343.88 72.7495 342.088 73.0144C342.364 72.6995 342.633 72.3745 342.892 72.0481C346.897 68.1199 350.953 64.2328 355.045 60.3979C354.847 61.0105 354.854 61.3365 355.07 61.5742ZM303.671 110.465C299.147 109.001 293.669 109.788 292.241 111.454C292.039 109.977 291.864 108.498 291.72 107.016C293.781 108.167 295.931 108.476 300.011 109.02C301.748 109.252 303.221 109.446 304.467 109.566C304.635 110.02 304.813 110.428 305.02 110.819C305.044 110.864 305.07 110.907 305.094 110.952L305.058 110.993C304.594 110.791 304.128 110.614 303.671 110.465ZM291.651 90.6246C291.78 90.1965 291.783 89.7406 291.685 89.2707C291.825 87.5682 292.001 85.871 292.209 84.1788C292.204 84.4378 292.286 84.6971 292.398 84.9781C293.655 88.1367 297.054 91.1684 301.686 92.7412C302.55 93.0346 303.291 93.2196 303.93 93.3326C303.649 93.8221 303.433 94.2991 303.291 94.7403C301.712 93.4717 299.679 92.5492 297.372 93.5279C296.745 93.7942 296.372 94.7686 296.049 95.9337C293.918 95.9705 292.138 96.415 291.29 97.1671C291.294 96.8534 291.293 96.5404 291.301 96.2262C291.349 94.4354 291.437 92.6504 291.561 90.871C291.595 90.7913 291.626 90.7094 291.651 90.6246ZM291.296 99.8355C291.387 100.024 291.488 100.211 291.592 100.397C291.498 100.327 291.401 100.252 291.301 100.171C291.298 100.059 291.298 99.9473 291.296 99.8355ZM294.933 122.756C294.685 122.723 294.435 122.7 294.182 122.685C293.599 119.79 293.061 116.896 292.61 113.997C293.795 115.878 295.73 117.601 298.194 118.907C297.101 120.187 296.016 121.471 294.933 122.756ZM314.027 100.978C312.485 100.483 310.674 100.246 308.169 99.9549C307.534 99.0724 306.879 98.4223 306.395 97.9546C306.133 97.7012 305.731 97.1986 305.21 96.6106C306.56 96.1771 308.576 95.4048 311.424 95.4797C314.013 95.5477 316.161 96.2879 317.722 96.9543C316.486 98.2904 315.255 99.6325 314.027 100.978ZM322.771 91.5552C321.255 90.6391 319.611 89.8547 317.88 89.3035C318.048 89.302 318.213 89.297 318.387 89.3016C320.533 89.358 322.377 89.877 323.835 90.4325C323.48 90.8066 323.125 91.1802 322.771 91.5552Z" fill="#E6E6E6"/>
<path d="M152.189 78.7546L180.969 70.3313L188.27 78.7546C188.27 78.7546 214.662 81.9134 222.384 99.462C230.105 117.011 259.236 206.157 259.236 206.157L220.804 212.299L167.456 169.13C167.456 169.13 150.61 161.4 152.189 142.803C153.092 132.178 150.5 119.032 148.112 109.713C146.153 102.066 148.16 93.9443 153.418 88.0554L152.189 78.7546Z" fill="#FF6C11"/>
<path d="M1.63448 233.852C-0.224407 230.922 -0.443936 227.302 1.04735 224.168L23.2081 177.606C24.862 174.131 28.4175 171.885 32.266 171.885H312.174C315.915 171.885 319.319 173.943 321.057 177.257L344.81 222.536C346.452 225.666 346.344 229.342 344.521 232.37C342.698 235.398 339.5 237.214 335.966 237.228L10.1447 238.51H10.1039C6.64988 238.51 3.48582 236.771 1.63448 233.852Z" fill="white"/>
<path d="M1.63448 233.852C-0.224407 230.922 -0.443936 227.302 1.04735 224.168L23.2081 177.606C24.862 174.131 28.4175 171.885 32.266 171.885H312.174C315.915 171.885 319.319 173.943 321.057 177.257L344.81 222.536C346.452 225.666 346.344 229.342 344.521 232.37C342.698 235.398 339.5 237.214 335.966 237.228L10.1447 238.51H10.1039C6.64988 238.51 3.48582 236.771 1.63448 233.852ZM32.266 172.938C28.8214 172.938 25.6392 174.948 24.1589 178.058L1.99813 224.62C0.663306 227.425 0.859699 230.665 2.52356 233.289C4.18074 235.901 7.01233 237.457 10.1041 237.457H10.1406L335.962 236.175C339.125 236.162 341.988 234.537 343.619 231.827C345.25 229.117 345.347 225.826 343.878 223.025L320.124 177.746C318.569 174.78 315.522 172.938 312.174 172.938H32.266Z" fill="#3F3D56"/>
<path d="M64.6262 95.8515C60.7434 90.6745 54.9249 88.4815 51.6306 90.9531C48.3363 93.4246 48.814 99.6239 52.6989 104.802C54.2224 106.892 56.2241 108.587 58.5368 109.744L75.2653 131.472L85.294 123.404L67.7379 102.841C67.2738 100.296 66.2068 97.8995 64.6262 95.8515Z" fill="#FFB6B6"/>
<path d="M156.037 80.9053C156.037 80.9053 176.68 89.885 176.597 99.4321C176.514 108.979 138.518 172.334 138.518 172.334C138.518 172.334 122.196 182.694 116.648 176.736C111.101 170.779 64.9648 123.075 64.9648 123.075L77.5339 108.063L123.174 147.809L156.037 80.9053Z" fill="#FF6C11"/>
<path d="M207.072 200.581L213.039 219.533L143.195 223.745L149.162 202.336L207.072 200.581Z" fill="#E6E6E6"/>
<path d="M130.244 198.559L136.211 217.512L66.3672 221.723L72.3337 200.314L130.244 198.559Z" fill="#E6E6E6"/>
<path d="M302.49 185.62L308.457 204.573L238.613 208.784L244.58 187.375L302.49 185.62Z" fill="#E6E6E6"/>
<path d="M164.689 186.197L146.588 177.295C146.464 177.234 146.327 177.203 146.189 177.206L104.412 178.108L91.6988 130.364C91.6673 130.245 91.5744 130.153 91.4557 130.122L76.0793 126.11C75.8244 126.044 75.5937 126.28 75.6657 126.533L90.9071 180.224C90.9319 180.312 90.9905 180.385 91.0699 180.429L106.742 189.099C106.863 189.166 106.992 189.148 107.09 189.084L107.174 189.18C107.343 189.374 107.59 189.482 107.848 189.474L164.334 187.832C165.233 187.806 165.496 186.594 164.689 186.197Z" fill="#3F3D56"/>
<path d="M146.856 172.89C140.386 173.041 135.221 176.502 135.318 180.62C135.415 184.737 140.738 187.95 147.21 187.798C149.796 187.772 152.338 187.128 154.624 185.918L182.027 184.93L181.289 172.08L154.353 174.419C152.012 173.318 149.441 172.793 146.856 172.89Z" fill="#FFB6B6"/>
<path d="M187.812 89.81C187.812 89.81 207.115 78.2279 214.837 83.8434C222.558 89.459 252.04 157.197 252.04 157.197C252.04 157.197 250.987 176.5 242.915 177.553C234.842 178.606 169.21 188.433 169.21 188.433L164.297 169.481L211.327 155.793L187.812 89.81Z" fill="#FF6C11"/>
<path d="M70.3326 216.143C94.97 216.143 114.943 210.297 114.943 203.086C114.943 195.876 94.97 190.03 70.3326 190.03C45.6952 190.03 25.7227 195.876 25.7227 203.086C25.7227 210.297 45.6952 216.143 70.3326 216.143Z" fill="#3F3D56"/>
<path d="M114.772 201.995C114.772 207.404 95.5162 210.159 70.8788 210.159C46.2414 210.159 25.8164 207.404 25.8164 201.995C25.8164 196.587 46.2414 190.574 70.8788 190.574C95.5162 190.574 114.772 196.587 114.772 201.995Z" fill="#2F2E41"/>
<path d="M36.3301 191.934L29.2578 195.742C29.2578 195.742 29.8018 207.711 42.3144 207.167C54.8269 206.623 60.2458 204.447 59.9845 203.086C59.7232 201.726 60.2672 194.654 55.371 195.742C50.4747 196.83 43.4024 197.918 43.4024 197.918L36.3301 191.934Z" fill="#FF6C11"/>
<path d="M59.8544 201.392C58.9472 202.735 53.4339 204.507 42.3144 204.991C33.0607 205.393 30.3554 198.955 29.5726 195.573L29.2578 195.742C29.2578 195.742 29.8018 207.711 42.3144 207.167C54.8269 206.623 60.2457 204.447 59.9845 203.087C59.924 202.771 59.9062 202.148 59.8544 201.392Z" fill="#3F3D56"/>
<path d="M59.7168 193.566L52.6445 197.374C52.6445 197.374 53.1886 209.343 65.7011 208.799C78.2137 208.255 83.6325 206.079 83.3712 204.719C83.1099 203.358 83.6539 196.286 78.7577 197.374C73.8615 198.462 66.7892 199.55 66.7892 199.55L59.7168 193.566Z" fill="#FF6C11"/>
<path d="M83.2411 203.024C82.3339 204.367 76.8207 206.139 65.7011 206.623C56.4474 207.025 53.7421 200.587 52.9593 197.205L52.6445 197.374C52.6445 197.374 53.1886 209.343 65.7011 208.799C78.2137 208.255 83.6324 206.079 83.3713 204.719C83.3107 204.403 83.2929 203.78 83.2411 203.024Z" fill="#3F3D56"/>
<path d="M65.1661 182.141L58.0938 185.95C58.0938 185.95 58.6378 197.918 71.1503 197.374C83.6629 196.83 89.0817 194.654 88.8204 193.294C88.5591 191.934 89.1031 184.862 84.2069 185.95C79.3107 187.038 72.2384 188.126 72.2384 188.126L65.1661 182.141Z" fill="#FF6C11"/>
<path d="M88.6903 191.6C87.7832 192.943 82.2699 194.715 71.1503 195.198C61.8966 195.6 59.1914 189.163 58.4085 185.78L58.0938 185.95C58.0938 185.95 58.6378 197.918 71.1503 197.374C83.6629 196.83 89.0816 194.654 88.8205 193.294C88.7599 192.979 88.7421 192.355 88.6903 191.6Z" fill="#3F3D56"/>
<path d="M89.1036 189.758L82.0312 193.566C82.0312 193.566 82.5753 205.535 95.0878 204.991C107.6 204.447 113.019 202.271 112.758 200.911C112.497 199.55 113.041 192.478 108.144 193.566C103.248 194.654 96.1759 195.742 96.1759 195.742L89.1036 189.758Z" fill="#FF6C11"/>
<path d="M112.628 199.216C111.721 200.559 106.207 202.331 95.0878 202.815C85.8341 203.217 83.1289 196.779 82.346 193.397L82.0312 193.566C82.0312 193.566 82.5753 205.535 95.0878 204.991C107.6 204.447 113.019 202.271 112.758 200.911C112.697 200.595 112.68 199.972 112.628 199.216Z" fill="#3F3D56"/>
<path d="M40.9769 77.9392L30.7891 83.425C30.7891 83.425 31.5727 100.666 49.5973 99.8822C67.6219 99.0985 75.4279 95.9638 75.0515 94.0046C74.675 92.0454 75.4587 81.8576 68.4056 83.425C61.3525 84.9923 51.1647 86.5597 51.1647 86.5597L40.9769 77.9392Z" fill="#FF6C11"/>
<path d="M74.8641 91.5636C73.5573 93.4983 65.6153 96.051 49.5973 96.7474C36.2672 97.327 32.3702 88.0532 31.2425 83.1807L30.7891 83.4249C30.7891 83.4249 31.5727 100.666 49.5973 99.8821C67.6219 99.0985 75.4277 95.9638 75.0516 94.0046C74.9643 93.5506 74.9387 92.6524 74.8641 91.5636Z" fill="#3F3D56"/>
<path d="M156.993 70.2144C171.178 70.2144 182.677 58.7153 182.677 44.5304C182.677 30.3455 171.178 18.8463 156.993 18.8463C142.808 18.8463 131.309 30.3455 131.309 44.5304C131.309 58.7153 142.808 70.2144 156.993 70.2144Z" fill="#FFB6B6"/>
<path d="M163.046 51.9528L156.053 43.2438L151.913 30.7766C151.913 30.7766 125.783 40.4556 131.475 26.5009C137.168 12.5463 155.152 7.13607 168.755 15.5282L174.735 20.152C174.735 20.152 161.511 10.3864 168.269 5.61402C175.027 0.841644 173.411 -1.62965 177.727 1.19311C182.043 4.01587 180.38 6.86768 184.742 4.36734C189.105 1.86699 198.639 -1.89804 197.708 1.53354C196.776 4.96512 207.661 12.3434 204.482 16.7005C201.303 21.0576 205.495 28.5476 198.708 27.341C191.921 26.1344 196.342 35.592 189.982 32.3417C189.982 32.3417 195.544 37.9538 192.141 43.0015C188.739 48.0492 182.883 50.539 184.3 57.0217C185.717 63.5043 170.125 66.6782 170.125 66.6782L169.129 47.3908C169.129 47.3908 164.857 44.6455 163.046 51.9528Z" fill="#2F2E41"/>
</g>
<defs>
<clipPath id="clip0_1578_326">
<rect width="344.866" height="239" fill="white" transform="translate(0.0664062)"/>
</clipPath>
</defs>
</svg>
