<svg width="246" height="240" viewBox="0 0 246 240" fill="none" xmlns="http://www.w3.org/2000/svg">
<g clip-path="url(#clip0_1578_241)">
<path d="M76.189 175.612H45.4784C44.7042 175.612 44.0742 174.982 44.0742 174.208C44.0742 173.434 44.7042 172.804 45.4784 172.804H76.189C76.9632 172.804 77.5929 173.434 77.5929 174.208C77.5929 174.982 76.9632 175.612 76.189 175.612Z" fill="#FF6C11"/>
<path d="M21.3359 183.128C21.3359 183.38 21.5385 183.583 21.7907 183.583H99.8654C100.118 183.583 100.32 183.38 100.32 183.128C100.32 182.876 100.118 182.673 99.8654 182.673H21.7907C21.5385 182.673 21.3359 182.876 21.3359 183.128Z" fill="#3F3D56"/>
<path d="M186.064 91.4941C199.784 91.4941 210.905 80.3722 210.905 66.6527C210.905 52.9332 199.784 41.8113 186.064 41.8113C172.345 41.8113 161.223 52.9332 161.223 66.6527C161.223 80.3722 172.345 91.4941 186.064 91.4941Z" fill="#575A89"/>
<path d="M0.472656 214.518C0.472656 214.771 0.675221 214.973 0.927468 214.973H200.534C200.786 214.973 200.989 214.771 200.989 214.518C200.989 214.266 200.786 214.064 200.534 214.064H0.927468C0.675221 214.064 0.472656 214.266 0.472656 214.518Z" fill="#3F3D56"/>
<path d="M3.35727 183.806L2.71875 183.106L65.0378 126.24L87.4901 136.305L111.735 94.7268L131.655 85.1251L150.111 115.885C160.076 90.089 185.065 63.1001 215.009 35.7179L215.745 36.3143C187.661 63.2021 163.632 90.2119 149.996 117.534L132.924 88.9985C132.118 87.6504 130.423 87.1297 128.999 87.7925C118.111 92.8588 109.028 101.129 102.967 111.496L87.7797 137.473L84.3129 135.919C72.7184 130.721 59.1451 132.9 49.7592 141.464L3.35727 183.806Z" fill="#3F3D56"/>
<path d="M216.414 40.8951L215.468 40.9608L213.942 37.6521L210.523 36.9578L210.391 36.0187L216.025 35.218L216.414 40.8951Z" fill="#3F3D56"/>
<path d="M119.211 61.1405L122.561 48.2623L135.611 47.6345L139.516 65.3868L119.211 61.1405Z" fill="#FFB6B6"/>
<path opacity="0.1" d="M119.211 61.1405L122.561 48.2623L135.611 47.6345L139.516 65.3868L119.211 61.1405Z" fill="black"/>
<path d="M127.799 55.4693C136.498 55.4693 143.551 48.4169 143.551 39.7174C143.551 31.0179 136.498 23.9656 127.799 23.9656C119.099 23.9656 112.047 31.0179 112.047 39.7174C112.047 48.4169 119.099 55.4693 127.799 55.4693Z" fill="#FFB6B6"/>
<path d="M136.49 43.0516C136.49 43.0516 130.506 31.1955 123.495 31.88C116.484 32.5645 112.79 33.397 112.79 33.397C112.79 33.397 110.709 24.1629 120.508 20.6111C120.508 20.6111 108.049 8.33029 122.882 2.30602C137.715 -3.71825 146.014 3.96494 146.014 3.96494C146.014 3.96494 156.994 14.9255 143.166 23.1176C143.166 23.1176 153.434 36.9289 141.002 48.3126C141.002 48.3126 143.782 39.1007 140.881 40.7995C137.98 42.4984 136.49 43.0516 136.49 43.0516Z" fill="#2F2E41"/>
<path d="M110.416 126.275L108.321 128.283L93.1843 160.74L91.5273 214.425H116.959L128.889 187.839L136.928 214.168H159.795L165.096 166.373L150.846 132.572L110.416 126.275Z" fill="#2F2E41"/>
<path d="M136.759 59.8318H119.775L101.301 69.7734L105.609 88.994C105.609 88.994 104.615 100.593 106.934 109.209C109.254 117.825 108.26 129.092 108.26 129.092L150.843 132.572L152.169 93.4677L151.506 67.288L136.759 59.8318Z" fill="#E6E6E6"/>
<path d="M104.12 69.9392C104.12 69.9392 93.8465 70.2706 92.1895 76.8984C90.5326 83.5262 89.207 117.659 89.207 117.659C89.207 117.659 90.2012 137.913 101.303 128.283C112.404 118.653 111.41 89.4911 111.41 89.4911L104.12 69.9392Z" fill="#E6E6E6"/>
<path d="M203.762 239.01H143.222C141.172 239.01 139.504 237.342 139.504 235.291V172.707C139.504 170.656 141.172 168.988 143.222 168.988H203.762C205.813 168.988 207.481 170.656 207.481 172.707V235.291C207.481 237.342 205.813 239.01 203.762 239.01Z" fill="white"/>
<path d="M203.762 239.391H143.222C140.961 239.391 139.121 237.552 139.121 235.291V172.707C139.121 170.446 140.961 168.606 143.222 168.606H203.762C206.023 168.606 207.862 170.446 207.862 172.707V235.291C207.862 237.552 206.023 239.391 203.762 239.391ZM143.222 169.37C141.382 169.37 139.885 170.867 139.885 172.706V235.291C139.885 237.131 141.382 238.627 143.222 238.627H203.762C205.601 238.627 207.098 237.131 207.098 235.291V172.706C207.098 170.867 205.601 169.37 203.762 169.37H143.222Z" fill="#3F3D56"/>
<path d="M175.884 222.568H170.895C170.287 222.568 169.793 222.186 169.793 221.717V200.235C169.793 199.766 170.287 199.384 170.895 199.384H175.884C176.492 199.384 176.986 199.766 176.986 200.235V221.717C176.986 222.186 176.492 222.568 175.884 222.568Z" fill="#FF6C11"/>
<path d="M159.386 209.908C158.895 209.908 158.496 210.216 158.496 210.595V221.694C158.496 222.072 158.895 222.381 159.386 222.381H164.376C164.867 222.381 165.266 222.072 165.266 221.694V210.595C165.266 210.216 164.867 209.908 164.376 209.908H159.386Z" fill="#FF6C11"/>
<path d="M187.392 222.568H182.402C181.795 222.568 181.301 222.186 181.301 221.718V186.511C181.301 186.042 181.795 185.661 182.402 185.661H187.392C188 185.661 188.494 186.042 188.494 186.511V221.718C188.494 222.186 188 222.568 187.392 222.568Z" fill="#FF6C11"/>
<path d="M80.0129 68.2459H74.3132C73.6192 68.2459 73.0547 67.8101 73.0547 67.2745V42.7351C73.0547 42.1994 73.6192 41.7637 74.3132 41.7637H80.0129C80.7069 41.7637 81.2714 42.1994 81.2714 42.7351V67.2745C81.2714 67.8101 80.7068 68.2459 80.0129 68.2459Z" fill="#FF6C11"/>
<path d="M61.1692 53.7847C60.6085 53.7847 60.1523 54.1368 60.1523 54.5695V67.2471C60.1523 67.6798 60.6085 68.032 61.1692 68.032H66.8689C67.4295 68.032 67.8857 67.6798 67.8857 67.2471V54.5695C67.8857 54.1368 67.4295 53.7847 66.8689 53.7847H61.1692Z" fill="#FF6C11"/>
<path d="M93.1535 68.246H87.4538C86.7598 68.246 86.1953 67.8102 86.1953 67.2746V27.0589C86.1953 26.5233 86.7598 26.0875 87.4538 26.0875H93.1535C93.8475 26.0875 94.412 26.5233 94.412 27.0589V67.2746C94.412 67.8102 93.8475 68.246 93.1535 68.246Z" fill="#FF6C11"/>
<path d="M164.212 178.094C167.164 177.811 169.197 173.822 168.753 169.182C168.601 167.326 168.007 165.533 167.02 163.954L166.451 158.702L166.538 158.676L167.968 133.774C168.301 127.984 166.009 122.294 161.593 118.535C158.966 116.298 156.164 115.166 154.362 117.992C151.372 122.681 155.245 142.01 157.788 152.999L158.774 164.743C158.104 166.481 157.861 168.355 158.064 170.207C158.507 174.845 161.26 178.377 164.212 178.094Z" fill="#FFB6B6"/>
<path d="M147.867 67.9509C147.867 67.9509 156.483 64.637 160.46 74.5787C164.437 84.5203 168.745 133.566 168.745 133.566L148.53 129.921L147.867 67.9509Z" fill="#E6E6E6"/>
<path d="M29.5528 63.0882H17.9511C17.1769 63.0882 16.5469 62.4582 16.5469 61.684C16.5469 60.9097 17.1769 60.28 17.9511 60.28H29.5528C30.3271 60.28 30.9568 60.9097 30.9568 61.684C30.9568 62.4582 30.3271 63.0882 29.5528 63.0882Z" fill="#E6E6E6"/>
<path d="M29.5528 43.1847H17.9511C17.1769 43.1847 16.5469 42.5547 16.5469 41.7805C16.5469 41.0063 17.1769 40.3766 17.9511 40.3766H29.5528C30.3271 40.3766 30.9568 41.0063 30.9568 41.7805C30.9568 42.5548 30.3271 43.1847 29.5528 43.1847Z" fill="#E6E6E6"/>
<path d="M29.5528 28.8313H17.9511C17.1769 28.8313 16.5469 28.2014 16.5469 27.4271C16.5469 26.6529 17.1769 26.0232 17.9511 26.0232H29.5528C30.3271 26.0232 30.9568 26.6529 30.9568 27.4271C30.9568 28.2014 30.3271 28.8313 29.5528 28.8313Z" fill="#E6E6E6"/>
<path d="M16.082 68.3154C16.082 68.5676 16.2846 68.7702 16.5368 68.7702H94.6115C94.8637 68.7702 95.0663 68.5676 95.0663 68.3154C95.0663 68.0632 94.8637 67.8606 94.6115 67.8606H16.5368C16.2846 67.8606 16.082 68.0632 16.082 68.3154Z" fill="#3F3D56"/>
<path d="M166.66 186.025C166.66 186.278 166.863 186.48 167.115 186.48H245.19C245.442 186.48 245.644 186.278 245.644 186.025C245.644 185.773 245.442 185.571 245.19 185.571H167.115C166.863 185.571 166.66 185.773 166.66 186.025Z" fill="#3F3D56"/>
<path d="M143.73 223.096C143.73 223.349 143.933 223.551 144.185 223.551H222.26C222.512 223.551 222.715 223.349 222.715 223.096C222.715 222.844 222.512 222.642 222.26 222.642H144.185C143.933 222.642 143.73 222.844 143.73 223.096Z" fill="#3F3D56"/>
<path d="M91.2268 66.0162C88.2747 66.2989 86.2417 70.2882 86.6859 74.9286C86.8379 76.7847 87.4322 78.5774 88.4191 80.1567L88.9881 85.4086L88.9009 85.4348L87.4707 110.337C87.1382 116.127 89.4301 121.816 93.8459 125.576C96.4727 127.812 99.275 128.945 101.077 126.119C104.067 121.43 100.194 102.1 97.6506 91.1108L96.6645 79.3674C97.3344 77.6291 97.5781 75.7556 97.3753 73.9038C96.9319 69.265 94.179 65.7336 91.2268 66.0162Z" fill="#FFB6B6"/>
</g>
<defs>
<clipPath id="clip0_1578_241">
<rect width="245.171" height="239.392" fill="white" transform="translate(0.472656)"/>
</clipPath>
</defs>
</svg>
