<svg width="54" height="54" viewBox="0 0 54 54" fill="none" xmlns="http://www.w3.org/2000/svg">
<path d="M36 47.25V42.75C36 40.3631 35.0518 38.0739 33.364 36.386C31.6761 34.6982 29.3869 33.75 27 33.75H11.25C8.86305 33.75 6.57387 34.6982 4.88604 36.386C3.19821 38.0739 2.25 40.3631 2.25 42.75V47.25" fill="#FFC8A6"/>
<path d="M36 47.25V42.75C36 40.3631 35.0518 38.0739 33.364 36.386C31.6761 34.6982 29.3869 33.75 27 33.75H11.25C8.86305 33.75 6.57387 34.6982 4.88604 36.386C3.19821 38.0739 2.25 40.3631 2.25 42.75V47.25" stroke="#6F6C90" stroke-width="2" stroke-linecap="round" stroke-linejoin="round"/>
<path d="M19.125 24.75C24.0956 24.75 28.125 20.7206 28.125 15.75C28.125 10.7794 24.0956 6.75 19.125 6.75C14.1544 6.75 10.125 10.7794 10.125 15.75C10.125 20.7206 14.1544 24.75 19.125 24.75Z" fill="#FFC8A6" stroke="#6F6C90" stroke-width="2" stroke-linecap="round" stroke-linejoin="round"/>
<path d="M38.25 24.75L42.75 29.25L51.75 20.25" stroke="#6F6C90" stroke-width="2" stroke-linecap="round" stroke-linejoin="round"/>
</svg>
