<svg width="296" height="239" viewBox="0 0 296 239" fill="none" xmlns="http://www.w3.org/2000/svg">
<path d="M269.916 188.904C270.909 188.967 271.457 187.733 270.706 187.014L270.631 186.717C270.641 186.693 270.651 186.669 270.661 186.645C271.665 184.251 275.069 184.267 276.064 186.665C276.948 188.794 278.073 190.926 278.35 193.176C278.475 194.17 278.419 195.182 278.198 196.157C280.269 191.633 281.359 186.694 281.359 181.727C281.359 180.479 281.29 179.231 281.151 177.986C281.036 176.967 280.878 175.955 280.673 174.953C279.564 169.532 277.165 164.369 273.703 160.057C272.039 159.147 270.651 157.725 269.813 156.021C269.512 155.406 269.276 154.745 269.164 154.071C269.353 154.096 269.878 151.212 269.735 151.035C269.999 150.635 270.472 150.435 270.76 150.045C272.193 148.101 274.168 148.441 275.199 151.082C277.402 152.193 277.423 154.037 276.072 155.81C275.212 156.938 275.094 158.464 274.339 159.672C274.417 159.771 274.498 159.868 274.575 159.967C275.999 161.792 277.23 163.755 278.267 165.816C277.974 163.525 278.407 160.765 279.145 158.986C279.986 156.959 281.561 155.251 282.948 153.499C284.614 151.394 288.03 152.313 288.323 154.981C288.326 155.007 288.329 155.033 288.332 155.059C288.126 155.175 287.924 155.298 287.727 155.429C286.602 156.172 286.991 157.916 288.323 158.121L288.353 158.126C288.279 158.868 288.152 159.604 287.965 160.327C289.745 167.208 285.903 169.714 280.418 169.827C280.297 169.889 280.179 169.951 280.058 170.01C280.614 171.575 281.058 173.18 281.387 174.807C281.682 176.244 281.887 177.697 282.001 179.156C282.144 180.997 282.132 182.848 281.977 184.685L281.986 184.62C282.38 182.596 283.479 180.705 285.075 179.395C287.452 177.442 290.811 176.723 293.375 175.154C294.61 174.398 296.192 175.375 295.976 176.806L295.966 176.874C295.584 177.03 295.211 177.21 294.851 177.411C294.645 177.528 294.443 177.651 294.246 177.781C293.122 178.525 293.51 180.268 294.843 180.474L294.873 180.479C294.895 180.482 294.913 180.485 294.935 180.488C294.28 182.043 293.367 183.487 292.225 184.732C291.112 190.739 286.334 191.309 281.222 189.56H281.219C280.66 191.994 279.844 194.372 278.794 196.638H270.133C270.102 196.542 270.074 196.442 270.046 196.346C270.847 196.396 271.654 196.349 272.442 196.203C271.8 195.415 271.157 194.62 270.515 193.831C270.499 193.816 270.487 193.8 270.474 193.785C270.148 193.381 269.819 192.981 269.493 192.577L269.493 192.577C269.473 191.338 269.621 190.103 269.916 188.904Z" fill="#F2F2F2"/>
<path d="M156.044 221.55C130.424 221.55 106.248 213.5 86.1289 198.269L86.7426 197.512C106.685 212.609 130.649 220.589 156.044 220.589C181.46 220.589 205.438 212.598 225.389 197.479L226.003 198.236C205.876 213.488 181.684 221.55 156.044 221.55Z" fill="#3F3D56"/>
<path d="M26.1 188.904C25.107 188.967 24.5582 187.733 25.3094 187.014L25.3842 186.717C25.3744 186.693 25.3645 186.669 25.3545 186.645C24.3503 184.251 20.9468 184.267 19.9511 186.665C19.0674 188.794 17.9422 190.926 17.6652 193.176C17.541 194.17 17.5969 195.182 17.8173 196.157C15.7465 191.633 14.6568 186.694 14.6568 181.727C14.6568 180.479 14.7252 179.231 14.8648 177.986C14.9797 176.967 15.1381 175.955 15.343 174.953C16.4513 169.532 18.8511 164.369 22.3127 160.057C23.9768 159.147 25.3645 157.725 26.2027 156.021C26.5039 155.406 26.7398 154.745 26.8516 154.071C26.6622 154.096 26.1375 151.212 26.2803 151.035C26.0164 150.635 25.5441 150.435 25.2558 150.045C23.8223 148.101 21.8473 148.441 20.8163 151.082C18.6138 152.193 18.5924 154.037 19.9439 155.81C20.8037 156.938 20.9218 158.464 21.6763 159.672C21.5986 159.771 21.5179 159.868 21.4403 159.967C20.017 161.792 18.786 163.755 17.7483 165.816C18.0416 163.525 17.6086 160.765 16.8704 158.986C16.0301 156.959 14.4551 155.251 13.0681 153.499C11.4021 151.394 7.98582 152.313 7.69231 154.981C7.68947 155.007 7.6867 155.033 7.68399 155.059C7.89 155.175 8.09183 155.298 8.28897 155.429C9.41349 156.172 9.02486 157.916 7.69243 158.121L7.66226 158.126C7.73678 158.868 7.86406 159.604 8.05032 160.327C6.27099 167.208 10.1124 169.714 15.5975 169.827C15.7186 169.889 15.8366 169.951 15.9577 170.01C15.4019 171.575 14.958 173.18 14.6289 174.807C14.334 176.244 14.1291 177.697 14.0142 179.156C13.8714 180.997 13.8838 182.848 14.039 184.685L14.0297 184.62C13.6355 182.596 12.5364 180.705 10.9407 179.395C8.56347 177.442 5.20495 176.723 2.64038 175.154C1.40587 174.398 -0.176065 175.375 0.0393897 176.806L0.0498779 176.874C0.431734 177.03 0.804271 177.21 1.16441 177.411C1.37042 177.528 1.57224 177.651 1.76939 177.781C2.89391 178.525 2.50527 180.268 1.17285 180.474L1.14266 180.479C1.12093 180.482 1.10229 180.485 1.0806 180.488C1.73566 182.043 2.64838 183.487 3.79086 184.732C4.90342 190.739 9.68193 191.309 14.7934 189.56H14.7965C15.3554 191.994 16.1719 194.372 17.2212 196.638H25.8829C25.914 196.542 25.9419 196.442 25.9699 196.346C25.1689 196.396 24.3617 196.349 23.5731 196.203C24.2158 195.415 24.8584 194.62 25.5011 193.831C25.5166 193.816 25.529 193.8 25.5414 193.785C25.8674 193.381 26.1965 192.981 26.5225 192.577L26.5227 192.577C26.5431 191.338 26.3943 190.103 26.1 188.904Z" fill="#F2F2F2"/>
<path d="M72.4194 197.849L72.0154 198.322C56.2395 184.868 47.1914 165.267 47.1914 144.547C47.1914 125.673 54.541 107.929 67.8862 94.584C81.2316 81.2388 98.9754 73.8892 117.849 73.8892C136.724 73.8892 154.467 81.2388 167.813 94.584C181.158 107.929 188.508 125.673 188.508 144.547C188.508 165.267 179.459 184.868 163.684 198.322L163.28 197.849" fill="#F2F2F2"/>
<path d="M227.081 197.573L226.457 196.842C250.604 176.248 264.453 146.247 264.453 114.533C264.453 54.8987 215.937 6.38273 156.303 6.38273C96.6687 6.38273 48.1527 54.8986 48.1527 114.533C48.1527 146.247 62.0017 176.248 86.1489 196.842L85.5251 197.573C61.1636 176.796 47.1914 146.529 47.1914 114.533C47.1914 85.3872 58.5408 57.9868 79.1487 37.3787C99.7569 16.7708 127.157 5.42139 156.303 5.42139C185.448 5.42139 212.849 16.7708 233.457 37.3787C254.065 57.9868 265.414 85.3872 265.414 114.533C265.414 146.529 251.442 176.796 227.081 197.573Z" fill="#3F3D56"/>
<path d="M189.867 197.381C189.867 197.698 190.122 197.953 190.439 197.953H295.364C295.681 197.953 295.936 197.698 295.936 197.381C295.936 197.063 295.681 196.809 295.364 196.809H190.439C190.122 196.809 189.867 197.063 189.867 197.381Z" fill="#CCCCCC"/>
<path d="M156.786 5.90234H155.824V39.2615H156.786V5.90234Z" fill="#3F3D56"/>
<path d="M81.6558 112.947H48.2969V113.909H81.6558V112.947Z" fill="#3F3D56"/>
<path d="M85.0808 32.4272L84.3359 33.0352L105.428 58.8797L106.173 58.2718L85.0808 32.4272Z" fill="#3F3D56"/>
<path d="M94.4179 157.783L68.5781 178.882L69.186 179.626L95.0258 158.528L94.4179 157.783Z" fill="#3F3D56"/>
<path d="M264.308 112.947H230.949V113.909H264.308V112.947Z" fill="#3F3D56"/>
<path d="M227.52 32.427L206.43 58.2729L207.175 58.8808L228.265 33.0349L227.52 32.427Z" fill="#3F3D56"/>
<path d="M218.19 157.786L217.582 158.531L243.427 179.623L244.035 178.879L218.19 157.786Z" fill="#3F3D56"/>
<path d="M156.306 124.627C163.739 124.627 169.765 118.602 169.765 111.169C169.765 103.736 163.739 97.71 156.306 97.71C148.873 97.71 142.848 103.736 142.848 111.169C142.848 118.602 148.873 124.627 156.306 124.627Z" fill="#3F3D56"/>
<path d="M218.307 162.599C220.961 162.599 223.113 160.447 223.113 157.793C223.113 155.138 220.961 152.986 218.307 152.986C215.652 152.986 213.5 155.138 213.5 157.793C213.5 160.447 215.652 162.599 218.307 162.599Z" fill="#3F3D56"/>
<path d="M228.885 119.34C231.539 119.34 233.691 117.188 233.691 114.533C233.691 111.879 231.539 109.727 228.885 109.727C226.23 109.727 224.078 111.879 224.078 114.533C224.078 117.188 226.23 119.34 228.885 119.34Z" fill="#3F3D56"/>
<path d="M205.814 63.5821C208.469 63.5821 210.621 61.4301 210.621 58.7754C210.621 56.1208 208.469 53.9688 205.814 53.9688C203.16 53.9688 201.008 56.1208 201.008 58.7754C201.008 61.4301 203.16 63.5821 205.814 63.5821Z" fill="#3F3D56"/>
<path d="M155.822 45.3165C158.477 45.3165 160.629 43.1644 160.629 40.5098C160.629 37.8551 158.477 35.7031 155.822 35.7031C153.168 35.7031 151.016 37.8551 151.016 40.5098C151.016 43.1644 153.168 45.3165 155.822 45.3165Z" fill="#3F3D56"/>
<path d="M106.314 63.5821C108.969 63.5821 111.121 61.4301 111.121 58.7754C111.121 56.1208 108.969 53.9688 106.314 53.9688C103.66 53.9688 101.508 56.1208 101.508 58.7754C101.508 61.4301 103.66 63.5821 106.314 63.5821Z" fill="#3F3D56"/>
<path d="M81.8028 117.898C84.4574 117.898 86.6094 115.746 86.6094 113.091C86.6094 110.437 84.4574 108.285 81.8028 108.285C79.1481 108.285 76.9961 110.437 76.9961 113.091C76.9961 115.746 79.1481 117.898 81.8028 117.898Z" fill="#3F3D56"/>
<path d="M95.2559 162.119C97.9105 162.119 100.063 159.967 100.063 157.313C100.063 154.658 97.9105 152.506 95.2559 152.506C92.6012 152.506 90.4492 154.658 90.4492 157.313C90.4492 159.967 92.6012 162.119 95.2559 162.119Z" fill="#3F3D56"/>
<path d="M129.897 116.958C132.551 116.958 134.703 114.806 134.703 112.151C134.703 109.496 132.551 107.344 129.897 107.344C127.242 107.344 125.09 109.496 125.09 112.151C125.09 114.806 127.242 116.958 129.897 116.958Z" fill="#3F3D56"/>
<path d="M240.83 103.839L133.26 108.471C131.403 108.551 129.963 110.121 130.043 111.978L130.043 111.978C130.123 113.834 131.693 115.275 133.55 115.195L241.119 110.562C242.976 110.482 244.416 108.912 244.336 107.056C244.256 105.199 242.686 103.759 240.83 103.839Z" fill="#706BAC"/>
<path d="M193.261 234.666L187.655 234.665L184.988 213.042L193.262 213.043L193.261 234.666Z" fill="#A0616A"/>
<path d="M174.056 234.538C173.881 234.832 173.789 235.781 173.789 236.123C173.789 237.174 174.641 238.026 175.692 238.026H193.053C193.77 238.026 194.351 237.444 194.351 236.728V236.005C194.351 236.005 195.21 233.832 193.441 231.155C193.441 231.155 191.244 233.251 187.96 229.968L186.992 228.213L179.982 233.34L176.097 233.818C175.247 233.923 174.493 233.802 174.056 234.538Z" fill="#2F2E41"/>
<path d="M222.773 234.666L217.167 234.665L214.5 213.042L222.774 213.043L222.773 234.666Z" fill="#A0616A"/>
<path d="M203.567 234.538C203.393 234.832 203.301 235.781 203.301 236.123C203.301 237.174 204.153 238.026 205.203 238.026H222.565C223.281 238.026 223.863 237.444 223.863 236.728V236.005C223.863 236.005 224.721 233.832 222.953 231.155C222.953 231.155 220.756 233.251 217.472 229.968L216.503 228.213L209.494 233.34L205.608 233.818C204.758 233.923 204.005 233.802 203.567 234.538Z" fill="#2F2E41"/>
<path d="M235.809 60.6018L236.403 85.9974L230.906 108.854L225.789 107.154L227.28 86.3316L225.968 58.2744L235.809 60.6018Z" fill="#A0616A"/>
<path d="M231.019 112.504C231.493 109.228 230.302 106.345 228.357 106.063C226.412 105.781 224.451 108.208 223.976 111.483C223.502 114.758 224.694 117.642 226.638 117.924C228.583 118.206 230.544 115.779 231.019 112.504Z" fill="#A0616A"/>
<path d="M222.871 37.6279C222.871 37.6279 232.302 37.6065 233.895 43.1328C235.551 48.879 238.193 70.3106 237.05 70.3118L225.275 71.8L222.871 37.6279Z" fill="#FF6C11"/>
<path d="M186.418 63.3075L181.221 88.1726L170.671 109.181L166.074 106.361L172.261 86.4236L180.248 58.8032L186.418 63.3075Z" fill="#A0616A"/>
<path d="M169.952 112.76C171.159 109.679 170.654 106.6 168.824 105.883C166.994 105.167 164.533 107.084 163.326 110.165C162.119 113.247 162.624 116.326 164.453 117.042C166.283 117.759 168.745 115.842 169.952 112.76Z" fill="#A0616A"/>
<path d="M184.74 38.6499C184.74 38.6499 189.898 40.9499 191.34 46.5174C192.651 51.5818 195.895 73.8679 186.365 72.8217L174.349 71.8604C174.263 60.0322 179.37 48.88 184.74 38.6499Z" fill="#FF6C11"/>
<path d="M183.22 111.169L181.297 128.473L182.258 177.096L184.181 222.683H194.351L205.811 139.528L213.244 222.683H225.053L228.402 166.445C228.402 166.445 230.806 114.053 226.48 109.727C222.154 105.401 183.22 111.169 183.22 111.169Z" fill="#2F2E41"/>
<path d="M215.184 28.7339H199.437L195.957 33.5406C195.957 33.5406 189.228 34.5019 184.902 38.8279L184.421 84.9719L181.297 115.146L228.398 113.812L225.518 97.229L227.437 39.0266C227.437 39.0266 222.394 33.0599 219.029 34.0212L215.184 28.7339Z" fill="#FF6C11"/>
<path d="M203.313 26.1644C209.82 26.1644 215.095 20.8893 215.095 14.3822C215.095 7.87514 209.82 2.6001 203.313 2.6001C196.806 2.6001 191.531 7.87514 191.531 14.3822C191.531 20.8893 196.806 26.1644 203.313 26.1644Z" fill="#A0616A"/>
<path d="M213.435 3.41048C212.117 2.24966 210.308 1.5814 208.582 1.69984C207.536 1.77162 206.52 1.44262 205.591 0.955712C205.528 0.922748 205.464 0.892735 205.399 0.865842C204.813 0.623855 204.163 0.59674 203.529 0.612093C202.375 0.640092 201.009 -0.517802 200.105 1.08799C196.683 0.443537 196.367 2.43211 194.775 3.60393C194.324 3.33777 191.405 3.82264 191.098 4.30151C190.864 4.66619 190.701 5.03773 190.591 5.3985C190.521 5.62993 190.948 6.47429 190.915 6.69221C190.883 6.91013 190.391 6.50162 190.387 6.69674C190.376 7.21904 190.449 7.64299 190.51 7.87943C190.666 8.48288 189.064 7.70978 188.538 8.04464C188.012 8.37953 188.549 9.92893 188.034 10.2813C187.421 10.7017 187.827 11.1663 188.362 11.7158C188.73 12.0945 189.16 12.5134 189.359 12.9859C189.846 14.1439 187.168 15.1701 188.401 14.9254C189.673 14.6728 190.087 16.6525 191.158 15.9201C193.578 14.2633 193.491 14.3993 195.604 16.4343C196.191 16.9994 197.343 14.7865 198.119 15.0348C199.581 15.5028 200.775 17.0712 201.74 19.442C201.877 19.7776 200.582 25.2522 200.522 25.6095C200.383 26.442 204.26 24.5636 204.249 25.4716C204.236 26.6699 206.366 25.1594 206.979 26.2097C207.056 26.114 211.377 24.1488 211.584 23.9962L214.578 21.1024C216.54 17.7438 217.29 13.6931 216.659 9.85467C216.261 7.43714 215.274 5.02975 213.435 3.41048Z" fill="#2F2E41"/>
<path d="M155.738 238.238C155.738 238.555 155.993 238.81 156.31 238.81H261.235C261.552 238.81 261.807 238.555 261.807 238.238C261.807 237.92 261.552 237.666 261.235 237.666H156.31C155.993 237.666 155.738 237.92 155.738 238.238Z" fill="#CCCCCC"/>
<path d="M0 197.381C0 197.698 0.254768 197.953 0.572023 197.953H105.497C105.814 197.953 106.069 197.698 106.069 197.381C106.069 197.063 105.814 196.809 105.497 196.809H0.572023C0.254768 196.809 0 197.063 0 197.381Z" fill="#CCCCCC"/>
</svg>
