<svg width="243" height="236" viewBox="0 0 243 236" fill="none" xmlns="http://www.w3.org/2000/svg">
<g clip-path="url(#clip0_792_486)">
<path d="M93.9873 214.061L87.6962 219.853L92.6959 211.464C88.7569 204.321 82.3146 198.147 82.3146 198.147C82.3146 198.147 68.9492 210.953 68.9492 221.018C68.9492 231.084 74.9331 234.598 82.3146 234.598C89.6961 234.598 95.6799 231.084 95.6799 221.018C95.6799 218.778 95.0168 216.402 93.9873 214.061Z" fill="#F2F2F2"/>
<path d="M86.0773 220.167V220.663C86.0478 226.43 85.0752 230.93 83.1667 234.098C83.1397 234.145 83.1102 234.189 83.0832 234.236L82.8695 234.106L82.6657 233.978C84.7829 230.556 85.532 225.72 85.5591 220.69C85.5615 220.528 85.564 220.363 85.5615 220.199C85.5542 218.069 85.424 215.915 85.2152 213.822C85.2005 213.66 85.1833 213.496 85.1661 213.331C84.8763 210.57 84.4587 207.932 84.0313 205.641C84.0018 205.479 83.9699 205.317 83.938 205.157C83.1987 201.281 82.4446 198.474 82.2727 197.852C82.253 197.776 82.2407 197.734 82.2383 197.724L82.4716 197.658L82.4741 197.656L82.7099 197.589C82.7123 197.599 82.7541 197.739 82.8229 198C83.0857 198.972 83.7685 201.613 84.439 205.095C84.4685 205.253 84.5005 205.415 84.5299 205.577C84.8787 207.436 85.2201 209.514 85.4903 211.695C85.5591 212.243 85.6205 212.783 85.6745 213.316C85.6942 213.481 85.7114 213.646 85.7261 213.808C85.9521 216.07 86.0691 218.19 86.0773 220.167Z" fill="white"/>
<path d="M84.4396 205.096C84.2751 205.118 84.1081 205.14 83.9386 205.157C83.4783 205.205 83.016 205.228 82.5533 205.228C80.5815 205.231 78.6342 204.791 76.8549 203.941C76.7517 204.072 76.6486 204.202 76.543 204.334C78.4147 205.248 80.4705 205.722 82.5533 205.72C83.0472 205.72 83.5408 205.693 84.0319 205.641C84.1989 205.624 84.366 205.602 84.5305 205.577C85.8889 205.382 87.2099 204.982 88.4482 204.391C88.3425 204.256 88.2394 204.123 88.1387 203.993C86.9667 204.541 85.7202 204.912 84.4396 205.096Z" fill="white"/>
<path d="M85.6738 213.317C85.5044 213.327 85.3349 213.332 85.1654 213.332C85.1138 213.334 85.0598 213.334 85.0082 213.334C82.8716 213.334 80.7667 212.817 78.8729 211.828C76.9792 210.839 75.3527 209.406 74.1321 207.653C74.0339 207.798 73.9356 207.943 73.8398 208.09C75.112 209.864 76.7886 211.31 78.7308 212.308C80.673 213.305 82.8249 213.825 85.0082 213.825C85.077 213.825 85.1457 213.825 85.2145 213.823C85.3864 213.82 85.5559 213.815 85.7254 213.808C88.3479 213.674 90.8762 212.787 93.008 211.254C92.9294 211.109 92.8508 210.964 92.7698 210.819C90.6979 212.324 88.2318 213.192 85.6738 213.317Z" fill="white"/>
<path d="M86.0744 220.167C85.9024 220.182 85.7305 220.192 85.5586 220.199C85.3744 220.206 85.1901 220.211 85.0059 220.211C82.1349 220.208 79.3423 219.275 77.046 217.552C74.7497 215.828 73.0734 213.408 72.2681 210.652C72.1576 210.851 72.047 211.047 71.9414 211.246C72.8488 213.996 74.5995 216.389 76.9448 218.087C79.2901 219.784 82.1107 220.7 85.0059 220.703C85.1901 220.703 85.3744 220.7 85.5561 220.69C85.7305 220.685 85.9024 220.676 86.0744 220.663C89.5472 220.392 92.787 218.81 95.1378 216.24C95.0862 216.058 95.0272 215.879 94.9683 215.697C92.6977 218.287 89.5075 219.89 86.0744 220.167Z" fill="white"/>
<path d="M241.941 12.5859H1.05934C0.966828 12.5856 0.878219 12.5487 0.812914 12.4831C0.74761 12.4176 0.710938 12.3288 0.710938 12.2363C0.710938 12.1438 0.74761 12.0551 0.812914 11.9895C0.878219 11.924 0.966828 11.887 1.05934 11.8867H241.941C242.034 11.887 242.123 11.924 242.188 11.9895C242.253 12.0551 242.29 12.1438 242.29 12.2363C242.29 12.3288 242.253 12.4176 242.188 12.4831C242.123 12.5487 242.034 12.5856 241.941 12.5859Z" fill="#CACACA"/>
<path d="M8.92775 7.69144C11.0517 7.69144 12.7735 5.96966 12.7735 3.84572C12.7735 1.72179 11.0517 0 8.92775 0C6.80382 0 5.08203 1.72179 5.08203 3.84572C5.08203 5.96966 6.80382 7.69144 8.92775 7.69144Z" fill="#3F3D56"/>
<path d="M22.2129 7.69144C24.3368 7.69144 26.0586 5.96966 26.0586 3.84572C26.0586 1.72179 24.3368 0 22.2129 0C20.089 0 18.3672 1.72179 18.3672 3.84572C18.3672 5.96966 20.089 7.69144 22.2129 7.69144Z" fill="#3F3D56"/>
<path d="M35.4981 7.69144C37.622 7.69144 39.3438 5.96966 39.3438 3.84572C39.3438 1.72179 37.622 0 35.4981 0C33.3741 0 31.6523 1.72179 31.6523 3.84572C31.6523 5.96966 33.3741 7.69144 35.4981 7.69144Z" fill="#3F3D56"/>
<path d="M233.98 2.35255H224.541C224.356 2.35191 224.178 2.27796 224.048 2.1469C223.917 2.01584 223.844 1.83835 223.844 1.65333C223.844 1.4683 223.917 1.29081 224.048 1.15975C224.178 1.02869 224.356 0.954745 224.541 0.954106H233.98C234.072 0.953788 234.163 0.971638 234.248 1.00663C234.333 1.04163 234.411 1.09309 234.476 1.15805C234.541 1.22301 234.593 1.30019 234.628 1.38518C234.664 1.47018 234.682 1.5613 234.682 1.65333C234.682 1.74535 234.664 1.83648 234.628 1.92147C234.593 2.00646 234.541 2.08364 234.476 2.1486C234.411 2.21356 234.333 2.26502 234.248 2.30002C234.163 2.33501 234.072 2.35286 233.98 2.35255Z" fill="#3F3D56"/>
<path d="M233.98 4.97462H224.541C224.356 4.97398 224.178 4.90003 224.048 4.76897C223.917 4.63791 223.844 4.46042 223.844 4.2754C223.844 4.09037 223.917 3.91288 224.048 3.78182C224.178 3.65076 224.356 3.57682 224.541 3.57618H233.98C234.072 3.57586 234.163 3.59371 234.248 3.6287C234.333 3.6637 234.411 3.71516 234.476 3.78012C234.541 3.84508 234.593 3.92226 234.628 4.00725C234.664 4.09225 234.682 4.18337 234.682 4.2754C234.682 4.36742 234.664 4.45855 234.628 4.54354C234.593 4.62853 234.541 4.70571 234.476 4.77068C234.411 4.83564 234.333 4.88709 234.248 4.92209C234.163 4.95708 234.072 4.97493 233.98 4.97462Z" fill="#3F3D56"/>
<path d="M233.98 7.59669H224.541C224.356 7.59605 224.178 7.5221 224.048 7.39104C223.917 7.25998 223.844 7.08249 223.844 6.89747C223.844 6.71244 223.917 6.53496 224.048 6.4039C224.178 6.27284 224.356 6.19889 224.541 6.19825H233.98C234.072 6.19793 234.163 6.21578 234.248 6.25078C234.333 6.28578 234.411 6.33723 234.476 6.40219C234.541 6.46715 234.593 6.54434 234.628 6.62933C234.664 6.71432 234.682 6.80544 234.682 6.89747C234.682 6.98949 234.664 7.08062 234.628 7.16561C234.593 7.2506 234.541 7.32779 234.476 7.39275C234.411 7.45771 234.333 7.50916 234.248 7.54416C234.163 7.57915 234.072 7.59701 233.98 7.59669Z" fill="#3F3D56"/>
<path d="M228.712 28.397H7.96484V145.352H228.712V28.397Z" fill="#F0F0F0"/>
<path d="M228.712 50.2891V49.1421H185.742V28.397H184.595V49.1421H141.624V28.397H140.477V49.1421H97.5059V28.397H96.359V49.1421H53.388V28.397H52.241V49.1421H7.96484V50.2891H52.241V73.2072H7.96484V74.3541H52.241V97.2722H7.96484V98.4191H52.241V121.333H7.96484V122.48H52.241V145.352H53.388V122.48H96.359V145.352H97.5059V122.48H140.477V145.352H141.624V122.48H184.595V145.352H185.742V122.48H228.712V121.333H185.742V98.4191H228.712V97.2722H185.742V74.3541H228.712V73.2072H185.742V50.2891L228.712 50.2891ZM96.359 121.333H53.388V98.4191H96.359V121.333ZM96.359 97.2722H53.388V74.3541H96.359V97.2722ZM96.359 73.2072H53.388V50.2891H96.359V73.2072ZM140.477 121.333H97.5059V98.4192H140.477V121.333ZM140.477 97.2722H97.5059V74.3541H140.477V97.2722ZM140.477 73.2072H97.5059V50.2891H140.477V73.2072ZM184.595 121.333H141.624V98.4192H184.595V121.333ZM184.595 97.2722H141.624V74.3541H184.595V97.2722ZM184.595 73.2072H141.624V50.2891H184.595V73.2072Z" fill="white"/>
<path d="M76.7056 55.8623H61.9375V70.1596H76.7056V55.8623Z" fill="#CACACA"/>
<path d="M212.67 102.158H197.902V116.455H212.67V102.158Z" fill="#CACACA"/>
<path d="M81.2916 125.931H66.5234V140.228H81.2916V125.931Z" fill="#CACACA"/>
<path d="M85.6588 53.21H70.8906V67.5073H85.6588V53.21Z" fill="#FF6C11"/>
<path d="M155.078 112.641L172.603 97.0273L177.773 99.589L156.754 121.635L155.078 112.641Z" fill="#FFB6B6"/>
<path d="M174.909 102.394C177.212 102.394 179.08 100.526 179.08 98.223C179.08 95.9195 177.212 94.0522 174.909 94.0522C172.606 94.0522 170.738 95.9195 170.738 98.223C170.738 100.526 172.606 102.394 174.909 102.394Z" fill="#FFB6B6"/>
<path d="M138.674 230.164H134.527L132.555 214.169L138.675 214.169L138.674 230.164Z" fill="#FFB6B6"/>
<path d="M139.738 234.183L126.367 234.182V234.013C126.367 232.633 126.916 231.309 127.892 230.333C128.868 229.357 130.191 228.809 131.571 228.809L139.738 228.809L139.738 234.183Z" fill="#2F2E41"/>
<path d="M123.663 230.164H119.516L117.543 214.169L123.663 214.169L123.663 230.164Z" fill="#FFB6B6"/>
<path d="M124.718 234.183L111.348 234.182V234.013C111.348 232.633 111.896 231.309 112.872 230.333C113.848 229.357 115.172 228.809 116.552 228.809L124.719 228.809L124.718 234.183Z" fill="#2F2E41"/>
<path d="M142.159 138.735C142.159 138.735 152.586 137.901 149.249 156.252C145.913 174.603 139.001 224.802 139.001 224.802L132.735 225.664L129.034 158.699L126.233 225.664L118.264 224.802L110.462 152.915C110.462 152.915 107.956 147.135 110.46 143.144C112.964 139.152 142.159 138.735 142.159 138.735Z" fill="#2F2E41"/>
<path d="M135.484 93.2736L138.379 91.7227C138.379 91.7227 145.512 91.1144 148.422 99.4927L156.142 111.152L168.654 100.308L174.076 104.062L158.307 122.882L151.75 123.72L137.57 105.369L135.484 93.2736Z" fill="#3F3D56"/>
<path d="M124.981 59.4351C113.087 59.4351 109.758 72.5006 109.758 79.8716C109.758 87.2425 116.573 86.1276 124.981 86.1276C128.59 86.1276 131.903 86.3314 134.512 85.983L135.767 82.9188L136.777 85.4577C138.918 84.6709 140.204 83.0715 140.204 79.8716C140.204 72.5006 137.285 59.4351 124.981 59.4351Z" fill="#2F2E41"/>
<path d="M124.931 86.1158C130.589 86.1158 135.175 81.5296 135.175 75.8721C135.175 70.2147 130.589 65.6284 124.931 65.6284C119.274 65.6284 114.688 70.2147 114.688 75.8721C114.688 81.5296 119.274 86.1158 124.931 86.1158Z" fill="#FFB6B6"/>
<path d="M113.094 74.8668H117.145L118.933 69.862L119.29 74.8668H121.227L122.269 71.9473L122.478 74.8668H136.867C136.867 71.9908 135.724 69.2327 133.691 67.199C131.657 65.1654 128.899 64.0229 126.023 64.0229H123.938C121.062 64.0229 118.303 65.1654 116.27 67.199C114.236 69.2327 113.094 71.9908 113.094 74.8668Z" fill="#2F2E41"/>
<path d="M181.585 82.4053H166.816V96.7026H181.585V82.4053Z" fill="#FF6C11"/>
<path d="M145.401 134.961C143.828 134.981 139.091 106.871 139.091 106.871L138.381 91.7228L133.205 91.5488V91.2083C133.205 90.5246 132.933 89.8689 132.45 89.3854C131.967 88.902 131.311 88.6304 130.627 88.6304H120.768C120.114 88.6307 119.483 88.8805 119.006 89.3289C118.529 89.7773 118.24 90.3907 118.199 91.0443L114.14 90.9079L107.109 113.244C107.109 113.244 113.587 133.997 110.461 143.143C110.461 143.143 140.923 145.759 146.755 139.953C146.755 139.953 146.974 134.94 145.401 134.961Z" fill="#3F3D56"/>
<path d="M115.886 93.6905L114.142 90.9076C114.142 90.9076 108.465 89.5043 106.128 93.2657C103.791 97.0271 96.9219 117.408 96.9219 117.408L104.012 119.91L112.058 108.631L115.886 93.6905Z" fill="#3F3D56"/>
<path d="M133.62 108.264H118.852V122.561H133.62V108.264Z" fill="#FF6C11"/>
<path d="M107.521 113.431L102.383 112.887C102.058 113.579 101.896 114.336 101.907 115.101C101.918 115.865 102.103 116.617 102.448 117.299C102.792 117.981 103.288 118.576 103.896 119.039C104.505 119.502 105.21 119.82 105.96 119.969L126.29 124.027L124.169 117.496L107.521 113.431Z" fill="#FFB6B6"/>
<path d="M126.354 124.102C128.658 124.102 130.525 122.235 130.525 119.931C130.525 117.628 128.658 115.761 126.354 115.761C124.051 115.761 122.184 117.628 122.184 119.931C122.184 122.235 124.051 124.102 126.354 124.102Z" fill="#FFB6B6"/>
<path d="M121.145 124.229L105.657 120.69C104.535 120.43 103.499 119.885 102.649 119.108C101.799 118.33 101.164 117.347 100.806 116.252L100.18 114.322L104.199 111.159L122.614 116.306L121.145 124.229Z" fill="#3F3D56"/>
<path d="M208.177 235.023H49.2725C49.1619 235.023 49.0558 234.979 48.9776 234.9C48.8994 234.822 48.8555 234.716 48.8555 234.606C48.8555 234.495 48.8994 234.389 48.9776 234.311C49.0558 234.232 49.1619 234.188 49.2725 234.188H208.177C208.287 234.188 208.394 234.232 208.472 234.311C208.55 234.389 208.594 234.495 208.594 234.606C208.594 234.716 208.55 234.822 208.472 234.9C208.394 234.979 208.287 235.023 208.177 235.023Z" fill="#CACACA"/>
</g>
<defs>
<clipPath id="clip0_792_486">
<rect width="241.581" height="235.022" fill="white" transform="translate(0.710938)"/>
</clipPath>
</defs>
</svg>
