<svg width="292" height="236" viewBox="0 0 292 236" fill="none" xmlns="http://www.w3.org/2000/svg">
<path d="M166.178 208.066C164.161 205.242 161.43 203.175 157.997 202.402C155.004 201.727 151.926 201.842 148.883 201.866L110.408 202.162C107.113 202.188 103.954 205.043 104.107 208.464C104.259 211.856 106.876 214.792 110.408 214.765C121.679 214.678 132.949 214.591 144.22 214.504C146.877 214.484 149.535 214.436 152.192 214.445C152.789 214.447 153.383 214.478 153.979 214.485C154.124 214.487 154.228 214.485 154.302 214.482C154.32 214.488 154.336 214.493 154.36 214.5C154.671 214.585 154.99 214.644 155.303 214.725C155.193 214.728 155.506 214.923 155.662 214.989C155.684 215.032 155.73 215.107 155.807 215.224C155.914 215.424 156.231 216.034 156.244 216.015C156.72 217.22 157.113 218.456 157.42 219.714C158.153 222.49 158.314 223.07 158.419 225.674C158.552 228.963 161.222 232.132 164.72 231.975C168.02 231.827 171.165 229.202 171.022 225.674C170.781 219.729 169.737 213.052 166.178 208.066Z" fill="#E6E6E6"/>
<path d="M112.67 222.286C111.948 217.906 111.239 213.524 110.502 209.148C109.755 204.707 108.228 200.641 104.773 197.727C103.849 196.949 102.892 196.222 101.931 195.497C101.593 195.242 101.255 194.987 100.921 194.727C100.901 194.711 100.888 194.702 100.871 194.688C100.834 194.657 100.79 194.619 100.731 194.569C99.291 193.35 97.8995 192.077 96.574 190.724C95.3969 189.522 94.2712 188.269 93.1969 186.965C92.9285 186.639 92.6635 186.31 92.4019 185.979C92.357 185.922 92.1147 185.608 91.955 185.404C91.8066 185.2 91.5352 184.83 91.4897 184.766C91.1841 184.334 90.884 183.898 90.5893 183.457C88.5823 180.45 86.8444 177.272 85.3958 173.96C85.2521 173.631 85.1119 173.301 84.975 172.969C84.9383 172.867 84.8908 172.737 84.8277 172.563C84.5358 171.761 84.2445 170.959 83.9776 170.147C83.4105 168.421 82.9229 166.671 82.5149 164.894C82.3132 164.017 82.1316 163.136 81.9701 162.25C81.8869 161.794 81.809 161.338 81.7365 160.88C81.7245 160.804 81.6538 160.311 81.6121 160.032C81.5813 159.751 81.524 159.255 81.5163 159.179C81.4701 158.717 81.4292 158.256 81.3934 157.794C81.3128 156.754 81.2584 155.712 81.23 154.669C81.1815 152.815 81.2147 150.961 81.3296 149.108C81.395 148.066 81.488 147.027 81.6027 145.99C81.6096 145.927 81.615 145.876 81.62 145.83C81.6269 145.784 81.635 145.731 81.6446 145.666C81.7294 145.093 81.8186 144.521 81.9184 143.95C82.2964 141.784 82.7879 139.64 83.3911 137.525C83.6766 136.525 83.9868 135.533 84.3216 134.55C84.4708 134.113 84.6248 133.678 84.7835 133.245C84.7731 133.273 85.2491 132.057 85.2554 132.016C87.1439 127.554 90.2326 123.487 90.2369 118.418C90.2397 114.987 87.3365 111.699 83.9355 111.858C82.2398 111.922 80.6351 112.642 79.4596 113.865C78.2841 115.089 77.6296 116.721 77.6341 118.418C77.6341 118.495 77.6337 118.561 77.6335 118.625C77.6018 118.732 77.5753 118.821 77.5514 118.9C77.1832 119.7 76.732 120.46 76.3278 121.241C75.2209 123.377 74.2761 125.583 73.3786 127.821C71.9094 131.466 70.7848 135.241 70.0195 139.096C68.3561 147.542 68.227 156.219 69.6384 164.711C72.0816 179.603 80.1387 193.859 91.3399 203.441C92.312 204.272 93.3077 205.076 94.3129 205.863C94.7288 206.189 95.1482 206.509 95.5698 206.826C95.769 206.977 96.5944 207.627 96.2313 207.312C97.012 207.978 97.3407 208.314 97.5413 208.805C97.5703 208.918 97.6099 209.071 97.6636 209.281C97.8049 209.835 97.9391 210.387 98.0507 210.948C99.0256 215.852 99.7033 220.838 100.518 225.774C101.078 229.165 105.252 231.372 108.269 230.356C111.781 229.173 113.27 225.919 112.67 222.286Z" fill="#E6E6E6"/>
<path d="M166.811 235.005C164.165 235.012 161.624 233.969 159.746 232.105C157.867 230.241 156.805 227.707 156.792 225.061V217.873C149.266 218.715 123.496 218.52 116.109 217.333V224.774C116.089 227.418 115.025 229.947 113.148 231.81C111.271 233.673 108.734 234.718 106.09 234.718C103.445 234.718 100.908 233.673 99.0315 231.81C97.1546 229.947 96.0903 227.418 96.0705 224.774V210.165C86.0654 204.607 77.7247 196.48 71.9092 186.622C66.0937 176.764 63.0142 165.533 62.9883 154.088C62.9883 134.463 71.8823 116.156 87.3898 103.861C97.4727 95.8392 109.723 91.0152 122.568 90.0081C124.312 89.8713 126.066 89.8021 127.782 89.8021C133.828 89.8021 161.108 90.7361 167.953 92.7053L183.559 77.219C183.789 76.9882 184.082 76.831 184.401 76.7674C184.72 76.7038 185.051 76.7367 185.351 76.8619C185.654 76.9823 185.913 77.1914 186.095 77.4618C186.276 77.7321 186.372 78.0511 186.369 78.3769V80.8391L189.408 77.8294C189.637 77.5984 189.93 77.4409 190.249 77.3772C190.568 77.3135 190.899 77.3464 191.199 77.4717C191.502 77.592 191.761 77.8012 191.943 78.0717C192.125 78.3421 192.221 78.6613 192.218 78.9872V106.502C200.049 113.563 206.018 122.445 209.595 132.364C213.173 142.282 214.248 152.93 212.726 163.364C211.204 173.797 207.132 183.694 200.871 192.177C194.609 200.661 186.352 207.469 176.83 211.998V225.061C176.817 227.707 175.755 230.241 173.877 232.105C171.999 233.969 169.458 235.012 166.811 235.005ZM157.58 216.98V225.061C157.6 227.496 158.581 229.825 160.31 231.54C162.039 233.255 164.376 234.218 166.811 234.218C169.247 234.218 171.583 233.255 173.312 231.54C175.042 229.825 176.023 227.496 176.043 225.061V211.5L176.268 211.394C186.951 206.324 196.021 198.392 202.47 188.48C210.687 175.83 214.105 160.657 212.104 145.706C210.103 130.755 202.815 117.015 191.561 106.971L191.43 106.854V78.9872C191.433 78.8179 191.384 78.6518 191.289 78.5113C191.195 78.3707 191.059 78.2625 190.902 78.2013C190.745 78.1342 190.571 78.1161 190.404 78.1493C190.236 78.1826 190.083 78.2656 189.964 78.3876L185.582 82.7279V78.3768C185.584 78.2075 185.535 78.0414 185.441 77.9009C185.346 77.7604 185.211 77.6522 185.053 77.5909C184.896 77.5239 184.722 77.506 184.554 77.5395C184.387 77.573 184.233 77.6563 184.114 77.7786L168.173 93.5964L167.946 93.5255C161.583 91.534 133.874 90.5898 127.782 90.5898C126.086 90.5898 124.353 90.6582 122.63 90.7934C109.941 91.7882 97.8395 96.5537 87.8793 104.478C72.5612 116.623 63.7759 134.705 63.7759 154.088C63.8021 165.432 66.8652 176.562 72.6471 186.322C78.4289 196.082 86.7186 204.116 96.655 209.589L96.8581 209.702V224.774C96.8784 227.209 97.86 229.537 99.5891 231.252C101.318 232.966 103.655 233.928 106.09 233.928C108.525 233.928 110.861 232.966 112.59 231.252C114.319 229.537 115.301 227.209 115.321 224.774V216.391L115.788 216.478C122.426 217.727 150.379 217.924 157.135 217.038L157.58 216.98Z" fill="#3F3D56"/>
<path d="M113.423 46.9134L69.8099 60.0202C68.4227 60.4388 67.2584 61.3909 66.5727 62.6673C65.8871 63.9438 65.7362 65.4403 66.1532 66.8279C66.5702 68.2156 67.5209 69.381 68.7966 70.0681C70.0723 70.7552 71.5686 70.9077 72.9568 70.4923L111.123 59.0199L111.923 58.7796C112.085 54.6595 113.202 50.6335 115.188 47.0197C114.939 46.9076 114.672 46.8384 114.4 46.8149C114.071 46.7831 113.739 46.8165 113.423 46.9134Z" fill="#FF6C11"/>
<path d="M72.2002 73.2869C71.6212 73.2855 71.0574 73.1022 70.5883 72.7629C70.1192 72.4235 69.7686 71.9454 69.586 71.396L66.8587 63.1664C66.7448 62.8227 66.6997 62.46 66.726 62.0989C66.7523 61.7378 66.8495 61.3854 67.012 61.0619C67.1745 60.7383 67.3991 60.45 67.6731 60.2132C67.9471 59.9765 68.265 59.7961 68.6086 59.6823L104.106 47.9183C104.449 47.8044 104.812 47.7593 105.173 47.7856C105.534 47.8119 105.886 47.909 106.21 48.0714C106.533 48.2339 106.822 48.4584 107.059 48.7323C107.295 49.0062 107.476 49.3241 107.59 49.6677L110.317 57.8973C110.544 58.5742 110.498 59.3128 110.19 59.9567C109.882 60.6006 109.335 61.0993 108.666 61.347C108.633 61.3593 108.6 61.3709 108.566 61.3818L73.0701 73.1454C72.7896 73.2389 72.4959 73.2867 72.2002 73.2869Z" fill="#2F2E41"/>
<path d="M138.678 32.2979C131.514 32.3006 124.631 35.091 119.488 40.0784C114.345 45.0658 111.344 51.8588 111.121 59.0196C111.113 59.2992 111.109 59.5828 111.109 59.8664C111.109 65.3189 112.726 70.649 115.755 75.1826C118.785 79.7162 123.09 83.2497 128.128 85.3363C133.165 87.4229 138.708 87.9689 144.056 86.9051C149.404 85.8414 154.316 83.2158 158.172 79.3602C162.027 75.5047 164.653 70.5925 165.717 65.2447C166.78 59.8969 166.234 54.3538 164.148 49.3164C162.061 44.2789 158.528 39.9733 153.994 36.944C149.461 33.9147 144.13 32.2979 138.678 32.2979ZM138.678 86.6472C131.577 86.6398 124.77 83.8159 119.749 78.7951C114.728 73.7743 111.904 66.9668 111.897 59.8664C111.897 59.5001 111.905 59.1378 111.921 58.7794C112.134 53.5334 113.885 48.4658 116.955 44.2068C120.025 39.9478 124.28 36.6852 129.189 34.8248C134.099 32.9643 139.447 32.5881 144.569 33.7429C149.69 34.8976 154.36 37.5324 157.996 41.3196C161.632 45.1069 164.075 49.8794 165.021 55.0439C165.966 60.2083 165.373 65.5368 163.315 70.3667C161.256 75.1967 157.823 79.315 153.443 82.2096C149.063 85.1042 143.928 86.6473 138.678 86.6472Z" fill="#3F3D56"/>
<path d="M161.914 59.8656C161.914 66.0283 159.466 71.9385 155.108 76.2962C150.751 80.6538 144.84 83.1019 138.678 83.1019C132.515 83.1019 126.605 80.6538 122.247 76.2962C117.89 71.9385 115.441 66.0283 115.441 59.8656C115.441 59.1291 115.477 58.4045 115.544 57.6877C116.104 51.7401 118.933 46.2367 123.444 42.3201C127.955 38.4035 133.801 36.3747 139.768 36.655C145.735 36.9353 151.365 39.5031 155.489 43.8252C159.613 48.1473 161.914 53.8917 161.914 59.8656Z" fill="#E6E6E6"/>
<path d="M145.6 61.4099C145.037 60.6694 144.296 60.0829 143.446 59.7046C142.398 59.2627 141.315 58.9071 140.209 58.6412V52.3162C141.909 52.5726 143.504 53.2997 144.813 54.4154L146.097 51.6782C145.358 51.0204 144.51 50.4966 143.592 50.1304C142.573 49.7181 141.505 49.4439 140.414 49.3152V46.1094H137.44V49.3467C136.292 49.4757 135.184 49.8476 134.191 50.4376C133.294 50.9688 132.538 51.7093 131.989 52.5958C131.466 53.4611 131.194 54.4555 131.206 55.4669C131.155 56.5629 131.472 57.6444 132.108 58.5388C132.693 59.3132 133.465 59.9258 134.352 60.319C135.417 60.7739 136.519 61.1388 137.645 61.4099V67.471C135.638 67.3197 133.726 66.5568 132.167 65.2852L130.883 68.0263C131.755 68.7473 132.747 69.3098 133.813 69.6883C134.981 70.1065 136.202 70.3609 137.44 70.4445V73.6227H140.414V70.3854C142.065 70.2049 143.614 69.4948 144.828 68.3611C145.363 67.8482 145.786 67.2298 146.069 66.545C146.353 65.8603 146.491 65.1242 146.475 64.3834C146.524 63.3223 146.216 62.2753 145.6 61.4099ZM137.645 57.9717C136.921 57.7521 136.247 57.3906 135.664 56.9084C135.433 56.7027 135.25 56.4485 135.129 56.1638C135.008 55.8792 134.951 55.5713 134.963 55.2621C134.941 54.5607 135.199 53.8793 135.68 53.3678C136.212 52.8311 136.899 52.4744 137.645 52.3477V57.9717ZM142.076 66.3525C141.573 66.8678 140.919 67.2087 140.209 67.3253V62.1109C140.888 62.2931 141.523 62.6105 142.076 63.0443C142.285 63.2234 142.452 63.4474 142.563 63.6996C142.674 63.9519 142.727 64.226 142.717 64.5015C142.745 65.1774 142.516 65.8387 142.076 66.3525Z" fill="#FF6C11"/>
<path d="M73.4626 106.64C72.8538 106.639 72.2623 106.437 71.7799 106.066C71.2975 105.694 70.951 105.174 70.7944 104.586L69.3095 98.9658C69.1237 98.2594 69.2256 97.5082 69.5929 96.8768C69.9602 96.2454 70.563 95.7856 71.2689 95.598L118.112 83.2199C118.819 83.0354 119.57 83.1385 120.201 83.5064C120.832 83.8744 121.292 84.4773 121.48 85.1833L122.738 89.9447L122.502 89.963C110.488 90.8971 98.9933 95.2529 89.3773 102.515L89.309 102.548L74.162 106.549C73.9338 106.61 73.6987 106.64 73.4626 106.64Z" fill="#2F2E41"/>
<path d="M65.7093 134.4C60.2144 133.588 54.9591 131.601 50.3016 128.574C47.9942 127.076 45.8581 125.329 43.9317 123.364C42.0303 121.425 40.2114 119.221 39.2696 116.638C38.3635 114.248 38.4102 111.602 39.4 109.246C40.3764 106.904 42.2415 105.045 44.5864 104.077C46.9453 103.136 49.7953 103.035 52.0911 104.065C53.185 104.545 54.1317 105.307 54.8339 106.273C55.1603 106.719 55.4019 107.22 55.5468 107.753C55.6813 108.236 55.6935 108.745 55.5824 109.234C55.4478 109.722 55.2104 110.175 54.8861 110.564C54.5619 110.953 54.1582 111.268 53.7023 111.488C52.6989 112.003 51.6116 112.334 50.4917 112.467C49.3653 112.621 47.7472 112.76 46.8416 111.856C46.6552 111.677 46.5086 111.461 46.4113 111.222C46.3433 111.038 46.32 110.842 46.3434 110.647C46.3302 110.733 46.3981 110.461 46.3942 110.472C46.3799 110.512 46.3179 110.61 46.406 110.46C46.4336 110.41 46.4642 110.363 46.4978 110.317C46.4679 110.356 46.4022 110.42 46.5195 110.309C46.6165 110.203 46.7412 110.126 46.8796 110.087C46.9341 110.071 46.9894 110.059 47.0441 110.044C47.183 110.006 46.9056 110.046 47.0477 110.041C47.1026 110.039 47.1581 110.041 47.2128 110.038C47.3522 110.032 47.0752 110 47.2088 110.034C47.2607 110.047 47.3121 110.06 47.3632 110.076C47.4743 110.111 47.2845 109.994 47.3598 110.081C47.4481 110.184 47.2672 109.982 47.3675 110.081C47.4174 110.13 47.4644 110.182 47.5083 110.236C47.6822 110.408 47.9168 110.504 48.1611 110.504C48.4055 110.504 48.64 110.408 48.8139 110.236C48.9819 110.06 49.0756 109.827 49.0756 109.584C49.0756 109.34 48.9819 109.107 48.8139 108.931C47.9036 107.802 46.1055 108.081 45.1846 109.035C44.0102 110.251 44.4753 112.179 45.6176 113.24C46.9109 114.442 48.7425 114.525 50.406 114.324C51.8119 114.189 53.182 113.802 54.4504 113.181C55.7107 112.562 56.6964 111.497 57.2167 110.192C57.4516 109.496 57.5359 108.758 57.4642 108.027C57.3925 107.296 57.1663 106.588 56.8006 105.951C55.3319 103.19 52.2906 101.774 49.2845 101.529C47.7369 101.408 46.1805 101.595 44.7055 102.079C43.2305 102.563 41.8662 103.335 40.6915 104.35C38.4274 106.388 37.0331 109.219 36.7972 112.256C36.5348 115.405 37.7566 118.464 39.538 121.005C41.4029 123.587 43.6283 125.889 46.1463 127.839C51.069 131.77 56.8434 134.493 63.0072 135.791C63.7404 135.943 64.4775 136.072 65.2185 136.18C65.4543 136.237 65.703 136.202 65.914 136.083C66.1249 135.963 66.2823 135.767 66.3541 135.535C66.4174 135.299 66.3852 135.048 66.2646 134.835C66.1439 134.623 65.9444 134.466 65.7093 134.4Z" fill="#3F3D56"/>
<path d="M153.685 94.2775C145.634 94.1639 137.608 94.3682 129.608 94.8905C126.874 95.069 124.508 96.0355 124.508 97.66C124.508 99.0181 126.855 100.609 129.608 100.429C137.604 99.9072 145.63 99.7029 153.685 99.8165C160.251 99.9091 160.248 94.3701 153.685 94.2775Z" fill="#CCCCCC"/>
<path d="M141.781 99.5423C140.911 99.5423 120.473 99.5098 120.473 96.6866C120.473 93.8635 140.911 93.8311 141.781 93.8311C142.651 93.8311 163.09 93.8636 163.09 96.6866C163.09 99.5098 142.651 99.5423 141.781 99.5423ZM121.272 96.6866C121.831 97.5425 129.344 98.7546 141.781 98.7546C154.219 98.7546 161.732 97.5425 162.291 96.6866C161.732 95.8308 154.219 94.6187 141.781 94.6187C129.344 94.6187 121.831 95.8308 121.272 96.6866Z" fill="#3F3D56"/>
<path d="M206.631 173.76C211.155 173.635 216.786 173.478 221.124 170.309C222.416 169.326 223.478 168.074 224.234 166.638C224.991 165.202 225.424 163.618 225.504 161.997C225.593 159.495 224.688 157.31 222.958 155.848C220.692 153.934 217.384 153.484 213.818 154.532L217.512 127.536L214.8 127.164L210.458 158.902L212.722 157.863C215.348 156.659 218.952 156.046 221.191 157.938C221.741 158.433 222.169 159.048 222.443 159.735C222.717 160.423 222.828 161.164 222.769 161.901C222.702 163.108 222.377 164.285 221.815 165.355C221.252 166.424 220.466 167.36 219.51 168.098C216.134 170.564 211.645 170.882 206.555 171.024L206.631 173.76Z" fill="#3F3D56"/>
<path d="M199.133 129.864H184.391V132.601H199.133V129.864Z" fill="#3F3D56"/>
<path d="M80.14 119.229C79.4838 119.227 78.8498 118.991 78.3516 118.564C77.8533 118.137 77.5234 117.546 77.421 116.898L76.5211 111.156C76.4087 110.433 76.5874 109.696 77.018 109.105C77.4487 108.515 78.096 108.119 78.818 108.005L126.681 100.505C127.404 100.393 128.141 100.572 128.732 101.002C129.322 101.433 129.718 102.08 129.832 102.802L130.732 108.545C130.844 109.267 130.665 110.005 130.235 110.595C129.804 111.186 129.157 111.582 128.435 111.696L80.5713 119.195C80.4286 119.217 80.2844 119.229 80.14 119.229Z" fill="#2F2E41"/>
<path d="M48.0466 51.9286C59.1395 51.9286 68.1322 42.9359 68.1322 31.8429C68.1322 20.75 59.1395 11.7573 48.0466 11.7573C36.9536 11.7573 27.9609 20.75 27.9609 31.8429C27.9609 42.9359 36.9536 51.9286 48.0466 51.9286Z" fill="#FF6C11"/>
<path d="M59.4183 37.0404C60.0603 36.8158 60.6467 36.4565 61.1381 35.9864C61.4633 35.6513 61.7113 35.2491 61.8647 34.808C62.0181 34.367 62.0732 33.8977 62.0262 33.4332C61.9988 33.102 61.8953 32.7817 61.7237 32.4972C61.5521 32.2127 61.317 31.9718 61.0368 31.7932C60.3099 31.3462 59.3494 31.363 58.3796 31.8126L58.2677 23.9722L57.4801 23.9834L57.6117 33.2006L58.2112 32.8074C58.9065 32.3522 59.9054 32.0221 60.6241 32.4642C60.8019 32.5812 60.9502 32.7376 61.0577 32.9214C61.1651 33.1051 61.2287 33.3111 61.2436 33.5234C61.2767 33.8695 61.2349 34.2187 61.121 34.5472C61.0071 34.8757 60.8237 35.1758 60.5834 35.4271C59.7296 36.2742 58.4658 36.5581 57.0234 36.8177L57.163 37.5929C57.9298 37.4764 58.6846 37.2915 59.4183 37.0404Z" fill="#2F2E41"/>
<path d="M66.378 23.4224L62.1836 24.0576L62.3015 24.8363L66.496 24.2011L66.378 23.4224Z" fill="#2F2E41"/>
<path d="M53.1358 25.4273L48.9414 26.0625L49.0593 26.8412L53.2538 26.206L53.1358 25.4273Z" fill="#2F2E41"/>
<path d="M73.6022 118.878C72.8799 118.876 72.1751 118.655 71.5817 118.243C70.9883 117.831 70.5344 117.248 70.2804 116.572L56.4319 79.485C54.7393 74.9365 54.92 69.9023 56.9345 65.4869C58.949 61.0715 62.6327 57.6355 67.1774 55.9328L78.4378 51.7281C78.8733 51.5644 79.3368 51.4884 79.8016 51.5046C80.2665 51.5207 80.7237 51.6286 81.1467 51.8221C81.5687 52.0107 81.9488 52.2814 82.265 52.6186C82.5812 52.9557 82.8269 53.3525 82.988 53.7857L108.641 102.221C108.808 102.658 108.886 103.123 108.872 103.591C108.858 104.058 108.752 104.518 108.559 104.944C108.367 105.37 108.092 105.753 107.751 106.073C107.41 106.392 107.009 106.641 106.571 106.805L74.8409 118.653C74.4448 118.801 74.0253 118.878 73.6022 118.878Z" fill="#2F2E41"/>
<path d="M75.0234 53.0033L100.477 87.0408L83.2536 53.3606C83.1113 52.9676 82.8931 52.6065 82.6112 52.2979C82.3294 51.9893 81.9895 51.7392 81.611 51.562C81.2325 51.3848 80.8229 51.2838 80.4054 51.265C79.9878 51.2461 79.5707 51.3097 79.1778 51.4521L75.0234 53.0033Z" fill="#E6E6E6"/>
<path d="M115.319 78.853L69.8727 75.9255C69.1563 75.8794 68.4561 75.6926 67.8119 75.3758C67.1678 75.0591 66.5923 74.6186 66.1184 74.0794C65.6445 73.5402 65.2814 72.913 65.0499 72.2335C64.8184 71.554 64.723 70.8356 64.7691 70.1193C64.8153 69.4029 65.002 68.7027 65.3188 68.0585C65.6356 67.4143 66.0761 66.8389 66.6153 66.365C67.1544 65.8911 67.7817 65.528 68.4611 65.2965C69.1406 65.065 69.859 64.9696 70.5754 65.0157L116.022 67.9429C116.358 67.9645 116.686 68.0519 116.987 68.2003C117.289 68.3486 117.558 68.5549 117.78 68.8074C118.002 69.0599 118.172 69.3536 118.281 69.6718C118.389 69.9901 118.434 70.3265 118.412 70.662L118.039 76.4629C117.995 77.1404 117.684 77.7728 117.174 78.221C116.664 78.6693 115.997 78.8966 115.319 78.853Z" fill="#FF6C11"/>
<path d="M103.18 80.7293C103.12 80.7293 103.06 80.7273 103 80.7235L65.6813 78.3197C65.32 78.2965 64.9668 78.2023 64.6419 78.0426C64.317 77.8828 64.0268 77.6607 63.7877 77.3888C63.5487 77.1168 63.3656 76.8005 63.2488 76.4578C63.1321 76.1151 63.084 75.7528 63.1073 75.3915L63.7454 65.4833C63.7687 65.122 63.8629 64.7688 64.0227 64.444C64.1825 64.1191 64.4047 63.8289 64.6766 63.5899C64.9485 63.3509 65.2649 63.1678 65.6076 63.051C65.9503 62.9343 66.3127 62.8862 66.674 62.9095L103.992 65.3131C104.722 65.3609 105.402 65.696 105.885 66.245C106.367 66.7939 106.612 67.5119 106.566 68.2413L105.928 78.1497C105.893 78.6806 105.705 79.1901 105.388 79.617C105.07 80.0439 104.636 80.3701 104.138 80.5564C103.831 80.6709 103.507 80.7295 103.18 80.7293Z" fill="#2F2E41"/>
<path d="M47.8156 18.4868C50.4579 16.2143 54.0865 18.2472 57.1167 17.8914C60.0158 17.5509 62.305 14.9504 62.8898 12.1877C63.572 8.96453 61.8991 5.7354 59.4332 3.72582C56.7325 1.52484 53.1507 0.892988 49.7565 1.30019C45.8663 1.76688 42.3086 3.58024 39.1162 5.77358C36.0348 7.82512 33.2012 10.2263 30.6718 12.9293C28.4068 15.4308 26.4877 18.4125 25.8749 21.7786C25.3181 24.8378 25.7433 28.2277 27.5517 30.8192C28.5107 32.1475 29.7957 33.2062 31.283 33.8932C32.8337 34.6547 34.4878 35.199 35.9902 36.06C38.2617 37.3617 40.4694 40.0609 39.7579 42.8698C39.6053 43.4834 39.3043 44.05 38.8812 44.5199C38.3729 45.0842 37.456 44.3385 37.9657 43.7728C38.8608 42.7791 38.8255 41.4539 38.3485 40.2676C37.7813 38.9307 36.7768 37.8262 35.4997 37.1349C33.9271 36.2358 32.1909 35.6808 30.5791 34.8618C29.0364 34.1137 27.6972 33.0039 26.6757 31.6269C24.7466 28.9461 24.1695 25.4572 24.607 22.2296C25.0805 18.7369 26.875 15.5631 29.1246 12.9034C31.5728 10.0089 34.58 7.55884 37.6521 5.35777C40.9485 2.99599 44.5904 0.999275 48.6205 0.277095C52.1139 -0.348923 55.9004 0.0364932 58.9552 1.94024C61.8067 3.71726 63.9933 6.77409 64.2108 10.1898C64.2888 11.7439 63.9514 13.2908 63.2331 14.6712C62.5149 16.0516 61.4418 17.2157 60.1242 18.0437C58.7723 18.8527 57.2005 19.2168 55.6306 19.0847C53.9522 18.9773 52.2722 18.4633 50.5831 18.606C49.8188 18.6524 49.0904 18.9467 48.5084 19.4443C47.931 19.9408 47.243 18.9793 47.8156 18.4868Z" fill="#2F2E41"/>
<path d="M291.234 235.189H0.467578C0.343444 235.188 0.22452 235.139 0.136871 235.051C0.0492225 234.963 0 234.844 0 234.72C0 234.596 0.0492225 234.477 0.136871 234.389C0.22452 234.301 0.343444 234.251 0.467578 234.251H291.234C291.359 234.251 291.478 234.3 291.566 234.388C291.654 234.476 291.703 234.596 291.703 234.72C291.703 234.844 291.654 234.964 291.566 235.051C291.478 235.139 291.359 235.189 291.234 235.189Z" fill="#3F3D56"/>
</svg>
