<svg width="280" height="235" viewBox="0 0 280 235" fill="none" xmlns="http://www.w3.org/2000/svg">
<g clip-path="url(#clip0_787_339)">
<path d="M115.285 55.2095H114.014V20.2396C114.014 17.5817 113.493 14.9498 112.481 12.4942C111.469 10.0387 109.985 7.80745 108.115 5.92803C106.244 4.04861 104.024 2.55777 101.58 1.54063C99.1365 0.5235 96.5173 -8.31533e-06 93.8723 0H20.1419C17.4968 -8.31533e-06 14.8776 0.523499 12.4339 1.54063C9.99019 2.55777 7.76976 4.04861 5.89941 5.92803C4.02907 7.80746 2.54542 10.0387 1.5332 12.4942C0.520976 14.9498 -4.13762e-06 17.5817 0 20.2396V212.087C-2.48256e-06 214.745 0.52098 217.377 1.5332 219.832C2.54543 222.288 4.02907 224.519 5.89942 226.399C7.76977 228.278 9.99019 229.769 12.4339 230.786C14.8776 231.803 17.4968 232.327 20.1419 232.327H93.8723C96.5173 232.327 99.1365 231.803 101.58 230.786C104.024 229.769 106.244 228.278 108.115 226.399C109.985 224.519 111.469 222.288 112.481 219.832C113.493 217.377 114.014 214.745 114.014 212.087V80.1016H115.285V55.2095Z" fill="#E6E6E6"/>
<path d="M94.6897 5.26563H85.0655C85.5081 6.35599 85.677 7.539 85.5574 8.71043C85.4378 9.88187 85.0334 11.0058 84.3797 11.9831C83.7261 12.9605 82.8432 13.7614 81.809 14.3151C80.7748 14.8689 79.6209 15.1586 78.449 15.1587H36.2098C35.0379 15.1586 33.884 14.8689 32.8497 14.3151C31.8155 13.7614 30.9327 12.9605 30.279 11.9831C29.6253 11.0058 29.2209 9.88187 29.1013 8.71043C28.9817 7.539 29.1507 6.35599 29.5933 5.26563H20.6042C18.6289 5.26562 16.6729 5.65657 14.848 6.41615C13.0231 7.17574 11.3649 8.28908 9.96812 9.69261C8.57137 11.0961 7.46341 12.7624 6.70749 14.5962C5.95157 16.43 5.5625 18.3954 5.5625 20.3803V211.946C5.5625 213.931 5.95157 215.897 6.70749 217.73C7.4634 219.564 8.57137 221.23 9.96812 222.634C11.3649 224.037 13.0231 225.151 14.848 225.91C16.6729 226.67 18.6289 227.061 20.6042 227.061H94.6897C96.665 227.061 98.621 226.67 100.446 225.91C102.271 225.151 103.929 224.037 105.326 222.634C106.723 221.23 107.831 219.564 108.586 217.73C109.342 215.897 109.731 213.931 109.731 211.946V20.3803C109.731 18.3954 109.342 16.43 108.586 14.5962C107.831 12.7624 106.723 11.0961 105.326 9.69261C103.929 8.28908 102.271 7.17574 100.446 6.41615C98.621 5.65657 96.665 5.26562 94.6897 5.26563Z" fill="white"/>
<path d="M35.8146 44.209H31.3911C31.2356 44.209 31.0864 44.2711 30.9765 44.3816C30.8665 44.4921 30.8047 44.642 30.8047 44.7983V46.7493C30.8047 46.9056 30.8665 47.0555 30.9765 47.166C31.0864 47.2765 31.2356 47.3386 31.3911 47.3386H32.1242V50.2618H35.0815V47.3386H35.8146C35.9701 47.3386 36.1193 47.2765 36.2292 47.166C36.3392 47.0555 36.401 46.9056 36.401 46.7493V44.7983C36.401 44.642 36.3392 44.4921 36.2292 44.3816C36.1193 44.2711 35.9701 44.209 35.8146 44.209Z" fill="#E6E6E6"/>
<path d="M40.2467 62.0645C37.5377 58.0812 36.1528 53.3385 36.2904 48.5159C36.2929 48.4046 36.2569 48.2959 36.1887 48.2082C36.1204 48.1205 36.0241 48.0593 35.916 48.0349V47.1919H31.2443V48.0232H31.1799C31.0528 48.0234 30.9309 48.0743 30.8412 48.1647C30.7514 48.2552 30.701 48.3778 30.7012 48.5055C30.7012 48.5172 30.7017 48.5289 30.7025 48.5406C31.0706 53.6959 29.8278 58.3191 26.9741 62.4102C26.8099 62.6453 26.726 62.9276 26.735 63.2147L27.2459 79.0928C27.2581 79.447 27.4061 79.7827 27.6588 80.0299C27.9115 80.2771 28.2494 80.4166 28.602 80.4195H39.1688C39.5254 80.4165 39.8669 80.2738 40.1204 80.0216C40.3738 79.7694 40.5193 79.4278 40.5258 79.0694L40.7226 63.6531C40.7285 63.0872 40.5624 62.5331 40.2467 62.0645Z" fill="#E6E6E6"/>
<path d="M38.5715 67.3389H29.374C29.2378 67.3389 29.1033 67.3685 28.9796 67.4256C28.8559 67.4827 28.7459 67.5661 28.6573 67.6699C28.5686 67.7737 28.5034 67.8956 28.466 68.0271C28.4286 68.1587 28.42 68.2968 28.4407 68.432L29.8305 77.5101H37.8114L39.4996 68.4626C39.5252 68.3256 39.5204 68.1846 39.4856 68.0496C39.4507 67.9146 39.3867 67.789 39.2981 67.6818C39.2095 67.5745 39.0985 67.4881 38.9729 67.4289C38.8473 67.3696 38.7102 67.3389 38.5715 67.3389Z" fill="white"/>
<path d="M85.0567 91.7734H80.6333C80.4778 91.7734 80.3286 91.8355 80.2186 91.946C80.1087 92.0566 80.0469 92.2064 80.0469 92.3627V94.3137C80.0469 94.47 80.1087 94.6199 80.2186 94.7304C80.3286 94.8409 80.4778 94.903 80.6333 94.903H81.3664V97.8263H84.3237V94.903H85.0567C85.2123 94.903 85.3615 94.8409 85.4714 94.7304C85.5814 94.6199 85.6432 94.47 85.6432 94.3137V92.3627C85.6432 92.2064 85.5814 92.0565 85.4714 91.946C85.3614 91.8355 85.2123 91.7734 85.0567 91.7734Z" fill="#E6E6E6"/>
<path d="M89.4889 109.629C86.7799 105.646 85.395 100.903 85.5326 96.0808C85.5351 95.9695 85.4991 95.8608 85.4309 95.7732C85.3626 95.6855 85.2663 95.6243 85.1582 95.5999V94.7568H80.4865V95.5881H80.4221C80.3592 95.5882 80.2969 95.6008 80.2387 95.625C80.1806 95.6493 80.1278 95.6849 80.0834 95.7297C80.0389 95.7744 80.0037 95.8276 79.9796 95.8861C79.9556 95.9445 79.9433 96.0072 79.9434 96.0705C79.9434 96.0821 79.9438 96.0938 79.9447 96.1055C80.3128 101.261 79.0699 105.884 76.2163 109.975C76.0521 110.21 75.9682 110.493 75.9772 110.78L76.488 126.658C76.5003 127.012 76.6482 127.348 76.9009 127.595C77.1536 127.842 77.4916 127.982 77.8442 127.984H88.411C88.7676 127.981 89.1091 127.839 89.3625 127.587C89.616 127.334 89.7615 126.993 89.768 126.634L89.9648 111.218C89.9706 110.652 89.8046 110.098 89.4889 109.629Z" fill="#E6E6E6"/>
<path d="M87.8176 114.904H78.6201C78.4839 114.904 78.3494 114.933 78.2257 114.991C78.102 115.048 77.992 115.131 77.9034 115.235C77.8147 115.339 77.7495 115.461 77.7121 115.592C77.6747 115.724 77.6661 115.862 77.6868 115.997L79.0766 125.075H87.0575L88.7457 116.028C88.7713 115.891 88.7665 115.75 88.7316 115.615C88.6968 115.48 88.6328 115.354 88.5442 115.247C88.4556 115.139 88.3446 115.053 88.219 114.994C88.0934 114.935 87.9563 114.904 87.8176 114.904Z" fill="white"/>
<path d="M29.5991 159.017H27.5008C27.4271 159.017 27.3563 159.046 27.3041 159.098C27.252 159.151 27.2227 159.222 27.2227 159.296V160.222C27.2227 160.296 27.252 160.367 27.3041 160.419C27.3563 160.472 27.4271 160.501 27.5008 160.501H27.8486V161.888H29.2514V160.501H29.5991C29.6728 160.501 29.7436 160.472 29.7958 160.419C29.8479 160.367 29.8773 160.296 29.8773 160.222V159.296C29.8773 159.222 29.8479 159.151 29.7958 159.098C29.7436 159.046 29.6728 159.017 29.5991 159.017Z" fill="#E6E6E6"/>
<path d="M31.6986 167.486C30.4136 165.597 29.7566 163.347 29.8219 161.06C29.8231 161.007 29.806 160.955 29.7737 160.914C29.7413 160.872 29.6956 160.843 29.6443 160.832V160.432H27.4283V160.826H27.3978C27.3679 160.826 27.3384 160.832 27.3108 160.843C27.2832 160.855 27.2582 160.872 27.2371 160.893C27.216 160.914 27.1993 160.94 27.1879 160.967C27.1765 160.995 27.1707 161.025 27.1707 161.055C27.1707 161.06 27.1709 161.066 27.1713 161.071C27.3759 163.406 26.7491 165.737 25.4028 167.65C25.3249 167.762 25.2851 167.896 25.2894 168.032L25.5317 175.564C25.5375 175.732 25.6077 175.891 25.7275 176.008C25.8474 176.125 26.0077 176.192 26.175 176.193H31.1872C31.3564 176.192 31.5184 176.124 31.6386 176.004C31.7589 175.885 31.8279 175.723 31.8309 175.553L31.9243 168.24C31.9271 167.972 31.8483 167.709 31.6986 167.486Z" fill="#E6E6E6"/>
<path d="M30.9778 170.254H26.1953V172.657H30.9778V170.254Z" fill="white"/>
<path d="M39.3608 159.017H37.2626C37.1888 159.017 37.118 159.046 37.0659 159.098C37.0137 159.151 36.9844 159.222 36.9844 159.296V160.222C36.9844 160.296 37.0137 160.367 37.0659 160.419C37.118 160.472 37.1888 160.501 37.2626 160.501H37.6103V161.888H39.0131V160.501H39.3608C39.4346 160.501 39.5053 160.472 39.5575 160.419C39.6097 160.367 39.639 160.296 39.639 160.222V159.296C39.639 159.222 39.6097 159.151 39.5575 159.098C39.5053 159.046 39.4346 159.017 39.3608 159.017Z" fill="#E6E6E6"/>
<path d="M41.4681 167.486C40.1831 165.597 39.5262 163.347 39.5915 161.06C39.5926 161.007 39.5756 160.955 39.5432 160.914C39.5108 160.872 39.4651 160.843 39.4139 160.832V160.432H37.1979V160.826H37.1673C37.1375 160.826 37.1079 160.832 37.0803 160.843C37.0528 160.855 37.0277 160.872 37.0066 160.893C36.9855 160.914 36.9688 160.94 36.9574 160.967C36.946 160.995 36.9402 161.025 36.9402 161.055C36.9402 161.06 36.9405 161.066 36.9409 161.071C37.1454 163.406 36.5187 165.737 35.1723 167.65C35.0944 167.762 35.0546 167.896 35.0589 168.032L35.3012 175.564C35.307 175.732 35.3772 175.891 35.4971 176.008C35.6169 176.125 35.7772 176.192 35.9445 176.193H40.9568C41.126 176.192 41.2879 176.124 41.4082 176.004C41.5284 175.885 41.5974 175.723 41.6005 175.553L41.6939 168.24C41.6966 167.972 41.6179 167.709 41.4681 167.486Z" fill="#E6E6E6"/>
<path d="M40.7474 170.254H35.9648V172.657H40.7474V170.254Z" fill="white"/>
<path d="M49.1303 159.017H47.0321C46.9583 159.017 46.8876 159.046 46.8354 159.098C46.7832 159.151 46.7539 159.222 46.7539 159.296V160.222C46.7539 160.296 46.7832 160.367 46.8354 160.419C46.8876 160.472 46.9583 160.501 47.0321 160.501H47.3798V161.888H48.7826V160.501H49.1303C49.2041 160.501 49.2749 160.472 49.327 160.419C49.3792 160.367 49.4085 160.296 49.4085 160.222V159.296C49.4085 159.222 49.3792 159.151 49.327 159.098C49.2749 159.046 49.2041 159.017 49.1303 159.017Z" fill="#E6E6E6"/>
<path d="M51.2298 167.486C49.9448 165.597 49.2879 163.347 49.3532 161.06C49.3543 161.007 49.3373 160.955 49.3049 160.914C49.2725 160.872 49.2269 160.843 49.1756 160.832V160.432H46.9596V160.826H46.929C46.8992 160.826 46.8696 160.832 46.8421 160.843C46.8145 160.855 46.7894 160.872 46.7683 160.893C46.7473 160.914 46.7305 160.94 46.7191 160.967C46.7078 160.995 46.7019 161.025 46.702 161.055C46.702 161.06 46.7022 161.066 46.7026 161.071C46.9071 163.406 46.2804 165.737 44.934 167.65C44.8561 167.762 44.8163 167.896 44.8206 168.032L45.0629 175.564C45.0687 175.732 45.1389 175.891 45.2588 176.008C45.3786 176.125 45.5389 176.192 45.7062 176.193H50.7185C50.8877 176.192 51.0497 176.124 51.1699 176.004C51.2901 175.885 51.3591 175.723 51.3622 175.553L51.4556 168.24C51.4583 167.972 51.3796 167.709 51.2298 167.486Z" fill="#E6E6E6"/>
<path d="M50.5091 170.254H45.7266V172.657H50.5091V170.254Z" fill="white"/>
<path d="M77.3692 140.615H72.9458C72.8688 140.615 72.7926 140.63 72.7214 140.66C72.6503 140.69 72.5856 140.733 72.5312 140.788C72.4767 140.843 72.4335 140.908 72.404 140.979C72.3745 141.051 72.3594 141.127 72.3594 141.205V143.156C72.3594 143.312 72.4212 143.462 72.5312 143.572C72.6411 143.683 72.7903 143.745 72.9458 143.745H73.6789V146.668H76.6362V143.745H77.3692C77.5248 143.745 77.674 143.683 77.7839 143.572C77.8939 143.462 77.9557 143.312 77.9557 143.156V141.205C77.9557 141.127 77.9405 141.051 77.9111 140.979C77.8816 140.908 77.8384 140.843 77.7839 140.788C77.7295 140.733 77.6648 140.69 77.5937 140.66C77.5225 140.63 77.4463 140.615 77.3692 140.615Z" fill="#E6E6E6"/>
<path d="M81.8014 158.471C79.0924 154.487 77.7075 149.745 77.8451 144.922C77.8476 144.811 77.8116 144.702 77.7434 144.614C77.6751 144.527 77.5788 144.466 77.4707 144.441V143.598H72.799V144.429H72.7346C72.6717 144.43 72.6094 144.442 72.5512 144.466C72.4931 144.491 72.4403 144.526 72.3959 144.571C72.3514 144.616 72.3162 144.669 72.2921 144.727C72.2681 144.786 72.2558 144.848 72.2559 144.912C72.2559 144.923 72.2563 144.935 72.2572 144.947C72.6253 150.102 71.3825 154.725 68.5288 158.816C68.3646 159.052 68.2807 159.334 68.2897 159.621L68.8006 175.499C68.8128 175.853 68.9607 176.189 69.2134 176.436C69.4661 176.683 69.8041 176.823 70.1567 176.826H80.7235C81.0801 176.823 81.4216 176.68 81.675 176.428C81.9285 176.176 82.074 175.834 82.0805 175.476L82.2773 160.059C82.2831 159.493 82.1171 158.939 81.8014 158.471Z" fill="#E6E6E6"/>
<path d="M80.1301 163.745H70.9326C70.7964 163.745 70.6619 163.775 70.5382 163.832C70.4145 163.889 70.3045 163.972 70.2159 164.076C70.1272 164.18 70.062 164.302 70.0246 164.433C69.9872 164.565 69.9786 164.703 69.9993 164.838L71.3891 173.916H79.37L81.0582 164.869C81.0838 164.732 81.079 164.591 81.0441 164.456C81.0093 164.321 80.9453 164.195 80.8567 164.088C80.7681 163.981 80.6571 163.894 80.5315 163.835C80.4059 163.776 80.2688 163.745 80.1301 163.745Z" fill="white"/>
<path d="M79.7897 82.4636H53.4219C55.2654 72.4484 54.8412 60.3546 53.4219 47.3486H79.7897C78.4081 60.3547 77.9953 72.4484 79.7897 82.4636Z" fill="#E6E6E6"/>
<path d="M66.7639 70.3326C70.2729 70.3326 73.1176 67.4741 73.1176 63.948C73.1176 60.4219 70.2729 57.5635 66.7639 57.5635C63.2548 57.5635 60.4102 60.4219 60.4102 63.948C60.4102 67.4741 63.2548 70.3326 66.7639 70.3326Z" fill="white"/>
<path d="M55.6413 129.071H29.2734C31.1169 119.055 30.6928 106.962 29.2734 93.9556H55.6413C54.2597 106.962 53.8468 119.055 55.6413 129.071Z" fill="#E6E6E6"/>
<path d="M42.6193 116.94C46.1284 116.94 48.973 114.082 48.973 110.555C48.973 107.029 46.1284 104.171 42.6193 104.171C39.1103 104.171 36.2656 107.029 36.2656 110.555C36.2656 114.082 39.1103 116.94 42.6193 116.94Z" fill="white"/>
<path d="M94.7155 84.6975H68.3477C70.1911 74.6823 69.767 62.5885 68.3477 49.5825H94.7155C93.3339 62.5886 92.9211 74.6823 94.7155 84.6975Z" fill="#E6E6E6"/>
<path d="M81.6935 72.5679C85.2026 72.5679 88.0472 69.7095 88.0472 66.1834C88.0472 62.6573 85.2026 59.7988 81.6935 59.7988C78.1845 59.7988 75.3398 62.6573 75.3398 66.1834C75.3398 69.7095 78.1845 72.5679 81.6935 72.5679Z" fill="white"/>
<path d="M94.7155 83.1018H68.3477C70.1911 73.0866 69.767 60.9928 68.3477 47.9868H94.7155C93.3339 60.9929 92.9211 73.0866 94.7155 83.1018Z" fill="#E6E6E6"/>
<path d="M81.6935 70.9712C85.2026 70.9712 88.0472 68.1128 88.0472 64.5867C88.0472 61.0606 85.2026 58.2021 81.6935 58.2021C78.1845 58.2021 75.3398 61.0606 75.3398 64.5867C75.3398 68.1128 78.1845 70.9712 81.6935 70.9712Z" fill="white"/>
<path d="M94.7155 84.6975H68.3477C70.1911 74.6823 69.767 62.5885 68.3477 49.5825H94.7155C93.3339 62.5886 92.9211 74.6823 94.7155 84.6975Z" fill="#E6E6E6"/>
<path d="M81.6935 72.5679C85.2026 72.5679 88.0472 69.7095 88.0472 66.1834C88.0472 62.6573 85.2026 59.7988 81.6935 59.7988C78.1845 59.7988 75.3398 62.6573 75.3398 66.1834C75.3398 69.7095 78.1845 72.5679 81.6935 72.5679Z" fill="white"/>
<path d="M100.75 80.5483H14.3398V90.1252H100.75V80.5483Z" fill="#E6E6E6"/>
<path d="M100.75 128.113H14.3398V137.69H100.75V128.113Z" fill="#E6E6E6"/>
<path d="M100.75 175.678H14.3398V185.255H100.75V175.678Z" fill="#E6E6E6"/>
<path d="M251.07 214.53L229.543 199.23C236.803 192.123 243.407 182.004 249.722 170.562L271.25 185.862C262.648 195.678 255.361 205.312 251.07 214.53Z" fill="#FF6C11"/>
<path d="M251.069 198.241C254.578 198.241 257.422 195.383 257.422 191.857C257.422 188.331 254.578 185.472 251.069 185.472C247.559 185.472 244.715 188.331 244.715 191.857C244.715 195.383 247.559 198.241 251.069 198.241Z" fill="white"/>
<path d="M147.223 144.713H144.86C144.777 144.713 144.697 144.746 144.639 144.805C144.58 144.864 144.547 144.944 144.547 145.028V146.07C144.547 146.111 144.555 146.152 144.571 146.19C144.586 146.229 144.61 146.263 144.639 146.293C144.668 146.322 144.702 146.345 144.74 146.361C144.778 146.377 144.819 146.385 144.86 146.385H145.252V147.946H146.832V146.385H147.223C147.306 146.385 147.386 146.352 147.445 146.293C147.503 146.234 147.537 146.153 147.537 146.07V145.028C147.537 144.944 147.503 144.864 147.445 144.805C147.386 144.746 147.306 144.713 147.223 144.713Z" fill="#E6E6E6"/>
<path d="M149.593 154.252C148.146 152.124 147.406 149.59 147.48 147.014C147.481 146.954 147.462 146.896 147.426 146.85C147.389 146.803 147.338 146.77 147.28 146.757V146.307H144.784V146.751H144.75C144.716 146.751 144.683 146.757 144.652 146.77C144.621 146.783 144.593 146.802 144.569 146.826C144.545 146.85 144.526 146.879 144.514 146.91C144.501 146.941 144.494 146.975 144.494 147.008C144.494 147.015 144.494 147.021 144.495 147.027C144.725 149.656 144.019 152.282 142.503 154.436C142.415 154.562 142.371 154.713 142.375 154.866L142.648 163.349C142.655 163.538 142.734 163.717 142.869 163.849C143.004 163.981 143.184 164.056 143.373 164.057H149.018C149.208 164.056 149.391 163.979 149.526 163.845C149.661 163.71 149.739 163.528 149.743 163.336L149.848 155.1C149.851 154.798 149.762 154.502 149.593 154.252Z" fill="#FF6C11"/>
<path opacity="0.2" d="M146.727 145.053C146.727 145.233 146.656 145.406 146.529 145.533C146.402 145.66 146.23 145.732 146.051 145.732C145.872 145.732 145.7 145.66 145.573 145.533C145.446 145.406 145.375 145.233 145.375 145.053" fill="black"/>
<path d="M148.488 155.886H143.723V159.078H148.488V155.886Z" fill="white"/>
<path d="M222.002 177.85H217.579C217.423 177.85 217.274 177.912 217.164 178.023C217.054 178.133 216.992 178.283 216.992 178.439V180.39C216.992 180.547 217.054 180.697 217.164 180.807C217.274 180.918 217.423 180.98 217.579 180.98H218.312V183.903H221.269V180.98H222.002C222.158 180.98 222.307 180.918 222.417 180.807C222.527 180.697 222.589 180.547 222.589 180.39V178.439C222.589 178.283 222.527 178.133 222.417 178.023C222.307 177.912 222.158 177.85 222.002 177.85Z" fill="#E6E6E6"/>
<path d="M226.434 195.705C223.725 191.722 222.34 186.979 222.478 182.156C222.48 182.045 222.444 181.936 222.376 181.849C222.308 181.761 222.212 181.7 222.104 181.676V180.833H217.432V181.664H217.367C217.304 181.664 217.242 181.676 217.184 181.701C217.126 181.725 217.073 181.761 217.029 181.805C216.984 181.85 216.949 181.903 216.925 181.962C216.901 182.02 216.889 182.083 216.889 182.146C216.889 182.158 216.889 182.17 216.89 182.181C217.258 187.337 216.015 191.96 213.162 196.051C212.997 196.286 212.914 196.568 212.923 196.855L213.433 212.733C213.446 213.088 213.594 213.423 213.846 213.67C214.099 213.918 214.437 214.057 214.79 214.06H225.356C225.713 214.057 226.054 213.914 226.308 213.662C226.561 213.41 226.707 213.068 226.713 212.71L226.91 197.294C226.916 196.728 226.75 196.174 226.434 195.705Z" fill="#FF6C11"/>
<path opacity="0.2" d="M221.077 178.485C221.077 178.822 220.944 179.145 220.707 179.384C220.47 179.622 220.148 179.756 219.812 179.756C219.477 179.756 219.155 179.622 218.917 179.384C218.68 179.145 218.547 178.822 218.547 178.485" fill="black"/>
<path d="M224.763 200.979H215.565C215.429 200.979 215.295 201.009 215.171 201.066C215.047 201.123 214.937 201.206 214.849 201.31C214.76 201.414 214.695 201.536 214.657 201.667C214.62 201.799 214.611 201.937 214.632 202.072L216.022 211.15H224.003L225.691 202.103C225.717 201.966 225.712 201.825 225.677 201.69C225.642 201.555 225.578 201.429 225.49 201.322C225.401 201.215 225.29 201.128 225.164 201.069C225.039 201.01 224.902 200.979 224.763 200.979Z" fill="white"/>
<path d="M209.383 214.505H183.016C184.859 204.49 184.435 192.396 183.016 179.39H209.383C208.002 192.396 207.589 204.49 209.383 214.505Z" fill="#FF6C11"/>
<path d="M196.358 202.375C199.867 202.375 202.711 199.516 202.711 195.99C202.711 192.464 199.867 189.605 196.358 189.605C192.849 189.605 190.004 192.464 190.004 195.99C190.004 199.516 192.849 202.375 196.358 202.375Z" fill="white"/>
<path d="M101.531 103.994L107.451 103.453L111.218 94.2609L104.491 90.4756L101.531 103.994Z" fill="#FFB8B8"/>
<path d="M155.853 129.229C156.05 128.736 156.127 128.203 156.079 127.674C156.03 127.144 155.858 126.634 155.574 126.186C155.291 125.737 154.906 125.362 154.45 125.092C153.995 124.822 153.482 124.665 152.954 124.633L143.763 124.083L142.41 128.604L151.871 131.215C152.662 131.433 153.505 131.352 154.239 130.985C154.974 130.619 155.548 129.994 155.853 129.229Z" fill="#FFB8B8"/>
<path d="M145.985 131.291L145.884 122.807L125.47 119.533L109.743 101.409C108.924 100.466 107.794 99.8525 106.56 99.683C105.326 99.5135 104.073 99.799 103.033 100.487C102.403 100.903 101.872 101.453 101.478 102.099C101.083 102.744 100.834 103.468 100.748 104.221C100.663 104.974 100.743 105.736 100.982 106.454C101.222 107.172 101.616 107.829 102.136 108.377L115.111 124.422L145.985 131.291Z" fill="#575A89"/>
<path d="M96.957 226.741H102.338L115.686 166.101L129.514 184.834L137.586 225.389H142.698L141.621 181.86L123.594 135.356H105.836C100.983 144.182 97.1764 153.279 101.531 162.664L96.957 226.741Z" fill="#2F2E41"/>
<path d="M134.287 230.425C134.227 230.616 134.209 230.818 134.233 231.017C134.257 231.216 134.323 231.407 134.427 231.579C134.531 231.75 134.669 231.897 134.834 232.01C134.999 232.123 135.185 232.2 135.382 232.235L148.55 234.583C149.07 234.679 149.607 234.58 150.06 234.305C150.513 234.03 150.85 233.598 151.007 233.091C151.161 232.606 151.14 232.083 150.947 231.612C150.754 231.142 150.403 230.754 149.954 230.518C147.059 229.025 144.567 226.848 142.692 224.174C141.245 225.529 139.628 225.401 137.91 224.403L136.088 224.632L134.287 230.425Z" fill="#2F2E41"/>
<path d="M94.4624 230.425C94.4029 230.616 94.3846 230.818 94.4088 231.017C94.433 231.216 94.4991 231.407 94.6027 231.579C94.7063 231.75 94.8451 231.897 95.0097 232.01C95.1743 232.123 95.361 232.2 95.5574 232.235L108.725 234.583C109.246 234.679 109.783 234.58 110.236 234.305C110.688 234.03 111.025 233.598 111.183 233.091C111.337 232.606 111.315 232.083 111.123 231.612C110.93 231.142 110.579 230.754 110.13 230.518C107.235 229.025 104.743 226.848 102.868 224.174C101.421 225.529 99.8034 225.401 98.0858 224.403L96.2638 224.632L94.4624 230.425Z" fill="#2F2E41"/>
<path d="M111.35 97.6402C115.511 97.6402 118.884 94.2508 118.884 90.0698C118.884 85.8889 115.511 82.4995 111.35 82.4995C107.189 82.4995 103.816 85.8889 103.816 90.0698C103.816 94.2508 107.189 97.6402 111.35 97.6402Z" fill="#FFB8B8"/>
<path d="M104.621 137.384L124.263 136.843L118.494 118.601C122.079 112.826 118.471 107.057 113.366 101.29L109.33 98.5862L102.872 98.0454C100.076 101.052 98.5464 105.028 98.6031 109.143C98.7309 117.953 100.283 127.543 104.621 137.384Z" fill="#575A89"/>
<path d="M149.755 149.664C150.129 149.288 150.409 148.828 150.572 148.323C150.734 147.817 150.775 147.28 150.69 146.755C150.606 146.231 150.398 145.734 150.085 145.305C149.772 144.877 149.362 144.53 148.889 144.292L140.655 140.153L137.641 143.775L145.317 149.916C145.958 150.429 146.765 150.687 147.584 150.64C148.402 150.594 149.175 150.246 149.755 149.664Z" fill="#FFB8B8"/>
<path d="M139.871 147.658L143.099 139.817L125.612 128.738L118.249 105.858C117.866 104.668 117.066 103.657 115.998 103.013C114.931 102.37 113.667 102.137 112.441 102.358C111.699 102.492 110.996 102.788 110.38 103.225C109.764 103.662 109.252 104.23 108.879 104.888C108.505 105.546 108.28 106.279 108.22 107.034C108.159 107.789 108.264 108.548 108.528 109.258L114.175 129.138L139.871 147.658Z" fill="#575A89"/>
<path d="M98.9766 87.0952C98.9766 90.0408 100.88 94.6026 103.282 96.5581C104.897 97.8738 107.032 97.8184 107.856 96.0173C108.7 94.1698 111.611 89.827 116.735 87.0952C123.565 83.4534 114.313 77.223 107.856 78.173C103.004 78.8869 98.9766 82.1676 98.9766 87.0952Z" fill="#2F2E41"/>
<path d="M103.545 83.0403C106.517 83.0403 108.927 80.6194 108.927 77.633C108.927 74.6466 106.517 72.2256 103.545 72.2256C100.573 72.2256 98.1641 74.6466 98.1641 77.633C98.1641 80.6194 100.573 83.0403 103.545 83.0403Z" fill="#2F2E41"/>
<path d="M109.735 75.7404C109.735 74.3771 109.222 73.0645 108.299 72.0655C107.375 71.0665 106.111 70.4549 104.758 70.3535C104.892 70.3435 105.025 70.333 105.161 70.333C106.589 70.333 107.957 70.9027 108.967 71.9168C109.976 72.9309 110.543 74.3063 110.543 75.7404C110.543 77.1745 109.976 78.5499 108.967 79.564C107.957 80.5781 106.589 81.1478 105.161 81.1478C105.025 81.1478 104.892 81.1373 104.758 81.1273C106.111 81.0258 107.375 80.4143 108.299 79.4153C109.222 78.4163 109.735 77.1036 109.735 75.7404Z" fill="#2F2E41"/>
<path d="M111.488 92.7732C112.157 92.7732 112.699 92.0469 112.699 91.151C112.699 90.2551 112.157 89.5288 111.488 89.5288C110.819 89.5288 110.277 90.2551 110.277 91.151C110.277 92.0469 110.819 92.7732 111.488 92.7732Z" fill="#FFB8B8"/>
<path d="M263.956 216.825H180.187L162.448 132.56H147.309V128.779H165.498L183.237 213.043H263.956V216.825Z" fill="#3F3D56"/>
<path d="M192.458 232.219C196.911 232.219 200.521 228.591 200.521 224.116C200.521 219.642 196.911 216.014 192.458 216.014C188.005 216.014 184.395 219.642 184.395 224.116C184.395 228.591 188.005 232.219 192.458 232.219Z" fill="#3F3D56"/>
<path d="M252.665 232.219C257.118 232.219 260.728 228.591 260.728 224.116C260.728 219.642 257.118 216.014 252.665 216.014C248.212 216.014 244.602 219.642 244.602 224.116C244.602 228.591 248.212 232.219 252.665 232.219Z" fill="#3F3D56"/>
<path d="M262.426 215.044H180.923L166.543 143.633H275.921C276.48 143.633 277.031 143.755 277.538 143.99C278.045 144.224 278.495 144.566 278.858 144.993C279.221 145.419 279.487 145.919 279.639 146.459C279.791 146.998 279.825 147.565 279.739 148.119L266.243 211.764C266.104 212.68 265.642 213.515 264.941 214.117C264.241 214.719 263.348 215.048 262.426 215.044ZM181.808 213.964H262.426C263.092 213.966 263.736 213.729 264.241 213.294C264.747 212.86 265.08 212.257 265.181 211.596L278.676 147.951C278.739 147.551 278.715 147.142 278.605 146.753C278.495 146.363 278.303 146.002 278.041 145.695C277.779 145.387 277.454 145.14 277.088 144.971C276.722 144.801 276.324 144.714 275.921 144.714H167.848L181.808 213.964Z" fill="#3F3D56"/>
<path d="M196.769 214.815L187.352 144.261L188.412 144.085L197.83 214.639L196.769 214.815Z" fill="#3F3D56"/>
<path d="M249.136 214.274L248.074 214.101L257.217 144.087L258.278 144.26L249.136 214.274Z" fill="#3F3D56"/>
<path d="M224.184 144.173H223.109V214.727H224.184V144.173Z" fill="#3F3D56"/>
<path d="M172.034 163.079L172.031 164.159L276.099 164.412L276.101 163.332L172.034 163.079Z" fill="#3F3D56"/>
<path d="M268.761 196.451L177.336 197.079L177.343 198.159L268.769 197.531L268.761 196.451Z" fill="#3F3D56"/>
<path d="M148.917 133.37C152.183 133.37 154.83 131.919 154.83 130.129C154.83 128.339 152.183 126.888 148.917 126.888C145.651 126.888 143.004 128.339 143.004 130.129C143.004 131.919 145.651 133.37 148.917 133.37Z" fill="#3F3D56"/>
</g>
<defs>
<clipPath id="clip0_787_339">
<rect width="279.786" height="234.619" fill="white"/>
</clipPath>
</defs>
</svg>
