<svg width="228" height="191" viewBox="0 0 228 191" fill="none" xmlns="http://www.w3.org/2000/svg">
<g clip-path="url(#clip0_1163_170)">
<path d="M10.6273 181.423C13.7772 187.265 20.4626 189.773 20.4626 189.773C20.4626 189.773 22.0408 182.809 18.8909 176.967C15.7409 171.126 9.05554 168.618 9.05554 168.618C9.05554 168.618 7.47729 175.582 10.6273 181.423Z" fill="#2F2E41"/>
<path d="M12.7914 179.501C18.4784 182.923 20.6686 189.719 20.6686 189.719C20.6686 189.719 13.6384 190.967 7.95144 187.546C2.26446 184.124 0.0742188 177.329 0.0742188 177.329C0.0742188 177.329 7.1044 176.08 12.7914 179.501Z" fill="#FF6C11"/>
<path d="M140.299 9.88159H104.816V10.3885H140.299V9.88159Z" fill="#F2F2F2"/>
<path d="M130.667 10.2615H130.16V14.9503H130.667V10.2615Z" fill="#F2F2F2"/>
<path d="M115.206 10.2615H114.699V14.9503H115.206V10.2615Z" fill="#F2F2F2"/>
<path d="M158.291 34.2124H122.809V34.7193H158.291V34.2124Z" fill="#F2F2F2"/>
<path d="M132.948 29.6506H132.441V34.3394H132.948V29.6506Z" fill="#F2F2F2"/>
<path d="M148.409 29.6506H147.902V34.3394H148.409V29.6506Z" fill="#F2F2F2"/>
<path d="M205.432 45.6177H169.949V46.1246H205.432V45.6177Z" fill="#F2F2F2"/>
<path d="M180.085 41.0554H179.578V45.7442H180.085V41.0554Z" fill="#F2F2F2"/>
<path d="M195.55 41.0554H195.043V45.7442H195.55V41.0554Z" fill="#F2F2F2"/>
<path d="M201.885 163.218H166.402V163.725H201.885V163.218Z" fill="#F2F2F2"/>
<path d="M176.538 158.656H176.031V163.345H176.538V158.656Z" fill="#F2F2F2"/>
<path d="M192.003 158.656H191.496V163.345H192.003V158.656Z" fill="#F2F2F2"/>
<path d="M141.311 81.8608H105.828V82.3677H141.311V81.8608Z" fill="#F2F2F2"/>
<path d="M115.964 77.2988H115.457V81.9876H115.964V77.2988Z" fill="#F2F2F2"/>
<path d="M131.425 77.2988H130.918V81.9876H131.425V77.2988Z" fill="#F2F2F2"/>
<path d="M152.463 142.942H116.98V143.449H152.463V142.942Z" fill="#F2F2F2"/>
<path d="M127.12 138.38H126.613V143.069H127.12V138.38Z" fill="#F2F2F2"/>
<path d="M142.577 138.38H142.07V143.069H142.577V138.38Z" fill="#F2F2F2"/>
<path d="M209.237 124.44H173.754V124.947H209.237V124.44Z" fill="#F2F2F2"/>
<path d="M183.89 119.878H183.383V124.567H183.89V119.878Z" fill="#F2F2F2"/>
<path d="M199.347 119.878H198.84V124.567H199.347V119.878Z" fill="#F2F2F2"/>
<path d="M91.8373 178.748H31.8242V178.317H91.4054V157.377H36.8694L34.2201 151.857L34.6094 151.671L37.1411 156.945H91.8373V178.748Z" fill="#2F2E41"/>
<path d="M39.8185 189.326C42.3222 189.326 44.3519 187.296 44.3519 184.793C44.3519 182.289 42.3222 180.259 39.8185 180.259C37.3148 180.259 35.2852 182.289 35.2852 184.793C35.2852 187.296 37.3148 189.326 39.8185 189.326Z" fill="#3F3D56"/>
<path d="M84.4982 189.326C87.0019 189.326 89.0316 187.296 89.0316 184.793C89.0316 182.289 87.0019 180.259 84.4982 180.259C81.9945 180.259 79.9648 182.289 79.9648 184.793C79.9648 187.296 81.9945 189.326 84.4982 189.326Z" fill="#3F3D56"/>
<path d="M137.174 91.319C138.723 91.319 139.98 90.0626 139.98 88.5127C139.98 86.9628 138.723 85.7063 137.174 85.7063C135.624 85.7063 134.367 86.9628 134.367 88.5127C134.367 90.0626 135.624 91.319 137.174 91.319Z" fill="#3F3D56"/>
<path d="M98.2616 150.253H30.8066L16.2109 102.545H113.293L113.205 102.825L98.2616 150.253ZM31.126 149.821H97.945L112.704 102.976H16.7945L31.126 149.821Z" fill="#2F2E41"/>
<path d="M92.9939 147.77H33.7457L20.9258 105.459H106.196L106.119 105.708L92.9939 147.77Z" fill="#F2F2F2"/>
<path d="M114.499 98.2825L114.082 98.1717L116.931 87.4333H133.504V87.8652H117.263L114.499 98.2825Z" fill="#2F2E41"/>
<path d="M108.44 117.008H20.9258V117.44H108.44V117.008Z" fill="#2F2E41"/>
<path d="M103.425 132.915H25.7891V133.346H103.425V132.915Z" fill="#2F2E41"/>
<path d="M64.963 102.76H64.5312V150.037H64.963V102.76Z" fill="#2F2E41"/>
<path d="M84.2946 102.747L81.1953 150.022L81.6262 150.051L84.7255 102.775L84.2946 102.747Z" fill="#2F2E41"/>
<path d="M45.2122 102.746L44.7812 102.774L47.8625 150.051L48.2934 150.023L45.2122 102.746Z" fill="#2F2E41"/>
<path d="M227.164 189.6H0.0742188V190.107H227.164V189.6Z" fill="#2F2E41"/>
<path d="M150.984 16.463C150.984 16.463 154.689 27.008 152.409 28.6304C150.129 30.2527 160.104 43.5016 160.104 43.5016L172.074 40.2569L165.519 29.1711C165.519 29.1711 164.664 18.0853 164.664 16.463C164.664 14.8407 150.984 16.463 150.984 16.463Z" fill="#A0616A"/>
<path opacity="0.1" d="M150.984 16.463C150.984 16.463 154.689 27.008 152.409 28.6304C150.129 30.2527 160.104 43.5016 160.104 43.5016L172.074 40.2569L165.519 29.1711C165.519 29.1711 164.664 18.0853 164.664 16.463C164.664 14.8407 150.984 16.463 150.984 16.463Z" fill="black"/>
<path d="M144.762 91.6304C144.762 91.6304 143.68 105.15 144.762 112.18C145.843 119.21 147.466 138.678 147.466 138.678C147.466 138.678 147.466 175.45 153.414 175.991C159.363 176.532 163.689 177.072 164.23 174.909C164.77 172.746 161.526 171.665 163.148 170.583C164.77 169.502 165.311 165.716 163.148 161.39C160.985 157.064 163.148 113.261 163.148 113.261L173.423 140.841C173.423 140.841 174.504 163.553 175.586 166.798C176.667 170.042 174.504 175.991 178.29 176.532C182.075 177.072 186.401 173.828 188.564 172.746C190.728 171.665 185.32 171.665 186.401 171.124C187.483 170.583 190.728 168.961 189.646 168.42C188.564 167.879 187.483 141.922 187.483 141.922C187.483 141.922 184.509 86.4931 180.723 84.33C176.938 82.1669 174.504 85.8927 174.504 85.8927L144.762 91.6304Z" fill="#2F2E41"/>
<path d="M154.499 173.828V178.154C154.499 178.154 149.632 189.914 154.499 189.914C159.366 189.914 163.151 191.132 163.151 189.51V174.909L154.499 173.828Z" fill="#2F2E41"/>
<path d="M186.402 173.82V178.146C186.402 178.146 191.269 189.906 186.402 189.906C181.535 189.906 177.75 191.125 177.75 189.503V174.902L186.402 173.82Z" fill="#2F2E41"/>
<path d="M158.554 24.3045C163.93 24.3045 168.288 19.9464 168.288 14.5706C168.288 9.19468 163.93 4.83667 158.554 4.83667C153.178 4.83667 148.82 9.19468 148.82 14.5706C148.82 19.9464 153.178 24.3045 158.554 24.3045Z" fill="#A0616A"/>
<path d="M155.582 32.6863C155.582 32.6863 158.285 40.7979 162.612 39.1755L166.938 37.5532L174.509 89.4673C174.509 89.4673 168.56 98.1197 159.908 92.712C151.255 87.3042 155.582 32.6863 155.582 32.6863Z" fill="#FF6C11"/>
<path d="M163.152 31.0641L165.586 25.9268C165.586 25.9268 179.916 32.6864 182.079 34.8495C184.242 37.0126 184.242 40.2572 184.242 40.2572L180.457 53.7765C180.457 53.7765 181.539 83.519 181.539 84.6005C181.539 85.6821 185.324 91.6306 182.62 89.4675C179.916 87.3044 179.376 85.1413 177.212 88.3859C175.049 91.6306 170.182 95.416 170.182 95.416L163.152 31.0641Z" fill="#3F3D56"/>
<path d="M182.077 69.9995L180.455 85.1411C180.455 85.1411 170.721 93.7935 172.884 94.3342C175.047 94.875 176.129 92.7119 176.129 92.7119C176.129 92.7119 179.914 96.4973 182.077 94.3342C184.24 92.1712 189.648 71.6218 189.648 71.6218L182.077 69.9995Z" fill="#A0616A"/>
<path d="M158.762 0.813677C156.604 0.736535 154.295 0.698376 152.475 1.86123C151.638 2.44482 150.904 3.16357 150.302 3.98806C148.53 6.22815 146.999 9.0467 147.658 11.826L148.422 11.5279C148.422 12.2698 148.257 13.0024 147.939 13.6727C148.047 13.3597 148.407 13.8657 148.311 14.1824L147.469 16.9451C148.853 16.4376 150.575 17.4652 150.786 18.9245C150.882 15.7155 151.215 12.0358 153.818 10.1569C155.131 9.2093 156.792 8.92004 158.391 8.66316C159.865 8.42619 161.411 8.20022 162.824 8.68569C164.236 9.17115 165.439 10.6157 165.119 12.0745C165.77 11.8502 166.499 12.3041 166.82 12.9131C167.142 13.5221 167.159 14.2405 167.169 14.9293C167.863 15.4199 168.653 14.4456 168.936 13.644C169.6 11.7623 170.19 9.7593 169.833 7.79619C169.475 5.83308 167.875 3.95702 165.88 3.95036C166.122 3.68432 166.251 3.33451 166.24 2.9749L164.595 2.83594C165.013 2.77682 165.397 2.57436 165.682 2.26326C165.021 2.98988 159.829 0.851849 158.762 0.813677Z" fill="#2F2E41"/>
<path d="M158.282 29.4417C158.282 29.4417 153.88 25.1278 152.295 25.392C150.711 25.6563 148.548 29.4417 148.548 29.4417C148.548 29.4417 135.569 33.7679 136.11 38.094C136.651 42.4202 142.599 63.5103 142.599 63.5103C142.599 63.5103 147.466 88.9266 143.14 91.6305C138.814 94.3343 163.69 101.364 164.23 98.1197C164.771 94.8751 165.853 62.4288 164.23 57.5618C162.608 52.6949 158.282 29.4417 158.282 29.4417Z" fill="#3F3D56"/>
<path d="M177.207 38.094H183.894C183.894 38.094 188.563 58.6433 189.104 60.8064C189.645 62.9695 190.726 73.2442 190.186 73.2442C189.645 73.2442 178.829 71.0811 178.829 72.7034L177.207 38.094Z" fill="#3F3D56"/>
<path d="M176.984 88.9808H151.386C148.888 77.4895 148.679 66.3868 151.386 55.7791H176.984C172.853 66.196 172.595 77.2226 176.984 88.9808Z" fill="#F2F2F2"/>
<path d="M140.98 74.8665L148.551 78.1112C148.551 78.1112 163.152 80.2742 163.152 74.3257C163.152 68.3773 148.551 71.6219 148.551 71.6219L143.684 70.0657L140.98 74.8665Z" fill="#A0616A"/>
<path d="M142.601 34.8494L136.111 36.4717L131.244 65.1326C131.244 65.1326 129.622 72.7034 132.326 73.2442C135.03 73.7849 142.601 78.1111 142.601 78.1111C142.601 78.1111 143.682 69.9995 145.845 69.9995L140.438 65.6734L143.682 46.7464L142.601 34.8494Z" fill="#3F3D56"/>
<path d="M50.8305 90.2249H15.3477V90.7318H50.8305V90.2249Z" fill="#F2F2F2"/>
<path d="M25.4874 85.6626H24.9805V90.3514H25.4874V85.6626Z" fill="#F2F2F2"/>
<path d="M40.9444 85.6626H40.4375V90.3514H40.9444V85.6626Z" fill="#F2F2F2"/>
<path d="M63.2445 15.2039H27.7617V15.7108H63.2445V15.2039Z" fill="#F2F2F2"/>
<path d="M53.6202 15.5842H53.1133V20.273H53.6202V15.5842Z" fill="#F2F2F2"/>
<path d="M38.1553 15.5842H37.6484V20.273H38.1553V15.5842Z" fill="#F2F2F2"/>
<path d="M98.9828 65.1331H63.5V65.64H98.9828V65.1331Z" fill="#F2F2F2"/>
<path d="M89.3546 65.5134H88.8477V70.2022H89.3546V65.5134Z" fill="#F2F2F2"/>
<path d="M73.8936 65.5134H73.3867V70.2022H73.8936V65.5134Z" fill="#F2F2F2"/>
<path d="M38.6664 64.8796H3.18359V65.3865H38.6664V64.8796Z" fill="#F2F2F2"/>
<path d="M29.0342 65.26H28.5273V69.9488H29.0342V65.26Z" fill="#F2F2F2"/>
<path d="M13.5733 65.26H13.0664V69.9488H13.5733V65.26Z" fill="#F2F2F2"/>
<path d="M81.2406 39.5349H45.7578V40.0418H81.2406V39.5349Z" fill="#F2F2F2"/>
<path d="M55.8975 34.9729H55.3906V39.6617H55.8975V34.9729Z" fill="#F2F2F2"/>
<path d="M71.3585 34.9729H70.8516V39.6617H71.3585V34.9729Z" fill="#F2F2F2"/>
</g>
<defs>
<clipPath id="clip0_1163_170">
<rect width="227.09" height="189.572" fill="white" transform="translate(0.0742188 0.780762)"/>
</clipPath>
</defs>
</svg>
