<svg width="84" height="84" viewBox="0 0 84 84" fill="none" xmlns="http://www.w3.org/2000/svg">
<circle cx="42" cy="42" r="42" fill="#FF6C11"/>
<path d="M56.2531 40.4122V41.6955C56.2513 44.7036 55.2773 47.6305 53.4762 50.0398C51.6751 52.449 49.1435 54.2115 46.2589 55.0644C43.3743 55.9173 40.2913 55.8149 37.4696 54.7724C34.648 53.73 32.2389 51.8033 30.6017 49.2799C28.9644 46.7564 28.1868 43.7713 28.3847 40.7697C28.5826 37.7682 29.7455 34.9111 31.6999 32.6244C33.6543 30.3378 36.2955 28.7442 39.2296 28.0813C42.1637 27.4183 45.2335 27.7216 47.9811 28.9459" stroke="white" stroke-width="2.43478" stroke-linecap="round" stroke-linejoin="round"/>
<path d="M56.2532 30.5371L42.3039 44.5003L38.1191 40.3156" stroke="white" stroke-width="2.43478" stroke-linecap="round" stroke-linejoin="round"/>
</svg>
