<svg width="16" height="16" viewBox="0 0 16 16" fill="none" xmlns="http://www.w3.org/2000/svg">
<rect x="4.91211" y="4.96338" width="7.08869" height="10.3149" rx="0.810136" fill="url(#paint0_linear_346_11)"/>
<rect x="4" y="4.25488" width="7.08869" height="10.3149" rx="1.01267" fill="#FF6C11"/>
<ellipse cx="7.56987" cy="8.43844" rx="1.5435" ry="1.44919" fill="white"/>
<path d="M7.571 11.7744L8.84696 9.24677H6.29505L7.571 11.7744Z" fill="white"/>
<ellipse cx="7.56811" cy="8.53972" rx="0.561274" ry="0.539232" fill="#FF6C11"/>
<mask id="path-6-inside-1_346_11" fill="white">
<path d="M10.178 4.76131C10.178 3.52586 9.90059 2.341 9.40682 1.46741C8.91305 0.593809 8.24335 0.103027 7.54505 0.103027C6.84675 0.103027 6.17705 0.593809 5.68328 1.46741C5.18951 2.341 4.91211 3.52585 4.91211 4.76131L7.54505 4.76131H10.178Z"/>
</mask>
<path d="M10.178 4.76131C10.178 3.52586 9.90059 2.341 9.40682 1.46741C8.91305 0.593809 8.24335 0.103027 7.54505 0.103027C6.84675 0.103027 6.17705 0.593809 5.68328 1.46741C5.18951 2.341 4.91211 3.52585 4.91211 4.76131L7.54505 4.76131H10.178Z" stroke="#FF6C11" stroke-width="0.607602" mask="url(#path-6-inside-1_346_11)"/>
<mask id="path-7-inside-2_346_11" fill="white">
<path d="M11.3928 5.47078C11.3928 4.23533 11.1154 3.05048 10.6217 2.17688C10.1279 1.30328 9.45819 0.8125 8.75989 0.8125C8.0616 0.8125 7.3919 1.30328 6.89812 2.17688C6.40435 3.05048 6.12695 4.23533 6.12695 5.47078L8.75989 5.47078H11.3928Z"/>
</mask>
<path d="M11.3928 5.47078C11.3928 4.23533 11.1154 3.05048 10.6217 2.17688C10.1279 1.30328 9.45819 0.8125 8.75989 0.8125C8.0616 0.8125 7.3919 1.30328 6.89812 2.17688C6.40435 3.05048 6.12695 4.23533 6.12695 5.47078L8.75989 5.47078H11.3928Z" stroke="#FF6C11" stroke-opacity="0.28" stroke-width="0.607602" mask="url(#path-7-inside-2_346_11)"/>
<defs>
<linearGradient id="paint0_linear_346_11" x1="8.45645" y1="4.96338" x2="8.45645" y2="15.2783" gradientUnits="userSpaceOnUse">
<stop offset="0.9999" stop-color="#FF6C11" stop-opacity="0.56"/>
<stop offset="1" stop-color="#FF6C11" stop-opacity="0.44"/>
</linearGradient>
</defs>
</svg>
