<svg width="175" height="81" viewBox="0 0 175 81" fill="none" xmlns="http://www.w3.org/2000/svg">
<rect x="4.80371" y="25.625" width="37.3687" height="54.3762" rx="4.2707" fill="#ADADAD"/>
<mask id="path-2-inside-1_118_27" fill="white">
<path d="M38.9695 28.2943C38.9695 21.7815 37.5072 15.5355 34.9042 10.9302C32.3013 6.32499 28.7709 3.73779 25.0897 3.73779C21.4086 3.73779 17.8782 6.32499 15.2753 10.9302C12.6723 15.5355 11.21 21.7815 11.21 28.2943L25.0897 28.2943H38.9695Z"/>
</mask>
<path d="M38.9695 28.2943C38.9695 21.7815 37.5072 15.5355 34.9042 10.9302C32.3013 6.32499 28.7709 3.73779 25.0897 3.73779C21.4086 3.73779 17.8782 6.32499 15.2753 10.9302C12.6723 15.5355 11.21 21.7815 11.21 28.2943L25.0897 28.2943H38.9695Z" stroke="#ADADAD" stroke-width="3.20303" mask="url(#path-2-inside-1_118_27)"/>
<mask id="path-3-inside-2_118_27" fill="white">
<path d="M32.5633 24.5565C32.5633 18.0437 31.101 11.7977 28.498 7.19245C25.895 2.5872 22.3646 4.91703e-07 18.6835 0C15.0023 -4.91703e-07 11.472 2.5872 8.86901 7.19244C6.26604 11.7977 4.80371 18.0437 4.80371 24.5565L18.6835 24.5565H32.5633Z"/>
</mask>
<path d="M32.5633 24.5565C32.5633 18.0437 31.101 11.7977 28.498 7.19245C25.895 2.5872 22.3646 4.91703e-07 18.6835 0C15.0023 -4.91703e-07 11.472 2.5872 8.86901 7.19244C6.26604 11.7977 4.80371 18.0437 4.80371 24.5565L18.6835 24.5565H32.5633Z" stroke="white" stroke-width="3.20303" mask="url(#path-3-inside-2_118_27)"/>
<rect y="21.8872" width="37.3687" height="54.3762" rx="5.33838" fill="white"/>
<ellipse cx="18.8135" cy="43.9393" rx="8.13672" ry="7.63951" fill="#3F3D56"/>
<path d="M18.8147 61.5269L25.541 48.2021H12.0884L18.8147 61.5269Z" fill="#3F3D56"/>
<ellipse cx="18.8133" cy="44.4725" rx="2.95881" ry="2.84261" fill="white"/>
<path d="M75.1087 50.092C75.1087 51.2806 74.9797 52.3832 74.7216 53.3998C74.4714 54.4086 74.0726 55.3 73.5252 56.0742C72.9856 56.8405 72.2779 57.4661 71.4021 57.951L75.5896 62.7719H69.8186L66.933 58.9245C66.9252 58.9245 66.8978 58.9245 66.8509 58.9245C66.8118 58.9245 66.7844 58.9245 66.7688 58.9245C65.3299 58.9245 64.0827 58.7173 63.027 58.3029C61.9791 57.8806 61.115 57.2824 60.4347 56.5082C59.7544 55.7262 59.25 54.7917 58.9215 53.7048C58.5931 52.6178 58.4289 51.4057 58.4289 50.0685C58.4289 48.2856 58.7221 46.7372 59.3086 45.4235C59.9029 44.1019 60.8179 43.0814 62.0534 42.362C63.2889 41.6348 64.8686 41.2711 66.7923 41.2711C68.7472 41.2711 70.3347 41.6348 71.5546 42.362C72.7823 43.0893 73.6816 44.1137 74.2524 45.4352C74.8233 46.7568 75.1087 48.309 75.1087 50.092ZM63.3085 50.092C63.3085 51.1242 63.4258 52.0118 63.6604 52.7546C63.895 53.4975 64.2664 54.0684 64.7747 54.4672C65.283 54.866 65.9477 55.0654 66.7688 55.0654C67.6212 55.0654 68.2976 54.866 68.7981 54.4672C69.3064 54.0684 69.67 53.4975 69.8889 52.7546C70.1157 52.0118 70.2291 51.1242 70.2291 50.092C70.2291 48.5436 69.971 47.3198 69.4549 46.4205C68.9388 45.5212 68.0513 45.0716 66.7923 45.0716C65.9555 45.0716 65.2791 45.2749 64.763 45.6816C64.2547 46.0882 63.8833 46.6669 63.6487 47.4176C63.4219 48.1683 63.3085 49.0597 63.3085 50.092ZM90.8619 45.4V58.6899H87.4016L86.8268 57.036H86.557C86.2833 57.4818 85.9354 57.8454 85.5131 58.1269C85.0986 58.4006 84.6373 58.6 84.129 58.7251C83.6207 58.8581 83.0928 58.9245 82.5454 58.9245C81.6774 58.9245 80.8915 58.7564 80.1877 58.4202C79.4918 58.0839 78.9366 57.5561 78.5221 56.8366C78.1155 56.1172 77.9121 55.1905 77.9121 54.0567V45.4H82.4985V52.6608C82.4985 53.521 82.6197 54.1779 82.8621 54.6314C83.1124 55.0772 83.519 55.3 84.082 55.3C84.6607 55.3 85.1064 55.1436 85.4192 54.8308C85.7399 54.518 85.9627 54.0567 86.0878 53.4467C86.213 52.8368 86.2755 52.0939 86.2755 51.218V45.4H90.8619ZM98.6388 45.4V58.6899H94.0524V45.4H98.6388ZM96.3632 40.0512C97.02 40.0512 97.5909 40.1881 98.0757 40.4618C98.5684 40.7355 98.8147 41.279 98.8147 42.0922C98.8147 42.882 98.5684 43.4177 98.0757 43.6992C97.5909 43.9729 97.02 44.1098 96.3632 44.1098C95.6907 44.1098 95.1159 43.9729 94.6389 43.6992C94.1697 43.4177 93.9351 42.882 93.9351 42.0922C93.9351 41.279 94.1697 40.7355 94.6389 40.4618C95.1159 40.1881 95.6907 40.0512 96.3632 40.0512ZM107.894 58.9245C106.549 58.9245 105.38 58.686 104.386 58.209C103.393 57.7242 102.623 56.9813 102.076 55.9803C101.536 54.9716 101.266 53.6813 101.266 52.1095C101.266 50.4986 101.567 49.181 102.169 48.1565C102.779 47.1321 103.612 46.3775 104.668 45.8927C105.724 45.4079 106.92 45.1654 108.257 45.1654C109.071 45.1654 109.841 45.2554 110.568 45.4352C111.303 45.6151 111.983 45.8614 112.609 46.1742L111.26 49.5641C110.713 49.3217 110.2 49.1301 109.723 48.9894C109.254 48.8408 108.766 48.7665 108.257 48.7665C107.796 48.7665 107.389 48.8877 107.037 49.1301C106.685 49.3725 106.412 49.7401 106.216 50.2327C106.021 50.7176 105.923 51.3353 105.923 52.086C105.923 52.8524 106.021 53.4702 106.216 53.9394C106.42 54.4086 106.697 54.7487 107.049 54.9599C107.409 55.171 107.819 55.2766 108.281 55.2766C108.945 55.2766 109.606 55.1749 110.263 54.9716C110.928 54.7604 111.557 54.4711 112.152 54.1036V57.7516C111.604 58.1113 110.986 58.3967 110.298 58.6078C109.61 58.819 108.809 58.9245 107.894 58.9245ZM126.274 53.4819C126.274 54.4125 126.04 55.2961 125.57 56.1328C125.101 56.9617 124.37 57.6343 123.377 58.1504C122.392 58.6665 121.117 58.9245 119.553 58.9245C118.771 58.9245 118.083 58.8893 117.489 58.819C116.902 58.7486 116.355 58.6352 115.846 58.4788C115.338 58.3146 114.81 58.1034 114.263 57.8454V53.7165C115.193 54.1857 116.132 54.5454 117.078 54.7956C118.024 55.0381 118.881 55.1593 119.647 55.1593C120.108 55.1593 120.484 55.1045 120.773 54.995C121.07 54.8856 121.289 54.737 121.43 54.5493C121.571 54.3538 121.641 54.1309 121.641 53.8807C121.641 53.5836 121.535 53.3333 121.324 53.13C121.121 52.9189 120.793 52.6999 120.339 52.4731C119.885 52.2464 119.287 51.9648 118.544 51.6286C117.911 51.3314 117.336 51.0264 116.82 50.7137C116.312 50.4009 115.874 50.0451 115.506 49.6462C115.147 49.2396 114.869 48.7665 114.673 48.2269C114.478 47.6874 114.38 47.05 114.38 46.315C114.38 45.2124 114.65 44.2896 115.19 43.5467C115.737 42.796 116.495 42.233 117.465 41.8576C118.443 41.4823 119.569 41.2946 120.843 41.2946C121.962 41.2946 122.966 41.4197 123.858 41.6699C124.757 41.9202 125.563 42.2056 126.274 42.5262L124.855 46.1038C124.12 45.7676 123.397 45.5017 122.685 45.3062C121.973 45.1029 121.313 45.0012 120.703 45.0012C120.304 45.0012 119.975 45.0521 119.717 45.1537C119.467 45.2475 119.279 45.3766 119.154 45.5408C119.037 45.705 118.978 45.8927 118.978 46.1038C118.978 46.3697 119.08 46.6082 119.283 46.8193C119.494 47.0305 119.842 47.2612 120.327 47.5114C120.82 47.7538 121.488 48.0705 122.333 48.4615C123.17 48.8369 123.881 49.2435 124.468 49.6814C125.054 50.1115 125.5 50.6315 125.805 51.2415C126.118 51.8436 126.274 52.5904 126.274 53.4819ZM133.242 40.4383V43.0306C133.242 44.0159 133.218 44.8448 133.171 45.5173C133.132 46.182 133.093 46.6903 133.054 47.0422H133.265C133.555 46.5808 133.883 46.2133 134.251 45.9396C134.618 45.6659 135.025 45.4704 135.47 45.3531C135.916 45.228 136.401 45.1654 136.925 45.1654C137.801 45.1654 138.591 45.3336 139.294 45.6698C140.006 46.0061 140.573 46.5339 140.995 47.2534C141.417 47.965 141.629 48.8955 141.629 50.0451V58.6899H137.019V51.4409C137.019 50.5573 136.89 49.8926 136.632 49.4468C136.374 48.9933 135.975 48.7665 135.435 48.7665C134.88 48.7665 134.442 48.9268 134.122 49.2474C133.801 49.5602 133.574 50.0216 133.441 50.6315C133.308 51.2337 133.242 51.9727 133.242 52.8485V58.6899H128.655V40.4383H133.242ZM157.44 52.0157C157.44 53.1261 157.288 54.1114 156.983 54.9716C156.678 55.8318 156.236 56.5551 155.658 57.1416C155.079 57.7281 154.379 58.1738 153.558 58.4788C152.737 58.776 151.81 58.9245 150.778 58.9245C149.816 58.9245 148.932 58.776 148.127 58.4788C147.329 58.1738 146.633 57.7281 146.039 57.1416C145.445 56.5551 144.983 55.8318 144.655 54.9716C144.334 54.1114 144.174 53.1261 144.174 52.0157C144.174 50.5455 144.44 49.3022 144.972 48.2856C145.511 47.269 146.278 46.4948 147.271 45.9631C148.272 45.4313 149.464 45.1654 150.848 45.1654C152.123 45.1654 153.257 45.4313 154.25 45.9631C155.243 46.4948 156.021 47.269 156.584 48.2856C157.155 49.3022 157.44 50.5455 157.44 52.0157ZM148.831 52.0157C148.831 52.7742 148.897 53.4154 149.03 53.9394C149.163 54.4555 149.374 54.8504 149.664 55.1241C149.961 55.3899 150.348 55.5229 150.825 55.5229C151.302 55.5229 151.681 55.3899 151.963 55.1241C152.244 54.8504 152.447 54.4555 152.573 53.9394C152.705 53.4154 152.772 52.7742 152.772 52.0157C152.772 51.2571 152.705 50.6237 152.573 50.1154C152.447 49.6071 152.24 49.224 151.951 48.9659C151.669 48.7079 151.286 48.5788 150.801 48.5788C150.105 48.5788 149.601 48.8682 149.288 49.4468C148.983 50.0255 148.831 50.8818 148.831 52.0157ZM168.185 45.1654C169.655 45.1654 170.809 45.7558 171.645 46.9366C172.482 48.1096 172.9 49.8026 172.9 52.0157C172.9 53.5249 172.689 54.7956 172.267 55.8279C171.845 56.8523 171.266 57.6264 170.531 58.1504C169.804 58.6665 168.975 58.9245 168.044 58.9245C167.419 58.9245 166.887 58.8463 166.449 58.6899C166.019 58.5335 165.659 58.338 165.37 58.1034C165.088 57.8689 164.85 57.6303 164.654 57.3879H164.514C164.553 57.6929 164.584 58.0213 164.607 58.3732C164.639 58.7251 164.654 59.1357 164.654 59.6049V64.461H160.068V45.4H163.798L164.443 47.0891H164.654C164.873 46.7451 165.139 46.4284 165.452 46.139C165.765 45.8419 166.144 45.6073 166.59 45.4352C167.043 45.2554 167.575 45.1654 168.185 45.1654ZM166.461 48.7665C166.015 48.7665 165.663 48.8721 165.405 49.0832C165.147 49.2943 164.959 49.615 164.842 50.0451C164.732 50.4673 164.67 50.9952 164.654 51.6286V51.9922C164.654 52.696 164.709 53.2903 164.819 53.7751C164.928 54.2522 165.116 54.6158 165.382 54.866C165.647 55.1084 166.015 55.2296 166.484 55.2296C166.867 55.2296 167.188 55.1202 167.446 54.9012C167.704 54.6822 167.9 54.3343 168.032 53.8572C168.165 53.3802 168.232 52.7507 168.232 51.9687C168.232 50.8036 168.079 49.9786 167.774 49.4937C167.477 49.0089 167.039 48.7665 166.461 48.7665Z" fill="white"/>
</svg>
