<svg width="101" height="94" viewBox="0 0 101 94" fill="none" xmlns="http://www.w3.org/2000/svg">
<path d="M55.09 45.0617C54.852 44.6283 54.555 44.2301 54.2074 43.8785L50.2404 39.9656C49.833 39.5508 49.3518 39.2155 48.8215 38.9771C47.987 38.6049 47.0594 38.4939 46.1606 38.6587C45.2619 38.8236 44.434 39.2565 43.7859 39.9007C42.4102 41.2547 39.8925 43.7249 35.3501 48.2132C26.6634 56.8069 10.5336 71.2106 3.23987 77.3536C2.87239 77.6611 2.57276 78.0416 2.35997 78.4709C2.14719 78.9002 2.02587 79.3691 2.0037 79.8477C1.98154 80.3264 2.05901 80.8044 2.23122 81.2516C2.40342 81.6987 2.6666 82.1052 3.0041 82.4454L11.4399 90.9742C11.7796 91.315 12.1862 91.5818 12.634 91.7579C13.0818 91.934 13.5611 92.0156 14.042 91.9975C14.5228 91.9795 14.9947 91.8621 15.428 91.6529C15.8613 91.4436 16.2467 91.147 16.5598 90.7817C22.8845 83.3474 37.3898 67.2047 45.9771 58.7191C50.3875 54.38 52.8599 51.8882 54.2593 50.5125C54.9534 49.8067 55.4072 48.9 55.5564 47.9215C55.7055 46.9429 55.5423 45.9422 55.09 45.0617ZM98.5691 35.1117L91.1477 27.7574C91.0345 27.6442 90.8993 27.5554 90.7506 27.4962C90.6018 27.4371 90.4425 27.4089 90.2825 27.4135C90.1227 27.4108 89.964 27.4398 89.8155 27.4988C89.667 27.5579 89.5316 27.6457 89.4173 27.7574C89.1503 28.0259 88.8251 28.2293 88.4669 28.3519C88.1087 28.4746 87.7271 28.5132 87.3516 28.4647C86.3826 28.3587 85.3508 28.0581 84.6846 27.4135C83.1704 25.9296 84.9203 23.0096 83.5879 21.1407C82.0662 19.0956 80.3977 17.1639 78.5956 15.3611C77.0685 13.8469 71.0661 8.12139 60.9561 3.99865C57.7298 2.67691 54.2764 1.99799 50.7898 2C45.0902 2 40.7079 4.54373 39.1095 6.00378C37.8376 7.15451 36.5138 8.98228 36.5138 8.98228C37.2782 8.7036 38.0591 8.47244 38.8521 8.29011C40.5056 7.93575 42.2024 7.82715 43.8876 7.96781C47.2533 8.24685 51.309 9.82586 53.485 11.5347C56.9913 14.3466 58.4989 18.1081 58.7347 22.962C58.9077 26.5721 55.4404 31.1296 52.1504 34.8457C51.8609 35.1724 51.7084 35.5981 51.7245 36.0343C51.7407 36.4705 51.9241 36.8837 52.2369 37.1882L56.8312 41.7804C57.1512 42.0964 57.5818 42.2755 58.0316 42.2795C58.4814 42.2836 58.9151 42.1123 59.2408 41.802C62.2539 38.8797 65.9657 35.6438 68.0703 34.3482C70.1749 33.0525 71.8729 32.687 72.6884 32.5983C74.2908 32.4431 75.9016 32.7925 77.2956 33.5976C77.5412 33.7365 77.7655 33.9099 77.9619 34.1124C79.3592 35.5313 79.2748 37.8501 77.8537 39.2474L77.4211 39.6563C77.3086 39.767 77.2193 39.8989 77.1583 40.0445C77.0973 40.1901 77.0659 40.3463 77.0659 40.5042C77.0659 40.662 77.0973 40.8182 77.1583 40.9638C77.2193 41.1094 77.3086 41.2414 77.4211 41.3521L84.8425 48.7064C84.9563 48.8186 85.0916 48.9066 85.2403 48.9653C85.3889 49.0241 85.5479 49.0522 85.7077 49.0481C86.0299 49.0527 86.3408 48.9299 86.5729 48.7064L98.5691 36.8421C98.7903 36.6084 98.9135 36.2988 98.9135 35.9769C98.9135 35.6551 98.7903 35.3455 98.5691 35.1117Z" fill="#EEEEEE" stroke="#3F3D56" stroke-width="3.5" stroke-linecap="round" stroke-linejoin="round"/>
</svg>
