<svg width="123" height="56" viewBox="0 0 123 56" fill="none" xmlns="http://www.w3.org/2000/svg">
<rect x="3.36279" y="17.937" width="26.1578" height="38.0629" rx="2.98946" fill="#ADADAD"/>
<mask id="path-2-inside-1_315_1358" fill="white">
<path d="M27.2789 19.8051C27.2789 15.2462 26.2553 10.874 24.4332 7.65038C22.6112 4.42674 20.1399 2.61572 17.5632 2.61572C14.9864 2.61572 12.5151 4.42674 10.6931 7.65037C8.87103 10.874 7.84741 15.2462 7.84741 19.8051L17.5631 19.8051H27.2789Z"/>
</mask>
<path d="M27.2789 19.8051C27.2789 15.2462 26.2553 10.874 24.4332 7.65038C22.6112 4.42674 20.1399 2.61572 17.5632 2.61572C14.9864 2.61572 12.5151 4.42674 10.6931 7.65037C8.87103 10.874 7.84741 15.2462 7.84741 19.8051L17.5631 19.8051H27.2789Z" stroke="#ADADAD" stroke-width="2.24209" mask="url(#path-2-inside-1_315_1358)"/>
<mask id="path-3-inside-2_315_1358" fill="white">
<path d="M22.7943 17.1894C22.7943 12.6305 21.7706 8.25829 19.9486 5.03465C18.1265 1.81102 15.6553 3.44188e-07 13.0785 0C10.5018 -3.44188e-07 8.03052 1.81102 6.20847 5.03465C4.38641 8.25829 3.36279 12.6305 3.36279 17.1894L13.0785 17.1894H22.7943Z"/>
</mask>
<path d="M22.7943 17.1894C22.7943 12.6305 21.7706 8.25829 19.9486 5.03465C18.1265 1.81102 15.6553 3.44188e-07 13.0785 0C10.5018 -3.44188e-07 8.03052 1.81102 6.20847 5.03465C4.38641 8.25829 3.36279 12.6305 3.36279 17.1894L13.0785 17.1894H22.7943Z" stroke="white" stroke-width="2.24209" mask="url(#path-3-inside-2_315_1358)"/>
<rect y="15.3208" width="26.1578" height="38.0629" rx="3.73682" fill="white"/>
<ellipse cx="13.1695" cy="30.7573" rx="5.69564" ry="5.34759" fill="#3F3D56"/>
<path d="M13.1701 43.0684L17.8785 33.7412H8.46178L13.1701 43.0684Z" fill="#3F3D56"/>
<ellipse cx="13.1693" cy="31.1299" rx="2.07114" ry="1.9898" fill="white"/>
<path d="M52.5758 34.8638C52.5758 35.6958 52.4855 36.4677 52.3049 37.1793C52.1297 37.8854 51.8505 38.5094 51.4674 39.0513C51.0897 39.5878 50.5943 40.0257 49.9812 40.365L52.9125 43.7397H48.8727L46.8529 41.0465C46.8474 41.0465 46.8283 41.0465 46.7954 41.0465C46.768 41.0465 46.7489 41.0465 46.7379 41.0465C45.7307 41.0465 44.8577 40.9015 44.1187 40.6114C43.3852 40.3158 42.7803 39.897 42.3041 39.3551C41.8279 38.8077 41.4748 38.1536 41.2449 37.3927C41.015 36.6319 40.9001 35.7834 40.9001 34.8474C40.9001 33.5994 41.1053 32.5155 41.5159 31.5959C41.9319 30.6708 42.5723 29.9565 43.4372 29.4529C44.3021 28.9438 45.4078 28.6893 46.7544 28.6893C48.1228 28.6893 49.234 28.9438 50.0879 29.4529C50.9473 29.962 51.5768 30.679 51.9764 31.6041C52.376 32.5292 52.5758 33.6158 52.5758 34.8638ZM44.3158 34.8638C44.3158 35.5864 44.3979 36.2076 44.5621 36.7277C44.7263 37.2477 44.9863 37.6473 45.3421 37.9264C45.6979 38.2056 46.1632 38.3452 46.7379 38.3452C47.3346 38.3452 47.8081 38.2056 48.1584 37.9264C48.5142 37.6473 48.7687 37.2477 48.922 36.7277C49.0807 36.2076 49.1601 35.5864 49.1601 34.8638C49.1601 33.78 48.9795 32.9233 48.6182 32.2938C48.2569 31.6643 47.6356 31.3496 46.7544 31.3496C46.1687 31.3496 45.6952 31.4919 45.3339 31.7766C44.9781 32.0612 44.7181 32.4663 44.5539 32.9918C44.3951 33.5172 44.3158 34.1413 44.3158 34.8638ZM63.6029 31.5795V40.8823H61.1807L60.7784 39.7246H60.5895C60.398 40.0366 60.1544 40.2911 59.8588 40.4882C59.5687 40.6798 59.2457 40.8194 58.8899 40.907C58.5341 41 58.1646 41.0465 57.7814 41.0465C57.1739 41.0465 56.6237 40.9289 56.1311 40.6935C55.6439 40.4581 55.2553 40.0886 54.9651 39.585C54.6805 39.0814 54.5382 38.4328 54.5382 37.6391V31.5795H57.7486V36.662C57.7486 37.2641 57.8335 37.7239 58.0031 38.0414C58.1783 38.3534 58.4629 38.5094 58.8571 38.5094C59.2621 38.5094 59.5741 38.3999 59.7931 38.181C60.0175 37.962 60.1735 37.6391 60.2611 37.2121C60.3487 36.7851 60.3925 36.2651 60.3925 35.6521V31.5795H63.6029ZM69.0467 31.5795V40.8823H65.8362V31.5795H69.0467ZM67.4538 27.8354C67.9136 27.8354 68.3132 27.9312 68.6525 28.1228C68.9974 28.3143 69.1698 28.6948 69.1698 29.2641C69.1698 29.8169 68.9974 30.1919 68.6525 30.3889C68.3132 30.5805 67.9136 30.6763 67.4538 30.6763C66.983 30.6763 66.5807 30.5805 66.2468 30.3889C65.9183 30.1919 65.7541 29.8169 65.7541 29.2641C65.7541 28.6948 65.9183 28.3143 66.2468 28.1228C66.5807 27.9312 66.983 27.8354 67.4538 27.8354ZM75.525 41.0465C74.5835 41.0465 73.7651 40.8796 73.0699 40.5457C72.3748 40.2063 71.8356 39.6863 71.4524 38.9856C71.0747 38.2795 70.8859 37.3763 70.8859 36.2761C70.8859 35.1485 71.0966 34.2261 71.5181 33.509C71.9451 32.792 72.528 32.2637 73.267 31.9244C74.006 31.585 74.8435 31.4153 75.7795 31.4153C76.3488 31.4153 76.888 31.4782 77.397 31.6041C77.9116 31.73 78.3878 31.9025 78.8257 32.1214L77.8815 34.4943C77.4983 34.3246 77.1398 34.1905 76.8059 34.092C76.4774 33.988 76.1353 33.936 75.7795 33.936C75.4565 33.936 75.1719 34.0208 74.9256 34.1905C74.6793 34.3602 74.4877 34.6175 74.3508 34.9623C74.214 35.3017 74.1456 35.7342 74.1456 36.2596C74.1456 36.7961 74.214 37.2285 74.3508 37.557C74.4931 37.8854 74.6875 38.1235 74.9338 38.2713C75.1856 38.4191 75.473 38.493 75.7959 38.493C76.2612 38.493 76.7237 38.4218 77.1835 38.2795C77.6488 38.1317 78.0895 37.9292 78.5055 37.6719V40.2255C78.1223 40.4773 77.6899 40.6771 77.2082 40.8248C76.7265 40.9726 76.1654 41.0465 75.525 41.0465ZM88.3913 37.2367C88.3913 37.8881 88.2271 38.5067 87.8986 39.0924C87.5702 39.6726 87.0584 40.1434 86.3632 40.5046C85.6735 40.8659 84.7813 41.0465 83.6865 41.0465C83.1391 41.0465 82.6574 41.0219 82.2414 40.9726C81.8309 40.9234 81.4477 40.844 81.0919 40.7345C80.7361 40.6196 80.3666 40.4718 79.9834 40.2911V37.4009C80.6348 37.7294 81.2917 37.9812 81.954 38.1563C82.6164 38.326 83.2157 38.4109 83.7522 38.4109C84.0751 38.4109 84.3379 38.3726 84.5404 38.2959C84.7484 38.2193 84.9017 38.1153 85.0002 37.9839C85.0988 37.8471 85.148 37.6911 85.148 37.5159C85.148 37.3079 85.0741 37.1327 84.9263 36.9904C84.784 36.8426 84.5541 36.6893 84.2366 36.5306C83.9191 36.3719 83.5004 36.1748 82.9804 35.9394C82.537 35.7314 82.1347 35.5179 81.7734 35.299C81.4176 35.08 81.111 34.831 80.8538 34.5518C80.602 34.2672 80.4077 33.936 80.2708 33.5583C80.134 33.1806 80.0655 32.7345 80.0655 32.2199C80.0655 31.4481 80.2544 30.8022 80.6321 30.2822C81.0153 29.7567 81.5462 29.3626 82.225 29.0998C82.9092 28.8371 83.6974 28.7057 84.5897 28.7057C85.3724 28.7057 86.0758 28.7933 86.6999 28.9685C87.3293 29.1436 87.8932 29.3434 88.3913 29.5679L87.3978 32.0721C86.8832 31.8368 86.3769 31.6507 85.8788 31.5138C85.3807 31.3715 84.9181 31.3003 84.4912 31.3003C84.212 31.3003 83.9821 31.3359 83.8014 31.4071C83.6263 31.4728 83.4949 31.5631 83.4073 31.678C83.3252 31.793 83.2842 31.9244 83.2842 32.0721C83.2842 32.2583 83.3553 32.4252 83.4976 32.573C83.6454 32.7208 83.889 32.8823 84.2284 33.0574C84.5733 33.2271 85.0413 33.4488 85.6325 33.7225C86.2182 33.9853 86.7163 34.2699 87.1268 34.5764C87.5374 34.8775 87.8494 35.2415 88.0628 35.6685C88.2818 36.09 88.3913 36.6127 88.3913 37.2367ZM93.2685 28.1063V29.9209C93.2685 30.6106 93.2521 31.1909 93.2192 31.6616C93.1919 32.1269 93.1645 32.4827 93.1371 32.729H93.2849C93.4874 32.4061 93.7173 32.1488 93.9746 31.9572C94.2319 31.7656 94.5165 31.6288 94.8285 31.5467C95.1405 31.4591 95.4799 31.4153 95.8467 31.4153C96.4597 31.4153 97.0126 31.533 97.5053 31.7683C98.0034 32.0037 98.4002 32.3732 98.6958 32.8768C98.9914 33.3749 99.1392 34.0263 99.1392 34.831V40.8823H95.9124V35.8081C95.9124 35.1895 95.822 34.7242 95.6414 34.4122C95.4608 34.0947 95.1816 33.936 94.8039 33.936C94.4153 33.936 94.1087 34.0482 93.8843 34.2726C93.6599 34.4916 93.5011 34.8146 93.4081 35.2415C93.315 35.663 93.2685 36.1803 93.2685 36.7934V40.8823H90.0581V28.1063H93.2685ZM110.207 36.2104C110.207 36.9877 110.101 37.6774 109.887 38.2795C109.674 38.8816 109.364 39.388 108.959 39.7985C108.554 40.209 108.064 40.521 107.49 40.7345C106.915 40.9425 106.266 41.0465 105.544 41.0465C104.87 41.0465 104.252 40.9425 103.688 40.7345C103.13 40.521 102.642 40.209 102.226 39.7985C101.81 39.388 101.487 38.8816 101.258 38.2795C101.033 37.6774 100.921 36.9877 100.921 36.2104C100.921 35.1813 101.107 34.311 101.479 33.5994C101.857 32.8878 102.393 32.3458 103.089 31.9736C103.789 31.6014 104.624 31.4153 105.593 31.4153C106.485 31.4153 107.279 31.6014 107.974 31.9736C108.669 32.3458 109.214 32.8878 109.608 33.5994C110.008 34.311 110.207 35.1813 110.207 36.2104ZM104.181 36.2104C104.181 36.7413 104.227 37.1902 104.32 37.557C104.413 37.9182 104.561 38.1947 104.764 38.3862C104.972 38.5724 105.243 38.6654 105.576 38.6654C105.91 38.6654 106.176 38.5724 106.373 38.3862C106.57 38.1947 106.712 37.9182 106.8 37.557C106.893 37.1902 106.939 36.7413 106.939 36.2104C106.939 35.6794 106.893 35.236 106.8 34.8802C106.712 34.5244 106.567 34.2562 106.365 34.0756C106.168 33.8949 105.899 33.8046 105.56 33.8046C105.073 33.8046 104.72 34.0072 104.501 34.4122C104.287 34.8173 104.181 35.4167 104.181 36.2104ZM117.728 31.4153C118.758 31.4153 119.565 31.8286 120.151 32.6551C120.736 33.4762 121.029 34.6613 121.029 36.2104C121.029 37.2668 120.881 38.1563 120.586 38.8789C120.29 39.596 119.885 40.1379 119.371 40.5046C118.862 40.8659 118.281 41.0465 117.63 41.0465C117.192 41.0465 116.82 40.9918 116.513 40.8823C116.212 40.7728 115.96 40.636 115.758 40.4718C115.561 40.3076 115.394 40.1406 115.257 39.9709H115.158C115.186 40.1844 115.208 40.4143 115.224 40.6606C115.246 40.907 115.257 41.1943 115.257 41.5228V44.922H112.047V31.5795H114.658L115.109 32.7619H115.257C115.41 32.521 115.596 32.2993 115.815 32.0968C116.034 31.8888 116.3 31.7246 116.612 31.6041C116.929 31.4782 117.301 31.4153 117.728 31.4153ZM116.521 33.936C116.209 33.936 115.963 34.0099 115.782 34.1577C115.602 34.3055 115.47 34.5299 115.388 34.831C115.312 35.1266 115.268 35.496 115.257 35.9394V36.194C115.257 36.6866 115.295 37.1026 115.372 37.442C115.449 37.7759 115.58 38.0304 115.766 38.2056C115.952 38.3753 116.209 38.4601 116.538 38.4601C116.806 38.4601 117.031 38.3835 117.211 38.2302C117.392 38.077 117.529 37.8334 117.622 37.4995C117.715 37.1656 117.761 36.7249 117.761 36.1775C117.761 35.3619 117.655 34.7844 117.441 34.4451C117.233 34.1057 116.927 33.936 116.521 33.936Z" fill="white"/>
</svg>
