<svg width="94" height="94" viewBox="0 0 94 94" fill="none" xmlns="http://www.w3.org/2000/svg">
<path d="M92 47C92 22.1562 71.8438 2 47 2C22.1562 2 2 22.1562 2 47C2 71.8438 22.1562 92 47 92C71.8438 92 92 71.8438 92 47Z" fill="#EEEEEE" stroke="#3F3D56" stroke-width="3.5" stroke-miterlimit="10"/>
<path d="M26.375 31.5312C27.4105 31.5312 28.25 30.6918 28.25 29.6562C28.25 28.6207 27.4105 27.7812 26.375 27.7812C25.3395 27.7812 24.5 28.6207 24.5 29.6562C24.5 30.6918 25.3395 31.5312 26.375 31.5312Z" stroke="#3F3D56" stroke-width="3.5" stroke-linecap="round" stroke-linejoin="round"/>
<path d="M26.375 48.6406C27.4105 48.6406 28.25 47.8012 28.25 46.7656C28.25 45.7301 27.4105 44.8906 26.375 44.8906C25.3395 44.8906 24.5 45.7301 24.5 46.7656C24.5 47.8012 25.3395 48.6406 26.375 48.6406Z" stroke="#3F3D56" stroke-width="3.5" stroke-linecap="round" stroke-linejoin="round"/>
<path d="M26.375 65.2812C27.4105 65.2812 28.25 64.4418 28.25 63.4062C28.25 62.3707 27.4105 61.5312 26.375 61.5312C25.3395 61.5312 24.5 62.3707 24.5 63.4062C24.5 64.4418 25.3395 65.2812 26.375 65.2812Z" stroke="#3F3D56" stroke-width="3.5" stroke-linecap="round" stroke-linejoin="round"/>
<path d="M39.5 29.6562H69.5M39.5 46.5312H69.5M39.5 63.1719H69.5" stroke="#3F3D56" stroke-width="3.5" stroke-linecap="round" stroke-linejoin="round"/>
</svg>
