<svg width="131" height="60" viewBox="0 0 131 60" fill="none" xmlns="http://www.w3.org/2000/svg">
<rect x="3.58496" y="19.1221" width="27.8856" height="40.5771" rx="3.18692" fill="url(#paint0_linear_214_28)"/>
<rect y="16.333" width="27.8856" height="40.5771" rx="3.98365" fill="#FF6C11"/>
<ellipse cx="14.0387" cy="32.7887" rx="6.07186" ry="5.70082" fill="white"/>
<path d="M14.04 45.9131L19.0594 35.9698H9.02064L14.04 45.9131Z" fill="white"/>
<ellipse cx="14.039" cy="33.1867" rx="2.20795" ry="2.12124" fill="#FF6C11"/>
<mask id="path-6-inside-1_214_28" fill="white">
<path d="M24.3 18.3248C24.3 13.4648 23.2087 8.80378 21.2663 5.36721C19.3239 1.93064 16.6894 3.66923e-07 13.9425 0C11.1955 -3.66923e-07 8.56101 1.93064 6.6186 5.36721C4.6762 8.80378 3.58496 13.4648 3.58496 18.3248L13.9425 18.3248H24.3Z"/>
</mask>
<path d="M24.3 18.3248C24.3 13.4648 23.2087 8.80378 21.2663 5.36721C19.3239 1.93064 16.6894 3.66923e-07 13.9425 0C11.1955 -3.66923e-07 8.56101 1.93064 6.6186 5.36721C4.6762 8.80378 3.58496 13.4648 3.58496 18.3248L13.9425 18.3248H24.3Z" stroke="#FF6C11" stroke-width="2.39019" mask="url(#path-6-inside-1_214_28)"/>
<mask id="path-7-inside-2_214_28" fill="white">
<path d="M29.0802 21.1139C29.0802 16.2538 27.989 11.5928 26.0466 8.15627C24.1042 4.71971 21.4697 2.78906 18.7227 2.78906C15.9758 2.78906 13.3413 4.71971 11.3989 8.15627C9.45647 11.5928 8.36523 16.2538 8.36523 21.1139L18.7227 21.1139H29.0802Z"/>
</mask>
<path d="M29.0802 21.1139C29.0802 16.2538 27.989 11.5928 26.0466 8.15627C24.1042 4.71971 21.4697 2.78906 18.7227 2.78906C15.9758 2.78906 13.3413 4.71971 11.3989 8.15627C9.45647 11.5928 8.36523 16.2538 8.36523 21.1139L18.7227 21.1139H29.0802Z" stroke="#FF6C11" stroke-opacity="0.28" stroke-width="2.39019" mask="url(#path-7-inside-2_214_28)"/>
<path d="M56.0487 36.978C56.0487 37.865 55.9524 38.6878 55.7599 39.4464C55.5731 40.1991 55.2755 40.8644 54.867 41.4421C54.4644 42.014 53.9363 42.4808 53.2827 42.8426L56.4076 46.4401H52.101L49.9478 43.5691C49.9419 43.5691 49.9215 43.5691 49.8865 43.5691C49.8573 43.5691 49.8369 43.5691 49.8252 43.5691C48.7515 43.5691 47.8207 43.4145 47.033 43.1052C46.251 42.7901 45.6062 42.3437 45.0985 41.766C44.5908 41.1824 44.2145 40.4851 43.9694 39.674C43.7243 38.8628 43.6017 37.9583 43.6017 36.9605C43.6017 35.63 43.8206 34.4746 44.2582 33.4942C44.7017 32.508 45.3845 31.7465 46.3065 31.2097C47.2285 30.667 48.4072 30.3956 49.8427 30.3956C51.3016 30.3956 52.4862 30.667 53.3965 31.2097C54.3127 31.7524 54.9837 32.5168 55.4097 33.503C55.8357 34.4892 56.0487 35.6475 56.0487 36.978ZM47.243 36.978C47.243 37.7483 47.3306 38.4106 47.5056 38.965C47.6807 39.5193 47.9579 39.9453 48.3372 40.2429C48.7165 40.5405 49.2125 40.6893 49.8252 40.6893C50.4613 40.6893 50.966 40.5405 51.3395 40.2429C51.7188 39.9453 51.9902 39.5193 52.1536 38.965C52.3228 38.4106 52.4074 37.7483 52.4074 36.978C52.4074 35.8226 52.2148 34.9093 51.8297 34.2383C51.4446 33.5672 50.7822 33.2316 49.8427 33.2316C49.2183 33.2316 48.7136 33.3834 48.3284 33.6868C47.9491 33.9902 47.6719 34.4221 47.4969 34.9823C47.3277 35.5425 47.243 36.2077 47.243 36.978ZM67.8042 33.4767V43.394H65.222L64.7931 42.1598H64.5918C64.3875 42.4925 64.1279 42.7638 63.8127 42.9739C63.5035 43.1781 63.1592 43.3269 62.7799 43.4203C62.4006 43.5195 62.0067 43.5691 61.5982 43.5691C60.9505 43.5691 60.364 43.4436 59.8388 43.1927C59.3195 42.9418 58.9051 42.5479 58.5959 42.011C58.2924 41.4742 58.1407 40.7827 58.1407 39.9366V33.4767H61.5632V38.8949C61.5632 39.5368 61.6536 40.027 61.8345 40.3655C62.0213 40.6981 62.3247 40.8644 62.7449 40.8644C63.1767 40.8644 63.5093 40.7477 63.7427 40.5143C63.982 40.2808 64.1483 39.9366 64.2416 39.4814C64.335 39.0262 64.3817 38.4719 64.3817 37.8183V33.4767H67.8042ZM73.6075 33.4767V43.394H70.185V33.4767H73.6075ZM71.9094 29.4853C72.3996 29.4853 72.8256 29.5874 73.1874 29.7917C73.555 29.9959 73.7388 30.4015 73.7388 31.0083C73.7388 31.5977 73.555 31.9974 73.1874 32.2075C72.8256 32.4118 72.3996 32.5139 71.9094 32.5139C71.4076 32.5139 70.9787 32.4118 70.6227 32.2075C70.2726 31.9974 70.0975 31.5977 70.0975 31.0083C70.0975 30.4015 70.2726 29.9959 70.6227 29.7917C70.9787 29.5874 71.4076 29.4853 71.9094 29.4853ZM80.5137 43.5691C79.5101 43.5691 78.6377 43.3911 77.8966 43.0352C77.1555 42.6734 76.5807 42.119 76.1722 41.3721C75.7695 40.6193 75.5682 39.6565 75.5682 38.4835C75.5682 37.2814 75.7929 36.2982 76.2422 35.5337C76.6974 34.7693 77.3188 34.2062 78.1066 33.8444C78.8944 33.4826 79.7872 33.3017 80.7851 33.3017C81.392 33.3017 81.9668 33.3688 82.5095 33.503C83.058 33.6372 83.5657 33.821 84.0325 34.0544L83.0259 36.5841C82.6174 36.4032 82.2352 36.2602 81.8792 36.1552C81.5291 36.0443 81.1644 35.9889 80.7851 35.9889C80.4408 35.9889 80.1374 36.0793 79.8748 36.2602C79.6122 36.4411 79.4079 36.7154 79.262 37.083C79.1162 37.4448 79.0432 37.9058 79.0432 38.466C79.0432 39.0379 79.1162 39.4989 79.262 39.849C79.4138 40.1991 79.6209 40.453 79.8835 40.6105C80.1519 40.7681 80.4583 40.8469 80.8026 40.8469C81.2986 40.8469 81.7917 40.771 82.2819 40.6193C82.7779 40.4617 83.2476 40.2458 83.6911 39.9716V42.6938C83.2827 42.9622 82.8217 43.1752 82.3081 43.3328C81.7946 43.4903 81.1965 43.5691 80.5137 43.5691ZM94.2299 39.5076C94.2299 40.2021 94.0549 40.8615 93.7047 41.4859C93.3546 42.1044 92.809 42.6063 92.0679 42.9914C91.3326 43.3765 90.3815 43.5691 89.2144 43.5691C88.6308 43.5691 88.1173 43.5428 87.6738 43.4903C87.2362 43.4378 86.8277 43.3532 86.4484 43.2365C86.0691 43.1139 85.6752 42.9564 85.2667 42.7638V39.6827C85.9611 40.0328 86.6614 40.3013 87.3675 40.488C88.0735 40.6689 88.7125 40.7593 89.2844 40.7593C89.6287 40.7593 89.9088 40.7185 90.1247 40.6368C90.3464 40.5551 90.5098 40.4442 90.6149 40.3042C90.7199 40.1583 90.7724 39.992 90.7724 39.8053C90.7724 39.5835 90.6937 39.3968 90.5361 39.2451C90.3844 39.0875 90.1393 38.9241 89.8008 38.7549C89.4624 38.5856 89.016 38.3756 88.4616 38.1246C87.9889 37.9029 87.56 37.6753 87.1749 37.4419C86.7956 37.2085 86.4688 36.943 86.1945 36.6454C85.9261 36.3419 85.7189 35.9889 85.5731 35.5862C85.4272 35.1836 85.3542 34.708 85.3542 34.1595C85.3542 33.3367 85.5556 32.6481 85.9582 32.0937C86.3667 31.5335 86.9327 31.1134 87.6563 30.8333C88.3857 30.5532 89.226 30.4131 90.1772 30.4131C91.0117 30.4131 91.7615 30.5065 92.4268 30.6932C93.0979 30.88 93.6989 31.093 94.2299 31.3322L93.1708 34.0019C92.6223 33.751 92.0825 33.5526 91.5515 33.4067C91.0204 33.255 90.5273 33.1791 90.0722 33.1791C89.7746 33.1791 89.5295 33.2171 89.3369 33.2929C89.1502 33.3629 89.0101 33.4592 88.9168 33.5818C88.8292 33.7043 88.7855 33.8444 88.7855 34.0019C88.7855 34.2003 88.8613 34.3783 89.013 34.5359C89.1706 34.6934 89.4303 34.8656 89.7921 35.0523C90.1597 35.2332 90.6586 35.4695 91.2889 35.7613C91.9133 36.0414 92.4443 36.3448 92.8819 36.6716C93.3196 36.9926 93.6522 37.3806 93.8798 37.8358C94.1132 38.2851 94.2299 38.8424 94.2299 39.5076ZM99.4293 29.7741V31.7086C99.4293 32.4439 99.4118 33.0624 99.3768 33.5643C99.3476 34.0603 99.3184 34.4396 99.2892 34.7022H99.4468C99.6627 34.3579 99.9078 34.0836 100.182 33.8794C100.456 33.6751 100.76 33.5292 101.092 33.4417C101.425 33.3484 101.787 33.3017 102.178 33.3017C102.831 33.3017 103.421 33.4271 103.946 33.6781C104.477 33.929 104.9 34.3229 105.215 34.8597C105.53 35.3908 105.688 36.0852 105.688 36.943V43.394H102.248V37.9846C102.248 37.3252 102.152 36.8292 101.959 36.4966C101.766 36.1581 101.469 35.9889 101.066 35.9889C100.652 35.9889 100.325 36.1085 100.086 36.3478C99.8465 36.5812 99.6773 36.9255 99.5781 37.3806C99.4789 37.83 99.4293 38.3814 99.4293 39.035V43.394H96.0068V29.7741H99.4293ZM117.487 38.4135C117.487 39.2421 117.373 39.9774 117.146 40.6193C116.918 41.2612 116.588 41.801 116.157 42.2386C115.725 42.6763 115.202 43.0089 114.59 43.2365C113.977 43.4582 113.286 43.5691 112.515 43.5691C111.797 43.5691 111.138 43.4582 110.537 43.2365C109.942 43.0089 109.422 42.6763 108.979 42.2386C108.535 41.801 108.191 41.2612 107.946 40.6193C107.707 39.9774 107.587 39.2421 107.587 38.4135C107.587 37.3164 107.786 36.3886 108.182 35.63C108.585 34.8714 109.157 34.2937 109.898 33.8969C110.645 33.5001 111.535 33.3017 112.568 33.3017C113.519 33.3017 114.365 33.5001 115.106 33.8969C115.847 34.2937 116.428 34.8714 116.848 35.63C117.274 36.3886 117.487 37.3164 117.487 38.4135ZM111.062 38.4135C111.062 38.9795 111.112 39.458 111.211 39.849C111.31 40.2342 111.468 40.5288 111.684 40.7331C111.905 40.9315 112.194 41.0307 112.55 41.0307C112.906 41.0307 113.189 40.9315 113.399 40.7331C113.609 40.5288 113.761 40.2342 113.854 39.849C113.954 39.458 114.003 38.9795 114.003 38.4135C114.003 37.8475 113.954 37.3748 113.854 36.9955C113.761 36.6162 113.606 36.3303 113.391 36.1377C113.18 35.9451 112.895 35.8488 112.533 35.8488C112.013 35.8488 111.637 36.0647 111.404 36.4966C111.176 36.9284 111.062 37.5674 111.062 38.4135ZM125.505 33.3017C126.602 33.3017 127.463 33.7422 128.087 34.6234C128.711 35.4987 129.024 36.7621 129.024 38.4135C129.024 39.5397 128.866 40.488 128.551 41.2583C128.236 42.0227 127.804 42.6004 127.256 42.9914C126.713 43.3765 126.094 43.5691 125.4 43.5691C124.933 43.5691 124.536 43.5108 124.209 43.394C123.888 43.2773 123.62 43.1314 123.404 42.9564C123.194 42.7813 123.016 42.6033 122.87 42.4224H122.765C122.794 42.65 122.818 42.8951 122.835 43.1577C122.859 43.4203 122.87 43.7267 122.87 44.0768V47.7006H119.448V33.4767H122.231L122.713 34.7372H122.87C123.034 34.4804 123.232 34.2441 123.465 34.0282C123.699 33.8064 123.982 33.6314 124.314 33.503C124.653 33.3688 125.05 33.3017 125.505 33.3017ZM124.218 35.9889C123.886 35.9889 123.623 36.0677 123.43 36.2252C123.238 36.3828 123.098 36.622 123.01 36.943C122.929 37.2581 122.882 37.652 122.87 38.1246V38.396C122.87 38.9212 122.911 39.3647 122.993 39.7265C123.074 40.0824 123.215 40.3538 123.413 40.5405C123.611 40.7214 123.886 40.8119 124.236 40.8119C124.522 40.8119 124.761 40.7302 124.953 40.5668C125.146 40.4034 125.292 40.1437 125.391 39.7877C125.49 39.4318 125.54 38.962 125.54 38.3785C125.54 37.509 125.426 36.8934 125.199 36.5316C124.977 36.1698 124.65 35.9889 124.218 35.9889Z" fill="#FF6C11"/>
<defs>
<linearGradient id="paint0_linear_214_28" x1="17.5277" y1="19.1221" x2="17.5277" y2="59.6992" gradientUnits="userSpaceOnUse">
<stop offset="0.9999" stop-color="#FF6C11" stop-opacity="0.56"/>
<stop offset="1" stop-color="#FF6C11" stop-opacity="0.44"/>
</linearGradient>
</defs>
</svg>
