<svg width="390" height="239" viewBox="0 0 390 239" fill="none" xmlns="http://www.w3.org/2000/svg">
<g clip-path="url(#clip0_1578_181)">
<path d="M325.829 195.911H63.5027C57.8925 195.911 53.3281 191.347 53.3281 185.736V154.164H336.003V185.736C336.003 191.347 331.439 195.911 325.829 195.911Z" fill="#E6E6E6"/>
<path d="M228.615 190.63H161.719V238.413H228.615V190.63Z" fill="#E6E6E6"/>
<path d="M232.639 232.377H157.695V238.413H232.639V232.377Z" fill="#E6E6E6"/>
<path d="M335.752 167.493H53.3281V6.9823C53.3281 3.13233 56.4605 0 60.3104 0H328.77C332.62 0 335.752 3.13233 335.752 6.9823V167.493Z" fill="#3F3D56"/>
<path d="M195.168 5.78434C196.279 5.78434 197.18 4.88357 197.18 3.77242C197.18 2.66127 196.279 1.7605 195.168 1.7605C194.057 1.7605 193.156 2.66127 193.156 3.77242C193.156 4.88357 194.057 5.78434 195.168 5.78434Z" fill="white"/>
<path d="M328.954 7.29321H59.8594V158.69H328.954V7.29321Z" fill="white"/>
<path d="M297.47 121.676C310.141 121.676 320.413 111.404 320.413 98.7333C320.413 86.0622 310.141 75.7903 297.47 75.7903C284.799 75.7903 274.527 86.0622 274.527 98.7333C274.527 111.404 284.799 121.676 297.47 121.676Z" fill="#FF6C11"/>
<path d="M389.327 238.562C389.327 238.796 389.138 238.985 388.905 238.985H0V238.14H388.905C389.138 238.14 389.327 238.329 389.327 238.562Z" fill="#E6E6E6"/>
<path d="M65.8677 95.3968L62.9688 105.543L74.5646 106.268L73.8399 94.3097L65.8677 95.3968Z" fill="#FFB6B6"/>
<path d="M114.033 136.816C116.785 137.756 119.5 137.098 120.098 135.346C120.695 133.595 118.949 131.414 116.196 130.475C115.102 130.084 113.929 129.962 112.778 130.117L101.068 126.284L99.3867 131.817L111.109 135.009C111.925 135.836 112.928 136.456 114.033 136.816Z" fill="#FFB6B6"/>
<path d="M75.1794 103.293C75.1794 103.293 67.9208 112.025 72.12 115.638C76.3192 119.251 95.0717 132.626 95.0717 132.626L102.382 133.765L104.252 126.698L87.7444 114.466L75.1794 103.293Z" fill="#FF6C11"/>
<path d="M94.4141 196.253L98.448 211.203L104.855 210.016L103.431 194.592L94.4141 196.253Z" fill="#FFB6B6"/>
<path d="M99.4001 210.253L97.0272 210.728L95.1289 217.135C95.1289 217.135 98.2137 218.321 98.2137 220.694C98.2137 223.067 99.4001 224.728 104.146 224.491C108.892 224.254 109.366 224.491 109.366 222.592C109.366 220.694 105.807 210.728 105.807 210.728C105.807 210.728 106.044 206.694 103.197 206.931C100.349 207.169 99.4001 210.253 99.4001 210.253Z" fill="#2F2E41"/>
<path d="M72.7227 196.021L72.9979 211.502L79.5009 211.91L81.8728 196.604L72.7227 196.021Z" fill="#FFB6B6"/>
<path d="M74.1571 210.813L71.74 210.696L68.3398 216.448C68.3398 216.448 71.0432 218.349 70.4658 220.651C69.8885 222.952 70.6351 224.852 75.296 225.777C79.9569 226.701 80.3595 227.047 80.8214 225.206C81.2833 223.365 80.2559 212.832 80.2559 212.832C80.2559 212.832 81.4676 208.977 78.6479 208.514C75.8283 208.051 74.1571 210.813 74.1571 210.813Z" fill="#2F2E41"/>
<path d="M75.4307 103.473L62.6171 102.524L59.7696 106.083C59.7696 106.083 58.3459 130.049 59.295 132.422C60.2442 134.795 59.5323 148.321 59.5323 148.321L91.8345 146.066L84.685 128.863L84.9223 118.897L78.5155 106.795L75.4307 103.473Z" fill="#FF6C11"/>
<path d="M60.9525 143.338C60.9525 143.338 55.7321 150.931 57.6305 154.965C59.5288 158.999 72.4052 182.421 72.4052 182.421L70.7442 204.252L82.1341 203.303L84.0324 179.811L76.1391 160.66L77.5628 158.524L89.4273 172.999L93.6985 198.152L105.088 196.728L98.9189 159.948L91.7086 145.772L60.9525 143.338Z" fill="#2F2E41"/>
<path d="M59.8446 88.9415C62.2742 88.9415 64.2438 86.9718 64.2438 84.5422C64.2438 82.1126 62.2742 80.1429 59.8446 80.1429C57.4149 80.1429 55.4453 82.1126 55.4453 84.5422C55.4453 86.9718 57.4149 88.9415 59.8446 88.9415Z" fill="#2F2E41"/>
<path d="M70.0024 100.851C75.2936 100.851 79.583 96.562 79.583 91.2709C79.583 85.9797 75.2936 81.6903 70.0024 81.6903C64.7112 81.6903 60.4219 85.9797 60.4219 91.2709C60.4219 96.562 64.7112 100.851 70.0024 100.851Z" fill="#FFB6B6"/>
<path d="M66.9661 101.774C65.9478 102.314 63.0827 100.333 62.0575 97.6797C61.398 95.9726 59.7946 96.2566 58.7714 94.1277C58.1753 92.8872 59.9556 91.6737 59.6619 90.6011C59.1299 88.6578 59.7969 86.9191 59.8819 86.7061C60.6155 84.8674 61.6969 84.9102 62.5689 82.77C63.0939 81.4815 62.7571 81.3306 63.1984 80.6715C64.472 78.7692 68.1672 78.6968 70.7734 79.5964C71.6753 79.9077 73.8477 78.2396 75.6112 79.448C77.6889 80.8718 79.0711 84.9759 78.7531 85.7279C78.5599 86.1848 77.4842 85.7193 75.2471 86.0709C73.1758 86.3965 75.9095 87.944 73.5786 88.4715C70.8222 89.0953 69.9919 88.526 69.228 89.398C68.4205 90.3198 68.2712 92.1856 69.008 93.2931C69.3737 93.8427 69.8451 94.0366 69.7861 94.4191C69.6782 95.1174 69.058 94.7378 68.8546 95.4786C68.6179 96.3403 70.5813 97.47 70.4106 97.7306C70.3762 97.7831 70.2292 97.84 68.3121 97.1011C67.5466 96.8061 67.2514 96.5514 67.1656 96.6456C67.0266 96.7982 66.3382 98.3281 67.1203 98.9789C68.3374 99.9916 67.4939 100.394 68.0487 101.187C68.6211 102.005 67.6132 101.431 66.9661 101.774Z" fill="#2F2E41"/>
<path d="M69.2013 157.129C70.7303 159.602 73.2458 160.818 74.8196 159.845C76.3934 158.871 76.4294 156.078 74.8996 153.604C74.302 152.607 73.4745 151.768 72.4862 151.157L65.8756 140.76L61.0625 143.966L68.0904 153.876C68.1956 155.033 68.5765 156.149 69.2013 157.129Z" fill="#FFB6B6"/>
<path d="M60.4834 106.558C60.4834 106.558 49.3308 108.693 50.28 114.151C51.2291 119.609 57.2204 141.849 57.2204 141.849L62.1445 147.372L68.0767 143.1L63.0936 123.168L60.4834 106.558Z" fill="#FF6C11"/>
<path d="M323.911 111.115C323.472 110.376 321.575 111.167 321.226 110.496C320.878 109.827 322.641 108.809 323.648 106.481C323.83 106.061 324.974 103.416 324.127 102.6C322.521 101.053 315.172 107.437 312.6 105.348C312.036 104.889 311.641 103.974 309.933 102.488C309.254 101.897 308.843 101.63 308.445 101.729C307.881 101.87 307.836 102.625 307.231 104.11C306.323 106.337 305.787 106.203 305.258 107.98C304.865 109.299 304.955 110.065 304.493 110.215C303.839 110.426 303.238 109.027 302.41 109.153C301.564 109.28 301.053 110.909 300.892 112.129C300.589 114.418 301.429 115.928 301.895 117.516C302.402 119.242 302.702 121.866 301.533 125.582L289.961 158.186C292.516 151.496 299.913 133.156 303.021 126.341C303.918 124.373 304.909 122.378 306.944 121.59C308.902 120.832 311.592 121.285 315.021 120.459C315.422 120.362 316.533 120.079 316.673 119.426C316.789 118.885 316.135 118.584 316.235 118.077C316.37 117.398 317.656 117.39 319.235 116.607C320.349 116.054 321.043 115.398 321.64 114.833C321.82 114.662 324.494 112.1 323.911 111.115Z" fill="#E6E6E6"/>
<path d="M278.389 128.279C277.899 128.281 277.74 129.441 277.31 129.418C276.882 129.396 276.89 128.237 276.039 127.071C275.885 126.861 274.917 125.536 274.272 125.716C273.049 126.058 274.062 131.507 272.295 132.167C271.907 132.311 271.344 132.241 270.121 132.65C269.635 132.813 269.386 132.938 269.32 133.162C269.226 133.48 269.584 133.719 270.138 134.445C270.969 135.533 270.748 135.757 271.468 136.53C272.002 137.103 272.404 137.28 272.344 137.55C272.259 137.932 271.399 137.823 271.222 138.266C271.041 138.718 271.693 139.439 272.245 139.87C273.281 140.679 274.264 140.702 275.178 140.932C276.171 141.181 277.546 141.791 279.032 143.437L291.696 158.524C289.149 155.339 282.282 146.417 279.834 142.925C279.127 141.917 278.434 140.855 278.634 139.629C278.827 138.449 279.826 137.26 280.41 135.338C280.478 135.114 280.66 134.487 280.379 134.23C280.147 134.017 279.811 134.251 279.591 134.055C279.297 133.793 279.664 133.16 279.735 132.159C279.785 131.452 279.663 130.922 279.558 130.466C279.526 130.329 279.04 128.277 278.389 128.279Z" fill="#E6E6E6"/>
<path d="M288.162 130.472L287.867 127.839L288.002 127.639C288.625 126.717 288.943 125.815 288.947 124.96C288.948 124.824 288.941 124.688 288.935 124.549C288.91 124 288.878 123.317 289.234 122.522C289.433 122.078 289.994 121.051 290.837 121.178C291.064 121.21 291.235 121.314 291.366 121.436C291.385 121.405 291.404 121.375 291.425 121.342C291.688 120.941 291.896 120.77 292.096 120.605C292.25 120.477 292.409 120.346 292.658 120.036C292.767 119.9 292.852 119.781 292.924 119.68C293.142 119.377 293.427 119.014 293.929 119.021C294.465 119.046 294.746 119.49 294.933 119.783C295.265 120.307 295.416 120.685 295.515 120.935C295.552 121.027 295.593 121.13 295.614 121.161C295.787 121.416 297.192 121.178 297.722 121.091C298.911 120.893 299.94 120.721 300.364 121.471C300.668 122.008 300.442 122.717 299.673 123.636C299.433 123.922 299.178 124.14 298.952 124.31C299.14 124.422 299.307 124.594 299.375 124.863C299.536 125.501 298.987 126.141 297.746 126.766C297.438 126.922 297.022 127.131 296.441 127.231C296.167 127.278 295.92 127.29 295.709 127.296C295.705 127.418 295.676 127.55 295.602 127.686C295.384 128.087 294.93 128.278 294.246 128.232C293.494 128.192 292.874 128.049 292.327 127.923C291.85 127.814 291.439 127.721 291.116 127.742C290.517 127.791 290.056 128.27 289.514 128.892L288.162 130.472Z" fill="#E6E6E6"/>
<path d="M289.517 114.797L287.046 115.75L286.818 115.67C285.767 115.301 284.815 115.222 283.987 115.435C283.855 115.469 283.725 115.51 283.592 115.551C283.068 115.715 282.415 115.919 281.555 115.776C281.076 115.696 279.94 115.414 279.849 114.567C279.822 114.339 279.88 114.147 279.965 113.99C279.93 113.979 279.896 113.968 279.858 113.956C279.404 113.803 279.186 113.646 278.975 113.494C278.813 113.378 278.646 113.257 278.283 113.095C278.124 113.024 277.986 112.972 277.871 112.928C277.522 112.794 277.099 112.61 276.978 112.123C276.867 111.597 277.224 111.213 277.461 110.959C277.884 110.504 278.21 110.263 278.427 110.103C278.507 110.044 278.596 109.978 278.621 109.95C278.823 109.718 278.237 108.419 278.019 107.929C277.526 106.829 277.099 105.877 277.717 105.277C278.158 104.847 278.902 104.885 279.986 105.396C280.323 105.555 280.598 105.747 280.82 105.922C280.881 105.713 281.004 105.507 281.248 105.373C281.825 105.056 282.582 105.424 283.502 106.466C283.732 106.725 284.038 107.073 284.283 107.61C284.398 107.863 284.472 108.099 284.531 108.302C284.651 108.275 284.786 108.269 284.936 108.307C285.379 108.416 285.678 108.806 285.808 109.48C285.96 110.218 285.979 110.853 285.995 111.414C286.011 111.904 286.025 112.325 286.128 112.632C286.327 113.199 286.907 113.523 287.646 113.89L289.517 114.797Z" fill="#E6E6E6"/>
<path d="M288.162 107.041L287.867 104.408L288.002 104.208C288.625 103.285 288.943 102.384 288.947 101.529C288.948 101.393 288.941 101.256 288.935 101.118C288.91 100.569 288.878 99.8861 289.234 99.0904C289.433 98.6467 289.994 97.6196 290.837 97.7467C291.064 97.7785 291.235 97.8827 291.366 98.0047C291.385 97.9742 291.404 97.9437 291.425 97.9107C291.688 97.5102 291.896 97.3386 292.096 97.1734C292.25 97.0462 292.409 96.9153 292.658 96.6051C292.767 96.4691 292.852 96.3496 292.924 96.2492C293.142 95.9454 293.427 95.5831 293.929 95.5894C294.465 95.6149 294.746 96.0585 294.933 96.3522C295.265 96.8759 295.416 97.2535 295.515 97.5039C295.552 97.5954 295.593 97.6984 295.614 97.7302C295.787 97.9844 297.192 97.7467 297.722 97.6602C298.911 97.4619 299.94 97.2903 300.364 98.0403C300.668 98.5768 300.442 99.2861 299.673 100.205C299.433 100.491 299.178 100.709 298.952 100.879C299.14 100.991 299.307 101.162 299.375 101.432C299.536 102.07 298.987 102.709 297.746 103.335C297.438 103.491 297.022 103.7 296.441 103.8C296.167 103.847 295.92 103.859 295.709 103.865C295.705 103.987 295.676 104.119 295.602 104.255C295.384 104.656 294.93 104.846 294.246 104.801C293.494 104.761 292.874 104.618 292.327 104.492C291.85 104.382 291.439 104.29 291.116 104.311C290.517 104.36 290.056 104.839 289.514 105.46L288.162 107.041Z" fill="#E6E6E6"/>
<path d="M290.848 158.143L290.296 157.797L289.653 157.871C289.643 157.811 289.608 157.674 289.555 157.459C289.267 156.282 288.389 152.7 287.657 147.058C287.146 143.12 286.857 139.071 286.797 135.022C286.737 130.967 286.929 127.897 287.083 125.43C287.199 123.569 287.34 121.797 287.479 120.07C287.848 115.458 288.195 111.102 287.937 106.279C287.879 105.202 287.759 102.961 286.45 100.576C285.69 99.1932 284.644 97.9653 283.34 96.928L284.151 95.9084C285.591 97.0551 286.748 98.4153 287.591 99.9509C289.043 102.595 289.174 105.037 289.237 106.21C289.5 111.118 289.149 115.517 288.776 120.173C288.639 121.893 288.498 123.658 288.382 125.511C288.23 127.956 288.04 130.999 288.099 135.002C288.157 139.002 288.443 143.002 288.947 146.89C289.67 152.461 290.536 155.99 290.82 157.149C290.971 157.768 291.003 157.898 290.848 158.143Z" fill="#E6E6E6"/>
<path d="M280.952 98.9963C280.898 98.9963 280.844 98.9951 280.79 98.9912C279.681 98.9315 278.655 98.2679 277.738 97.0196C277.309 96.4323 277.089 95.7624 276.65 94.4263C276.582 94.2204 276.252 93.1754 276.051 91.7377C275.919 90.7983 275.936 90.4055 276.122 90.0584C276.328 89.672 276.663 89.4025 277.039 89.2207C277.023 89.0961 277.036 88.9677 277.09 88.8368C277.312 88.294 277.902 88.3652 278.221 88.3995C278.382 88.4198 278.584 88.4465 278.801 88.4351C279.143 88.4186 279.327 88.3169 279.605 88.1643C279.871 88.0181 280.202 87.8364 280.694 87.7359C281.662 87.5338 282.474 87.8084 282.742 87.8986C284.15 88.3677 284.844 89.4622 285.647 90.7296C285.807 90.9839 286.357 91.9093 286.72 93.178C286.982 94.0932 286.945 94.5 286.866 94.8026C286.706 95.4242 286.328 95.7801 285.367 96.5657C284.364 97.3882 283.861 97.8001 283.429 98.0505C282.423 98.6315 281.791 98.9963 280.952 98.9963Z" fill="#E6E6E6"/>
<path d="M223.513 135.152H121.375C117.263 135.152 113.918 131.807 113.918 127.695V50.4617C113.918 46.3502 117.263 43.0049 121.375 43.0049H223.513C227.625 43.0049 230.97 46.3502 230.97 50.4617V127.695C230.97 131.807 227.625 135.152 223.513 135.152Z" fill="white"/>
<path d="M223.513 135.152H121.375C117.263 135.152 113.918 131.807 113.918 127.695V50.4617C113.918 46.3502 117.263 43.0049 121.375 43.0049H223.513C227.625 43.0049 230.97 46.3502 230.97 50.4617V127.695C230.97 131.807 227.625 135.152 223.513 135.152ZM121.375 44.2501C117.95 44.2501 115.163 47.0367 115.163 50.4617V127.695C115.163 131.12 117.95 133.907 121.375 133.907H223.513C226.938 133.907 229.725 131.12 229.725 127.695V50.4617C229.725 47.0367 226.938 44.2501 223.513 44.2501H121.375Z" fill="#3F3D56"/>
<path d="M212.294 52.3442C213.325 52.3442 214.161 51.508 214.161 50.4764C214.161 49.4448 213.325 48.6085 212.294 48.6085C211.262 48.6085 210.426 49.4448 210.426 50.4764C210.426 51.508 211.262 52.3442 212.294 52.3442Z" fill="#3F3D56"/>
<path d="M217.274 52.3442C218.306 52.3442 219.142 51.508 219.142 50.4764C219.142 49.4448 218.306 48.6085 217.274 48.6085C216.243 48.6085 215.406 49.4448 215.406 50.4764C215.406 51.508 216.243 52.3442 217.274 52.3442Z" fill="#3F3D56"/>
<path d="M222.255 52.3442C223.286 52.3442 224.122 51.508 224.122 50.4764C224.122 49.4448 223.286 48.6085 222.255 48.6085C221.223 48.6085 220.387 49.4448 220.387 50.4764C220.387 51.508 221.223 52.3442 222.255 52.3442Z" fill="#3F3D56"/>
<path d="M124.504 80.6732C123.989 80.6732 123.57 81.0921 123.57 81.6071C123.57 81.8583 123.667 82.0905 123.843 82.262C124.021 82.4438 124.253 82.5411 124.504 82.5411H221.01C221.525 82.5411 221.944 82.1221 221.944 81.6071C221.944 81.356 221.847 81.1238 221.671 80.9523C221.493 80.7705 221.261 80.6732 221.01 80.6732H124.504Z" fill="#E6E6E6"/>
<path d="M203.579 80.3619V82.8524H124.507C124.165 82.8524 123.853 82.7154 123.629 82.485C123.399 82.2609 123.262 81.9496 123.262 81.6072C123.262 80.9223 123.822 80.3619 124.507 80.3619H203.579Z" fill="#FF6C11"/>
<path d="M219.447 75.6924H206.994C205.621 75.6924 204.504 74.5754 204.504 73.2019C204.504 71.8284 205.621 70.7114 206.994 70.7114H219.447C220.82 70.7114 221.937 71.8284 221.937 73.2019C221.937 74.5754 220.82 75.6924 219.447 75.6924Z" fill="#E6E6E6"/>
<path d="M137.892 62.6174H125.44C124.066 62.6174 122.949 61.5005 122.949 60.1269C122.949 58.7534 124.066 57.6365 125.44 57.6365H137.892C139.265 57.6365 140.383 58.7534 140.383 60.1269C140.383 61.5005 139.265 62.6174 137.892 62.6174Z" fill="#E6E6E6"/>
<path d="M124.504 108.691C123.989 108.691 123.57 109.11 123.57 109.625C123.57 109.876 123.667 110.108 123.843 110.28C124.021 110.462 124.253 110.559 124.504 110.559H221.01C221.525 110.559 221.944 110.14 221.944 109.625C221.944 109.374 221.847 109.142 221.671 108.97C221.493 108.788 221.261 108.691 221.01 108.691H124.504Z" fill="#E6E6E6"/>
<path d="M155.638 108.38V110.87H124.507C124.165 110.87 123.853 110.733 123.629 110.503C123.399 110.279 123.262 109.967 123.262 109.625C123.262 108.94 123.822 108.38 124.507 108.38H155.638Z" fill="#FF6C11"/>
<path d="M219.447 103.71H206.994C205.621 103.71 204.504 102.593 204.504 101.22C204.504 99.8461 205.621 98.7291 206.994 98.7291H219.447C220.82 98.7291 221.937 99.8461 221.937 101.22C221.937 102.593 220.82 103.71 219.447 103.71Z" fill="#E6E6E6"/>
</g>
<defs>
<clipPath id="clip0_1578_181">
<rect width="389.327" height="238.985" fill="white"/>
</clipPath>
</defs>
</svg>
