<svg width="203" height="192" viewBox="0 0 203 192" fill="none" xmlns="http://www.w3.org/2000/svg">
<g clip-path="url(#clip0_1163_382)">
<path d="M202.314 190.223H66.3555V190.809H202.314V190.223Z" fill="#3F3D56"/>
<path d="M176.936 90.5065C177.197 90.814 177.391 91.1731 177.506 91.5604C177.62 91.9478 177.651 92.3547 177.598 92.755C177.545 93.1553 177.408 93.54 177.197 93.8841C176.986 94.2282 176.705 94.5241 176.372 94.7527L162.301 104.413L156.105 108.544C155.753 108.778 155.327 108.874 154.908 108.811C154.49 108.748 154.11 108.532 153.842 108.205C153.686 108.014 153.573 107.792 153.511 107.553C153.45 107.314 153.44 107.065 153.484 106.822C153.528 106.58 153.625 106.349 153.766 106.148C153.908 105.946 154.092 105.777 154.305 105.653L160.306 102.169L170.779 92.1942L164.047 84.9626L169.034 81.2222L176.936 90.5065Z" fill="#A0616A"/>
<path d="M143.849 181.467H140.408L138.363 153.039L147.091 152.79L143.849 181.467Z" fill="#A0616A"/>
<path d="M144.102 190.693C143.184 191.112 142.415 187.719 141.641 188.479C139.476 190.607 136.16 191.071 133.27 190.142L134.281 190.13C134.107 190.074 133.945 189.983 133.807 189.863C133.669 189.743 133.557 189.596 133.477 189.431C133.397 189.266 133.352 189.087 133.343 188.904C133.335 188.721 133.364 188.538 133.428 188.366C133.505 188.161 133.631 187.978 133.794 187.832C133.958 187.686 134.154 187.582 134.367 187.529L136.67 186.953L140.286 180.594L143.977 180.345C144.8 181.394 145.374 182.616 145.657 183.919C145.939 185.222 145.922 186.572 145.608 187.868C145.273 189.235 144.756 190.395 144.102 190.693Z" fill="#2F2E41"/>
<path d="M166.767 181.467H163.326L161.281 153.039L170.258 151.294L166.767 181.467Z" fill="#A0616A"/>
<path d="M167.016 190.693C166.098 191.112 165.329 187.719 164.555 188.48C162.39 190.607 159.074 191.071 156.184 190.142L157.195 190.13C157.021 190.074 156.86 189.984 156.721 189.863C156.583 189.743 156.471 189.596 156.391 189.431C156.311 189.266 156.266 189.087 156.257 188.904C156.249 188.721 156.278 188.538 156.342 188.367C156.419 188.161 156.545 187.978 156.708 187.832C156.872 187.686 157.068 187.582 157.281 187.529L159.584 186.953L163.2 180.594L167.14 180.095L167.24 180.258C168.002 181.486 168.493 182.862 168.681 184.295C168.868 185.727 168.748 187.184 168.329 188.566C168.001 189.616 167.555 190.447 167.016 190.693Z" fill="#2F2E41"/>
<path d="M170.667 81.8651C167.501 82.3055 165.31 84.0389 164.418 87.4967L158.6 76.7547C158.255 76.0721 158.167 75.2879 158.353 74.546C158.54 73.8042 158.987 73.1542 159.613 72.7153C160.278 72.2494 161.096 72.0554 161.899 72.173C162.702 72.2905 163.43 72.7108 163.934 73.3477L170.667 81.8651Z" fill="#FF6C11"/>
<path d="M176.765 150.047C162.619 156.306 148.142 157.076 133.375 153.039C138.767 132.125 145.134 113.214 145.095 97.6802L159.558 96.4333L161.785 99.9638C167.069 108.34 170.716 117.642 172.533 127.377L176.765 150.047Z" fill="#2F2E41"/>
<path d="M153.079 65.512C157.21 65.512 160.56 62.1626 160.56 58.031C160.56 53.8994 157.21 50.55 153.079 50.55C148.947 50.55 145.598 53.8994 145.598 58.031C145.598 62.1626 148.947 65.512 153.079 65.512Z" fill="#A0616A"/>
<path d="M161.305 71.2472L152.078 71.746L150.582 63.5169L158.063 62.2703L161.305 71.2472Z" fill="#A0616A"/>
<path d="M160.307 97.6799L150.198 97.9646L145.095 98.6774C142.59 90.4027 140.481 82.147 145.594 75.237L151.579 69.2523L160.556 69.0029L160.675 69.0709C162.1 69.8877 163.205 71.1658 163.807 72.6946C164.409 74.2233 164.473 75.9116 163.987 77.4812C161.759 84.7205 160.328 91.5567 160.307 97.6799Z" fill="#FF6C11"/>
<path d="M144.846 120.871L144.219 129.44C144.185 129.899 143.987 130.331 143.66 130.655C143.334 130.979 142.901 131.175 142.442 131.205C142.177 131.223 141.912 131.185 141.663 131.095C141.414 131.004 141.186 130.863 140.994 130.679C140.803 130.496 140.652 130.274 140.551 130.029C140.449 129.784 140.4 129.521 140.407 129.255L140.606 120.871L146.841 97.1813L147.09 82.7181L154.072 82.4688L153.573 99.1762L144.846 120.871Z" fill="#A0616A"/>
<path d="M154.823 83.7157C151.863 82.512 149.098 82.9151 146.594 85.4613L146.937 73.2497C146.98 72.4861 147.297 71.7636 147.83 71.2146C148.362 70.6656 149.075 70.327 149.837 70.2607C150.646 70.1904 151.451 70.432 152.087 70.936C152.724 71.44 153.143 72.1683 153.26 72.9717L154.823 83.7157Z" fill="#FF6C11"/>
<path d="M168.91 91.3214H145.969C151.321 77.1496 153.046 63.9656 145.969 52.6698C146.09 49.2771 150.442 46.3359 153.821 46.6608C157.812 47.0446 163.175 49.9775 163.923 53.9167L168.91 91.3214Z" fill="#2F2E41"/>
<path d="M95.7933 46.0378H94.7469V17.3718C94.7469 15.1931 94.3178 13.0356 93.484 11.0227C92.6502 9.00977 91.4281 7.18078 89.8875 5.64016C88.3468 4.09953 86.5178 2.87744 84.5049 2.04367C82.492 1.20989 80.3345 0.780755 78.1558 0.780762H17.4231C15.2444 0.780757 13.0869 1.2099 11.074 2.04367C9.06107 2.87745 7.23208 4.09954 5.69145 5.64017C4.15082 7.18079 2.92873 9.00978 2.09495 11.0227C1.26117 13.0356 0.832029 15.1931 0.832031 17.3718V174.635C0.83203 176.814 1.26117 178.972 2.09495 180.985C2.92873 182.997 4.15082 184.826 5.69145 186.367C7.23208 187.908 9.06107 189.13 11.074 189.964C13.0869 190.797 15.2444 191.226 17.4231 191.226H78.1558C80.3345 191.226 82.492 190.797 84.5049 189.964C86.5178 189.13 88.3468 187.908 89.8875 186.367C91.4281 184.826 92.6502 182.997 93.484 180.985C94.3178 178.972 94.7469 176.814 94.7469 174.635V66.4427H95.7933V46.0378Z" fill="#3F3D56"/>
<path d="M78.8253 5.09717H70.8977C71.2623 5.99098 71.4014 6.96073 71.3029 7.92099C71.2044 8.88125 70.8713 9.80256 70.3329 10.6037C69.7944 11.4049 69.0672 12.0614 68.2153 12.5153C67.3634 12.9693 66.4129 13.2067 65.4476 13.2068H30.6547C29.6894 13.2067 28.7389 12.9693 27.887 12.5153C27.0351 12.0614 26.3079 11.4049 25.7695 10.6037C25.231 9.80256 24.8979 8.88126 24.7994 7.92099C24.7009 6.96073 24.84 5.99098 25.2046 5.09717H17.8002C16.1731 5.09717 14.562 5.41764 13.0587 6.0403C11.5555 6.66295 10.1896 7.57559 9.03912 8.72611C7.8886 9.87663 6.97595 11.2425 6.3533 12.7457C5.73064 14.2489 5.41016 15.8601 5.41016 17.4872V174.52C5.41016 176.147 5.73063 177.758 6.35329 179.261C6.97595 180.765 7.88859 182.131 9.03912 183.281C10.1896 184.432 11.5555 185.344 13.0587 185.967C14.562 186.59 16.1731 186.91 17.8002 186.91H78.8253C80.4524 186.91 82.0636 186.59 83.5668 185.967C85.07 185.344 86.4359 184.432 87.5864 183.281C88.7369 182.131 89.6496 180.765 90.2722 179.261C90.8949 177.758 91.2154 176.147 91.2154 174.52V17.4872C91.2154 14.2011 89.91 11.0497 87.5864 8.72611C85.2628 6.40253 82.1114 5.09716 78.8253 5.09717Z" fill="white"/>
<path d="M80.5025 29.6267H16.1289V84.8414H80.5025V29.6267Z" fill="#E6E6E6"/>
<path d="M35.2298 96.3553C37.8312 96.3553 39.9401 94.2465 39.9401 91.6451C39.9401 89.0437 37.8312 86.9348 35.2298 86.9348C32.6284 86.9348 30.5195 89.0437 30.5195 91.6451C30.5195 94.2465 32.6284 96.3553 35.2298 96.3553Z" fill="#FF6C11"/>
<path d="M37.5892 91.2526H35.6266V89.29H34.8415V91.2526H32.8789V92.0377H34.8415V94.0003H35.6266V92.0377H37.5892V91.2526Z" fill="white"/>
<path d="M60.0892 96.3553C62.6906 96.3553 64.7994 94.2465 64.7994 91.6451C64.7994 89.0437 62.6906 86.9348 60.0892 86.9348C57.4878 86.9348 55.3789 89.0437 55.3789 91.6451C55.3789 94.2465 57.4878 96.3553 60.0892 96.3553Z" fill="#FF6C11"/>
<path d="M62.4492 92.0377V91.2527H57.739V92.0377H62.4492Z" fill="white"/>
<path d="M50.7186 36.5129H45.6315C45.4526 36.5129 45.2811 36.584 45.1546 36.7105C45.0281 36.837 44.957 37.0085 44.957 37.1874V39.4203C44.957 39.5992 45.0281 39.7707 45.1546 39.8972C45.2811 40.0237 45.4526 40.0947 45.6315 40.0947H46.4745V43.4404H49.8756V40.0947H50.7186C50.8975 40.0947 51.069 40.0237 51.1955 39.8972C51.322 39.7707 51.3931 39.5992 51.3931 39.4203V37.1874C51.3931 37.0085 51.322 36.837 51.1955 36.7105C51.069 36.584 50.8975 36.5129 50.7186 36.5129Z" fill="#FF6C11"/>
<path d="M55.8094 56.9483C52.6939 52.3894 51.1012 46.9615 51.2594 41.442C51.2622 41.3147 51.2209 41.1903 51.1424 41.0899C51.0639 40.9896 50.9532 40.9195 50.8289 40.8916V39.9268H45.4562V40.8782H45.3821C45.3098 40.8783 45.2381 40.8926 45.1712 40.9204C45.1044 40.9482 45.0437 40.9889 44.9925 41.0401C44.9414 41.0914 44.9009 41.1522 44.8733 41.2192C44.8456 41.2861 44.8315 41.3578 44.8316 41.4302C44.8316 41.4436 44.8321 41.4569 44.8331 41.4703C45.2564 47.3706 43.8271 52.6618 40.5453 57.344C40.3564 57.6131 40.2599 57.9361 40.2703 58.2647L40.8578 76.437C40.8719 76.8424 41.042 77.2266 41.3326 77.5095C41.6232 77.7924 42.0119 77.9521 42.4174 77.9554H54.5696C54.9798 77.952 55.3725 77.7887 55.664 77.5C55.9555 77.2114 56.1228 76.8204 56.1303 76.4103L56.3567 58.7664C56.3634 58.1188 56.1725 57.4846 55.8094 56.9483Z" fill="#3F3D56"/>
<path opacity="0.2" d="M49.6563 37.2405C49.6563 37.6264 49.503 37.9965 49.2301 38.2694C48.9572 38.5423 48.5871 38.6956 48.2012 38.6956C47.8153 38.6956 47.4452 38.5423 47.1723 38.2694C46.8994 37.9965 46.7461 37.6264 46.7461 37.2405" fill="black"/>
<path d="M53.8862 62.9847H52.4146C52.2742 62.0731 51.8121 61.2418 51.1119 60.6413C50.4118 60.0408 49.5198 59.7107 48.5975 59.7107C47.6751 59.7107 46.7831 60.0408 46.083 60.6413C45.3829 61.2418 44.9208 62.0731 44.7803 62.9847H43.3086C43.1521 62.9847 42.9973 63.0185 42.8551 63.0839C42.7128 63.1493 42.5864 63.2447 42.4844 63.3636C42.3825 63.4824 42.3074 63.6219 42.2644 63.7724C42.2214 63.923 42.2115 64.081 42.2353 64.2358L43.8337 74.6255H53.0121L54.9536 64.2708C54.983 64.114 54.9774 63.9526 54.9374 63.7981C54.8973 63.6437 54.8238 63.4999 54.7218 63.3771C54.6199 63.2543 54.4922 63.1555 54.3478 63.0877C54.2034 63.0199 54.0458 62.9847 53.8862 62.9847Z" fill="#FF6C11"/>
<path d="M80.5025 107.346H16.1289V162.561H80.5025V107.346Z" fill="#E6E6E6"/>
<path d="M35.2298 174.075C37.8312 174.075 39.9401 171.966 39.9401 169.365C39.9401 166.763 37.8312 164.654 35.2298 164.654C32.6284 164.654 30.5195 166.763 30.5195 169.365C30.5195 171.966 32.6284 174.075 35.2298 174.075Z" fill="#FF6C11"/>
<path d="M37.5892 168.972H35.6266V167.009H34.8415V168.972H32.8789V169.757H34.8415V171.72H35.6266V169.757H37.5892V168.972Z" fill="white"/>
<path d="M60.0892 174.075C62.6906 174.075 64.7994 171.966 64.7994 169.365C64.7994 166.763 62.6906 164.654 60.0892 164.654C57.4878 164.654 55.3789 166.763 55.3789 169.365C55.3789 171.966 57.4878 174.075 60.0892 174.075Z" fill="#FF6C11"/>
<path d="M62.4492 169.757V168.972H57.739V169.757H62.4492Z" fill="white"/>
<path d="M60.9881 146.572L61.0237 146.572C62.2357 146.582 63.4226 146.227 64.4297 145.552C65.4367 144.877 66.217 143.915 66.6689 142.79C68.0928 139.19 68.4262 135.25 67.6276 131.462C66.8289 127.673 64.9335 124.203 62.1773 121.484C59.421 118.764 55.9258 116.916 52.1268 116.169C48.3278 115.421 44.3929 115.808 40.8119 117.28C37.231 118.753 34.1623 121.246 31.9879 124.449C29.8136 127.653 28.6296 131.426 28.5834 135.297C28.5373 139.169 29.631 142.968 31.7284 146.223C33.8257 149.477 36.8341 152.043 40.3789 153.6C41.4807 154.088 42.7041 154.232 43.8888 154.012C45.0735 153.792 46.1642 153.22 47.0178 152.369C48.8486 150.529 51.0257 149.069 53.4234 148.074C55.8211 147.079 58.3921 146.568 60.9881 146.572Z" fill="white"/>
<path d="M50.8495 140.597C54.4489 140.597 57.3669 137.679 57.3669 134.08C57.3669 130.48 54.4489 127.562 50.8495 127.562C47.25 127.562 44.332 130.48 44.332 134.08C44.332 137.679 47.25 140.597 50.8495 140.597Z" fill="#F9A825"/>
</g>
<defs>
<clipPath id="clip0_1163_382">
<rect width="201.474" height="190.446" fill="white" transform="translate(0.832031 0.780762)"/>
</clipPath>
</defs>
</svg>
