<svg width="356" height="239" viewBox="0 0 356 239" fill="none" xmlns="http://www.w3.org/2000/svg">
<g clip-path="url(#clip0_1578_277)">
<path d="M43.8548 134.964C58.244 134.964 69.9087 123.299 69.9087 108.91C69.9087 94.5207 58.244 82.856 43.8548 82.856C29.4655 82.856 17.8008 94.5207 17.8008 108.91C17.8008 123.299 29.4655 134.964 43.8548 134.964Z" fill="#575A89"/>
<path d="M55.1436 237.968H4.97266L16.3111 55.991L23.7104 13.1022L25.1207 5.86614C26.7906 -2.70173 39.3886 -1.55754 39.4881 7.17097C39.7196 27.4642 31.2159 46.5625 31.6309 55.991C33.5027 98.6754 37.4148 159.201 44.9545 177.042C50.554 190.297 53.5483 232.982 55.1436 237.968Z" fill="#3F3D56"/>
<path d="M348.553 237.968H302.169L297.295 55.9911L287.95 13.1102C287.842 4.36095 300.453 2.94394 302.29 11.4988C302.29 11.4988 311.497 30.5824 312.615 55.9911C314.487 98.6755 330.825 159.201 338.364 177.042C343.964 190.297 346.958 232.982 348.553 237.968Z" fill="#3F3D56"/>
<path d="M70.4088 118.721C80.9024 119.565 105.281 132.349 105.281 132.349C124.225 151.316 152.521 152.441 171.418 153.192C199.515 154.309 220.786 145.564 236.353 139.163C236.353 139.163 272.744 130.782 273.229 130.746C273.809 130.703 274.358 132.133 274.431 132.349C275.633 135.9 262.427 149.054 247.175 153.593C245.097 154.212 240.383 155.444 235.551 159.205C232.551 161.54 230.789 163.851 230.34 164.416C226.248 169.567 204.499 189.189 179.836 190.069C158.743 190.822 141.882 177.639 122.918 162.812C115.396 156.932 116.298 156.498 106.884 149.184C85.5354 132.598 74.8609 124.305 70.008 121.527C69.3354 121.142 66.9802 119.826 67.2022 119.122C67.4048 118.479 69.6563 118.661 70.4088 118.721Z" fill="#FF6C11"/>
<path d="M67.1959 119.523C67.1237 119.523 67.0507 119.503 66.985 119.462L14.795 87.0668C14.6069 86.9502 14.549 86.703 14.6658 86.5149C14.7825 86.3264 15.0299 86.2685 15.2178 86.3857L67.4077 118.781C67.5958 118.898 67.6537 119.145 67.5369 119.333C67.4609 119.455 67.33 119.523 67.1959 119.523Z" fill="#3F3D56"/>
<path d="M273.229 131.147C273.085 131.147 272.945 131.068 272.874 130.931C272.771 130.735 272.847 130.493 273.043 130.39L318.194 106.81C318.391 106.708 318.632 106.784 318.734 106.98C318.837 107.176 318.761 107.418 318.565 107.521L273.415 131.101C273.355 131.132 273.292 131.147 273.229 131.147Z" fill="#3F3D56"/>
<path d="M0.0507812 238.232C0.0507812 238.497 0.263233 238.709 0.527793 238.709H64.376C64.6406 238.709 64.853 238.497 64.853 238.232C64.853 237.968 64.6406 237.755 64.376 237.755H0.527793C0.263233 237.755 0.0507812 237.968 0.0507812 238.232Z" fill="#3F3D56"/>
<path d="M285.844 238.232C285.844 238.497 286.056 238.709 286.321 238.709H354.578C354.843 238.709 355.055 238.497 355.055 238.232C355.055 237.968 354.843 237.755 354.578 237.755H286.321C286.056 237.755 285.844 237.968 285.844 238.232Z" fill="#3F3D56"/>
<path d="M158.383 238.232C158.383 238.497 158.595 238.709 158.86 238.709H227.117C227.382 238.709 227.594 238.497 227.594 238.232C227.594 237.968 227.382 237.755 227.117 237.755H158.86C158.595 237.755 158.383 237.968 158.383 238.232Z" fill="#3F3D56"/>
<path d="M111.73 126.088C111.73 126.088 109.171 130.108 111.276 132.476C113.381 134.843 126.104 144.275 126.104 144.275C126.104 144.275 134.12 149.189 133.335 142.421C132.55 135.652 121.123 128.408 121.123 128.408L111.73 126.088Z" fill="#E6E6E6"/>
<path d="M132.531 115.448C131.162 115.316 129.885 116.952 129.677 119.104C129.582 119.962 129.695 120.83 130.004 121.636L129.8 124.077L129.758 124.081L126.908 135.29C126.245 137.896 126.786 140.688 128.464 142.789C129.462 144.039 130.638 144.802 131.708 143.675C133.483 141.805 133.426 132.664 133.239 127.438L133.827 122.005C134.286 121.273 134.562 120.442 134.633 119.581C134.841 117.43 133.9 115.58 132.531 115.448Z" fill="#FFB6B6"/>
<path d="M136.607 114.963L136.592 114.794C136.581 114.66 136.521 114.539 136.427 114.457C136.333 114.375 136.213 114.345 136.097 114.366L130.457 115.603C130.341 115.629 130.244 115.707 130.18 115.819C130.12 115.936 130.101 116.075 130.131 116.204L130.184 116.429L130.559 118.042L132.006 124.27C132.059 124.495 132.242 124.642 132.437 124.625C132.456 124.625 132.471 124.625 132.49 124.621L136.948 123.609C136.993 123.6 137.034 123.583 137.072 123.557C137.214 123.466 137.301 123.284 137.286 123.09L136.607 114.963Z" fill="#FF6C11"/>
<path d="M136.498 114.024C136.417 114.026 136.31 114.03 136.18 114.037C136.206 113.958 136.211 113.869 136.186 113.782L136.016 113.179C135.971 113.022 135.846 112.915 135.703 112.915C134.852 112.909 131.934 112.986 130.227 114.203C130.121 114.279 130.062 114.42 130.075 114.564L130.131 115.227C130.139 115.308 130.168 115.381 130.211 115.438C130.065 115.508 129.92 115.579 129.777 115.655C129.688 115.703 129.632 115.808 129.633 115.921L129.636 116.207C129.638 116.388 129.782 116.523 129.936 116.487L136.672 114.951C136.825 114.917 136.914 114.73 136.857 114.562L136.738 114.209C136.7 114.095 136.604 114.021 136.498 114.024Z" fill="#3F3D56"/>
<path d="M119.066 122.97L117.336 128.593L109.983 126.863L109.551 117.78L119.066 122.97Z" fill="#FFB6B6"/>
<path d="M108.688 125.565L118.203 126.43L122.016 130.154L127.286 134.648C127.286 134.648 130.313 138.972 129.448 144.595L134.638 148.92L121.663 162.222L105.228 148.487C105.228 148.487 99.6059 131.62 108.688 125.565Z" fill="#E6E6E6"/>
<path d="M131.183 149.352L134.96 148.92L141.089 149.352L161.228 137.36C163.761 135.851 167.035 136.639 168.604 139.135L184.813 164.922L179.623 168.382L163.62 151.947L143.664 168.382C143.664 168.382 123.398 178.984 121.668 162.222L131.183 149.352Z" fill="#2F2E41"/>
<path d="M143.719 164.49L176.156 161.462L206.863 169.247L208.593 162.76L166.641 147.622L151.504 151.515L143.719 164.49Z" fill="#2F2E41"/>
<path d="M107.347 129.082C107.347 129.082 104.371 132.804 106.209 135.384C108.047 137.964 119.683 148.709 119.683 148.709C119.683 148.709 127.124 154.456 127.071 147.642C127.018 140.828 116.436 132.399 116.436 132.399L107.347 129.082Z" fill="#E6E6E6"/>
<path d="M116.551 123.242C121.087 123.242 124.763 119.565 124.763 115.03C124.763 110.495 121.087 106.818 116.551 106.818C112.016 106.818 108.34 110.495 108.34 115.03C108.34 119.565 112.016 123.242 116.551 123.242Z" fill="#FFB6B6"/>
<path d="M124.12 113.619C122.014 113.614 121.894 113.628 121.554 113.619C118.942 113.55 118.259 112.522 116.935 112.592C114.572 112.717 117.69 124.565 118.988 130.042C120.26 135.413 115.96 140.227 115.652 140.563C111.288 145.309 103.623 146.176 102.308 144.155C101.243 142.52 105.016 140.032 104.104 136.457C103.213 132.962 99.096 133.334 97.9453 130.042C96.7403 126.594 100.79 124.855 103.334 116.441C104.795 111.61 104.537 110.709 105.9 107.717C109.545 99.7172 127.408 103.123 125.403 110.539C125.015 111.974 126.047 113.623 124.12 113.619Z" fill="#2F2E41"/>
<path d="M67.7983 118.921C78.2918 119.765 102.486 137.338 102.486 137.338C121.43 156.305 149.725 157.43 168.623 158.181C196.72 159.298 217.99 150.552 233.557 144.152C233.557 144.152 265.81 149.397 269.632 136.937C269.668 136.818 269.949 135.77 270.433 135.734C271.013 135.691 271.563 137.121 271.636 137.338C272.837 140.888 259.632 154.042 244.379 158.582C242.302 159.2 237.588 160.432 232.755 164.193C229.755 166.528 227.993 168.84 227.545 169.404C223.452 174.555 201.703 194.177 177.04 195.057C155.947 195.81 139.086 182.627 120.122 167.801C112.6 161.92 113.502 161.486 104.089 154.172C82.7399 137.586 72.0653 129.293 67.2125 126.515C66.5399 126.13 65.5721 119.224 65.7941 118.521C65.9967 117.878 67.0457 118.861 67.7983 118.921Z" fill="#FF6C11"/>
<path d="M152.209 161.791C152.819 160.558 151.742 158.783 149.805 157.825C149.036 157.432 148.184 157.228 147.321 157.232L145.112 156.174L145.123 156.133L135.656 149.49C133.455 147.945 130.653 147.46 128.093 148.282C126.57 148.772 125.439 149.6 126.113 151C127.232 153.323 135.796 156.516 140.749 158.196L145.619 160.675C146.141 161.363 146.82 161.917 147.599 162.289C149.536 163.247 151.6 163.024 152.209 161.791Z" fill="#FFB6B6"/>
<path d="M205.368 100.247C205.368 100.247 202.254 94.0179 202.877 88.4122L192.512 93.7847L192.911 103.984L205.368 100.247Z" fill="#A0616A"/>
<path d="M196.213 96.6613C201.377 96.6613 205.563 92.4752 205.563 87.3113C205.563 82.1474 201.377 77.9613 196.213 77.9613C191.049 77.9613 186.863 82.1474 186.863 87.3113C186.863 92.4752 191.049 96.6613 196.213 96.6613Z" fill="#A0616A"/>
<path d="M208.486 234.142L202.781 234.142L200.066 212.134L208.487 212.135L208.486 234.142Z" fill="#A0616A"/>
<path d="M188.939 234.013C188.762 234.312 188.668 235.278 188.668 235.625C188.668 236.695 189.535 237.562 190.604 237.562H208.274C209.003 237.562 209.595 236.97 209.595 236.241V235.505C209.595 235.505 210.469 233.294 208.669 230.569C208.669 230.569 206.433 232.703 203.091 229.361L202.105 227.575L194.971 232.793L191.017 233.28C190.151 233.386 189.384 233.263 188.939 234.013Z" fill="#2F2E41"/>
<path d="M191.665 100.247L205.368 98.3779L215.956 103.361L216.579 141.978C216.579 141.978 190.532 145.092 186.427 141.044C182.322 136.995 185.436 104.607 185.436 104.607L191.665 100.247Z" fill="#E6E6E6"/>
<path d="M198.543 89.6934H201.056C201.056 89.6934 203.237 87.0089 202.944 88.6445C202.65 90.2802 203.824 92.0406 203.824 92.0406L205.584 91.4538C205.584 91.4538 209.105 76.6496 198.543 75.8364C187.98 75.0232 185.633 83.2385 185.633 83.2385C185.633 83.2385 186.22 87.3462 187.393 86.1725C188.567 84.9989 195.022 84.4121 195.022 84.4121L198.543 89.6934Z" fill="#2F2E41"/>
<path d="M185.325 190.57L180.107 192.878L168.723 173.849L176.424 170.443L185.325 190.57Z" fill="#A0616A"/>
<path d="M167.394 198.359C167.353 198.705 167.658 199.626 167.799 199.944C168.231 200.922 169.375 201.364 170.353 200.932L186.512 193.784C187.179 193.489 187.481 192.709 187.186 192.042L186.888 191.369C186.888 191.369 186.793 188.993 184.045 187.229C184.045 187.229 182.863 190.085 178.455 188.381L176.831 187.147L172.417 194.804L168.998 196.849C168.25 197.296 167.498 197.494 167.394 198.359Z" fill="#2F2E41"/>
<path d="M214.71 138.241L216.578 143.891V163.312L210.475 180.907L210.972 221.929H200.021L198.785 180.085L199.761 159.418L192.287 156.304L172.654 157.515L181.835 180.085L171.732 186.824C171.732 186.824 156.622 152.388 158.883 149.051C161.144 145.715 187.615 139.83 187.615 139.83C187.615 139.83 214.71 138.864 214.71 138.241Z" fill="#2F2E41"/>
<path d="M220.313 115.818L223.325 120.75C223.325 120.75 227.582 137.482 223.325 137.55C219.068 137.618 210.473 129.023 210.473 129.023L211.593 124.538L214.708 125.784L214.085 115.818H220.313Z" fill="#A0616A"/>
<path d="M210.965 103.282C210.965 103.282 220.931 101.527 221.865 108.049C222.799 114.572 223.319 120.75 223.319 120.75L212.522 121.644L210.965 103.282Z" fill="#E6E6E6"/>
<path d="M213.133 128.475C214.034 127.21 212.713 124.724 210.183 122.922C207.653 121.12 204.872 120.685 203.971 121.95C203.07 123.215 204.391 125.701 206.921 127.503C209.451 129.304 212.232 129.74 213.133 128.475Z" fill="#A0616A"/>
<path d="M197.539 113.559L197.516 113.303C197.499 113.099 197.408 112.916 197.265 112.791C197.123 112.666 196.941 112.62 196.764 112.653L188.2 114.531C188.024 114.571 187.876 114.689 187.779 114.86C187.688 115.037 187.659 115.247 187.705 115.444L187.785 115.786L188.354 118.235L190.552 127.693C190.632 128.034 190.911 128.258 191.207 128.231C191.235 128.231 191.258 128.231 191.287 128.225L198.057 126.688C198.125 126.675 198.188 126.649 198.245 126.609C198.461 126.471 198.592 126.195 198.569 125.9L197.539 113.559Z" fill="#FF6C11"/>
<path d="M197.378 112.134C197.256 112.137 197.092 112.143 196.896 112.153C196.935 112.034 196.942 111.899 196.905 111.766L196.646 110.85C196.579 110.612 196.388 110.45 196.171 110.449C194.878 110.441 190.448 110.557 187.856 112.405C187.694 112.52 187.605 112.735 187.624 112.953L187.71 113.96C187.721 114.084 187.765 114.194 187.83 114.281C187.61 114.386 187.39 114.495 187.173 114.61C187.037 114.683 186.951 114.842 186.953 115.015L186.958 115.448C186.961 115.723 187.18 115.928 187.413 115.874L197.642 113.542C197.875 113.489 198.009 113.206 197.924 112.951L197.743 112.414C197.685 112.241 197.539 112.129 197.378 112.134Z" fill="#3F3D56"/>
<path d="M178.239 116.219L175.228 121.151C175.228 121.151 170.971 137.883 175.228 137.951C179.485 138.019 188.08 129.424 188.08 129.424L186.959 124.939L183.845 126.185L184.468 116.219H178.239Z" fill="#A0616A"/>
<path d="M187.581 103.683C187.581 103.683 177.615 101.928 176.681 108.45C175.746 114.973 175.227 121.151 175.227 121.151L186.024 122.045L187.581 103.683Z" fill="#E6E6E6"/>
<path d="M191.632 127.903C194.162 126.101 195.483 123.615 194.582 122.35C193.681 121.085 190.9 121.521 188.37 123.322C185.84 125.124 184.519 127.61 185.42 128.875C186.321 130.14 189.102 129.705 191.632 127.903Z" fill="#A0616A"/>
</g>
<defs>
<clipPath id="clip0_1578_277">
<rect width="355.003" height="238.709" fill="white" transform="translate(0.0507812)"/>
</clipPath>
</defs>
</svg>
