<svg width="84" height="84" viewBox="0 0 84 84" fill="none" xmlns="http://www.w3.org/2000/svg">
<circle cx="42" cy="42" r="42" fill="#B9B7C7"/>
<path d="M27.7891 29.1851H36.1591C37.639 29.1851 39.0583 29.7729 40.1047 30.8194C41.1512 31.8659 41.7391 33.2852 41.7391 34.7651V54.2951C41.7391 53.1851 41.2981 52.1207 40.5133 51.3358C39.7285 50.551 38.664 50.1101 37.5541 50.1101H27.7891V29.1851Z" stroke="#3F3D56" stroke-width="2.43" stroke-linecap="round" stroke-linejoin="round"/>
<path d="M55.6883 29.1851H47.3183C45.8384 29.1851 44.4191 29.7729 43.3726 30.8194C42.3262 31.8659 41.7383 33.2852 41.7383 34.7651V54.2951C41.7383 53.1851 42.1792 52.1207 42.964 51.3358C43.7489 50.551 44.8134 50.1101 45.9233 50.1101H55.6883V29.1851Z" stroke="#3F3D56" stroke-width="2.43" stroke-linecap="round" stroke-linejoin="round"/>
</svg>
