<svg width="254" height="193" viewBox="0 0 254 193" fill="none" xmlns="http://www.w3.org/2000/svg">
<g clip-path="url(#clip0_1163_274)">
<path d="M36.6365 113.915C45.4858 113.915 52.6596 106.741 52.6596 97.8916C52.6596 89.0422 45.4858 81.8684 36.6365 81.8684C27.7871 81.8684 20.6133 89.0422 20.6133 97.8916C20.6133 106.741 27.7871 113.915 36.6365 113.915Z" fill="#3F3D56"/>
<path d="M69.449 188.398H69.4328C68.8686 188.397 68.3276 188.173 67.9287 187.774C67.5297 187.375 67.3053 186.834 67.3047 186.269V61.3388C67.3053 60.7746 67.5297 60.2337 67.9287 59.8347C68.3276 59.4357 68.8686 59.2113 69.4328 59.2107H174.585C175.149 59.2113 175.69 59.4357 176.089 59.8347C176.488 60.2336 176.712 60.7746 176.713 61.3388V158.479C176.712 159.041 176.49 159.579 176.095 159.978C175.699 160.376 175.163 160.602 174.601 160.607L69.449 188.398Z" fill="#F2F2F2"/>
<path d="M147.172 41.56H98.3516V13.2691C98.3522 12.6717 98.5899 12.099 99.0123 11.6766C99.4347 11.2542 100.007 11.0166 100.605 11.0159H144.919C145.516 11.0166 146.089 11.2542 146.511 11.6766C146.934 12.099 147.172 12.6717 147.172 13.2691V41.56ZM98.8523 41.0593H146.671V13.2691C146.671 12.8045 146.486 12.359 146.158 12.0305C145.829 11.7019 145.384 11.5171 144.919 11.5166H100.605C100.14 11.5171 99.6947 11.7019 99.3662 12.0305C99.0376 12.359 98.8528 12.8045 98.8523 13.2691V41.0593Z" fill="#3F3D56"/>
<path d="M112.245 21.7815H133.276C133.807 21.7815 134.316 21.9925 134.692 22.3681C135.067 22.7437 135.278 23.2532 135.278 23.7844V53.8279H110.242V23.7844C110.242 23.2532 110.453 22.7437 110.829 22.3681C111.204 21.9925 111.714 21.7815 112.245 21.7815Z" fill="#E6E6E6"/>
<path d="M116.378 11.5167H106.113V1.25181C106.114 0.919926 106.246 0.601744 106.48 0.367066C106.715 0.132388 107.033 0.000379687 107.365 0H115.126C115.458 0.000379687 115.776 0.132388 116.011 0.367066C116.246 0.601744 116.378 0.919926 116.378 1.25181V11.5167ZM106.614 11.0159H115.877V1.25181C115.877 1.05268 115.798 0.861761 115.657 0.720952C115.516 0.580144 115.325 0.500942 115.126 0.500724H107.365C107.166 0.500942 106.975 0.580144 106.834 0.720952C106.693 0.861761 106.614 1.05268 106.614 1.25181V11.0159Z" fill="#3F3D56"/>
<path d="M200.726 162.445C200.626 162.445 200.529 162.445 200.429 162.442C194.235 162.374 188.28 160.046 183.681 155.896C183.511 155.742 183.342 155.585 183.175 155.426L183.098 155.352V107.369L183.122 107.319C183.287 106.967 183.455 106.621 183.624 106.275C188.831 95.702 194.905 89.8801 200.726 89.8801C209.12 89.8801 215.631 101.395 218.764 108.259C223.122 117.804 226.165 129.631 226.165 137.021C226.163 143.715 223.521 150.139 218.813 154.898C214.105 159.657 207.71 162.368 201.016 162.443C200.923 162.445 200.823 162.445 200.726 162.445ZM183.598 155.137C183.737 155.268 183.877 155.398 184.017 155.525C188.526 159.594 194.365 161.875 200.438 161.942C200.539 161.944 200.635 161.942 200.732 161.944C200.823 161.944 200.916 161.944 201.007 161.942C214.605 161.791 225.664 150.612 225.664 137.021C225.664 129.695 222.64 117.954 218.309 108.467C215.225 101.712 208.84 90.3808 200.726 90.3808C195.105 90.3808 189.192 96.1035 184.073 106.495C183.915 106.821 183.756 107.149 183.598 107.482L183.598 155.137Z" fill="#3F3D56"/>
<path d="M200.722 192.801C200.645 192.801 200.572 192.77 200.518 192.716C200.464 192.662 200.434 192.589 200.434 192.513V133.711C200.433 133.673 200.441 133.635 200.455 133.6C200.469 133.565 200.491 133.533 200.517 133.506C200.544 133.479 200.576 133.458 200.611 133.443C200.646 133.428 200.684 133.421 200.722 133.421C200.76 133.421 200.797 133.428 200.832 133.443C200.867 133.458 200.899 133.479 200.926 133.506C200.953 133.533 200.974 133.565 200.988 133.6C201.003 133.635 201.01 133.673 201.01 133.711V192.513C201.01 192.589 200.979 192.662 200.925 192.716C200.871 192.77 200.798 192.801 200.722 192.801Z" fill="#CCCCCC"/>
<path d="M51.2568 192.801C51.1804 192.801 51.1071 192.77 51.0531 192.716C50.9991 192.662 50.9688 192.589 50.9688 192.513V133.711C50.9685 133.673 50.9758 133.635 50.9902 133.6C51.0046 133.565 51.0257 133.533 51.0525 133.506C51.0793 133.479 51.1111 133.458 51.1462 133.443C51.1812 133.428 51.2188 133.421 51.2568 133.421C51.2948 133.421 51.3324 133.428 51.3674 133.443C51.4025 133.458 51.4343 133.479 51.4611 133.506C51.4878 133.533 51.509 133.565 51.5234 133.6C51.5378 133.635 51.5451 133.673 51.5448 133.711V192.513C51.5448 192.589 51.5145 192.662 51.4605 192.716C51.4065 192.77 51.3332 192.801 51.2568 192.801Z" fill="#CCCCCC"/>
<path d="M200.724 144.697C200.683 144.697 200.642 144.688 200.604 144.671C200.567 144.654 200.533 144.629 200.506 144.598L186.019 127.891C185.969 127.833 185.944 127.758 185.95 127.682C185.955 127.606 185.991 127.535 186.049 127.485C186.106 127.435 186.181 127.41 186.257 127.415C186.334 127.421 186.404 127.456 186.455 127.513L200.941 144.22C200.978 144.262 201.001 144.313 201.009 144.368C201.017 144.422 201.009 144.478 200.986 144.528C200.963 144.579 200.926 144.621 200.88 144.651C200.833 144.681 200.779 144.697 200.724 144.697Z" fill="#CCCCCC"/>
<path d="M200.722 154.339C200.665 154.339 200.609 154.322 200.562 154.29C200.514 154.258 200.477 154.213 200.456 154.161C200.434 154.108 200.428 154.05 200.439 153.994C200.45 153.939 200.478 153.887 200.518 153.847L208.75 145.615C208.804 145.561 208.877 145.531 208.953 145.531C209.029 145.531 209.102 145.562 209.156 145.616C209.21 145.67 209.241 145.743 209.241 145.819C209.241 145.895 209.211 145.968 209.157 146.022L200.925 154.254C200.899 154.281 200.867 154.302 200.832 154.317C200.797 154.331 200.759 154.339 200.722 154.339Z" fill="#CCCCCC"/>
<path d="M227.372 192.92H205.84V192.669C205.839 191.255 206.117 189.855 206.658 188.548C207.199 187.241 207.992 186.053 208.991 185.053C209.991 184.053 211.178 183.259 212.485 182.718C213.791 182.177 215.192 181.898 216.606 181.898C218.02 181.898 219.421 182.177 220.727 182.718C222.034 183.259 223.221 184.053 224.221 185.053C225.221 186.053 226.013 187.241 226.554 188.548C227.095 189.855 227.373 191.255 227.372 192.669L227.372 192.92ZM206.344 192.419H226.869C226.803 189.741 225.693 187.194 223.776 185.323C221.858 183.451 219.285 182.404 216.606 182.404C213.927 182.404 211.354 183.451 209.436 185.323C207.519 187.194 206.409 189.741 206.344 192.419Z" fill="#3F3D56"/>
<path d="M216.609 186.559C216.534 186.559 216.462 186.589 216.408 186.642C216.355 186.696 216.325 186.768 216.325 186.843V189.863L213.384 187.338C213.356 187.314 213.323 187.295 213.287 187.283C213.252 187.272 213.214 187.267 213.177 187.27C213.14 187.273 213.103 187.283 213.07 187.3C213.037 187.317 213.007 187.34 212.983 187.368C212.958 187.397 212.94 187.429 212.928 187.465C212.917 187.501 212.912 187.538 212.915 187.575C212.918 187.613 212.928 187.649 212.945 187.682C212.962 187.716 212.985 187.745 213.014 187.769L216.325 190.612V192.385C216.325 192.423 216.332 192.46 216.347 192.494C216.361 192.529 216.382 192.56 216.408 192.587C216.434 192.613 216.466 192.634 216.5 192.649C216.535 192.663 216.572 192.67 216.609 192.67C216.647 192.67 216.684 192.663 216.718 192.649C216.753 192.634 216.784 192.613 216.811 192.587C216.837 192.56 216.858 192.529 216.872 192.494C216.886 192.46 216.894 192.423 216.894 192.385V186.843C216.894 186.768 216.864 186.696 216.81 186.642C216.757 186.589 216.685 186.559 216.609 186.559Z" fill="#3F3D56"/>
<path d="M46.8645 192.92H25.332V192.669C25.3314 191.255 25.6093 189.855 26.1501 188.548C26.6908 187.241 27.4837 186.053 28.4835 185.053C29.4834 184.053 30.6704 183.259 31.977 182.718C33.2835 182.177 34.684 181.898 36.0982 181.898C37.5125 181.898 38.9129 182.177 40.2195 182.718C41.5261 183.259 42.7131 184.053 43.7129 185.053C44.7128 186.053 45.5057 187.241 46.0464 188.548C46.5872 189.855 46.8651 191.255 46.8645 192.669L46.8645 192.92ZM25.8358 192.419H46.3607C46.2954 189.741 45.1855 187.194 43.268 185.323C41.3506 183.451 38.7775 182.404 36.0982 182.404C33.419 182.404 30.8459 183.451 28.9285 185.323C27.011 187.194 25.9011 189.741 25.8358 192.419Z" fill="#3F3D56"/>
<path d="M36.0976 186.559C36.0222 186.559 35.9499 186.589 35.8966 186.642C35.8433 186.696 35.8134 186.768 35.8134 186.843V189.863L32.8722 187.338C32.8439 187.314 32.8111 187.295 32.7756 187.283C32.7401 187.272 32.7026 187.267 32.6653 187.27C32.6281 187.273 32.5917 187.283 32.5583 187.3C32.525 187.317 32.4953 187.34 32.4709 187.368C32.4466 187.397 32.428 187.429 32.4164 187.465C32.4048 187.501 32.4003 187.538 32.4032 187.575C32.4061 187.613 32.4163 187.649 32.4332 187.682C32.4502 187.716 32.4735 187.745 32.502 187.769L35.8134 190.612V192.385C35.8133 192.423 35.8205 192.46 35.8348 192.494C35.849 192.529 35.8699 192.56 35.8963 192.587C35.9227 192.613 35.9541 192.634 35.9886 192.649C36.0232 192.663 36.0602 192.67 36.0976 192.67C36.135 192.67 36.172 192.663 36.2066 192.649C36.2411 192.634 36.2725 192.613 36.2989 192.587C36.3253 192.56 36.3462 192.529 36.3604 192.494C36.3747 192.46 36.3819 192.423 36.3818 192.385V186.843C36.3818 186.768 36.3519 186.696 36.2986 186.642C36.2453 186.589 36.173 186.559 36.0976 186.559Z" fill="#3F3D56"/>
<path d="M51.5121 162.445C51.4124 162.445 51.3152 162.445 51.2154 162.442C44.5221 162.367 38.1284 159.656 33.4211 154.897C28.7139 150.138 26.0726 143.715 26.0703 137.021C26.0703 129.631 29.1137 117.804 33.4714 108.259C36.6052 101.395 43.1162 89.8801 51.5121 89.8801C54.9704 89.8801 58.4528 91.8512 61.8625 95.7388C62.0316 95.9305 62.2011 96.1279 62.3681 96.3303L62.4254 96.3997V159.988L62.2842 160.057C62.1157 160.138 61.9447 160.215 61.7738 160.289C58.6318 161.679 55.2385 162.412 51.8027 162.443C51.7092 162.445 51.6094 162.445 51.5121 162.445ZM51.5121 90.3809C43.3962 90.3809 37.0108 101.712 33.9269 108.467C29.5959 117.953 26.571 129.695 26.571 137.021C26.571 150.609 37.6305 161.789 51.2245 161.942C51.3258 161.944 51.4203 161.945 51.5187 161.944C51.6096 161.944 51.7028 161.944 51.7936 161.942C55.1634 161.913 58.4915 161.194 61.5731 159.83C61.6912 159.779 61.8085 159.727 61.9247 159.673V96.58C61.7797 96.4059 61.6331 96.2358 61.4865 96.0694C58.1756 92.2946 54.8199 90.3809 51.5121 90.3809Z" fill="#3F3D56"/>
<path d="M51.5091 144.697C51.4678 144.697 51.427 144.688 51.3894 144.671C51.3518 144.654 51.3183 144.629 51.2913 144.598L36.8044 127.891C36.7546 127.833 36.7296 127.758 36.7351 127.682C36.7406 127.606 36.7761 127.535 36.8337 127.485C36.8914 127.435 36.9665 127.41 37.0426 127.415C37.1187 127.421 37.1896 127.456 37.2397 127.513L51.7266 144.22C51.7628 144.262 51.7862 144.313 51.794 144.368C51.8019 144.422 51.7939 144.478 51.771 144.528C51.7481 144.579 51.7112 144.621 51.6648 144.651C51.6184 144.681 51.5643 144.697 51.5091 144.697Z" fill="#CCCCCC"/>
<path d="M51.5068 154.339C51.4498 154.339 51.3941 154.322 51.3467 154.29C51.2994 154.258 51.2625 154.213 51.2407 154.161C51.2189 154.108 51.2132 154.05 51.2243 153.994C51.2354 153.939 51.2628 153.887 51.3031 153.847L59.5348 145.615C59.5889 145.561 59.6621 145.531 59.7383 145.531C59.8145 145.531 59.8876 145.562 59.9416 145.616C59.9955 145.67 60.0258 145.743 60.0259 145.819C60.026 145.895 59.9959 145.968 59.9421 146.022L51.7104 154.254C51.6837 154.281 51.652 154.302 51.617 154.317C51.5821 154.331 51.5446 154.339 51.5068 154.339Z" fill="#CCCCCC"/>
<path d="M74.1295 43.5629L74.3148 43.9285C74.3969 44.0862 74.4399 44.2614 74.44 44.4392V54.3285H83.2027V44.4392C83.2028 44.2614 83.2457 44.0862 83.3278 43.9285L83.5132 43.5629H74.1295ZM82.7019 44.4392V53.8278H74.9407V44.4392C74.9408 44.3127 74.9257 44.1866 74.8956 44.0637H82.747C82.7169 44.1866 82.7018 44.3127 82.7019 44.4392ZM85.1454 43.5629L85.3307 43.9285C85.4129 44.0862 85.4558 44.2614 85.4559 44.4392V54.3285H94.2186V44.4392C94.2187 44.2614 94.2616 44.0862 94.3438 43.9285L94.5291 43.5629H85.1454ZM93.7179 44.4392V53.8278H85.9566V44.4392C85.9568 44.3127 85.9416 44.1866 85.9115 44.0637H93.763C93.7329 44.1866 93.7177 44.3127 93.7179 44.4392ZM96.1614 43.5629L96.3467 43.9285C96.4288 44.0862 96.4717 44.2614 96.4718 44.4392V54.3285H105.235V44.4392C105.235 44.2614 105.278 44.0862 105.36 43.9285L105.545 43.5629H96.1614ZM104.734 44.4392V53.8278H96.9726V44.4392C96.9727 44.3127 96.9576 44.1866 96.9275 44.0637H104.779C104.749 44.1866 104.734 44.3127 104.734 44.4392ZM107.177 43.5629L107.363 43.9285C107.445 44.0862 107.488 44.2614 107.488 44.4392V54.3285H116.25V44.4392C116.251 44.2614 116.294 44.0862 116.376 43.9285L116.561 43.5629H107.177ZM115.75 44.4392V53.8278H107.989V44.4392C107.989 44.3127 107.974 44.1866 107.943 44.0637H115.795C115.765 44.1866 115.75 44.3127 115.75 44.4392ZM118.193 43.5629L118.379 43.9285C118.461 44.0862 118.504 44.2614 118.504 44.4392V54.3285H127.266V44.4392C127.267 44.2614 127.309 44.0862 127.392 43.9285L127.577 43.5629H118.193ZM126.766 44.4392V53.8278H119.004V44.4392C119.005 44.3127 118.989 44.1866 118.959 44.0637H126.811C126.781 44.1866 126.766 44.3127 126.766 44.4392ZM129.209 43.5629L129.394 43.9285C129.477 44.0862 129.52 44.2614 129.52 44.4392V54.3285H138.282V44.4392C138.282 44.2614 138.325 44.0862 138.408 43.9285L138.593 43.5629H129.209ZM137.782 44.4392V53.8278H130.02V44.4392C130.021 44.3127 130.005 44.1866 129.975 44.0637H137.827C137.797 44.1866 137.781 44.3127 137.782 44.4392ZM140.225 43.5629L140.41 43.9285C140.493 44.0862 140.535 44.2614 140.536 44.4392V54.3285H149.298V44.4392C149.298 44.2614 149.341 44.0862 149.423 43.9285L149.609 43.5629H140.225ZM148.798 44.4392V53.8278H141.036V44.4392C141.036 44.3127 141.021 44.1866 140.991 44.0637H148.843C148.813 44.1866 148.797 44.3127 148.798 44.4392ZM151.241 43.5629L151.426 43.9285C151.508 44.0862 151.551 44.2614 151.552 44.4392V54.3285H160.314V44.4392C160.314 44.2614 160.357 44.0862 160.439 43.9285L160.625 43.5629H151.241ZM159.813 44.4392V53.8278H152.052V44.4392C152.052 44.3127 152.037 44.1866 152.007 44.0637H159.859C159.828 44.1866 159.813 44.3127 159.813 44.4392ZM162.257 43.5629L162.442 43.9285C162.524 44.0862 162.567 44.2614 162.567 44.4392V54.3285H171.33V44.4392C171.33 44.2614 171.373 44.0862 171.455 43.9285L171.641 43.5629H162.257ZM170.829 44.4392V53.8278H163.068V44.4392C163.068 44.3127 163.053 44.1866 163.023 44.0637H170.875C170.844 44.1866 170.829 44.3127 170.829 44.4392ZM162.257 43.5629L162.442 43.9285C162.524 44.0862 162.567 44.2614 162.567 44.4392V54.3285H171.33V44.4392C171.33 44.2614 171.373 44.0862 171.455 43.9285L171.641 43.5629H162.257ZM170.829 44.4392V53.8278H163.068V44.4392C163.068 44.3127 163.053 44.1866 163.023 44.0637H170.875C170.844 44.1866 170.829 44.3127 170.829 44.4392ZM151.241 43.5629L151.426 43.9285C151.508 44.0862 151.551 44.2614 151.552 44.4392V54.3285H160.314V44.4392C160.314 44.2614 160.357 44.0862 160.439 43.9285L160.625 43.5629H151.241ZM159.813 44.4392V53.8278H152.052V44.4392C152.052 44.3127 152.037 44.1866 152.007 44.0637H159.859C159.828 44.1866 159.813 44.3127 159.813 44.4392ZM140.225 43.5629L140.41 43.9285C140.493 44.0862 140.535 44.2614 140.536 44.4392V54.3285H149.298V44.4392C149.298 44.2614 149.341 44.0862 149.423 43.9285L149.609 43.5629H140.225ZM148.798 44.4392V53.8278H141.036V44.4392C141.036 44.3127 141.021 44.1866 140.991 44.0637H148.843C148.813 44.1866 148.797 44.3127 148.798 44.4392ZM129.209 43.5629L129.394 43.9285C129.477 44.0862 129.52 44.2614 129.52 44.4392V54.3285H138.282V44.4392C138.282 44.2614 138.325 44.0862 138.408 43.9285L138.593 43.5629H129.209ZM137.782 44.4392V53.8278H130.02V44.4392C130.021 44.3127 130.005 44.1866 129.975 44.0637H137.827C137.797 44.1866 137.781 44.3127 137.782 44.4392ZM118.193 43.5629L118.379 43.9285C118.461 44.0862 118.504 44.2614 118.504 44.4392V54.3285H127.266V44.4392C127.267 44.2614 127.309 44.0862 127.392 43.9285L127.577 43.5629H118.193ZM126.766 44.4392V53.8278H119.004V44.4392C119.005 44.3127 118.989 44.1866 118.959 44.0637H126.811C126.781 44.1866 126.766 44.3127 126.766 44.4392ZM107.177 43.5629L107.363 43.9285C107.445 44.0862 107.488 44.2614 107.488 44.4392V54.3285H116.25V44.4392C116.251 44.2614 116.294 44.0862 116.376 43.9285L116.561 43.5629H107.177ZM115.75 44.4392V53.8278H107.989V44.4392C107.989 44.3127 107.974 44.1866 107.943 44.0637H115.795C115.765 44.1866 115.75 44.3127 115.75 44.4392ZM96.1614 43.5629L96.3467 43.9285C96.4288 44.0862 96.4717 44.2614 96.4718 44.4392V54.3285H105.235V44.4392C105.235 44.2614 105.278 44.0862 105.36 43.9285L105.545 43.5629H96.1614ZM104.734 44.4392V53.8278H96.9726V44.4392C96.9727 44.3127 96.9576 44.1866 96.9275 44.0637H104.779C104.749 44.1866 104.734 44.3127 104.734 44.4392ZM85.1454 43.5629L85.3307 43.9285C85.4129 44.0862 85.4558 44.2614 85.4559 44.4392V54.3285H94.2186V44.4392C94.2187 44.2614 94.2616 44.0862 94.3438 43.9285L94.5291 43.5629H85.1454ZM93.7179 44.4392V53.8278H85.9566V44.4392C85.9568 44.3127 85.9416 44.1866 85.9115 44.0637H93.763C93.7329 44.1866 93.7177 44.3127 93.7179 44.4392ZM74.1295 43.5629L74.3148 43.9285C74.3969 44.0862 74.4399 44.2614 74.44 44.4392V54.3285H83.2027V44.4392C83.2028 44.2614 83.2457 44.0862 83.3278 43.9285L83.5132 43.5629H74.1295ZM82.7019 44.4392V53.8278H74.9407V44.4392C74.9408 44.3127 74.9257 44.1866 74.8956 44.0637H82.747C82.7169 44.1866 82.7018 44.3127 82.7019 44.4392ZM162.257 43.5629L162.442 43.9285C162.524 44.0862 162.567 44.2614 162.567 44.4392V54.3285H171.33V44.4392C171.33 44.2614 171.373 44.0862 171.455 43.9285L171.641 43.5629H162.257ZM170.829 44.4392V53.8278H163.068V44.4392C163.068 44.3127 163.053 44.1866 163.023 44.0637H170.875C170.844 44.1866 170.829 44.3127 170.829 44.4392ZM151.241 43.5629L151.426 43.9285C151.508 44.0862 151.551 44.2614 151.552 44.4392V54.3285H160.314V44.4392C160.314 44.2614 160.357 44.0862 160.439 43.9285L160.625 43.5629H151.241ZM159.813 44.4392V53.8278H152.052V44.4392C152.052 44.3127 152.037 44.1866 152.007 44.0637H159.859C159.828 44.1866 159.813 44.3127 159.813 44.4392ZM140.225 43.5629L140.41 43.9285C140.493 44.0862 140.535 44.2614 140.536 44.4392V54.3285H149.298V44.4392C149.298 44.2614 149.341 44.0862 149.423 43.9285L149.609 43.5629H140.225ZM148.798 44.4392V53.8278H141.036V44.4392C141.036 44.3127 141.021 44.1866 140.991 44.0637H148.843C148.813 44.1866 148.797 44.3127 148.798 44.4392ZM129.209 43.5629L129.394 43.9285C129.477 44.0862 129.52 44.2614 129.52 44.4392V54.3285H138.282V44.4392C138.282 44.2614 138.325 44.0862 138.408 43.9285L138.593 43.5629H129.209ZM137.782 44.4392V53.8278H130.02V44.4392C130.021 44.3127 130.005 44.1866 129.975 44.0637H137.827C137.797 44.1866 137.781 44.3127 137.782 44.4392ZM118.193 43.5629L118.379 43.9285C118.461 44.0862 118.504 44.2614 118.504 44.4392V54.3285H127.266V44.4392C127.267 44.2614 127.309 44.0862 127.392 43.9285L127.577 43.5629H118.193ZM126.766 44.4392V53.8278H119.004V44.4392C119.005 44.3127 118.989 44.1866 118.959 44.0637H126.811C126.781 44.1866 126.766 44.3127 126.766 44.4392ZM107.177 43.5629L107.363 43.9285C107.445 44.0862 107.488 44.2614 107.488 44.4392V54.3285H116.25V44.4392C116.251 44.2614 116.294 44.0862 116.376 43.9285L116.561 43.5629H107.177ZM115.75 44.4392V53.8278H107.989V44.4392C107.989 44.3127 107.974 44.1866 107.943 44.0637H115.795C115.765 44.1866 115.75 44.3127 115.75 44.4392ZM96.1614 43.5629L96.3467 43.9285C96.4288 44.0862 96.4717 44.2614 96.4718 44.4392V54.3285H105.235V44.4392C105.235 44.2614 105.278 44.0862 105.36 43.9285L105.545 43.5629H96.1614ZM104.734 44.4392V53.8278H96.9726V44.4392C96.9727 44.3127 96.9576 44.1866 96.9275 44.0637H104.779C104.749 44.1866 104.734 44.3127 104.734 44.4392ZM85.1454 43.5629L85.3307 43.9285C85.4129 44.0862 85.4558 44.2614 85.4559 44.4392V54.3285H94.2186V44.4392C94.2187 44.2614 94.2616 44.0862 94.3438 43.9285L94.5291 43.5629H85.1454ZM93.7179 44.4392V53.8278H85.9566V44.4392C85.9568 44.3127 85.9416 44.1866 85.9115 44.0637H93.763C93.7329 44.1866 93.7177 44.3127 93.7179 44.4392ZM74.1295 43.5629L74.3148 43.9285C74.3969 44.0862 74.4399 44.2614 74.44 44.4392V54.3285H83.2027V44.4392C83.2028 44.2614 83.2457 44.0862 83.3278 43.9285L83.5132 43.5629H74.1295ZM82.7019 44.4392V53.8278H74.9407V44.4392C74.9408 44.3127 74.9257 44.1866 74.8956 44.0637H82.747C82.7169 44.1866 82.7018 44.3127 82.7019 44.4392ZM162.257 43.5629L162.442 43.9285C162.524 44.0862 162.567 44.2614 162.567 44.4392V54.3285H171.33V44.4392C171.33 44.2614 171.373 44.0862 171.455 43.9285L171.641 43.5629H162.257ZM170.829 44.4392V53.8278H163.068V44.4392C163.068 44.3127 163.053 44.1866 163.023 44.0637H170.875C170.844 44.1866 170.829 44.3127 170.829 44.4392ZM151.241 43.5629L151.426 43.9285C151.508 44.0862 151.551 44.2614 151.552 44.4392V54.3285H160.314V44.4392C160.314 44.2614 160.357 44.0862 160.439 43.9285L160.625 43.5629H151.241ZM159.813 44.4392V53.8278H152.052V44.4392C152.052 44.3127 152.037 44.1866 152.007 44.0637H159.859C159.828 44.1866 159.813 44.3127 159.813 44.4392ZM140.225 43.5629L140.41 43.9285C140.493 44.0862 140.535 44.2614 140.536 44.4392V54.3285H149.298V44.4392C149.298 44.2614 149.341 44.0862 149.423 43.9285L149.609 43.5629H140.225ZM148.798 44.4392V53.8278H141.036V44.4392C141.036 44.3127 141.021 44.1866 140.991 44.0637H148.843C148.813 44.1866 148.797 44.3127 148.798 44.4392ZM129.209 43.5629L129.394 43.9285C129.477 44.0862 129.52 44.2614 129.52 44.4392V54.3285H138.282V44.4392C138.282 44.2614 138.325 44.0862 138.408 43.9285L138.593 43.5629H129.209ZM137.782 44.4392V53.8278H130.02V44.4392C130.021 44.3127 130.005 44.1866 129.975 44.0637H137.827C137.797 44.1866 137.781 44.3127 137.782 44.4392ZM118.193 43.5629L118.379 43.9285C118.461 44.0862 118.504 44.2614 118.504 44.4392V54.3285H127.266V44.4392C127.267 44.2614 127.309 44.0862 127.392 43.9285L127.577 43.5629H118.193ZM126.766 44.4392V53.8278H119.004V44.4392C119.005 44.3127 118.989 44.1866 118.959 44.0637H126.811C126.781 44.1866 126.766 44.3127 126.766 44.4392ZM107.177 43.5629L107.363 43.9285C107.445 44.0862 107.488 44.2614 107.488 44.4392V54.3285H116.25V44.4392C116.251 44.2614 116.294 44.0862 116.376 43.9285L116.561 43.5629H107.177ZM115.75 44.4392V53.8278H107.989V44.4392C107.989 44.3127 107.974 44.1866 107.943 44.0637H115.795C115.765 44.1866 115.75 44.3127 115.75 44.4392ZM96.1614 43.5629L96.3467 43.9285C96.4288 44.0862 96.4717 44.2614 96.4718 44.4392V54.3285H105.235V44.4392C105.235 44.2614 105.278 44.0862 105.36 43.9285L105.545 43.5629H96.1614ZM104.734 44.4392V53.8278H96.9726V44.4392C96.9727 44.3127 96.9576 44.1866 96.9275 44.0637H104.779C104.749 44.1866 104.734 44.3127 104.734 44.4392ZM85.1454 43.5629L85.3307 43.9285C85.4129 44.0862 85.4558 44.2614 85.4559 44.4392V54.3285H94.2186V44.4392C94.2187 44.2614 94.2616 44.0862 94.3438 43.9285L94.5291 43.5629H85.1454ZM93.7179 44.4392V53.8278H85.9566V44.4392C85.9568 44.3127 85.9416 44.1866 85.9115 44.0637H93.763C93.7329 44.1866 93.7177 44.3127 93.7179 44.4392ZM74.1295 43.5629L74.3148 43.9285C74.3969 44.0862 74.4399 44.2614 74.44 44.4392V54.3285H83.2027V44.4392C83.2028 44.2614 83.2457 44.0862 83.3278 43.9285L83.5132 43.5629H74.1295ZM82.7019 44.4392V53.8278H74.9407V44.4392C74.9408 44.3127 74.9257 44.1866 74.8956 44.0637H82.747C82.7169 44.1866 82.7018 44.3127 82.7019 44.4392ZM162.257 43.5629L162.442 43.9285C162.524 44.0862 162.567 44.2614 162.567 44.4392V54.3285H171.33V44.4392C171.33 44.2614 171.373 44.0862 171.455 43.9285L171.641 43.5629H162.257ZM170.829 44.4392V53.8278H163.068V44.4392C163.068 44.3127 163.053 44.1866 163.023 44.0637H170.875C170.844 44.1866 170.829 44.3127 170.829 44.4392ZM151.241 43.5629L151.426 43.9285C151.508 44.0862 151.551 44.2614 151.552 44.4392V54.3285H160.314V44.4392C160.314 44.2614 160.357 44.0862 160.439 43.9285L160.625 43.5629H151.241ZM159.813 44.4392V53.8278H152.052V44.4392C152.052 44.3127 152.037 44.1866 152.007 44.0637H159.859C159.828 44.1866 159.813 44.3127 159.813 44.4392ZM140.225 43.5629L140.41 43.9285C140.493 44.0862 140.535 44.2614 140.536 44.4392V54.3285H149.298V44.4392C149.298 44.2614 149.341 44.0862 149.423 43.9285L149.609 43.5629H140.225ZM148.798 44.4392V53.8278H141.036V44.4392C141.036 44.3127 141.021 44.1866 140.991 44.0637H148.843C148.813 44.1866 148.797 44.3127 148.798 44.4392ZM129.209 43.5629L129.394 43.9285C129.477 44.0862 129.52 44.2614 129.52 44.4392V54.3285H138.282V44.4392C138.282 44.2614 138.325 44.0862 138.408 43.9285L138.593 43.5629H129.209ZM137.782 44.4392V53.8278H130.02V44.4392C130.021 44.3127 130.005 44.1866 129.975 44.0637H137.827C137.797 44.1866 137.781 44.3127 137.782 44.4392ZM118.193 43.5629L118.379 43.9285C118.461 44.0862 118.504 44.2614 118.504 44.4392V54.3285H127.266V44.4392C127.267 44.2614 127.309 44.0862 127.392 43.9285L127.577 43.5629H118.193ZM126.766 44.4392V53.8278H119.004V44.4392C119.005 44.3127 118.989 44.1866 118.959 44.0637H126.811C126.781 44.1866 126.766 44.3127 126.766 44.4392ZM107.177 43.5629L107.363 43.9285C107.445 44.0862 107.488 44.2614 107.488 44.4392V54.3285H116.25V44.4392C116.251 44.2614 116.294 44.0862 116.376 43.9285L116.561 43.5629H107.177ZM115.75 44.4392V53.8278H107.989V44.4392C107.989 44.3127 107.974 44.1866 107.943 44.0637H115.795C115.765 44.1866 115.75 44.3127 115.75 44.4392ZM96.1614 43.5629L96.3467 43.9285C96.4288 44.0862 96.4717 44.2614 96.4718 44.4392V54.3285H105.235V44.4392C105.235 44.2614 105.278 44.0862 105.36 43.9285L105.545 43.5629H96.1614ZM104.734 44.4392V53.8278H96.9726V44.4392C96.9727 44.3127 96.9576 44.1866 96.9275 44.0637H104.779C104.749 44.1866 104.734 44.3127 104.734 44.4392ZM85.1454 43.5629L85.3307 43.9285C85.4129 44.0862 85.4558 44.2614 85.4559 44.4392V54.3285H94.2186V44.4392C94.2187 44.2614 94.2616 44.0862 94.3438 43.9285L94.5291 43.5629H85.1454ZM93.7179 44.4392V53.8278H85.9566V44.4392C85.9568 44.3127 85.9416 44.1866 85.9115 44.0637H93.763C93.7329 44.1866 93.7177 44.3127 93.7179 44.4392ZM74.1295 43.5629L74.3148 43.9285C74.3969 44.0862 74.4399 44.2614 74.44 44.4392V54.3285H83.2027V44.4392C83.2028 44.2614 83.2457 44.0862 83.3278 43.9285L83.5132 43.5629H74.1295ZM82.7019 44.4392V53.8278H74.9407V44.4392C74.9408 44.3127 74.9257 44.1866 74.8956 44.0637H82.747C82.7169 44.1866 82.7018 44.3127 82.7019 44.4392ZM162.257 43.5629L162.442 43.9285C162.524 44.0862 162.567 44.2614 162.567 44.4392V54.3285H171.33V44.4392C171.33 44.2614 171.373 44.0862 171.455 43.9285L171.641 43.5629H162.257ZM170.829 44.4392V53.8278H163.068V44.4392C163.068 44.3127 163.053 44.1866 163.023 44.0637H170.875C170.844 44.1866 170.829 44.3127 170.829 44.4392ZM151.426 43.9285C151.508 44.0862 151.551 44.2614 151.552 44.4392V54.3285H160.314V44.4392C160.314 44.2614 160.357 44.0862 160.439 43.9285L160.625 43.5629H151.241L151.426 43.9285ZM159.859 44.0637C159.828 44.1866 159.813 44.3127 159.813 44.4392V53.8278H152.052V44.4392C152.052 44.3127 152.037 44.1866 152.007 44.0637H159.859ZM140.41 43.9285C140.493 44.0862 140.535 44.2614 140.536 44.4392V54.3285H149.298V44.4392C149.298 44.2614 149.341 44.0862 149.423 43.9285L149.609 43.5629H140.225L140.41 43.9285ZM148.843 44.0637C148.813 44.1866 148.797 44.3127 148.798 44.4392V53.8278H141.036V44.4392C141.036 44.3127 141.021 44.1866 140.991 44.0637H148.843ZM129.394 43.9285C129.477 44.0862 129.52 44.2614 129.52 44.4392V54.3285H138.282V44.4392C138.282 44.2614 138.325 44.0862 138.408 43.9285L138.593 43.5629H129.209L129.394 43.9285ZM137.827 44.0637C137.797 44.1866 137.781 44.3127 137.782 44.4392V53.8278H130.02V44.4392C130.021 44.3127 130.005 44.1866 129.975 44.0637H137.827ZM118.379 43.9285C118.461 44.0862 118.504 44.2614 118.504 44.4392V54.3285H127.266V44.4392C127.267 44.2614 127.309 44.0862 127.392 43.9285L127.577 43.5629H118.193L118.379 43.9285ZM126.811 44.0637C126.781 44.1866 126.766 44.3127 126.766 44.4392V53.8278H119.004V44.4392C119.005 44.3127 118.989 44.1866 118.959 44.0637H126.811ZM107.363 43.9285C107.445 44.0862 107.488 44.2614 107.488 44.4392V54.3285H116.25V44.4392C116.251 44.2614 116.294 44.0862 116.376 43.9285L116.561 43.5629H107.177L107.363 43.9285ZM115.795 44.0637C115.765 44.1866 115.75 44.3127 115.75 44.4392V53.8278H107.989V44.4392C107.989 44.3127 107.974 44.1866 107.943 44.0637H115.795ZM96.3467 43.9285C96.4288 44.0862 96.4717 44.2614 96.4718 44.4392V54.3285H105.235V44.4392C105.235 44.2614 105.278 44.0862 105.36 43.9285L105.545 43.5629H96.1614L96.3467 43.9285ZM104.779 44.0637C104.749 44.1866 104.734 44.3127 104.734 44.4392V53.8278H96.9726V44.4392C96.9727 44.3127 96.9576 44.1866 96.9275 44.0637H104.779ZM85.3307 43.9285C85.4129 44.0862 85.4558 44.2614 85.4559 44.4392V54.3285H94.2186V44.4392C94.2187 44.2614 94.2616 44.0862 94.3438 43.9285L94.5291 43.5629H85.1454L85.3307 43.9285ZM93.763 44.0637C93.7329 44.1866 93.7177 44.3127 93.7179 44.4392V53.8278H85.9566V44.4392C85.9568 44.3127 85.9416 44.1866 85.9115 44.0637H93.763ZM74.3148 43.9285C74.3969 44.0862 74.4399 44.2614 74.44 44.4392V54.3285H83.2027V44.4392C83.2028 44.2614 83.2457 44.0862 83.3278 43.9285L83.5132 43.5629H74.1295L74.3148 43.9285ZM82.747 44.0637C82.7169 44.1866 82.7018 44.3127 82.7019 44.4392V53.8278H74.9407V44.4392C74.9408 44.3127 74.9257 44.1866 74.8956 44.0637H82.747ZM162.442 43.9285C162.524 44.0862 162.567 44.2614 162.567 44.4392V54.3285H171.33V44.4392C171.33 44.2614 171.373 44.0862 171.455 43.9285L171.641 43.5629H162.257L162.442 43.9285ZM170.875 44.0637C170.844 44.1866 170.829 44.3127 170.829 44.4392V53.8278H163.068V44.4392C163.068 44.3127 163.053 44.1866 163.023 44.0637H170.875ZM151.426 43.9285C151.508 44.0862 151.551 44.2614 151.552 44.4392V54.3285H160.314V44.4392C160.314 44.2614 160.357 44.0862 160.439 43.9285L160.625 43.5629H151.241L151.426 43.9285ZM159.859 44.0637C159.828 44.1866 159.813 44.3127 159.813 44.4392V53.8278H152.052V44.4392C152.052 44.3127 152.037 44.1866 152.007 44.0637H159.859ZM140.41 43.9285C140.493 44.0862 140.535 44.2614 140.536 44.4392V54.3285H149.298V44.4392C149.298 44.2614 149.341 44.0862 149.423 43.9285L149.609 43.5629H140.225L140.41 43.9285ZM148.843 44.0637C148.813 44.1866 148.797 44.3127 148.798 44.4392V53.8278H141.036V44.4392C141.036 44.3127 141.021 44.1866 140.991 44.0637H148.843ZM129.394 43.9285C129.477 44.0862 129.52 44.2614 129.52 44.4392V54.3285H138.282V44.4392C138.282 44.2614 138.325 44.0862 138.408 43.9285L138.593 43.5629H129.209L129.394 43.9285ZM137.827 44.0637C137.797 44.1866 137.781 44.3127 137.782 44.4392V53.8278H130.02V44.4392C130.021 44.3127 130.005 44.1866 129.975 44.0637H137.827ZM118.379 43.9285C118.461 44.0862 118.504 44.2614 118.504 44.4392V54.3285H127.266V44.4392C127.267 44.2614 127.309 44.0862 127.392 43.9285L127.577 43.5629H118.193L118.379 43.9285ZM126.811 44.0637C126.781 44.1866 126.766 44.3127 126.766 44.4392V53.8278H119.004V44.4392C119.005 44.3127 118.989 44.1866 118.959 44.0637H126.811ZM107.363 43.9285C107.445 44.0862 107.488 44.2614 107.488 44.4392V54.3285H116.25V44.4392C116.251 44.2614 116.294 44.0862 116.376 43.9285L116.561 43.5629H107.177L107.363 43.9285ZM115.795 44.0637C115.765 44.1866 115.75 44.3127 115.75 44.4392V53.8278H107.989V44.4392C107.989 44.3127 107.974 44.1866 107.943 44.0637H115.795ZM96.3467 43.9285C96.4288 44.0862 96.4717 44.2614 96.4718 44.4392V54.3285H105.235V44.4392C105.235 44.2614 105.278 44.0862 105.36 43.9285L105.545 43.5629H96.1614L96.3467 43.9285ZM104.779 44.0637C104.749 44.1866 104.734 44.3127 104.734 44.4392V53.8278H96.9726V44.4392C96.9727 44.3127 96.9576 44.1866 96.9275 44.0637H104.779ZM85.3307 43.9285C85.4129 44.0862 85.4558 44.2614 85.4559 44.4392V54.3285H94.2186V44.4392C94.2187 44.2614 94.2616 44.0862 94.3438 43.9285L94.5291 43.5629H85.1454L85.3307 43.9285ZM93.763 44.0637C93.7329 44.1866 93.7177 44.3127 93.7179 44.4392V53.8278H85.9566V44.4392C85.9568 44.3127 85.9416 44.1866 85.9115 44.0637H93.763ZM74.3148 43.9285C74.3969 44.0862 74.4399 44.2614 74.44 44.4392V54.3285H83.2027V44.4392C83.2028 44.2614 83.2457 44.0862 83.3278 43.9285L83.5132 43.5629H74.1295L74.3148 43.9285ZM82.747 44.0637C82.7169 44.1866 82.7018 44.3127 82.7019 44.4392V53.8278H74.9407V44.4392C74.9408 44.3127 74.9257 44.1866 74.8956 44.0637H82.747ZM181.345 55.8307H178.36C178.196 55.2547 177.848 54.7479 177.371 54.3866C176.893 54.0254 176.31 53.8292 175.711 53.8278H174.084V44.4392C174.085 44.2377 174.047 44.0379 173.971 43.8509C174.255 43.6838 174.476 43.4281 174.6 43.123C174.724 42.818 174.744 42.4807 174.657 42.1632C174.57 41.8456 174.381 41.5655 174.119 41.366C173.857 41.1665 173.537 41.0587 173.208 41.0593H72.5623C72.2331 41.0587 71.9128 41.1665 71.6509 41.366C71.389 41.5655 71.2001 41.8456 71.1132 42.1632C71.0264 42.4807 71.0464 42.818 71.1703 43.123C71.2942 43.4281 71.515 43.6838 71.7987 43.8509C71.7236 44.0379 71.6853 44.2377 71.686 44.4392V53.8278H70.0586C69.4596 53.8292 68.8774 54.0254 68.3996 54.3866C67.9218 54.7479 67.5744 55.2547 67.4098 55.8307H64.1751C63.5778 55.8316 63.0052 56.0693 62.5828 56.4917C62.1605 56.914 61.9228 57.4866 61.9219 58.084V190.275C61.9232 190.872 62.161 191.445 62.5833 191.867C63.0056 192.289 63.5779 192.527 64.1751 192.528H181.345C181.942 192.528 182.515 192.29 182.937 191.867C183.359 191.445 183.597 190.872 183.598 190.275V58.084C183.597 57.4866 183.359 56.914 182.937 56.4917C182.515 56.0693 181.942 55.8316 181.345 55.8307ZM183.097 190.275C183.097 190.633 182.987 190.982 182.782 191.276C182.578 191.569 182.289 191.793 181.953 191.918C181.759 191.992 181.552 192.029 181.345 192.028H64.1751C63.9673 192.029 63.761 191.992 63.5667 191.918C63.2313 191.793 62.9419 191.569 62.7373 191.276C62.5328 190.982 62.423 190.633 62.4226 190.275V58.084C62.4231 57.6193 62.6079 57.1738 62.9365 56.8453C63.265 56.5167 63.7105 56.3319 64.1751 56.3314H67.8104L67.8505 56.1311C67.9558 55.6229 68.2327 55.1663 68.6348 54.8381C69.0368 54.5098 69.5396 54.3299 70.0586 54.3285H72.1867V44.4392C72.1868 44.2355 72.2422 44.0356 72.347 43.8609L72.5021 43.603L72.2192 43.4979C71.9982 43.4177 71.8124 43.2621 71.6948 43.0585C71.5771 42.8549 71.5351 42.6163 71.5761 42.3847C71.6171 42.1532 71.7385 41.9435 71.9189 41.7927C72.0993 41.6418 72.3271 41.5594 72.5623 41.5601H173.208C173.443 41.5594 173.671 41.6418 173.851 41.7927C174.032 41.9435 174.153 42.1532 174.194 42.3847C174.235 42.6163 174.193 42.8549 174.075 43.0585C173.958 43.2621 173.772 43.4177 173.551 43.4979L173.268 43.603L173.423 43.8609C173.528 44.0356 173.583 44.2355 173.583 44.4392V54.3285H175.711C176.23 54.3299 176.733 54.5098 177.135 54.838C177.537 55.1663 177.814 55.6229 177.92 56.1311L177.96 56.3314H181.345C181.809 56.3319 182.255 56.5167 182.583 56.8453C182.912 57.1738 183.097 57.6193 183.097 58.084L183.097 190.275ZM74.1295 43.5629L74.3148 43.9285C74.3969 44.0862 74.4399 44.2614 74.44 44.4392V54.3285H83.2027V44.4392C83.2028 44.2614 83.2457 44.0862 83.3278 43.9285L83.5132 43.5629H74.1295ZM82.7019 44.4392V53.8278H74.9407V44.4392C74.9408 44.3127 74.9257 44.1866 74.8956 44.0637H82.747C82.7169 44.1866 82.7018 44.3127 82.7019 44.4392ZM85.1454 43.5629L85.3307 43.9285C85.4129 44.0862 85.4558 44.2614 85.4559 44.4392V54.3285H94.2186V44.4392C94.2187 44.2614 94.2616 44.0862 94.3438 43.9285L94.5291 43.5629H85.1454ZM93.7179 44.4392V53.8278H85.9566V44.4392C85.9568 44.3127 85.9416 44.1866 85.9115 44.0637H93.763C93.7329 44.1866 93.7177 44.3127 93.7179 44.4392ZM96.1614 43.5629L96.3467 43.9285C96.4288 44.0862 96.4717 44.2614 96.4718 44.4392V54.3285H105.235V44.4392C105.235 44.2614 105.278 44.0862 105.36 43.9285L105.545 43.5629H96.1614ZM104.734 44.4392V53.8278H96.9726V44.4392C96.9727 44.3127 96.9576 44.1866 96.9275 44.0637H104.779C104.749 44.1866 104.734 44.3127 104.734 44.4392ZM107.177 43.5629L107.363 43.9285C107.445 44.0862 107.488 44.2614 107.488 44.4392V54.3285H116.25V44.4392C116.251 44.2614 116.294 44.0862 116.376 43.9285L116.561 43.5629H107.177ZM115.75 44.4392V53.8278H107.989V44.4392C107.989 44.3127 107.974 44.1866 107.943 44.0637H115.795C115.765 44.1866 115.75 44.3127 115.75 44.4392ZM118.193 43.5629L118.379 43.9285C118.461 44.0862 118.504 44.2614 118.504 44.4392V54.3285H127.266V44.4392C127.267 44.2614 127.309 44.0862 127.392 43.9285L127.577 43.5629H118.193ZM126.766 44.4392V53.8278H119.004V44.4392C119.005 44.3127 118.989 44.1866 118.959 44.0637H126.811C126.781 44.1866 126.766 44.3127 126.766 44.4392ZM129.209 43.5629L129.394 43.9285C129.477 44.0862 129.52 44.2614 129.52 44.4392V54.3285H138.282V44.4392C138.282 44.2614 138.325 44.0862 138.408 43.9285L138.593 43.5629H129.209ZM137.782 44.4392V53.8278H130.02V44.4392C130.021 44.3127 130.005 44.1866 129.975 44.0637H137.827C137.797 44.1866 137.781 44.3127 137.782 44.4392ZM140.225 43.5629L140.41 43.9285C140.493 44.0862 140.535 44.2614 140.536 44.4392V54.3285H149.298V44.4392C149.298 44.2614 149.341 44.0862 149.423 43.9285L149.609 43.5629H140.225ZM148.798 44.4392V53.8278H141.036V44.4392C141.036 44.3127 141.021 44.1866 140.991 44.0637H148.843C148.813 44.1866 148.797 44.3127 148.798 44.4392ZM151.241 43.5629L151.426 43.9285C151.508 44.0862 151.551 44.2614 151.552 44.4392V54.3285H160.314V44.4392C160.314 44.2614 160.357 44.0862 160.439 43.9285L160.625 43.5629H151.241ZM159.813 44.4392V53.8278H152.052V44.4392C152.052 44.3127 152.037 44.1866 152.007 44.0637H159.859C159.828 44.1866 159.813 44.3127 159.813 44.4392ZM162.257 43.5629L162.442 43.9285C162.524 44.0862 162.567 44.2614 162.567 44.4392V54.3285H171.33V44.4392C171.33 44.2614 171.373 44.0862 171.455 43.9285L171.641 43.5629H162.257ZM170.829 44.4392V53.8278H163.068V44.4392C163.068 44.3127 163.053 44.1866 163.023 44.0637H170.875C170.844 44.1866 170.829 44.3127 170.829 44.4392ZM74.1295 43.5629L74.3148 43.9285C74.3969 44.0862 74.4399 44.2614 74.44 44.4392V54.3285H83.2027V44.4392C83.2028 44.2614 83.2457 44.0862 83.3278 43.9285L83.5132 43.5629H74.1295ZM82.7019 44.4392V53.8278H74.9407V44.4392C74.9408 44.3127 74.9257 44.1866 74.8956 44.0637H82.747C82.7169 44.1866 82.7018 44.3127 82.7019 44.4392ZM85.1454 43.5629L85.3307 43.9285C85.4129 44.0862 85.4558 44.2614 85.4559 44.4392V54.3285H94.2186V44.4392C94.2187 44.2614 94.2616 44.0862 94.3438 43.9285L94.5291 43.5629H85.1454ZM93.7179 44.4392V53.8278H85.9566V44.4392C85.9568 44.3127 85.9416 44.1866 85.9115 44.0637H93.763C93.7329 44.1866 93.7177 44.3127 93.7179 44.4392ZM96.1614 43.5629L96.3467 43.9285C96.4288 44.0862 96.4717 44.2614 96.4718 44.4392V54.3285H105.235V44.4392C105.235 44.2614 105.278 44.0862 105.36 43.9285L105.545 43.5629H96.1614ZM104.734 44.4392V53.8278H96.9726V44.4392C96.9727 44.3127 96.9576 44.1866 96.9275 44.0637H104.779C104.749 44.1866 104.734 44.3127 104.734 44.4392ZM107.177 43.5629L107.363 43.9285C107.445 44.0862 107.488 44.2614 107.488 44.4392V54.3285H116.25V44.4392C116.251 44.2614 116.294 44.0862 116.376 43.9285L116.561 43.5629H107.177ZM115.75 44.4392V53.8278H107.989V44.4392C107.989 44.3127 107.974 44.1866 107.943 44.0637H115.795C115.765 44.1866 115.75 44.3127 115.75 44.4392ZM118.193 43.5629L118.379 43.9285C118.461 44.0862 118.504 44.2614 118.504 44.4392V54.3285H127.266V44.4392C127.267 44.2614 127.309 44.0862 127.392 43.9285L127.577 43.5629H118.193ZM126.766 44.4392V53.8278H119.004V44.4392C119.005 44.3127 118.989 44.1866 118.959 44.0637H126.811C126.781 44.1866 126.766 44.3127 126.766 44.4392ZM129.209 43.5629L129.394 43.9285C129.477 44.0862 129.52 44.2614 129.52 44.4392V54.3285H138.282V44.4392C138.282 44.2614 138.325 44.0862 138.408 43.9285L138.593 43.5629H129.209ZM137.782 44.4392V53.8278H130.02V44.4392C130.021 44.3127 130.005 44.1866 129.975 44.0637H137.827C137.797 44.1866 137.781 44.3127 137.782 44.4392ZM140.225 43.5629L140.41 43.9285C140.493 44.0862 140.535 44.2614 140.536 44.4392V54.3285H149.298V44.4392C149.298 44.2614 149.341 44.0862 149.423 43.9285L149.609 43.5629H140.225ZM148.798 44.4392V53.8278H141.036V44.4392C141.036 44.3127 141.021 44.1866 140.991 44.0637H148.843C148.813 44.1866 148.797 44.3127 148.798 44.4392ZM151.241 43.5629L151.426 43.9285C151.508 44.0862 151.551 44.2614 151.552 44.4392V54.3285H160.314V44.4392C160.314 44.2614 160.357 44.0862 160.439 43.9285L160.625 43.5629H151.241ZM159.813 44.4392V53.8278H152.052V44.4392C152.052 44.3127 152.037 44.1866 152.007 44.0637H159.859C159.828 44.1866 159.813 44.3127 159.813 44.4392ZM162.257 43.5629L162.442 43.9285C162.524 44.0862 162.567 44.2614 162.567 44.4392V54.3285H171.33V44.4392C171.33 44.2614 171.373 44.0862 171.455 43.9285L171.641 43.5629H162.257ZM170.829 44.4392V53.8278H163.068V44.4392C163.068 44.3127 163.053 44.1866 163.023 44.0637H170.875C170.844 44.1866 170.829 44.3127 170.829 44.4392ZM74.1295 43.5629L74.3148 43.9285C74.3969 44.0862 74.4399 44.2614 74.44 44.4392V54.3285H83.2027V44.4392C83.2028 44.2614 83.2457 44.0862 83.3278 43.9285L83.5132 43.5629H74.1295ZM82.7019 44.4392V53.8278H74.9407V44.4392C74.9408 44.3127 74.9257 44.1866 74.8956 44.0637H82.747C82.7169 44.1866 82.7018 44.3127 82.7019 44.4392ZM85.1454 43.5629L85.3307 43.9285C85.4129 44.0862 85.4558 44.2614 85.4559 44.4392V54.3285H94.2186V44.4392C94.2187 44.2614 94.2616 44.0862 94.3438 43.9285L94.5291 43.5629H85.1454ZM93.7179 44.4392V53.8278H85.9566V44.4392C85.9568 44.3127 85.9416 44.1866 85.9115 44.0637H93.763C93.7329 44.1866 93.7177 44.3127 93.7179 44.4392ZM96.1614 43.5629L96.3467 43.9285C96.4288 44.0862 96.4717 44.2614 96.4718 44.4392V54.3285H105.235V44.4392C105.235 44.2614 105.278 44.0862 105.36 43.9285L105.545 43.5629H96.1614ZM104.734 44.4392V53.8278H96.9726V44.4392C96.9727 44.3127 96.9576 44.1866 96.9275 44.0637H104.779C104.749 44.1866 104.734 44.3127 104.734 44.4392ZM107.177 43.5629L107.363 43.9285C107.445 44.0862 107.488 44.2614 107.488 44.4392V54.3285H116.25V44.4392C116.251 44.2614 116.294 44.0862 116.376 43.9285L116.561 43.5629H107.177ZM115.75 44.4392V53.8278H107.989V44.4392C107.989 44.3127 107.974 44.1866 107.943 44.0637H115.795C115.765 44.1866 115.75 44.3127 115.75 44.4392ZM118.193 43.5629L118.379 43.9285C118.461 44.0862 118.504 44.2614 118.504 44.4392V54.3285H127.266V44.4392C127.267 44.2614 127.309 44.0862 127.392 43.9285L127.577 43.5629H118.193ZM126.766 44.4392V53.8278H119.004V44.4392C119.005 44.3127 118.989 44.1866 118.959 44.0637H126.811C126.781 44.1866 126.766 44.3127 126.766 44.4392ZM129.209 43.5629L129.394 43.9285C129.477 44.0862 129.52 44.2614 129.52 44.4392V54.3285H138.282V44.4392C138.282 44.2614 138.325 44.0862 138.408 43.9285L138.593 43.5629H129.209ZM137.782 44.4392V53.8278H130.02V44.4392C130.021 44.3127 130.005 44.1866 129.975 44.0637H137.827C137.797 44.1866 137.781 44.3127 137.782 44.4392ZM140.225 43.5629L140.41 43.9285C140.493 44.0862 140.535 44.2614 140.536 44.4392V54.3285H149.298V44.4392C149.298 44.2614 149.341 44.0862 149.423 43.9285L149.609 43.5629H140.225ZM148.798 44.4392V53.8278H141.036V44.4392C141.036 44.3127 141.021 44.1866 140.991 44.0637H148.843C148.813 44.1866 148.797 44.3127 148.798 44.4392ZM151.241 43.5629L151.426 43.9285C151.508 44.0862 151.551 44.2614 151.552 44.4392V54.3285H160.314V44.4392C160.314 44.2614 160.357 44.0862 160.439 43.9285L160.625 43.5629H151.241ZM159.813 44.4392V53.8278H152.052V44.4392C152.052 44.3127 152.037 44.1866 152.007 44.0637H159.859C159.828 44.1866 159.813 44.3127 159.813 44.4392ZM162.257 43.5629L162.442 43.9285C162.524 44.0862 162.567 44.2614 162.567 44.4392V54.3285H171.33V44.4392C171.33 44.2614 171.373 44.0862 171.455 43.9285L171.641 43.5629H162.257ZM170.829 44.4392V53.8278H163.068V44.4392C163.068 44.3127 163.053 44.1866 163.023 44.0637H170.875C170.844 44.1866 170.829 44.3127 170.829 44.4392ZM74.1295 43.5629L74.3148 43.9285C74.3969 44.0862 74.4399 44.2614 74.44 44.4392V54.3285H83.2027V44.4392C83.2028 44.2614 83.2457 44.0862 83.3278 43.9285L83.5132 43.5629H74.1295ZM82.7019 44.4392V53.8278H74.9407V44.4392C74.9408 44.3127 74.9257 44.1866 74.8956 44.0637H82.747C82.7169 44.1866 82.7018 44.3127 82.7019 44.4392ZM85.1454 43.5629L85.3307 43.9285C85.4129 44.0862 85.4558 44.2614 85.4559 44.4392V54.3285H94.2186V44.4392C94.2187 44.2614 94.2616 44.0862 94.3438 43.9285L94.5291 43.5629H85.1454ZM93.7179 44.4392V53.8278H85.9566V44.4392C85.9568 44.3127 85.9416 44.1866 85.9115 44.0637H93.763C93.7329 44.1866 93.7177 44.3127 93.7179 44.4392ZM96.1614 43.5629L96.3467 43.9285C96.4288 44.0862 96.4717 44.2614 96.4718 44.4392V54.3285H105.235V44.4392C105.235 44.2614 105.278 44.0862 105.36 43.9285L105.545 43.5629H96.1614ZM104.734 44.4392V53.8278H96.9726V44.4392C96.9727 44.3127 96.9576 44.1866 96.9275 44.0637H104.779C104.749 44.1866 104.734 44.3127 104.734 44.4392ZM107.177 43.5629L107.363 43.9285C107.445 44.0862 107.488 44.2614 107.488 44.4392V54.3285H116.25V44.4392C116.251 44.2614 116.294 44.0862 116.376 43.9285L116.561 43.5629H107.177ZM115.75 44.4392V53.8278H107.989V44.4392C107.989 44.3127 107.974 44.1866 107.943 44.0637H115.795C115.765 44.1866 115.75 44.3127 115.75 44.4392ZM118.193 43.5629L118.379 43.9285C118.461 44.0862 118.504 44.2614 118.504 44.4392V54.3285H127.266V44.4392C127.267 44.2614 127.309 44.0862 127.392 43.9285L127.577 43.5629H118.193ZM126.766 44.4392V53.8278H119.004V44.4392C119.005 44.3127 118.989 44.1866 118.959 44.0637H126.811C126.781 44.1866 126.766 44.3127 126.766 44.4392ZM129.209 43.5629L129.394 43.9285C129.477 44.0862 129.52 44.2614 129.52 44.4392V54.3285H138.282V44.4392C138.282 44.2614 138.325 44.0862 138.408 43.9285L138.593 43.5629H129.209ZM137.782 44.4392V53.8278H130.02V44.4392C130.021 44.3127 130.005 44.1866 129.975 44.0637H137.827C137.797 44.1866 137.781 44.3127 137.782 44.4392ZM140.225 43.5629L140.41 43.9285C140.493 44.0862 140.535 44.2614 140.536 44.4392V54.3285H149.298V44.4392C149.298 44.2614 149.341 44.0862 149.423 43.9285L149.609 43.5629H140.225ZM148.798 44.4392V53.8278H141.036V44.4392C141.036 44.3127 141.021 44.1866 140.991 44.0637H148.843C148.813 44.1866 148.797 44.3127 148.798 44.4392ZM151.241 43.5629L151.426 43.9285C151.508 44.0862 151.551 44.2614 151.552 44.4392V54.3285H160.314V44.4392C160.314 44.2614 160.357 44.0862 160.439 43.9285L160.625 43.5629H151.241ZM159.813 44.4392V53.8278H152.052V44.4392C152.052 44.3127 152.037 44.1866 152.007 44.0637H159.859C159.828 44.1866 159.813 44.3127 159.813 44.4392ZM162.257 43.5629L162.442 43.9285C162.524 44.0862 162.567 44.2614 162.567 44.4392V54.3285H171.33V44.4392C171.33 44.2614 171.373 44.0862 171.455 43.9285L171.641 43.5629H162.257ZM170.829 44.4392V53.8278H163.068V44.4392C163.068 44.3127 163.053 44.1866 163.023 44.0637H170.875C170.844 44.1866 170.829 44.3127 170.829 44.4392Z" fill="#3F3D56"/>
<path d="M103.894 87.3764H85.4315C85.0427 87.3759 84.6699 87.2213 84.3949 86.9463C84.1199 86.6714 83.9653 86.2986 83.9648 85.9097V76.0746C83.9653 75.6857 84.1199 75.3129 84.3949 75.038C84.6699 74.763 85.0427 74.6083 85.4315 74.6079H103.894C104.283 74.6083 104.656 74.763 104.931 75.038C105.206 75.3129 105.36 75.6857 105.361 76.0746V85.9097C105.36 86.2986 105.206 86.6714 104.931 86.9463C104.656 87.2213 104.283 87.3759 103.894 87.3764Z" fill="#FF6C11"/>
<path d="M131.992 87.3764H113.529C113.14 87.3759 112.768 87.2213 112.493 86.9463C112.218 86.6714 112.063 86.2986 112.062 85.9097V76.0746C112.063 75.6857 112.218 75.3129 112.493 75.038C112.768 74.763 113.14 74.6083 113.529 74.6079H131.992C132.381 74.6083 132.753 74.763 133.028 75.038C133.303 75.3129 133.458 75.6857 133.458 76.0746V85.9097C133.458 86.2986 133.303 86.6714 133.028 86.9463C132.753 87.2213 132.381 87.3759 131.992 87.3764Z" fill="#FF6C11"/>
<path d="M160.085 87.3764H141.623C141.234 87.3759 140.861 87.2213 140.586 86.9463C140.311 86.6714 140.157 86.2986 140.156 85.9097V76.0746C140.157 75.6857 140.311 75.3129 140.586 75.038C140.861 74.763 141.234 74.6083 141.623 74.6079H160.085C160.474 74.6083 160.847 74.763 161.122 75.038C161.397 75.3129 161.552 75.6857 161.552 76.0746V85.9097C161.552 86.2986 161.397 86.6714 161.122 86.9463C160.847 87.2213 160.474 87.3759 160.085 87.3764Z" fill="#FF6C11"/>
<path d="M103.894 120.174H85.4315C85.0427 120.174 84.6699 120.019 84.3949 119.744C84.1199 119.469 83.9653 119.096 83.9648 118.707V108.872C83.9653 108.483 84.1199 108.111 84.3949 107.836C84.6699 107.561 85.0427 107.406 85.4315 107.406H103.894C104.283 107.406 104.656 107.561 104.931 107.836C105.206 108.111 105.36 108.483 105.361 108.872V118.707C105.36 119.096 105.206 119.469 104.931 119.744C104.656 120.019 104.283 120.174 103.894 120.174Z" fill="#FF6C11"/>
<path d="M131.992 120.174H113.529C113.14 120.174 112.768 120.019 112.493 119.744C112.218 119.469 112.063 119.096 112.062 118.707V108.872C112.063 108.483 112.218 108.111 112.493 107.836C112.768 107.561 113.14 107.406 113.529 107.406H131.992C132.381 107.406 132.753 107.561 133.028 107.836C133.303 108.111 133.458 108.483 133.458 108.872V118.707C133.458 119.096 133.303 119.469 133.028 119.744C132.753 120.019 132.381 120.174 131.992 120.174Z" fill="#FF6C11"/>
<path d="M160.085 120.174H141.623C141.234 120.174 140.861 120.019 140.586 119.744C140.311 119.469 140.157 119.096 140.156 118.707V108.872C140.157 108.483 140.311 108.111 140.586 107.836C140.861 107.561 141.234 107.406 141.623 107.406H160.085C160.474 107.406 160.847 107.561 161.122 107.836C161.397 108.111 161.552 108.483 161.552 108.872V118.707C161.552 119.096 161.397 119.469 161.122 119.744C160.847 120.019 160.474 120.174 160.085 120.174Z" fill="#FF6C11"/>
<path d="M103.894 152.971H85.4315C85.0427 152.971 84.6699 152.816 84.3949 152.541C84.1199 152.266 83.9653 151.894 83.9648 151.505V141.67C83.9653 141.281 84.1199 140.908 84.3949 140.633C84.6699 140.358 85.0427 140.203 85.4315 140.203H103.894C104.283 140.203 104.656 140.358 104.931 140.633C105.206 140.908 105.36 141.281 105.361 141.67V151.505C105.36 151.894 105.206 152.266 104.931 152.541C104.656 152.816 104.283 152.971 103.894 152.971Z" fill="#FF6C11"/>
<path d="M131.992 152.971H113.529C113.14 152.971 112.768 152.816 112.493 152.541C112.218 152.266 112.063 151.894 112.062 151.505V141.67C112.063 141.281 112.218 140.908 112.493 140.633C112.768 140.358 113.14 140.203 113.529 140.203H131.992C132.381 140.203 132.753 140.358 133.028 140.633C133.303 140.908 133.458 141.281 133.458 141.67V151.505C133.458 151.894 133.303 152.266 133.028 152.541C132.753 152.816 132.381 152.971 131.992 152.971Z" fill="#FF6C11"/>
<path d="M160.085 152.971H141.623C141.234 152.971 140.861 152.816 140.586 152.541C140.311 152.266 140.157 151.894 140.156 151.505V141.67C140.157 141.281 140.311 140.908 140.586 140.633C140.861 140.358 141.234 140.203 141.623 140.203H160.085C160.474 140.203 160.847 140.358 161.122 140.633C161.397 140.908 161.552 141.281 161.552 141.67V151.505C161.552 151.894 161.397 152.266 161.122 152.541C160.847 152.816 160.474 152.971 160.085 152.971Z" fill="#FF6C11"/>
<path d="M100.907 88.6383H79.5197C79.0029 88.6377 78.5074 88.4321 78.1419 88.0667C77.7765 87.7012 77.5709 87.2057 77.5703 86.6889V75.2954C77.5709 74.7786 77.7765 74.2831 78.1419 73.9176C78.5074 73.5521 79.0029 73.3465 79.5197 73.3459H100.907C101.424 73.3465 101.92 73.5521 102.285 73.9176C102.651 74.2831 102.856 74.7786 102.857 75.2954V86.6889C102.856 87.2057 102.651 87.7012 102.285 88.0667C101.92 88.4321 101.424 88.6377 100.907 88.6383ZM79.5197 73.8467C79.1356 73.8471 78.7674 73.9999 78.4958 74.2715C78.2242 74.5431 78.0715 74.9113 78.071 75.2954V86.6889C78.0715 87.0729 78.2242 87.4412 78.4958 87.7128C78.7674 87.9844 79.1356 88.1372 79.5197 88.1376H100.907C101.292 88.1372 101.66 87.9844 101.931 87.7128C102.203 87.4412 102.356 87.0729 102.356 86.6889V75.2954C102.356 74.9113 102.203 74.5431 101.931 74.2715C101.66 73.9999 101.292 73.8471 100.907 73.8467H79.5197Z" fill="#3F3D56"/>
<path d="M133.454 88.6383H112.067C111.55 88.6377 111.054 88.4321 110.689 88.0667C110.323 87.7012 110.118 87.2057 110.117 86.6889V75.2954C110.118 74.7786 110.323 74.2831 110.689 73.9176C111.054 73.5521 111.55 73.3465 112.067 73.3459H133.454C133.971 73.3465 134.467 73.5521 134.832 73.9176C135.198 74.2831 135.403 74.7786 135.404 75.2954V86.6889C135.403 87.2057 135.198 87.7012 134.832 88.0667C134.467 88.4321 133.971 88.6377 133.454 88.6383ZM112.067 73.8467C111.683 73.8471 111.314 73.9999 111.043 74.2715C110.771 74.5431 110.618 74.9113 110.618 75.2954V86.6889C110.618 87.0729 110.771 87.4412 111.043 87.7128C111.314 87.9844 111.683 88.1372 112.067 88.1376H133.454C133.838 88.1372 134.207 87.9844 134.478 87.7128C134.75 87.4412 134.903 87.0729 134.903 86.6889V75.2954C134.903 74.9113 134.75 74.5431 134.478 74.2715C134.207 73.9999 133.838 73.8471 133.454 73.8467H112.067Z" fill="#3F3D56"/>
<path d="M166.001 88.6383H144.613C144.097 88.6377 143.601 88.4321 143.236 88.0667C142.87 87.7012 142.665 87.2057 142.664 86.6889V75.2954C142.665 74.7786 142.87 74.2831 143.236 73.9176C143.601 73.5521 144.097 73.3465 144.613 73.3459H166.001C166.518 73.3465 167.014 73.5521 167.379 73.9176C167.744 74.2831 167.95 74.7786 167.951 75.2954V86.6889C167.95 87.2057 167.744 87.7012 167.379 88.0667C167.014 88.4321 166.518 88.6377 166.001 88.6383ZM144.613 73.8467C144.229 73.8471 143.861 73.9999 143.59 74.2715C143.318 74.5431 143.165 74.9113 143.165 75.2954V86.6889C143.165 87.0729 143.318 87.4412 143.59 87.7128C143.861 87.9844 144.229 88.1372 144.613 88.1376H166.001C166.385 88.1372 166.754 87.9844 167.025 87.7128C167.297 87.4412 167.449 87.0729 167.45 86.6889V75.2954C167.449 74.9113 167.297 74.5431 167.025 74.2715C166.754 73.9999 166.385 73.8471 166.001 73.8467H144.613Z" fill="#3F3D56"/>
<path d="M100.907 121.436H79.5197C79.0029 121.435 78.5074 121.23 78.1419 120.864C77.7765 120.499 77.5709 120.003 77.5703 119.486V108.093C77.5709 107.576 77.7765 107.08 78.1419 106.715C78.5074 106.349 79.0029 106.144 79.5197 106.143H100.907C101.424 106.144 101.92 106.349 102.285 106.715C102.651 107.08 102.856 107.576 102.857 108.093V119.486C102.856 120.003 102.651 120.499 102.285 120.864C101.92 121.23 101.424 121.435 100.907 121.436ZM79.5197 106.644C79.1356 106.644 78.7674 106.797 78.4958 107.069C78.2242 107.34 78.0715 107.709 78.071 108.093V119.486C78.0715 119.87 78.2242 120.239 78.4958 120.51C78.7674 120.782 79.1356 120.935 79.5197 120.935H100.907C101.292 120.935 101.66 120.782 101.931 120.51C102.203 120.239 102.356 119.87 102.356 119.486V108.093C102.356 107.709 102.203 107.34 101.931 107.069C101.66 106.797 101.292 106.644 100.907 106.644H79.5197Z" fill="#3F3D56"/>
<path d="M133.454 121.436H112.067C111.55 121.435 111.054 121.23 110.689 120.864C110.323 120.499 110.118 120.003 110.117 119.486V108.093C110.118 107.576 110.323 107.08 110.689 106.715C111.054 106.349 111.55 106.144 112.067 106.143H133.454C133.971 106.144 134.467 106.349 134.832 106.715C135.198 107.08 135.403 107.576 135.404 108.093V119.486C135.403 120.003 135.198 120.499 134.832 120.864C134.467 121.23 133.971 121.435 133.454 121.436ZM112.067 106.644C111.683 106.644 111.314 106.797 111.043 107.069C110.771 107.34 110.618 107.709 110.618 108.093V119.486C110.618 119.87 110.771 120.239 111.043 120.51C111.314 120.782 111.683 120.935 112.067 120.935H133.454C133.838 120.935 134.207 120.782 134.478 120.51C134.75 120.239 134.903 119.87 134.903 119.486V108.093C134.903 107.709 134.75 107.34 134.478 107.069C134.207 106.797 133.838 106.644 133.454 106.644H112.067Z" fill="#3F3D56"/>
<path d="M166.001 121.436H144.613C144.097 121.435 143.601 121.23 143.236 120.864C142.87 120.499 142.665 120.003 142.664 119.486V108.093C142.665 107.576 142.87 107.08 143.236 106.715C143.601 106.349 144.097 106.144 144.613 106.143H166.001C166.518 106.144 167.014 106.349 167.379 106.715C167.744 107.08 167.95 107.576 167.951 108.093V119.486C167.95 120.003 167.744 120.499 167.379 120.864C167.014 121.23 166.518 121.435 166.001 121.436ZM144.613 106.644C144.229 106.644 143.861 106.797 143.59 107.069C143.318 107.34 143.165 107.709 143.165 108.093V119.486C143.165 119.87 143.318 120.239 143.59 120.51C143.861 120.782 144.229 120.935 144.613 120.935H166.001C166.385 120.935 166.754 120.782 167.025 120.51C167.297 120.239 167.449 119.87 167.45 119.486V108.093C167.449 107.709 167.297 107.34 167.025 107.069C166.754 106.797 166.385 106.644 166.001 106.644H144.613Z" fill="#3F3D56"/>
<path d="M100.907 154.233H79.5197C79.0029 154.232 78.5074 154.027 78.1419 153.661C77.7765 153.296 77.5709 152.8 77.5703 152.284V140.89C77.5709 140.373 77.7765 139.878 78.1419 139.512C78.5074 139.147 79.0029 138.941 79.5197 138.941H100.907C101.424 138.941 101.92 139.147 102.285 139.512C102.651 139.878 102.856 140.373 102.857 140.89V152.284C102.856 152.8 102.651 153.296 102.285 153.661C101.92 154.027 101.424 154.232 100.907 154.233ZM79.5197 139.441C79.1356 139.442 78.7674 139.595 78.4958 139.866C78.2242 140.138 78.0715 140.506 78.071 140.89V152.284C78.0715 152.668 78.2242 153.036 78.4958 153.308C78.7674 153.579 79.1356 153.732 79.5197 153.732H100.907C101.292 153.732 101.66 153.579 101.931 153.308C102.203 153.036 102.356 152.668 102.356 152.284V140.89C102.356 140.506 102.203 140.138 101.931 139.866C101.66 139.595 101.292 139.442 100.907 139.441H79.5197Z" fill="#3F3D56"/>
<path d="M133.454 154.233H112.067C111.55 154.232 111.054 154.027 110.689 153.661C110.323 153.296 110.118 152.8 110.117 152.284V140.89C110.118 140.373 110.323 139.878 110.689 139.512C111.054 139.147 111.55 138.941 112.067 138.941H133.454C133.971 138.941 134.467 139.147 134.832 139.512C135.198 139.878 135.403 140.373 135.404 140.89V152.284C135.403 152.8 135.198 153.296 134.832 153.661C134.467 154.027 133.971 154.232 133.454 154.233ZM112.067 139.441C111.683 139.442 111.314 139.595 111.043 139.866C110.771 140.138 110.618 140.506 110.618 140.89V152.284C110.618 152.668 110.771 153.036 111.043 153.308C111.314 153.579 111.683 153.732 112.067 153.732H133.454C133.838 153.732 134.207 153.579 134.478 153.308C134.75 153.036 134.903 152.668 134.903 152.284V140.89C134.903 140.506 134.75 140.138 134.478 139.866C134.207 139.595 133.838 139.442 133.454 139.441H112.067Z" fill="#3F3D56"/>
<path d="M166.001 154.233H144.613C144.097 154.232 143.601 154.027 143.236 153.661C142.87 153.296 142.665 152.8 142.664 152.284V140.89C142.665 140.373 142.87 139.878 143.236 139.512C143.601 139.147 144.097 138.941 144.613 138.941H166.001C166.518 138.941 167.014 139.147 167.379 139.512C167.744 139.878 167.95 140.373 167.951 140.89V152.284C167.95 152.8 167.744 153.296 167.379 153.661C167.014 154.027 166.518 154.232 166.001 154.233ZM144.613 139.441C144.229 139.442 143.861 139.595 143.59 139.866C143.318 140.138 143.165 140.506 143.165 140.89V152.284C143.165 152.668 143.318 153.036 143.59 153.308C143.861 153.579 144.229 153.732 144.613 153.732H166.001C166.385 153.732 166.754 153.579 167.025 153.308C167.297 153.036 167.449 152.668 167.45 152.284V140.89C167.449 140.506 167.297 140.138 167.025 139.866C166.754 139.595 166.385 139.442 166.001 139.441H144.613Z" fill="#3F3D56"/>
<path d="M253.131 192.904H0.765987C0.699587 192.904 0.635906 192.878 0.588954 192.831C0.542002 192.784 0.515625 192.72 0.515625 192.654C0.515625 192.587 0.542002 192.524 0.588954 192.477C0.635906 192.43 0.699587 192.403 0.765987 192.403H253.131C253.197 192.403 253.261 192.43 253.308 192.477C253.355 192.524 253.381 192.587 253.381 192.654C253.381 192.72 253.355 192.784 253.308 192.831C253.261 192.878 253.197 192.904 253.131 192.904Z" fill="#3F3D56"/>
<path d="M135.405 168.672C135.412 168.1 135.192 167.55 134.793 167.141C134.393 166.732 133.848 166.498 133.277 166.491H122.762V192.403H135.405V168.672Z" fill="#3F3D56"/>
<path d="M123.011 192.153H109.867V168.744C109.868 168.114 110.119 167.509 110.565 167.063C111.01 166.617 111.615 166.366 112.246 166.366H123.011V192.153ZM110.368 191.652H122.51V166.866H112.246C111.748 166.867 111.271 167.065 110.918 167.417C110.566 167.769 110.368 168.246 110.368 168.744V191.652Z" fill="#3F3D56"/>
<path d="M111.493 181.012C111.908 181.012 112.244 180.675 112.244 180.261C112.244 179.846 111.908 179.51 111.493 179.51C111.078 179.51 110.742 179.846 110.742 180.261C110.742 180.675 111.078 181.012 111.493 181.012Z" fill="#3F3D56"/>
</g>
<defs>
<clipPath id="clip0_1163_274">
<rect width="252.866" height="192.92" fill="white" transform="translate(0.515625)"/>
</clipPath>
</defs>
</svg>
